<svg width="48" height="48" viewBox="0 0 48 48" fill="none" xmlns="http://www.w3.org/2000/svg">
<path d="M24 48C37.2548 48 48 37.2548 48 24C48 10.7452 37.2548 0 24 0C10.7452 0 0 10.7452 0 24C0 37.2548 10.7452 48 24 48Z" fill="#4F4F4F"/>
<path d="M35.0001 14.6667H30.7734L28.3334 12H20.3334L17.8933 14.6667H13.6667C12.2 14.6667 11 15.8667 11 17.3333V33.3333C11 34.8 12.2 36 13.6667 36H35.0001C36.4667 36 37.6667 34.8 37.6667 33.3333V17.3333C37.6667 15.8667 36.4667 14.6667 35.0001 14.6667ZM35.0001 33.3333H13.6667V17.3333H19.0667L21.5067 14.6667H27.16L29.6001 17.3333H35.0001V33.3333ZM24.3334 18.6667C20.6534 18.6667 17.6667 21.6533 17.6667 25.3333C17.6667 29.0133 20.6534 32 24.3334 32C28.0134 32 31 29.0133 31 25.3333C31 21.6533 28.0134 18.6667 24.3334 18.6667ZM24.3334 29.3333C22.1334 29.3333 20.3334 27.5333 20.3334 25.3333C20.3334 23.1333 22.1334 21.3333 24.3334 21.3333C26.5334 21.3333 28.3334 23.1333 28.3334 25.3333C28.3334 27.5333 26.5334 29.3333 24.3334 29.3333Z" fill="white"/>
</svg>
