<svg width="64" height="64" viewBox="0 0 64 64" fill="none" xmlns="http://www.w3.org/2000/svg">
<path d="M32 0C14.4 0 0 14.4 0 32C0 49.6 14.4 64 32 64C49.6 64 64 49.6 64 32C64 14.4 49.6 0 32 0ZM32 58.7C17.3 58.7 5.3 46.7 5.3 32C5.3 17.3 17.3 5.3 32 5.3C46.7 5.3 58.7 17.3 58.7 32C58.7 46.7 46.7 58.7 32 58.7Z" fill="#B3561B"/>
<path d="M40.8001 22.1001L28.5001 34.1001L22.9001 28.8001C21.8001 27.7001 20.2001 27.7001 19.2001 28.8001C18.2001 29.9001 18.1001 31.5001 19.2001 32.5001L25.9001 38.9001C26.7001 39.7001 27.5001 40.0001 28.3001 40.0001C29.1001 40.0001 30.2001 39.7001 30.7001 38.9001L44.3001 25.8001C45.4001 24.7001 45.4001 23.1001 44.3001 22.1001C43.5001 21.1001 41.9001 21.1001 40.8001 22.1001Z" fill="#B3561B"/>
</svg>
