<svg width="64" height="65" viewBox="0 0 64 65" fill="none" xmlns="http://www.w3.org/2000/svg">
<g clip-path="url(#clip0)">
<path d="M51.9385 56.5842L49.5488 49.4142C48.7137 46.9109 46.5831 45.0632 43.986 44.5904L37.0874 43.3352V42.8005C38.2879 42.1037 39.3326 41.1716 40.1646 40.0681H42.2487C43.9561 40.0681 45.3455 38.6787 45.3455 36.9713V24.5842C45.3455 17.185 39.3253 11.1649 31.9261 11.1649C24.5269 11.1649 18.5068 17.185 18.5068 24.5842V31.81C18.5068 33.8002 19.922 35.4652 21.7986 35.8534C22.3777 38.8201 24.2317 41.3305 26.7648 42.8005V43.3352L19.8652 44.5904C17.2691 45.0632 15.1375 46.9109 14.3034 49.4142L13.8905 50.6539L10.3746 47.138C9.97205 46.7354 9.97205 46.08 10.3746 45.6774L14.4521 41.601L6.79889 33.9478L2.19089 38.5558C0.826244 39.9205 0.0747604 41.7352 0.0747604 43.6655C0.0747604 45.5958 0.826244 47.4095 2.19089 48.7741L16.1419 62.7251C17.5065 64.0898 19.3212 64.8423 21.2515 64.8423C23.1819 64.8423 24.9955 64.0898 26.3282 62.7561L31.3563 58.1491L29.7883 56.5842H51.9385ZM43.281 36.9713C43.281 37.5411 42.8175 38.0036 42.2487 38.0036H41.3806C41.6799 37.3212 41.907 36.6018 42.0536 35.8534C42.4954 35.7615 42.9021 35.586 43.281 35.3651V36.9713ZM42.2487 33.5876V30.0325C42.8629 30.3907 43.281 31.0492 43.281 31.81C43.281 32.5708 42.8629 33.2294 42.2487 33.5876ZM21.6035 33.5876C20.9893 33.2294 20.5713 32.5708 20.5713 31.81C20.5713 31.0492 20.9893 30.3907 21.6035 30.0325V33.5876ZM21.6035 26.6487V27.8276C21.236 27.9236 20.8913 28.0681 20.5713 28.2549V24.5842C20.5713 18.3236 25.6655 13.2294 31.9261 13.2294C38.1868 13.2294 43.281 18.3236 43.281 24.5842V28.2549C42.961 28.0681 42.6162 27.9225 42.2487 27.8276V26.6487H41.2164C38.1641 26.6487 35.2944 25.4596 33.1349 23.3011L31.9261 22.0923L30.7173 23.3011C28.5579 25.4596 25.6882 26.6487 22.6358 26.6487H21.6035ZM23.668 33.8745V28.674C26.7679 28.4407 29.6582 27.1618 31.9261 25.0054C34.194 27.1618 37.0843 28.4418 40.1842 28.674V33.8745C40.1842 35.3796 39.7733 36.7876 39.0673 38.0036H31.9261V40.0681H37.3702C35.9148 41.3491 34.0123 42.1326 31.9261 42.1326C27.3728 42.1326 23.668 38.4278 23.668 33.8745ZM35.0229 43.7212V43.7698L31.9261 46.8665L28.8293 43.7698V43.7212C29.8079 44.0289 30.8474 44.1971 31.9261 44.1971C33.0048 44.1971 34.0443 44.0289 35.0229 43.7212ZM16.2606 50.0665C16.8562 48.2787 18.3788 46.9584 20.2337 46.6198L27.4492 45.3089L31.9261 49.7858L36.402 45.3099L43.6164 46.6209C45.4714 46.9594 46.994 48.2787 47.5896 50.0676L49.075 54.5197H27.7238L23.7031 50.4991L19.2355 54.5403C18.8464 54.9316 18.1661 54.9316 17.7759 54.5403L15.5215 52.2859L16.2606 50.0665ZM6.79786 36.8671L11.5318 41.601L10.4108 42.722L5.67682 37.9881L6.79786 36.8671ZM24.8985 61.2676C23.9241 62.24 22.6275 62.7778 21.2495 62.7778C19.8714 62.7778 18.5749 62.24 17.5994 61.2655L3.64844 47.3156C2.67399 46.3411 2.13721 45.0446 2.13721 43.6665C2.13721 42.2874 2.67399 40.9909 3.64844 40.0165L4.21618 39.4487L8.95011 44.1827L8.91295 44.2198C7.70624 45.4276 7.70624 47.392 8.91295 48.5997L16.3153 56.002C16.9006 56.5863 17.6779 56.9094 18.5057 56.9094C19.3336 56.9094 20.1109 56.5873 20.658 56.0382L20.7354 55.969L25.491 60.7246L24.8985 61.2676ZM27.0146 59.3269L22.2693 54.5816L23.633 53.3491L28.37 58.0862L27.0146 59.3269Z" fill="white"/>
<path d="M60.8292 0.842285H46.3776C44.6702 0.842285 43.2808 2.2317 43.2808 3.93906V12.1971C43.2808 13.9045 44.6702 15.2939 46.3776 15.2939H49.1347L48.0674 21.5194L58.0287 15.2939H60.8292C62.5365 15.2939 63.926 13.9045 63.926 12.1971V3.93906C63.926 2.2317 62.5365 0.842285 60.8292 0.842285ZM61.8615 12.1971C61.8615 12.7659 61.398 13.2294 60.8292 13.2294H57.4362L50.8803 17.3264L51.5833 13.2294H46.3776C45.8088 13.2294 45.3453 12.7659 45.3453 12.1971V3.93906C45.3453 3.37029 45.8088 2.9068 46.3776 2.9068H60.8292C61.398 2.9068 61.8615 3.37029 61.8615 3.93906V12.1971Z" fill="white"/>
<path d="M59.7969 4.97131H47.4098V7.03583H59.7969V4.97131Z" fill="white"/>
<path d="M55.6679 9.10034H47.4098V11.1649H55.6679V9.10034Z" fill="white"/>
<path d="M59.797 9.10034H57.7325V11.1649H59.797V9.10034Z" fill="white"/>
<path d="M31.9264 3.93906C18.439 3.93906 6.82089 13.2686 3.80051 26.2823L1.84438 23.0214L0.0740547 24.0836L3.70244 30.1295L9.74838 26.5011L8.68618 24.7308L5.88876 26.4093C8.81418 14.5042 19.5197 6.00357 31.9264 6.00357C34.6382 6.00357 37.3138 6.40615 39.879 7.20099L40.4901 5.22938C37.7267 4.3726 34.8457 3.93906 31.9264 3.93906Z" fill="white"/>
<path d="M63.4244 23.6985L57.3784 20.0702L53.7511 26.1171L55.5214 27.1793L57.3278 24.1682C58.2786 26.9502 58.7648 29.8601 58.7648 32.8423C58.7648 38.9811 56.6383 44.9827 52.7787 49.7404L54.3818 51.041C58.5397 45.9169 60.8293 39.4529 60.8293 32.8423C60.8293 29.6846 60.3204 26.6013 59.3284 23.649L62.3622 25.4689L63.4244 23.6985Z" fill="white"/>
</g>
<defs>
<clipPath id="clip0">
<rect width="64" height="64" fill="white" transform="translate(0 0.842285)"/>
</clipPath>
</defs>
</svg>
