<svg width="48" height="48" viewBox="0 0 48 48" fill="none" xmlns="http://www.w3.org/2000/svg">
<circle cx="24" cy="24" r="24" fill="#4F4F4F"/>
<path d="M34.6666 13.3333H30.44L28 10.6667H20L17.56 13.3333H13.3333C11.8666 13.3333 10.6666 14.5333 10.6666 16V32C10.6666 33.4667 11.8666 34.6667 13.3333 34.6667H34.6666C36.1333 34.6667 37.3333 33.4667 37.3333 32V16C37.3333 14.5333 36.1333 13.3333 34.6666 13.3333ZM34.6666 32H13.3333V16H18.7333L21.1733 13.3333H26.8266L29.2666 16H34.6666V32ZM24 17.3333C20.32 17.3333 17.3333 20.32 17.3333 24C17.3333 27.68 20.32 30.6667 24 30.6667C27.68 30.6667 30.6666 27.68 30.6666 24C30.6666 20.32 27.68 17.3333 24 17.3333ZM24 28C21.8 28 20 26.2 20 24C20 21.8 21.8 20 24 20C26.2 20 28 21.8 28 24C28 26.2 26.2 28 24 28Z" fill="white"/>
</svg>
