<svg width="25" height="25" viewBox="0 0 25 25" fill="none" xmlns="http://www.w3.org/2000/svg">
<g clip-path="url(#clip0)">
<path d="M17.6234 2.0415H7.62341C4.86199 2.0415 2.62341 4.28008 2.62341 7.0415V17.0415C2.62341 19.8029 4.86199 22.0415 7.62341 22.0415H17.6234C20.3848 22.0415 22.6234 19.8029 22.6234 17.0415V7.0415C22.6234 4.28008 20.3848 2.0415 17.6234 2.0415Z" stroke="white" stroke-width="2" stroke-linecap="round" stroke-linejoin="round"/>
<path d="M16.6234 11.4115C16.7468 12.2437 16.6047 13.0937 16.2172 13.8405C15.8297 14.5873 15.2166 15.1929 14.4651 15.5712C13.7135 15.9494 12.8619 16.0811 12.0312 15.9474C11.2006 15.8138 10.4332 15.4216 9.83826 14.8267C9.24334 14.2317 8.85116 13.4644 8.71749 12.6337C8.58383 11.8031 8.71549 10.9514 9.09375 10.1999C9.47201 9.44835 10.0776 8.83524 10.8244 8.44774C11.5712 8.06024 12.4212 7.91809 13.2534 8.0415C14.1023 8.16738 14.8883 8.56296 15.4951 9.16981C16.102 9.77665 16.4975 10.5626 16.6234 11.4115Z" stroke="white" stroke-width="2" stroke-linecap="round" stroke-linejoin="round"/>
</g>
<defs>
<clipPath id="clip0">
<rect width="24" height="24" fill="white" transform="translate(0.623413 0.0415039)"/>
</clipPath>
</defs>
</svg>
