<svg width="25" height="25" viewBox="0 0 25 25" fill="none" xmlns="http://www.w3.org/2000/svg">
<g clip-path="url(#clip0_7959:30230)">
<path d="M17.5938 2.04297H7.59375C4.83233 2.04297 2.59375 4.28154 2.59375 7.04297V17.043C2.59375 19.8044 4.83233 22.043 7.59375 22.043H17.5938C20.3552 22.043 22.5938 19.8044 22.5938 17.043V7.04297C22.5938 4.28154 20.3552 2.04297 17.5938 2.04297Z" stroke="#333333" stroke-width="2" stroke-linecap="round" stroke-linejoin="round"/>
<path d="M16.5935 11.4133C16.7169 12.2455 16.5747 13.0955 16.1872 13.8423C15.7997 14.5891 15.1866 15.1947 14.4351 15.5729C13.6836 15.9512 12.8319 16.0829 12.0012 15.9492C11.1706 15.8155 10.4032 15.4234 9.8083 14.8284C9.21337 14.2335 8.82119 13.4661 8.68752 12.6355C8.55386 11.8048 8.68552 10.9532 9.06378 10.2016C9.44204 9.45012 10.0476 8.83701 10.7944 8.44951C11.5412 8.06201 12.3912 7.91986 13.2235 8.04327C14.0724 8.16915 14.8583 8.56473 15.4652 9.17158C16.072 9.77842 16.4676 10.5643 16.5935 11.4133Z" stroke="#333333" stroke-width="2" stroke-linecap="round" stroke-linejoin="round"/>
</g>
<defs>
<clipPath id="clip0_7959:30230">
<rect width="24" height="24" fill="white" transform="translate(0.59375 0.0429688)"/>
</clipPath>
</defs>
</svg>
