<svg width="296" height="283" viewBox="0 0 296 283" fill="none" xmlns="http://www.w3.org/2000/svg">
<path d="M148.725 282.263C230.063 282.263 296.001 247.929 296.001 205.575C296.001 163.222 230.063 128.888 148.725 128.888C67.3861 128.888 1.44824 163.222 1.44824 205.575C1.44824 247.929 67.3861 282.263 148.725 282.263Z" fill="#F5F5F5"/>
<path d="M243.076 215.594C264.771 215.594 282.358 205.439 282.358 192.913C282.358 180.387 264.771 170.232 243.076 170.232C221.381 170.232 203.794 180.387 203.794 192.913C203.794 205.439 221.381 215.594 243.076 215.594Z" fill="#E6E6E6"/>
<path d="M84.8777 179.451C99.9058 188.128 100.518 202.454 85.4838 211.131C70.4493 219.809 45.4799 219.551 30.4453 210.874C15.4108 202.196 15.4173 188.128 30.4453 179.451C45.4734 170.773 69.8368 170.773 84.8777 179.451Z" fill="#E6E6E6"/>
<path d="M207.462 226.21L158.129 197.727C157.264 197.288 156.307 197.06 155.337 197.06C154.367 197.06 153.411 197.288 152.546 197.727L103.213 226.21C101.672 227.1 101.672 228.544 103.213 229.434L125.681 242.405L104.696 254.519C100.434 256.976 93.4972 256.976 89.2228 254.519L56.2139 235.462C54.3959 234.411 53.3901 233.089 53.3901 231.748C53.3901 230.407 54.3959 229.079 56.2139 228.028L85.4642 211.137C85.6183 211.056 85.7545 210.946 85.8646 210.811C85.9747 210.676 86.0564 210.521 86.1049 210.354C86.1533 210.187 86.1675 210.012 86.1465 209.839C86.1255 209.666 86.0699 209.5 85.9829 209.349C85.8958 209.199 85.7792 209.067 85.6401 208.963C85.501 208.859 85.3422 208.784 85.1733 208.742C85.0044 208.701 84.8288 208.694 84.6573 208.722C84.4857 208.75 84.3215 208.813 84.1748 208.906L54.9374 225.785C52.2877 227.319 50.8242 229.434 50.8242 231.742C50.8242 234.05 52.2877 236.158 54.9374 237.692L87.9463 256.75C90.7375 258.188 93.8321 258.939 96.9722 258.939C100.112 258.939 103.207 258.188 105.998 256.75L128.273 243.895L152.571 257.917C153.437 258.356 154.393 258.584 155.363 258.584C156.333 258.584 157.29 258.356 158.155 257.917L207.487 229.434C209.002 228.544 209.002 227.1 207.462 226.21Z" fill="#E6E6E6"/>
<path d="M263.836 182.263C263.836 182.263 265.628 155.714 265.126 145.927C264.707 138.191 263.656 134.967 263.436 133.22C263.436 133.22 261.535 115.168 261.38 99.7663C261.302 92.3651 260.619 87.1043 256.564 78.3105L230.498 84.5448C229.97 88.4517 228.178 114.433 227.752 137.533C227.385 157.757 227.958 175.461 227.958 175.461V176.525C227.958 177.711 227.7 178.536 226.94 180.432C225.989 182.874 224.623 185.133 222.904 187.111C222.369 187.691 218.649 190.94 218.159 191.624C216.56 193.487 219.874 194.538 222.33 194.203C224.909 193.854 228.945 192.868 230.067 191.295C230.827 190.238 231.401 186.556 232.181 185.493C234.818 181.895 235.901 180.335 235.92 179.2C235.959 177.124 235.244 176.306 234.986 175.132C235.198 172.682 240.491 152.535 240.582 145.398C240.627 142.001 240.395 137.32 240.395 137.32L244.495 113.776C246.081 119.655 248.866 134.252 249.807 139.854C250.949 146.701 253.933 164.275 255.7 174.758C256.377 178.801 256.693 180.844 256.989 182.72L257.06 183.52C257.118 184.539 257.86 195.434 258.259 197.703C259.098 202.468 263.333 201.868 264.01 198.013C264.59 194.738 263.868 184.577 263.849 183.333L263.836 182.263Z" fill="#FFA8A7"/>
<path d="M263.836 182.263C265.035 182.263 264.249 186.911 264.558 189.883C264.887 193.074 265.932 195.408 266.235 198.019C266.641 200.301 266.29 202.654 265.235 204.718C264.404 206.652 260.213 209.231 258.621 206.516C257.028 203.802 256.687 200.663 256.873 197.684C257.06 194.706 256.873 192.707 256.931 190.367C256.99 188.304 255.474 183.036 257.028 182.74L257.099 183.539C257.66 184.655 263.321 184.874 263.888 183.365L263.836 182.263Z" fill="#37474F"/>
<path d="M236.191 181.734C236.558 183.224 236.191 187.311 236.191 187.311C236.191 187.311 235.546 188.723 233.244 189.658L232.213 183.972L236.191 181.734Z" fill="#263238"/>
<path d="M233.232 189.657L228.164 187.993L226.939 183.493L232.639 186.375L233.232 189.657Z" fill="black"/>
<path d="M227.958 176.524V175.461C227.268 175.796 225.753 181.347 223.703 185.131C221.834 188.606 218.127 190.54 216.921 192.055C215.309 194.073 218.442 196.684 223.465 195.608C225.96 195.072 229.738 193.48 230.763 191.797C231.788 190.115 232.13 187.02 232.968 185.782C233.806 184.544 235.798 183.12 236.191 181.714C236.519 180.446 236.519 179.115 236.191 177.846C235.798 176.557 235.45 175.016 235.011 175.158V176.131C234.676 176.814 233.458 177.614 230.924 177.756C229.686 177.814 228.513 177.627 227.958 176.524Z" fill="#37474F"/>
<path d="M229.97 84.2094C229.97 84.2094 228.249 103.338 227.694 120.274C227.14 137.211 227.636 159.066 227.636 159.066C227.636 159.066 229.383 160.317 233.232 160.491C237.081 160.665 238.39 159.382 238.39 159.382C238.39 159.382 240.743 151.704 241.11 146.301C241.344 143.376 241.344 140.438 241.11 137.514L244.547 114.91C244.547 114.91 248.905 137.165 249.401 139.854C249.898 142.542 254.069 166.325 254.069 166.325C254.069 166.325 255.706 167.834 259.91 167.757C263.63 167.686 264.707 166.351 264.707 166.351C264.707 166.351 265.603 151.768 265.396 145.54C265.222 140.047 263.965 135.676 263.714 132.111C263.462 128.546 263.32 108.257 263.069 100.52C262.818 92.784 262.173 86.1435 255.552 76.834L229.97 84.2094Z" fill="#455A64"/>
<path d="M244.572 114.929L241.709 100.746C241.709 100.746 236.726 99.4563 234.398 96.4004C234.398 96.4004 235.043 99.7786 240.201 101.938L243.244 116.045L242.186 130.628L244.572 114.929Z" fill="#37474F"/>
<path d="M193.551 80.6836C195.387 80.9637 197.263 80.8249 199.038 80.2775C198.258 79.8877 197.528 79.405 196.865 78.8398C196.561 78.5951 196.363 78.2416 196.315 77.8541C196.267 77.4665 196.372 77.0755 196.607 76.7638C196.846 76.5059 197.439 77.1055 198.78 77.4859C200.495 77.9694 201.739 78.0726 203.389 79.0267C204.012 79.389 204.744 79.517 205.452 79.3878C209.475 78.6335 218.856 74.2301 223.156 71.935C224.033 68.3569 225.554 63.0961 227.43 56.533C229.165 50.4857 231.943 47.8424 236.379 47.9391L235.741 61.0717C235.741 61.0717 233.626 70.1427 231.008 77.5504C230.551 78.8398 228.713 80.3419 225.348 81.5927C220.99 83.2109 215.729 84.7388 209.301 86.4989C206.697 87.2407 204.036 87.7689 201.346 88.0784C194.55 88.6586 191.946 86.789 191.03 85.448C188.426 81.7474 189.967 79.968 193.551 80.6836Z" fill="#FFA8A7"/>
<path d="M247.81 47.8426L254.012 48.3197C253.478 50.8403 253.629 53.458 254.45 55.9003C255.271 58.3426 256.731 60.5203 258.679 62.2066L255.914 73.3471C256.004 74.7268 258.286 79.3687 260.497 84.3587C256.339 89.9289 235.941 91.8308 229.287 86.9375C230.312 81.6896 231.08 77.7053 231.286 75.7132L230.951 68.5118C222.608 61.6715 232.672 51.2466 236.379 47.9329L241.034 47.7266L247.81 47.8426Z" fill="#FFD226"/>
<path d="M273.926 103.345C273.476 102.994 273.119 102.537 272.888 102.016C272.656 101.494 272.557 100.923 272.598 100.354C272.708 99.3158 272.946 98.0135 273.378 97.5107C273.81 97.0078 276.518 93.3265 277.717 95.467C279.006 97.8008 278.742 98.7485 278.742 98.7485L273.926 103.345Z" fill="#B3561B"/>
<path d="M265.571 152.549C262.661 152.452 259.827 151.594 257.351 150.06L225.161 131.467C220.191 128.598 216.135 121.59 216.135 115.846V88.8393C216.132 87.9354 215.892 87.0483 215.438 86.2668C214.984 85.4853 214.332 84.8368 213.549 84.3862C212.765 83.9357 211.877 83.699 210.973 83.6998C210.069 83.7006 209.182 83.9389 208.399 84.3908L197.13 90.9152C196.983 91.0085 196.819 91.0712 196.647 91.0994C196.476 91.1276 196.3 91.1208 196.131 91.0794C195.962 91.0381 195.803 90.963 195.664 90.8586C195.525 90.7543 195.409 90.6229 195.322 90.4723C195.234 90.3218 195.179 90.1552 195.158 89.9825C195.137 89.8099 195.151 89.6348 195.199 89.4678C195.248 89.3008 195.33 89.1453 195.44 89.0107C195.55 88.8761 195.686 88.7651 195.84 88.6845L207.142 82.1537C208.317 81.4753 209.65 81.1178 211.006 81.1172C212.363 81.1166 213.696 81.4728 214.872 82.1501C216.048 82.8274 217.025 83.802 217.705 84.9761C218.385 86.1502 218.744 87.4824 218.747 88.8393V115.846C218.747 120.681 222.292 126.806 226.483 129.236L258.673 147.817C262.793 150.196 266.616 150.608 269.427 148.99C272.238 147.372 273.791 143.833 273.791 139.094V104.615C273.791 98.7742 277.524 92.0434 282.289 89.2906L290.148 84.7776C290.294 84.6843 290.458 84.6217 290.63 84.5935C290.802 84.5652 290.977 84.572 291.146 84.6134C291.315 84.6548 291.474 84.7299 291.613 84.8342C291.752 84.9385 291.869 85.0699 291.956 85.2205C292.043 85.3711 292.098 85.5377 292.119 85.7103C292.14 85.8829 292.126 86.058 292.078 86.225C292.029 86.3921 291.947 86.5475 291.837 86.6821C291.727 86.8167 291.591 86.9277 291.437 87.0083L283.578 91.5212C279.671 93.7777 276.37 99.767 276.37 104.609V139.088C276.37 144.8 274.359 149.106 270.716 151.214C269.151 152.11 267.375 152.571 265.571 152.549Z" fill="#37474F"/>
<path d="M209.952 92.7779V94.8861C209.952 98.2579 207.586 102.365 204.659 104.047L185.138 115.323L165.287 103.86V86.6725L184.538 77.7627C187.6 76.3508 192.449 76.57 195.375 78.2527L204.646 83.6102C207.567 85.2993 209.952 89.4061 209.952 92.7779Z" fill="#37474F"/>
<path d="M184.538 77.7627C187.601 76.3508 192.449 76.57 195.376 78.2527L204.647 83.6102C207.567 85.2929 207.451 87.8072 204.389 89.2256L185.119 98.1225L165.262 86.6661L184.538 77.7627Z" fill="#455A64"/>
<path opacity="0.15" d="M186.995 93.9963C187.764 94.4982 188.404 95.1741 188.863 95.9693C189.322 96.7646 189.588 97.6568 189.638 98.5737V112.712L185.125 115.291L165.274 103.828V86.6725L170.303 84.3516L186.995 93.9963Z" fill="black"/>
<path d="M163.578 83.7125C163.876 83.5741 164.205 83.5179 164.531 83.5496C164.858 83.5814 165.17 83.7 165.435 83.8931L184.957 95.1689C185.727 95.671 186.368 96.3479 186.827 97.1444C187.286 97.9409 187.551 98.8346 187.6 99.7528V116.567C187.635 116.894 187.582 117.224 187.446 117.523C187.31 117.823 187.096 118.08 186.826 118.269C186.375 118.52 184.783 119.442 184.338 119.706C184.039 119.845 183.709 119.901 183.382 119.869C183.054 119.837 182.741 119.719 182.475 119.526L162.946 108.25C162.177 107.748 161.537 107.072 161.078 106.277C160.619 105.482 160.353 104.59 160.303 103.673V86.8587C160.269 86.5316 160.322 86.2012 160.456 85.9011C160.591 85.601 160.803 85.3419 161.07 85.1502L163.578 83.7125Z" fill="#37474F"/>
<path d="M182.475 96.6012L162.947 85.3317C161.49 84.4872 160.304 85.1706 160.304 86.8597V103.674C160.354 104.591 160.619 105.483 161.079 106.278C161.538 107.073 162.178 107.749 162.947 108.251L182.475 119.527C183.932 120.371 185.118 119.688 185.118 117.999V101.185C185.068 100.267 184.803 99.3741 184.344 98.5778C183.884 97.7815 183.244 97.1044 182.475 96.6012Z" fill="#455A64"/>
<path d="M159.349 116.175V119.082C159.349 120.262 159.755 121.081 160.425 121.468L162.179 122.48C162.599 122.684 163.067 122.771 163.533 122.73C163.998 122.689 164.444 122.522 164.822 122.248L180.94 112.925V101.45L179.186 100.438L163.036 109.76C161.961 110.464 161.067 111.412 160.426 112.527C159.785 113.641 159.416 114.891 159.349 116.175ZM166.653 112.577C166.715 112.787 166.749 113.004 166.756 113.222C166.71 114.084 166.461 114.922 166.03 115.669C165.599 116.417 164.997 117.051 164.274 117.522C164.073 117.64 163.856 117.727 163.629 117.78C163.573 117.57 163.543 117.353 163.539 117.135C163.586 116.274 163.835 115.436 164.266 114.688C164.697 113.941 165.299 113.306 166.021 112.835C166.222 112.726 166.434 112.639 166.653 112.577Z" fill="#FFD226"/>
<path opacity="0.2" d="M162.088 122.415C162.122 122.445 162.159 122.471 162.198 122.493L162.134 122.454L160.438 121.467C159.761 121.094 159.361 120.275 159.361 119.088V116.181C159.404 114.889 159.779 113.63 160.451 112.525L162.204 113.538C161.539 114.644 161.166 115.902 161.121 117.193V120.101C161.074 120.854 161.316 121.596 161.798 122.177C161.885 122.267 161.983 122.347 162.088 122.415Z" fill="black"/>
<path opacity="0.5" d="M180.941 101.45L164.823 110.772C163.73 111.454 162.829 112.404 162.206 113.531L160.452 112.519C161.075 111.393 161.973 110.444 163.063 109.76L179.213 100.438L180.941 101.45Z" fill="white"/>
<path opacity="0.2" d="M166.757 113.221C166.756 112.988 166.726 112.756 166.667 112.531C167.731 112.241 168.511 112.905 168.511 114.233C168.464 115.094 168.216 115.932 167.786 116.679C167.356 117.426 166.756 118.061 166.035 118.533C164.887 119.178 163.907 118.849 163.637 117.779C163.864 117.729 164.082 117.642 164.281 117.521C165.002 117.048 165.602 116.413 166.032 115.666C166.462 114.919 166.71 114.082 166.757 113.221Z" fill="black"/>
<path d="M144.463 107.574V110.488C144.463 111.662 144.869 112.487 145.54 112.867L147.293 113.886C147.713 114.086 148.179 114.169 148.642 114.126C149.105 114.083 149.548 113.915 149.924 113.641L166.041 104.312V92.8555L164.288 91.8369L148.17 101.159C147.092 101.863 146.195 102.81 145.551 103.924C144.907 105.039 144.534 106.289 144.463 107.574ZM151.767 103.957C151.826 104.183 151.856 104.414 151.858 104.647C151.811 105.509 151.562 106.347 151.131 107.094C150.7 107.841 150.098 108.476 149.376 108.947C149.171 109.058 148.955 109.145 148.731 109.205C148.669 108.985 148.639 108.757 148.641 108.528C148.687 107.668 148.935 106.83 149.365 106.083C149.795 105.336 150.395 104.7 151.116 104.228C151.32 104.108 151.539 104.017 151.767 103.957Z" fill="#FFD226"/>
<path opacity="0.2" d="M147.371 113.931H147.338H147.293L145.54 112.906C144.863 112.526 144.463 111.707 144.463 110.521V107.613C144.47 106.992 144.568 106.375 144.753 105.782C144.947 105.148 145.213 104.538 145.546 103.964L147.3 104.97C147.133 105.257 146.985 105.554 146.855 105.859C146.455 106.726 146.235 107.665 146.21 108.619V111.526C146.155 112.275 146.385 113.016 146.855 113.602C147.007 113.74 147.181 113.852 147.371 113.931Z" fill="black"/>
<path opacity="0.5" d="M166.06 92.8555L149.942 102.178C148.847 102.858 147.946 103.808 147.325 104.937L145.571 103.932C146.183 102.804 147.07 101.851 148.15 101.159L164.268 91.8369L166.06 92.8555Z" fill="white"/>
<path opacity="0.2" d="M151.851 104.64C151.852 104.41 151.824 104.18 151.767 103.957C152.825 103.66 153.611 104.331 153.611 105.659C153.565 106.52 153.317 107.358 152.887 108.105C152.457 108.852 151.857 109.487 151.136 109.959C149.982 110.604 149.008 110.275 148.737 109.199C148.966 109.151 149.184 109.063 149.382 108.941C150.103 108.468 150.702 107.833 151.131 107.086C151.56 106.339 151.807 105.501 151.851 104.64Z" fill="black"/>
<path d="M149.35 96.8146C149.135 96.8151 148.926 96.7437 148.757 96.6116C148.587 96.4796 148.467 96.2945 148.415 96.086L145.836 85.9771C145.772 85.7283 145.81 85.4642 145.94 85.243C146.071 85.0217 146.284 84.8614 146.533 84.7973C146.781 84.7331 147.045 84.7705 147.267 84.9011C147.488 85.0316 147.648 85.2448 147.712 85.4935L150.291 95.6089C150.324 95.7317 150.332 95.8599 150.315 95.9858C150.297 96.1117 150.255 96.2328 150.19 96.3421C150.125 96.4514 150.039 96.5467 149.937 96.6223C149.835 96.6979 149.718 96.7523 149.595 96.7823C149.515 96.803 149.433 96.8139 149.35 96.8146Z" fill="#E0E0E0"/>
<path d="M142.091 101.03C141.873 101.031 141.662 100.958 141.491 100.824L131.892 93.2357C131.786 93.1593 131.696 93.0622 131.629 92.9503C131.561 92.8384 131.517 92.714 131.499 92.5846C131.481 92.4552 131.49 92.3236 131.524 92.1975C131.558 92.0715 131.618 91.9537 131.699 91.8513C131.78 91.7488 131.881 91.6639 131.996 91.6016C132.111 91.5392 132.237 91.5008 132.367 91.4886C132.497 91.4764 132.628 91.4907 132.753 91.5306C132.877 91.5704 132.992 91.6351 133.091 91.7207L142.69 99.3024C142.891 99.4622 143.02 99.6947 143.051 99.9494C143.081 100.204 143.009 100.46 142.852 100.663C142.761 100.778 142.646 100.872 142.514 100.935C142.382 100.999 142.237 101.031 142.091 101.03Z" fill="#E0E0E0"/>
<path d="M128.862 110.289C128.605 110.299 128.355 110.206 128.167 110.031C127.979 109.856 127.868 109.614 127.859 109.358C127.85 109.101 127.943 108.851 128.117 108.663C128.292 108.475 128.534 108.365 128.791 108.355L140.015 107.485C140.142 107.474 140.269 107.489 140.39 107.528C140.511 107.567 140.623 107.63 140.72 107.713C140.816 107.795 140.896 107.897 140.953 108.01C141.01 108.124 141.044 108.248 141.053 108.374C141.071 108.63 140.987 108.882 140.821 109.076C140.654 109.27 140.418 109.391 140.163 109.412L128.939 110.283L128.862 110.289Z" fill="#E0E0E0"/>
<path d="M282.701 92.8241C282.483 90.4421 282.13 88.0745 281.644 85.7323C280.177 80.2373 278.223 74.8843 275.803 69.7372C274.727 67.6806 272.296 64.6827 270.575 62.149C268.138 58.5709 266.423 56.5659 264.572 54.1354C260.498 48.8036 258.77 48.4942 254.012 48.333C253.367 50.0286 251.898 56.9785 256.662 62.5939L266.874 73.3604C267.454 74.2953 273.695 84.9651 274.733 88.9043C274.913 89.6048 274.825 90.347 274.488 90.9867C273.672 92.7923 273.073 94.688 272.702 96.6343C272.399 98.0011 271.587 99.0841 271.864 99.2969C272.207 99.5258 272.616 99.6324 273.027 99.5997C273.437 99.5669 273.825 99.3966 274.127 99.1164C274.856 98.334 275.451 97.4365 275.887 96.4602C276.079 96.4477 276.271 96.4751 276.451 96.5407C276.632 96.6064 276.797 96.7088 276.936 96.8416C277.074 96.9744 277.184 97.1345 277.258 97.3119C277.331 97.4893 277.367 97.6801 277.363 97.8721C277.421 98.6651 277.06 99.7675 276.783 101.141C276.732 101.412 276.667 101.721 276.545 102.469C276.439 102.974 276.378 103.487 276.364 104.003C277.653 104.242 279.001 103.455 281.167 101.424C283.121 99.529 283.249 97.0404 282.701 92.8241Z" fill="#FFA8A7"/>
<path d="M248.919 44.7092C248.957 43.4198 253.148 40.4026 255.269 37.1919C257.203 34.2134 259.982 26.0257 253.47 23.4082C253.47 23.4082 254.876 19.4819 252.323 17.1674C249.77 14.8529 246.333 16.2842 245.792 17.2512C245.465 16.0456 244.757 14.9778 243.774 14.2065C242.792 13.4353 241.586 13.0017 240.338 12.9704C239.118 12.8785 237.906 13.2305 236.925 13.9614C235.944 14.6923 235.26 15.753 234.999 16.9482C233.969 16.5022 232.817 16.4241 231.736 16.7269C230.654 17.0298 229.71 17.6952 229.062 18.6115C226.67 21.906 229.842 24.9232 229.842 24.9232C229.43 25.2008 229.102 25.585 228.892 26.0346C228.682 26.4843 228.598 26.9826 228.649 27.4762C228.836 28.8688 230.171 29.2105 230.325 29.9068C230.355 30.0525 230.337 30.2039 230.273 30.3382C230.209 30.4725 230.103 30.5822 229.971 30.6508C229.839 30.7193 229.688 30.7429 229.541 30.718C229.395 30.6931 229.26 30.6211 229.158 30.5128C229.193 30.6946 229.263 30.8677 229.365 31.0223C229.467 31.1768 229.598 31.3097 229.752 31.4133C229.905 31.517 230.078 31.5893 230.259 31.6262C230.44 31.663 230.627 31.6637 230.809 31.6281C232.311 31.5443 233.652 29.5006 233.652 29.5006L248.919 44.7092Z" fill="#263238"/>
<path d="M235.251 22.9961C233.317 23.8342 231.492 26.7805 231.518 35.0198C231.518 42.002 233.684 43.7685 234.741 44.2907C235.799 44.8129 237.933 44.5421 239.989 44.2262V48.2427C239.989 48.2427 236.269 52.8588 239.602 55.1539C248.19 53.6518 248.847 48.0171 248.847 48.0171L249.002 39.262C249.002 39.262 250.182 40.4998 252.226 38.6817C253.941 37.1796 254.56 34.6072 253.27 33.1889C251.981 31.7705 250.33 31.6609 248.835 33.2404C248.835 33.2404 246.095 33.421 241.975 30.8357C237.855 28.2504 236.385 25.6265 235.251 22.9961Z" fill="#FFA8A7"/>
<path d="M240.196 39.3911C240.205 39.5242 240.187 39.6578 240.144 39.784C240.1 39.9102 240.032 40.0264 239.944 40.1261C239.855 40.2257 239.747 40.3066 239.627 40.3641C239.506 40.4217 239.376 40.4547 239.242 40.4613C239.036 40.4779 238.829 40.4322 238.648 40.3302C238.468 40.2282 238.322 40.0744 238.23 39.8888C238.137 39.7032 238.103 39.4941 238.13 39.2886C238.158 39.0832 238.246 38.8906 238.384 38.7359C238.522 38.5811 238.703 38.4713 238.904 38.4204C239.105 38.3695 239.317 38.38 239.512 38.4505C239.707 38.521 239.876 38.6483 239.998 38.8159C240.12 38.9835 240.189 39.1839 240.196 39.3911Z" fill="#B16668"/>
<path d="M234.89 32.6333C234.888 32.8149 234.834 32.9922 234.733 33.143C234.631 33.2939 234.488 33.4118 234.321 33.4821C234.153 33.5524 233.969 33.572 233.79 33.5384C233.612 33.5049 233.447 33.4198 233.316 33.2935C233.186 33.1672 233.095 33.0054 233.055 32.8281C233.016 32.6508 233.029 32.4658 233.094 32.296C233.158 32.1262 233.271 31.9791 233.419 31.8729C233.566 31.7667 233.741 31.706 233.923 31.6984C234.048 31.6959 234.172 31.7181 234.289 31.7637C234.405 31.8094 234.511 31.8777 234.601 31.9646C234.691 32.0515 234.763 32.1553 234.812 32.27C234.862 32.3848 234.888 32.5082 234.89 32.6333Z" fill="#263238"/>
<path d="M242.026 33.0598C242.035 33.1929 242.017 33.3265 241.974 33.4527C241.93 33.5789 241.862 33.6951 241.773 33.7948C241.685 33.8944 241.577 33.9753 241.456 34.0328C241.336 34.0904 241.205 34.1234 241.072 34.13C240.802 34.1317 240.543 34.0271 240.35 33.8389C240.157 33.6506 240.046 33.3939 240.041 33.1242C240.036 32.9939 240.058 32.8639 240.104 32.7418C240.15 32.6198 240.219 32.5079 240.309 32.4127C240.398 32.3176 240.505 32.2409 240.624 32.1871C240.743 32.1333 240.871 32.1034 241.001 32.0992C241.132 32.0949 241.261 32.1164 241.384 32.1624C241.506 32.2084 241.617 32.278 241.713 32.3672C241.808 32.4564 241.885 32.5634 241.938 32.6823C241.992 32.8011 242.022 32.9294 242.026 33.0598Z" fill="#263238"/>
<path d="M234.245 28.9404L232.278 30.0945C232.349 30.2274 232.445 30.3445 232.563 30.4384C232.68 30.5323 232.816 30.601 232.961 30.6403C233.106 30.6797 233.258 30.6887 233.406 30.6669C233.555 30.645 233.698 30.5928 233.826 30.5135C234.084 30.3553 234.272 30.1037 234.35 29.8108C234.428 29.5179 234.39 29.2063 234.245 28.9404Z" fill="#263238"/>
<path d="M248.873 32.1055V35.9737C248.625 35.98 248.378 35.9355 248.148 35.8429C247.918 35.7502 247.709 35.6115 247.535 35.4351C247.36 35.2588 247.224 35.0486 247.133 34.8174C247.043 34.5863 247.001 34.3391 247.01 34.0912C247.012 33.586 247.205 33.1003 247.551 32.7319C247.897 32.3635 248.369 32.1397 248.873 32.1055Z" fill="#263238"/>
<path d="M237.43 31.7119L237.037 37.2822L234.097 36.5923L237.43 31.7119Z" fill="#B3561B"/>
<path d="M240.015 44.238C242.175 43.9866 246.636 42.7487 247.365 40.9307C247.076 41.8415 246.519 42.6438 245.766 43.2323C244.419 44.3927 240.009 45.5919 240.009 45.5919L240.015 44.238Z" fill="#B3561B"/>
<path d="M265.977 1.15927C266.799 1.47328 267.571 1.90784 268.265 2.44868C268.938 2.94062 269.517 3.54996 269.974 4.2474C270.408 4.91832 270.694 5.67455 270.812 6.46519C270.928 7.30907 270.824 8.16865 270.509 8.96019C270.284 9.5939 269.935 10.1768 269.484 10.6751C269.08 11.1 268.618 11.4647 268.111 11.7582C267.617 12.0402 267.099 12.2775 266.563 12.4674L265.042 13.0154C264.594 13.1771 264.163 13.38 263.753 13.6214C263.366 13.8158 263.042 14.1152 262.818 14.4853C262.715 14.6581 262.568 14.8005 262.392 14.8979C262.308 14.9443 262.215 14.9712 262.119 14.9768C262.023 14.9824 261.927 14.9664 261.838 14.9302L259.826 14.1759C259.731 14.1405 259.643 14.0864 259.569 14.0166C259.495 13.9468 259.435 13.8629 259.394 13.7697C259.35 13.6805 259.327 13.5823 259.327 13.4828C259.327 13.3832 259.35 13.285 259.394 13.1959C259.653 12.5756 260.034 12.0141 260.516 11.5455C260.953 11.1348 261.44 10.7816 261.967 10.4946C262.475 10.2217 263.005 9.99311 263.553 9.8112C264.094 9.63069 264.597 9.45662 265.068 9.2761C265.493 9.12005 265.901 8.92132 266.286 8.68297C266.617 8.47305 266.871 8.16063 267.008 7.79328C267.135 7.47151 267.182 7.12352 267.144 6.77966C267.105 6.4358 266.984 6.1065 266.789 5.82048C266.304 5.11601 265.599 4.59228 264.784 4.33121C264.075 4.0489 263.295 3.99339 262.553 4.17235C261.81 4.3513 261.142 4.75591 260.639 5.33051C260.51 5.46638 260.36 5.5797 260.194 5.66575C260.015 5.7218 259.821 5.70798 259.652 5.62707L257.512 4.82119C257.435 4.7947 257.365 4.75307 257.305 4.69878C257.246 4.6445 257.197 4.57868 257.164 4.50528C257.127 4.43006 257.107 4.34735 257.107 4.26352C257.107 4.17969 257.127 4.09698 257.164 4.02176C257.447 3.36439 257.89 2.78822 258.453 2.34553C259.08 1.82455 259.793 1.41857 260.561 1.14637C261.405 0.848314 262.291 0.687247 263.185 0.669292C264.139 0.65126 265.086 0.817636 265.977 1.15927ZM261.386 16.5677C261.48 16.6011 261.566 16.654 261.639 16.7228C261.711 16.7917 261.768 16.8751 261.805 16.9674C261.845 17.059 261.866 17.1577 261.866 17.2575C261.866 17.3574 261.845 17.4561 261.805 17.5477L260.929 19.875C260.895 19.9691 260.842 20.055 260.774 20.1272C260.705 20.1994 260.621 20.2563 260.529 20.2941C260.437 20.3338 260.339 20.3544 260.239 20.3544C260.139 20.3544 260.04 20.3338 259.949 20.2941L257.673 19.4366C257.579 19.4032 257.493 19.3504 257.421 19.2815C257.349 19.2126 257.292 19.1293 257.254 19.0369C257.214 18.9454 257.194 18.8466 257.194 18.7468C257.194 18.647 257.214 18.5482 257.254 18.4567L258.131 16.1293C258.165 16.035 258.218 15.9487 258.287 15.8756C258.356 15.8024 258.438 15.744 258.53 15.7038C258.622 15.6655 258.721 15.6458 258.821 15.6458C258.92 15.6458 259.019 15.6655 259.111 15.7038L261.386 16.5677Z" fill="#FFD226"/>
<path d="M267.092 28.946C267.159 29.0121 267.213 29.0908 267.249 29.1777C267.286 29.2646 267.305 29.3579 267.305 29.4521C267.305 29.5464 267.286 29.6397 267.249 29.7266C267.213 29.8135 267.159 29.8922 267.092 29.9582L265.48 31.6602C265.416 31.7289 265.338 31.7838 265.251 31.8215C265.165 31.8591 265.072 31.8789 264.978 31.8794C264.883 31.8829 264.789 31.8676 264.7 31.8344C264.612 31.8012 264.531 31.7507 264.462 31.686L262.818 30.1065C262.749 30.0419 262.694 29.964 262.657 29.8776C262.619 29.7911 262.599 29.6979 262.599 29.6036C262.594 29.509 262.608 29.4144 262.642 29.3256C262.675 29.2369 262.726 29.1559 262.792 29.0879L264.41 27.3923C264.545 27.2596 264.727 27.1853 264.916 27.1853C265.106 27.1853 265.287 27.2596 265.422 27.3923L267.092 28.946ZM276.763 17.2575C277.362 17.8255 277.877 18.4769 278.291 19.1917C278.69 19.8689 278.967 20.6108 279.109 21.3837C279.23 22.1245 279.193 22.8825 279 23.6079C278.794 24.2942 278.448 24.9302 277.983 25.4752C277.518 26.0202 276.944 26.4623 276.299 26.7734C275.794 26.9961 275.26 27.1438 274.713 27.2118C274.18 27.2717 273.643 27.2868 273.107 27.2569L271.586 27.1731C271.132 27.1486 270.677 27.1637 270.225 27.2182C269.821 27.2629 269.437 27.4191 269.117 27.6695C268.965 27.7842 268.784 27.8535 268.594 27.8694C268.504 27.8795 268.412 27.8692 268.326 27.839C268.24 27.8089 268.162 27.7598 268.098 27.6953L266.634 26.3028C266.494 26.1698 266.41 25.987 266.402 25.7934C266.393 25.6982 266.407 25.6021 266.443 25.5134C266.479 25.4248 266.536 25.3461 266.609 25.2841C267.058 24.8375 267.593 24.4866 268.182 24.2526C268.711 24.0559 269.264 23.9281 269.826 23.8722C270.368 23.8272 270.914 23.8272 271.457 23.8722C271.994 23.9195 272.497 23.9517 272.965 23.9689C273.397 23.9906 273.829 23.9669 274.255 23.898C274.622 23.841 274.96 23.6642 275.215 23.3951C275.442 23.1611 275.608 22.876 275.7 22.5639C275.792 22.2518 275.807 21.9221 275.744 21.6029C275.584 20.812 275.164 20.0973 274.551 19.572C274.037 19.0684 273.379 18.7362 272.668 18.6208C271.957 18.5054 271.228 18.6124 270.58 18.9273C270.421 18.9973 270.251 19.0388 270.077 19.0498C269.989 19.0445 269.903 19.0212 269.824 18.9813C269.745 18.9414 269.676 18.8857 269.619 18.8177L268.059 17.3285C267.947 17.2269 267.878 17.0862 267.866 16.9352C267.862 16.8555 267.875 16.7758 267.904 16.7013C267.932 16.6269 267.977 16.5594 268.033 16.5032C268.521 16.0395 269.114 15.701 269.761 15.5168C270.496 15.297 271.265 15.2075 272.031 15.2525C272.874 15.3039 273.703 15.4911 274.487 15.807C275.325 16.1374 276.09 16.6304 276.737 17.2575H276.763Z" fill="#FFD226"/>
<g opacity="0.6">
<path opacity="0.6" d="M267.092 28.946C267.159 29.0121 267.213 29.0908 267.249 29.1777C267.286 29.2646 267.305 29.3579 267.305 29.4521C267.305 29.5464 267.286 29.6397 267.249 29.7266C267.213 29.8135 267.159 29.8922 267.092 29.9582L265.48 31.6602C265.416 31.7289 265.338 31.7838 265.251 31.8215C265.165 31.8591 265.072 31.8789 264.978 31.8794C264.883 31.8829 264.789 31.8676 264.7 31.8344C264.612 31.8012 264.531 31.7507 264.462 31.686L262.818 30.1065C262.749 30.0419 262.694 29.964 262.657 29.8776C262.619 29.7911 262.599 29.6979 262.599 29.6036C262.594 29.509 262.608 29.4144 262.642 29.3256C262.675 29.2369 262.726 29.1559 262.792 29.0879L264.41 27.3923C264.545 27.2596 264.727 27.1853 264.916 27.1853C265.106 27.1853 265.287 27.2596 265.422 27.3923L267.092 28.946ZM276.763 17.2575C277.362 17.8255 277.877 18.4769 278.291 19.1917C278.69 19.8689 278.967 20.6108 279.109 21.3837C279.23 22.1245 279.193 22.8825 279 23.6079C278.794 24.2942 278.448 24.9302 277.983 25.4752C277.518 26.0202 276.944 26.4623 276.299 26.7734C275.794 26.9961 275.26 27.1438 274.713 27.2118C274.18 27.2717 273.643 27.2868 273.107 27.2569L271.586 27.1731C271.132 27.1486 270.677 27.1637 270.225 27.2182C269.821 27.2629 269.437 27.4191 269.117 27.6695C268.965 27.7842 268.784 27.8535 268.594 27.8694C268.504 27.8795 268.412 27.8692 268.326 27.839C268.24 27.8089 268.162 27.7598 268.098 27.6953L266.634 26.3028C266.494 26.1698 266.41 25.987 266.402 25.7934C266.393 25.6982 266.407 25.6021 266.443 25.5134C266.479 25.4248 266.536 25.3461 266.609 25.2841C267.058 24.8375 267.593 24.4866 268.182 24.2526C268.711 24.0559 269.264 23.9281 269.826 23.8722C270.368 23.8272 270.914 23.8272 271.457 23.8722C271.994 23.9195 272.497 23.9517 272.965 23.9689C273.397 23.9906 273.829 23.9669 274.255 23.898C274.622 23.841 274.96 23.6642 275.215 23.3951C275.442 23.1611 275.608 22.876 275.7 22.5639C275.792 22.2518 275.807 21.9221 275.744 21.6029C275.584 20.812 275.164 20.0973 274.551 19.572C274.037 19.0684 273.379 18.7362 272.668 18.6208C271.957 18.5054 271.228 18.6124 270.58 18.9273C270.421 18.9973 270.251 19.0388 270.077 19.0498C269.989 19.0445 269.903 19.0212 269.824 18.9813C269.745 18.9414 269.676 18.8857 269.619 18.8177L268.059 17.3285C267.947 17.2269 267.878 17.0862 267.866 16.9352C267.862 16.8555 267.875 16.7758 267.904 16.7013C267.932 16.6269 267.977 16.5594 268.033 16.5032C268.521 16.0395 269.114 15.701 269.761 15.5168C270.496 15.297 271.265 15.2075 272.031 15.2525C272.874 15.3039 273.703 15.4911 274.487 15.807C275.325 16.1374 276.09 16.6304 276.737 17.2575H276.763Z" fill="white"/>
</g>
<path d="M37.6924 191.044C39.7361 192.289 42.4503 192.334 45.0098 191.438L46.9439 177.899L37.918 175.591L37.6924 191.044Z" fill="#FFA8A7"/>
<path d="M52.2567 204.003C52.4823 204.235 52.3469 205.937 52.0697 206.317C51.7925 206.698 50.2387 207.987 47.3762 208.039C44.6491 208.084 42.2186 207.587 40.6971 206.485C39.1756 205.382 38.4471 204.228 38.3762 202.668C38.3052 201.108 38.5631 199.632 37.8926 198.4C37.2221 197.169 36.4163 196.137 36.21 195.531C35.9678 194.434 35.9678 193.296 36.21 192.198L52.2567 204.003Z" fill="#263238"/>
<path d="M45.635 190.87C45.6477 191.458 45.7299 192.042 45.8799 192.611C46.2315 193.83 46.7271 195.003 47.3563 196.105C47.6693 196.68 48.0203 197.234 48.4072 197.762C49.1744 198.787 50.1543 199.644 50.986 200.631C51.8688 201.566 52.3998 202.778 52.4882 204.061C52.4882 206.201 50.135 206.801 48.3363 207.02C46.3817 207.258 44.3984 207.053 42.5339 206.42C41.5581 206.108 40.693 205.521 40.0424 204.73C39.3917 203.939 38.9831 202.977 38.8656 201.959C38.7946 201.359 38.8656 200.76 38.8269 200.16C38.6663 198.785 38.1656 197.471 37.3698 196.337C36.9072 195.681 36.5181 194.976 36.2094 194.235C35.7194 192.888 36.2481 191.424 36.6736 190.129C37.041 189.013 37.3183 187.666 37.7309 187.795C37.7309 188.02 37.7309 188.523 37.7309 188.523C37.8469 188.775 38.1306 188.955 38.2015 189.252C38.2684 189.558 38.3611 189.858 38.4787 190.148C38.6543 190.597 38.9653 190.98 39.3684 191.244C39.4393 190.438 39.5103 189.632 39.5747 188.833C39.5564 188.706 39.5673 188.576 39.6066 188.454C39.6459 188.332 39.7124 188.22 39.8013 188.127C39.8902 188.035 39.999 187.964 40.1195 187.919C40.24 187.875 40.369 187.859 40.4967 187.872C42.009 187.596 43.5545 187.55 45.0805 187.737C45.1955 187.745 45.3076 187.777 45.4105 187.829C45.5134 187.881 45.605 187.952 45.6801 188.04C45.7588 188.211 45.7835 188.402 45.751 188.588C45.6712 189.346 45.6325 190.108 45.635 190.87Z" fill="#FFD226"/>
<path opacity="0.2" d="M45.635 190.87C45.6477 191.458 45.7299 192.042 45.8799 192.611C46.2315 193.83 46.7271 195.003 47.3563 196.105C47.6693 196.68 48.0203 197.234 48.4072 197.762C49.1744 198.787 50.1543 199.644 50.986 200.631C51.8688 201.566 52.3998 202.778 52.4882 204.061C52.4882 206.201 50.135 206.801 48.3363 207.02C46.3817 207.258 44.3984 207.053 42.5339 206.42C41.5581 206.108 40.693 205.521 40.0424 204.73C39.3917 203.939 38.9831 202.977 38.8656 201.959C38.7946 201.359 38.8656 200.76 38.8269 200.16C38.6663 198.785 38.1656 197.471 37.3698 196.337C36.9072 195.681 36.5181 194.976 36.2094 194.235C35.7194 192.888 36.2481 191.424 36.6736 190.129C37.041 189.013 37.3183 187.666 37.7309 187.795C37.7309 188.02 37.7309 188.523 37.7309 188.523C37.8469 188.775 38.1306 188.955 38.2015 189.252C38.2684 189.558 38.3611 189.858 38.4787 190.148C38.6543 190.597 38.9653 190.98 39.3684 191.244C39.4393 190.438 39.5103 189.632 39.5747 188.833C39.5564 188.706 39.5673 188.576 39.6066 188.454C39.6459 188.332 39.7124 188.22 39.8013 188.127C39.8902 188.035 39.999 187.964 40.1195 187.919C40.24 187.875 40.369 187.859 40.4967 187.872C42.009 187.596 43.5545 187.55 45.0805 187.737C45.1955 187.745 45.3076 187.777 45.4105 187.829C45.5134 187.881 45.605 187.952 45.6801 188.04C45.7588 188.211 45.7835 188.402 45.751 188.588C45.6712 189.346 45.6325 190.108 45.635 190.87Z" fill="black"/>
<path d="M47.6204 196.57C46.8596 195.926 45.0803 195.829 44.1003 195.88C43.1075 195.914 42.1389 196.195 41.2829 196.699C41.1565 196.776 41.0073 196.808 40.8605 196.788C40.7138 196.768 40.5784 196.698 40.4771 196.59C40.4175 196.527 40.3724 196.452 40.345 196.37C40.3176 196.287 40.3085 196.2 40.3183 196.114C40.3281 196.028 40.3567 195.945 40.4019 195.872C40.4472 195.798 40.508 195.735 40.5802 195.687C41.5276 195.07 42.6281 194.728 43.7586 194.701C46.1956 194.662 46.8403 195.1 46.8403 195.1C46.8403 195.1 47.8976 195.874 47.6204 196.57Z" fill="#455A64"/>
<path d="M49.329 198.852C48.362 198.207 46.4021 198.207 45.4221 198.24C44.4476 198.286 43.5024 198.588 42.6821 199.116C42.555 199.195 42.4045 199.227 42.2563 199.207C42.1081 199.187 41.9715 199.116 41.8698 199.007C41.8095 198.944 41.7639 198.869 41.7363 198.786C41.7087 198.704 41.6998 198.616 41.7103 198.529C41.7208 198.443 41.7504 198.36 41.797 198.287C41.8435 198.213 41.9058 198.151 41.9794 198.104C42.9323 197.452 44.0493 197.081 45.2029 197.034C47.6077 196.989 48.2072 197.518 48.2072 197.518C48.4837 197.64 48.7285 197.823 48.923 198.055C49.1174 198.286 49.2563 198.559 49.329 198.852Z" fill="#455A64"/>
<path d="M42.9271 192.36C43.9452 192.238 44.9776 192.38 45.925 192.772C46.3311 193.037 46.5697 193.714 46.2924 193.868C45.4563 193.48 44.5371 193.305 43.6169 193.359C42.7159 193.399 41.8284 193.593 40.993 193.933C40.7802 194.01 40.5352 194.126 40.3483 194.229C40.2794 194.265 40.2039 194.285 40.1267 194.29C40.0494 194.295 39.972 194.284 39.8994 194.257C39.8267 194.23 39.7603 194.189 39.7045 194.135C39.6486 194.082 39.6044 194.017 39.5746 193.946C39.5342 193.827 39.5365 193.697 39.5812 193.579C39.6259 193.462 39.7102 193.363 39.8196 193.301C40.7767 192.77 41.8361 192.449 42.9271 192.36Z" fill="#455A64"/>
<path d="M63.1312 185.958C64.7043 189.897 67.167 188.685 70.9192 186.416L71.4865 172.967L61.9385 172.084L63.1312 185.958Z" fill="#FFA8A7"/>
<path d="M85.3236 195.442C85.4978 196.075 85.424 196.75 85.1173 197.331C84.8207 197.872 81.8358 199.355 77.9353 198.878C75.0432 198.522 72.3 197.395 69.9925 195.616C68.5548 194.546 67.014 194.281 65.0799 194.062C63.1458 193.843 61.6952 193.172 61.3148 192.244C60.9344 191.316 61.5147 189.781 61.5147 189.781L85.3236 195.442Z" fill="#263238"/>
<path d="M70.1337 183.044C70.4862 182.97 70.833 182.871 71.1717 182.748C71.3609 182.677 71.5691 182.677 71.7583 182.748C72.0033 182.857 72.0807 183.154 72.1387 183.392C72.1938 183.976 72.306 184.552 72.474 185.114C72.7377 185.579 73.0878 185.991 73.5055 186.326C74.4347 187.157 75.4481 187.89 76.5292 188.511C77.7734 189.272 78.9984 189.871 80.2813 190.536C81.5643 191.2 83.363 191.677 84.3817 192.47C85.858 193.591 85.9161 196.202 84.1109 197.131C82.5571 197.937 78.5342 198.685 74.4403 197.279C72.2032 196.512 69.8178 193.952 66.8521 193.559C64.9632 193.314 62.4488 193.018 61.3077 191.515C60.8951 190.871 61.2561 189.001 61.5914 186.816C61.8944 184.881 62.1716 181.787 62.797 181.993L62.8421 182.586L63.6028 183.495C63.7695 183.673 63.946 183.841 64.1315 183.998C64.3351 184.236 64.5502 184.465 64.7762 184.682C65.0827 184.944 65.4637 185.104 65.8657 185.139C66.0563 185.151 66.2464 185.109 66.4137 185.017C66.7361 184.836 66.7812 184.411 67.0585 184.147C67.3583 183.838 67.7181 183.595 68.1158 183.431C68.6681 183.234 69.2455 183.117 69.8307 183.083C69.9324 183.076 70.0336 183.064 70.1337 183.044Z" fill="#FFD226"/>
<path opacity="0.2" d="M70.1337 183.044C70.4862 182.97 70.833 182.871 71.1717 182.748C71.3609 182.677 71.5691 182.677 71.7583 182.748C72.0033 182.857 72.0807 183.154 72.1387 183.392C72.1938 183.976 72.306 184.552 72.474 185.114C72.7377 185.579 73.0878 185.991 73.5055 186.326C74.4347 187.157 75.4481 187.89 76.5292 188.511C77.7734 189.272 78.9984 189.871 80.2813 190.536C81.5643 191.2 83.363 191.677 84.3817 192.47C85.858 193.591 85.9161 196.202 84.1109 197.131C82.5571 197.937 78.5342 198.685 74.4403 197.279C72.2032 196.512 69.8178 193.952 66.8521 193.559C64.9632 193.314 62.4488 193.018 61.3077 191.515C60.8951 190.871 61.2561 189.001 61.5914 186.816C61.8944 184.881 62.1716 181.787 62.797 181.993L62.8421 182.586L63.6028 183.495C63.7695 183.673 63.946 183.841 64.1315 183.998C64.3351 184.236 64.5502 184.465 64.7762 184.682C65.0827 184.944 65.4637 185.104 65.8657 185.139C66.0563 185.151 66.2464 185.109 66.4137 185.017C66.7361 184.836 66.7812 184.411 67.0585 184.147C67.3583 183.838 67.7181 183.595 68.1158 183.431C68.6681 183.234 69.2455 183.117 69.8307 183.083C69.9324 183.076 70.0336 183.064 70.1337 183.044Z" fill="black"/>
<path d="M74.8213 187.363C74.6973 187.096 74.5086 186.863 74.2722 186.686C74.0359 186.51 73.7593 186.394 73.4674 186.351C72.6164 186.145 71.0627 186.699 70.0763 187.428C69.9826 187.496 69.907 187.586 69.8562 187.69C69.8053 187.794 69.7807 187.909 69.7846 188.025C69.7884 188.141 69.8205 188.254 69.8781 188.354C69.9357 188.455 70.017 188.539 70.115 188.601C70.2392 188.676 70.3832 188.712 70.5281 188.704C70.673 188.696 70.8121 188.644 70.9273 188.556C72.018 187.662 73.417 187.234 74.8213 187.363Z" fill="#455A64"/>
<path d="M77.4068 189.02C77.233 188.745 76.996 188.517 76.7155 188.353C76.4351 188.189 76.1194 188.095 75.7951 188.078C74.465 188.065 73.165 188.474 72.0816 189.245C71.9898 189.309 71.9148 189.394 71.863 189.492C71.8112 189.591 71.7842 189.701 71.7842 189.813C71.7842 189.924 71.8112 190.034 71.863 190.133C71.9148 190.232 71.9898 190.317 72.0816 190.38C72.2023 190.453 72.3423 190.487 72.483 190.478C72.6236 190.468 72.758 190.416 72.8681 190.328C73.4772 189.782 74.2017 189.381 74.9877 189.155C75.7736 188.928 76.6006 188.882 77.4068 189.02Z" fill="#455A64"/>
<path d="M80.281 190.529C80.0801 190.273 79.8264 190.063 79.5371 189.914C79.2479 189.765 78.9298 189.68 78.6047 189.665C77.3211 189.675 76.0735 190.091 75.0395 190.851C74.9498 190.918 74.8777 191.005 74.8292 191.106C74.7807 191.206 74.7573 191.317 74.7611 191.429C74.7649 191.54 74.7958 191.649 74.851 191.746C74.9062 191.843 74.9842 191.926 75.0782 191.986C75.1952 192.065 75.3349 192.103 75.4759 192.095C75.6168 192.087 75.7511 192.033 75.8583 191.941C76.4338 191.376 77.1337 190.954 77.9018 190.709C78.6699 190.464 79.4847 190.402 80.281 190.529Z" fill="#455A64"/>
<path d="M37.4412 154.748C37.7313 148.255 39.1109 144.877 39.3044 143.078C39.3044 143.078 39.833 107.362 40.7034 96.5244L72.6807 95.1641C73.1513 106.769 73.5768 137.947 73.3254 142.073C73.0869 146.025 71.4816 180.304 71.4816 180.304C66.9686 181.716 62.1527 179.659 62.1527 179.659C62.1527 179.659 59.4707 160.157 59.0323 155.857C58.7211 151.989 58.8206 148.099 59.3289 144.252L57.2852 116.484C57.2852 116.484 54.8159 138.018 53.5975 146.141C52.2049 155.431 46.1962 184.23 46.1962 184.23C41.8767 185.307 37.6733 183.443 37.6733 183.443C37.6733 183.443 37.0157 164.154 37.4412 154.748Z" fill="#455A64"/>
<path d="M57.291 116.51L57.897 112.68C59.7602 112.403 64.4795 109.457 67.271 106.878C65.2825 109.887 62.592 112.367 59.4314 114.105L59.3347 144.264L57.291 116.51Z" fill="#37474F"/>
<path d="M70.4056 76.3504C68.2329 71.3926 64.4936 63.0437 64.4936 63.0437L63.5459 49.5049C64.9293 49.549 66.309 49.6717 67.6785 49.8724C69.6899 50.1883 72.8812 52.1095 74.3382 55.7327C75.4278 58.4211 81.0883 74.8224 81.0883 74.8224L90.9523 69.6261C93.4795 68.0208 94.3757 65.3582 95.9874 63.8238C97.5992 62.2894 99.211 62.0573 100.997 60.8259C102.783 59.5945 103.485 58.6081 103.937 59.8395C104.388 61.0709 102.389 62.9599 102.003 63.4305C101.616 63.9011 99.6751 64.9069 102.151 65.0358C104.626 65.1648 109.636 62.7536 110.835 62.341C112.034 61.9283 111.931 63.3531 111.306 64.2364C110.68 65.1196 110.616 67.7113 109.571 69.1619C108.462 70.7092 107.863 71.3733 105.484 72.2952C103.273 73.1462 98.6887 73.3654 96.3291 74.7257C93.9695 76.0861 88.2574 81.2501 84.4472 83.8999C79.3347 87.4586 76.4593 87.6907 74.4543 84.854C72.4493 82.0173 71.1728 78.0975 70.4056 76.3504Z" fill="#FFA8A7"/>
<path d="M62.2109 49.2159C65.5634 48.958 69.5154 49.1643 71.701 51.15C73.4481 52.7424 74.1057 53.7288 76.0527 59.2346C77.3422 62.9287 80.1015 71.4388 80.1015 71.4388C76.3129 72.2936 72.9131 74.3765 70.4309 77.3637L64.1451 63.2382L62.2109 49.2159Z" fill="#E0E0E0"/>
<path d="M81.0882 74.7916C79.3893 75.3932 77.9275 76.5228 76.917 78.0152C76.917 78.0152 77.1555 75.4364 80.7852 73.8955L81.0882 74.7916Z" fill="#B3561B"/>
<path d="M54.1845 48.6101C52.5966 48.5447 51.0079 48.7185 49.4717 49.1259C46.5254 49.906 41.2453 51.3888 41.2453 51.3888C39.5691 52.2592 38.9179 55.1603 38.5375 56.8301C37.3255 62.1747 40.4717 74.2371 40.9552 78.937C41.4387 83.6369 40.3943 98.0332 40.3943 98.0332C43.9982 102.211 63.5263 104.983 73.0357 98.0332C73.0357 98.0332 73.4483 64.9792 72.5135 60.2341C71.0951 53.0521 68.9869 49.6417 61.5535 49.2097L54.1845 48.6101Z" fill="#F5F5F5"/>
<path d="M58.356 30.88L56.2349 32.047C56.0882 31.7549 56.0578 31.4181 56.15 31.1045C56.2421 30.7909 56.4499 30.524 56.7313 30.3578C56.8715 30.2817 57.0257 30.2348 57.1845 30.22C57.3433 30.2051 57.5035 30.2226 57.6554 30.2714C57.8072 30.3203 57.9476 30.3994 58.068 30.504C58.1885 30.6086 58.2864 30.7365 58.356 30.88Z" fill="#263238"/>
<path d="M67.5826 31.7315L65.6484 30.2423C65.7393 30.1114 65.8558 30.0005 65.991 29.9162C66.1261 29.8319 66.2769 29.776 66.4344 29.7518C66.5918 29.7277 66.7525 29.7359 66.9067 29.7759C67.0608 29.8158 67.2053 29.8868 67.3311 29.9844C67.5873 30.189 67.756 30.4836 67.8027 30.8082C67.8494 31.1327 67.7707 31.4629 67.5826 31.7315Z" fill="#263238"/>
<path d="M48.6089 24.1299C48.6089 24.1299 46.3267 24.4458 45.4885 26.1865C44.7665 27.6822 45.0244 31.2926 45.9979 35.2124C46.548 37.7556 47.3693 40.2326 48.4477 42.6007C48.8287 43.2716 49.4513 43.772 50.1884 43.9997L50.0659 39.3191L49.8983 36.0956C49.8983 36.0956 51.9807 33.246 52.2128 30.938C52.5094 27.9336 51.8776 26.7023 51.8776 26.7023L48.6089 24.1299Z" fill="#263238"/>
<path d="M52.2901 28.6436C52.2986 30.9537 53.2232 33.1661 54.8609 34.7953C56.4986 36.4246 58.7157 37.3377 61.0258 37.3343C65.8353 37.3343 69.4457 33.3693 69.407 28.5534C69.3683 23.7374 65.758 19.8821 60.942 19.9014C58.637 19.9185 56.4326 20.8479 54.8111 22.4862C53.1897 24.1246 52.2832 26.3386 52.2901 28.6436Z" fill="#263238"/>
<path d="M50.0657 35.547C49.2792 36.2303 48.6409 34.4703 47.9833 33.7805C47.3257 33.0906 45.166 32.1623 44.1151 34.4252C43.0642 36.6881 45.0564 39.9696 46.6939 40.6014C47.1883 40.7886 47.7312 40.8039 48.2353 40.6448C48.7394 40.4858 49.1752 40.1616 49.4726 39.7246V50.0399C51.9547 54.5142 56.3323 54.3723 58.6725 54.1209C61.0128 53.8695 61.5221 51.4389 59.8137 49.479V46.2555C61.114 46.4595 62.4326 46.5222 63.7464 46.4425C65.8868 46.1072 66.9699 44.5084 67.6146 42.1681C68.6461 38.4352 69.0652 32.1687 67.6146 24.9287C65.2163 23.0719 56.8996 23.3814 51.8645 26.5727C52.2577 33.0648 50.8136 34.87 50.0657 35.547Z" fill="#FFA8A7"/>
<path d="M68.0402 21.3451C68.364 20.0011 68.5093 18.6203 68.4721 17.2383C68.4721 16.6968 68.3367 16.0392 67.8274 15.8329C67.3181 15.6265 66.8152 16.0005 66.3768 16.297C64.5201 17.5478 62.212 17.9024 59.9749 18.0248C56.1067 18.2376 50.1947 17.9862 48.2284 22.2219C47.6804 23.3952 47.5837 24.6331 48.6668 25.4454C49.6324 26.0923 50.7367 26.503 51.8903 26.6445C53.8244 26.9862 55.7585 27.4117 57.7442 27.6761C59.7299 27.9404 62.0895 28.1983 64.0559 27.5923C65.7128 27.0829 67.3955 26.6445 68.6268 25.3293C69.6941 24.1825 70.2963 22.6795 70.316 21.113C70.316 20.8938 70.2708 20.6166 70.0516 20.5585C69.9421 20.5448 69.8311 20.5674 69.7357 20.623L68.0402 21.3451Z" fill="#263238"/>
<path d="M59.7943 46.3281C59.7943 46.3281 55.0106 45.3803 53.3473 44.4971C52.362 43.9867 51.5533 43.1914 51.0264 42.2148C51.2714 43.1904 51.7099 44.1068 52.3158 44.9097C53.5472 46.4699 59.7815 47.5981 59.7815 47.5981L59.7943 46.3281Z" fill="#B3561B"/>
<path d="M58.8335 34.0464C58.8272 34.2578 58.7587 34.4627 58.6366 34.6355C58.5145 34.8083 58.3442 34.9412 58.147 35.0178C57.9498 35.0944 57.7344 35.1112 57.5277 35.066C57.321 35.0209 57.1322 34.9159 56.9849 34.7642C56.8375 34.6124 56.7381 34.4205 56.6991 34.2126C56.6601 34.0047 56.6832 33.7899 56.7656 33.595C56.8479 33.4002 56.9859 33.2339 57.1622 33.1169C57.3385 33 57.5453 32.9376 57.7568 32.9375C58.0464 32.9426 58.3222 33.0621 58.5239 33.2699C58.7256 33.4776 58.8369 33.7568 58.8335 34.0464Z" fill="#263238"/>
<path d="M60.381 41.4917C60.3862 41.7642 60.2833 42.0277 60.0949 42.2246C59.9064 42.4215 59.6477 42.5358 59.3753 42.5426C59.1011 42.5375 58.8401 42.4241 58.6492 42.2272C58.4584 42.0303 58.3532 41.7659 58.3566 41.4917C58.3541 41.3571 58.378 41.2233 58.4272 41.0979C58.4764 40.9726 58.5497 40.8581 58.6431 40.7611C58.7365 40.6641 58.8481 40.5865 58.9715 40.5326C59.0949 40.4788 59.2277 40.4498 59.3624 40.4473C59.6354 40.4523 59.8955 40.5648 60.0861 40.7603C60.2768 40.9558 60.3827 41.2186 60.381 41.4917Z" fill="#B16668"/>
<path d="M57.4794 30.6615L55.2617 32.0605C55.0787 31.7561 55.0208 31.3926 55.1001 31.0463C55.1795 30.7001 55.3899 30.3981 55.6872 30.2038C55.8342 30.1136 55.9979 30.0539 56.1684 30.0281C56.339 30.0024 56.5129 30.0111 56.6801 30.0538C56.8472 30.0965 57.004 30.1722 57.1413 30.2766C57.2786 30.381 57.3936 30.5119 57.4794 30.6615Z" fill="#263238"/>
<path d="M65.3062 29.2949L67.64 30.3393C67.577 30.4925 67.4837 30.6314 67.3655 30.7475C67.2474 30.8636 67.107 30.9545 66.9527 31.0147C66.7984 31.075 66.6335 31.1034 66.468 31.0981C66.3024 31.0928 66.1397 31.054 65.9896 30.984C65.6849 30.8392 65.4456 30.5853 65.3191 30.2725C65.1925 29.9598 65.1879 29.6109 65.3062 29.2949Z" fill="#263238"/>
<path d="M66.5371 33.7231C66.5296 33.9263 66.4625 34.1228 66.3442 34.2882C66.2259 34.4536 66.0616 34.5806 65.8718 34.6535C65.682 34.7264 65.4749 34.7418 65.2763 34.6981C65.0778 34.6543 64.8964 34.5531 64.7549 34.4072C64.6133 34.2612 64.5177 34.0769 64.4799 33.8771C64.4422 33.6773 64.464 33.4708 64.5426 33.2833C64.6212 33.0957 64.7531 32.9354 64.922 32.8222C65.0909 32.709 65.2894 32.6479 65.4927 32.6465C65.7737 32.6516 66.0413 32.7677 66.237 32.9694C66.4327 33.1711 66.5406 33.4421 66.5371 33.7231Z" fill="#263238"/>
<path d="M61.2637 31.9053L61.6505 39.0744L65.0481 38.1718L61.2637 31.9053Z" fill="#B3561B"/>
<path d="M1.06803 61.4331C2.18337 62.0326 6.72854 65.2304 9.19775 65.5076C10.2422 65.6236 10.5258 65.456 10.4872 65.1852C10.4356 64.8113 9.77154 64.2504 9.61036 63.9474C9.33314 63.4188 7.67625 61.2268 8.32096 60.0792C8.96566 58.9316 9.52655 60.0276 11.061 61.5298C12.5953 63.0319 14.1684 63.5541 15.5159 65.3013C16.8633 67.0484 17.3146 69.8142 19.5453 71.8193L28.4293 77.8859C28.4293 77.8859 32.5683 58.6802 34.3864 56.4173C36.3205 54.0383 44.6178 59.2217 42.8771 66.7841C41.1364 74.3465 37.1715 87.4727 34.4122 90.0451C32.6328 91.7148 28.887 90.1418 24.2129 85.9834C20.5188 82.6954 15.4578 77.7634 13.3174 76.0163C11.177 74.2691 6.72854 73.3279 4.68482 72.1481C2.48638 70.8586 2.00285 70.1043 1.15829 68.3959C0.3653 66.7906 0.719888 64.2182 0.249254 63.2382C-0.221381 62.2583 -0.0666513 60.8335 1.06803 61.4331Z" fill="#FFA8A7"/>
<path d="M41.2455 51.3887C44.0951 53.1681 44.2369 55.7598 44.3787 58.7254C44.4191 62.1969 43.8697 65.65 42.7541 68.9375C41.5485 72.6704 39.6337 79.4849 39.6337 79.4849C39.6337 79.4849 32.1938 79.659 28.3643 76.3516C28.3643 76.3516 30.1114 69.002 31.3428 63.4575C32.5742 57.9131 34.0699 52.014 41.2455 51.3887Z" fill="#E0E0E0"/>
<path d="M28.3965 77.8985C30.4273 79.0267 31.62 81.4508 31.9875 82.4114C31.8996 81.2929 31.5475 80.2112 30.9602 79.2552C30.3729 78.2992 29.5672 77.4962 28.6092 76.9121L28.3965 77.8985Z" fill="#B3561B"/>
<path d="M105.58 217.239L155.338 245.967V256.553L105.58 227.825V217.239Z" fill="#FFD226"/>
<path opacity="0.35" d="M105.58 217.239L155.338 245.967V256.553L105.58 227.825V217.239Z" fill="black"/>
<path d="M205.097 217.239L155.339 245.967V256.553L205.097 227.825V217.239Z" fill="#FFD226"/>
<path opacity="0.2" d="M205.097 217.239L155.339 245.967V256.553L205.097 227.825V217.239Z" fill="black"/>
<path d="M205.097 217.239L155.338 188.518L105.58 217.239L155.338 245.967L205.097 217.239Z" fill="#FFD226"/>
<path opacity="0.15" d="M205.097 217.239L155.338 188.518L105.58 217.239L155.338 245.967L205.097 217.239Z" fill="black"/>
<path opacity="0.1" d="M155.338 245.967V242.944L110.815 217.239H105.58L155.338 245.967Z" fill="black"/>
<path opacity="0.1" d="M155.339 188.518V191.541L199.862 217.239H205.097L155.339 188.518Z" fill="black"/>
<path d="M205.097 217.239H199.862L155.339 242.944V245.967L205.097 217.239Z" fill="#FFD226"/>
<path d="M155.338 188.518V191.541L110.815 217.239H105.58L155.338 188.518Z" fill="#FFD226"/>
<path d="M155.519 204.771L176.898 217.11C178.497 218.039 178.497 219.535 176.898 220.456L160.954 229.689C160.056 230.148 159.062 230.387 158.053 230.387C157.044 230.387 156.05 230.148 155.152 229.689L133.773 217.349C132.175 216.421 132.175 214.925 133.773 214.003L149.723 204.771C150.621 204.313 151.614 204.074 152.621 204.074C153.629 204.074 154.622 204.313 155.519 204.771Z" fill="#37474F"/>
<path d="M160.954 229.688L176.369 220.785L155.519 208.748C154.619 208.295 153.625 208.059 152.618 208.059C151.61 208.059 150.617 208.295 149.717 208.748L134.302 217.665L155.151 229.688C156.05 230.147 157.044 230.387 158.053 230.387C159.061 230.387 160.056 230.147 160.954 229.688Z" fill="#455A64"/>
<path d="M142.606 217.258L151.961 211.862C152.135 211.775 152.327 211.729 152.522 211.729C152.716 211.729 152.908 211.775 153.082 211.862L154.23 212.507C154.54 212.681 154.54 212.971 154.23 213.152L144.875 218.548C144.702 218.635 144.511 218.681 144.318 218.681C144.124 218.681 143.933 218.635 143.76 218.548L142.612 217.903C142.545 217.88 142.487 217.837 142.446 217.78C142.404 217.723 142.382 217.654 142.381 217.583C142.38 217.512 142.401 217.443 142.442 217.385C142.482 217.327 142.54 217.283 142.606 217.258Z" fill="#263238"/>
<path d="M156.577 225.337L165.931 219.94C166.104 219.853 166.295 219.808 166.489 219.808C166.683 219.808 166.874 219.853 167.047 219.94L168.201 220.585C168.51 220.759 168.51 221.049 168.201 221.23L158.846 226.626C158.673 226.713 158.482 226.759 158.288 226.759C158.095 226.759 157.904 226.713 157.731 226.626L156.583 225.981C156.516 225.958 156.458 225.915 156.416 225.858C156.375 225.801 156.352 225.732 156.352 225.661C156.351 225.59 156.372 225.521 156.412 225.463C156.453 225.405 156.51 225.361 156.577 225.337Z" fill="#263238"/>
<path d="M133.722 238.147C133.669 237.169 133.386 236.217 132.895 235.369C132.405 234.52 131.72 233.8 130.898 233.267C130.614 233.059 130.279 232.932 129.929 232.898C129.578 232.864 129.225 232.925 128.906 233.074L127.688 233.783C127.401 233.985 127.173 234.26 127.028 234.58C126.883 234.899 126.826 235.252 126.862 235.601C126.916 236.579 127.199 237.531 127.688 238.38C128.177 239.229 128.86 239.951 129.68 240.488C129.965 240.695 130.301 240.823 130.653 240.857C131.004 240.891 131.358 240.83 131.678 240.681L132.89 239.953C133.175 239.751 133.402 239.478 133.548 239.162C133.694 238.845 133.754 238.495 133.722 238.147Z" fill="#FFD226"/>
<path opacity="0.1" d="M129.68 233.996C130.502 234.529 131.186 235.249 131.677 236.097C132.168 236.945 132.451 237.898 132.503 238.876C132.503 240.675 131.214 241.403 129.68 240.507C128.86 239.971 128.177 239.249 127.688 238.4C127.199 237.551 126.916 236.599 126.862 235.62C126.862 233.828 128.126 233.1 129.68 233.996Z" fill="black"/>
<path d="M96.9741 254.586C93.8281 254.641 90.7206 253.888 87.9483 252.4L54.9394 233.343C52.2896 231.808 50.8262 229.694 50.8262 227.386C50.8262 225.078 52.2896 222.969 54.9394 221.435L93.1833 199.354C97.3738 196.936 100.92 190.805 100.92 185.963V64.933C100.92 64.591 101.056 64.263 101.297 64.0212C101.539 63.7794 101.867 63.6436 102.209 63.6436C102.551 63.6436 102.879 63.7794 103.121 64.0212C103.363 64.263 103.499 64.591 103.499 64.933V185.963C103.499 191.804 99.54 198.67 94.4727 201.591L56.2288 223.672C54.4107 224.723 53.405 226.038 53.405 227.386C53.405 228.733 54.4107 230.055 56.2288 231.106L89.2377 250.163C93.4992 252.626 100.436 252.626 104.711 250.163L129.048 236.121C129.195 236.028 129.359 235.965 129.531 235.937C129.702 235.909 129.878 235.916 130.047 235.957C130.216 235.998 130.374 236.074 130.513 236.178C130.653 236.282 130.769 236.414 130.856 236.564C130.943 236.715 130.999 236.881 131.02 237.054C131.041 237.227 131.027 237.402 130.978 237.569C130.93 237.736 130.848 237.891 130.738 238.026C130.628 238.16 130.492 238.271 130.338 238.352L106 252.4C103.228 253.889 100.12 254.642 96.9741 254.586Z" fill="#37474F"/>
<path d="M39.0538 18.6502C39.0347 18.5628 39.034 18.4724 39.0517 18.3847C39.0695 18.297 39.1053 18.214 39.1569 18.1409C39.2055 18.0644 39.2697 17.9991 39.3452 17.9491C39.4207 17.8991 39.506 17.8656 39.5953 17.8508L42.7286 17.2447C42.817 17.2247 42.9086 17.2236 42.9974 17.2413C43.0863 17.2591 43.1704 17.2954 43.2443 17.3479C43.3941 17.451 43.4981 17.6081 43.5345 17.7863L44.018 20.3007C44.0361 20.3885 44.0358 20.4792 44.0169 20.5669C43.998 20.6546 43.9611 20.7374 43.9084 20.81C43.8611 20.8869 43.7983 20.953 43.7239 21.0041C43.6495 21.0552 43.5652 21.0901 43.4764 21.1065L40.3367 21.7061C40.2493 21.7252 40.1589 21.7259 40.0712 21.7081C39.9835 21.6904 39.9005 21.6545 39.8274 21.603C39.751 21.5544 39.6856 21.4902 39.6356 21.4147C39.5856 21.3391 39.5521 21.2539 39.5373 21.1646L39.0538 18.6502ZM36.4363 5.07273C36.4185 4.98422 36.4184 4.89306 36.436 4.80453C36.4537 4.71599 36.4887 4.63182 36.539 4.55689C36.5894 4.48196 36.6541 4.41775 36.7294 4.36796C36.8047 4.31818 36.8891 4.28381 36.9778 4.26685L40.1175 3.66083C40.2054 3.64265 40.296 3.64302 40.3837 3.66189C40.4714 3.68076 40.5542 3.71773 40.6268 3.77042C40.7025 3.81831 40.7674 3.88146 40.8174 3.95583C40.8674 4.03021 40.9013 4.11417 40.9169 4.20238L42.9736 14.9496C42.9917 15.0374 42.9914 15.1281 42.9725 15.2158C42.9536 15.3035 42.9167 15.3863 42.864 15.4589C42.8161 15.5346 42.7529 15.5995 42.6785 15.6495C42.6042 15.6994 42.5202 15.7333 42.432 15.749L39.2923 16.3551C39.2044 16.3732 39.1138 16.3729 39.0261 16.354C38.9384 16.3351 38.8556 16.2982 38.783 16.2455C38.7073 16.1976 38.6424 16.1344 38.5924 16.06C38.5425 15.9857 38.5086 15.9017 38.4929 15.8135L36.4363 5.07273Z" fill="#FFD226"/>
<path d="M33.8188 29.1717C33.7585 29.1049 33.712 29.0268 33.6819 28.942C33.6519 28.8572 33.6389 28.7673 33.6437 28.6774C33.6485 28.5876 33.671 28.4996 33.7099 28.4184C33.7488 28.3373 33.8033 28.2646 33.8703 28.2046L36.2493 26.0707C36.3157 26.0095 36.3942 25.963 36.4797 25.9341C36.5652 25.9053 36.6559 25.8947 36.7457 25.903C36.8351 25.905 36.9231 25.9254 37.0041 25.9632C37.0851 26.0009 37.1574 26.0551 37.2164 26.1222L38.9248 28.0564C38.9851 28.1232 39.0316 28.2012 39.0617 28.286C39.0917 28.3708 39.1047 28.4607 39.0999 28.5506C39.0951 28.6404 39.0726 28.7285 39.0337 28.8096C38.9948 28.8907 38.9403 28.9634 38.8732 29.0234L36.5265 31.1316C36.4601 31.1927 36.3816 31.2392 36.2961 31.2681C36.2106 31.297 36.12 31.3076 36.0301 31.2992C35.9407 31.2973 35.8528 31.2768 35.7717 31.2391C35.6907 31.2013 35.6184 31.1472 35.5595 31.08L33.8188 29.1717ZM24.593 18.8564C24.4717 18.7204 24.4091 18.542 24.419 18.36C24.4217 18.2702 24.4432 18.1819 24.482 18.1008C24.5209 18.0198 24.5763 17.9477 24.6446 17.8894L27.0236 15.7554C27.0894 15.6931 27.1677 15.6454 27.2532 15.6154C27.3388 15.5854 27.4297 15.5738 27.52 15.5813C27.6098 15.584 27.6981 15.6055 27.7792 15.6444C27.8602 15.6832 27.9323 15.7386 27.9906 15.807L35.2887 23.9689C35.3498 24.0353 35.3963 24.1138 35.4252 24.1993C35.4541 24.2849 35.4647 24.3755 35.4563 24.4653C35.4544 24.5547 35.4339 24.6427 35.3962 24.7237C35.3584 24.8047 35.3043 24.877 35.2371 24.936L32.8517 27.07C32.7861 27.1302 32.7086 27.1763 32.6243 27.2051C32.54 27.234 32.4506 27.245 32.3617 27.2376C32.2713 27.2366 32.1821 27.2165 32.0999 27.1787C32.0177 27.141 31.9443 27.0863 31.8847 27.0184L24.593 18.8564Z" fill="#FFD226"/>
<g opacity="0.6">
<path opacity="0.6" d="M33.8178 29.1707C33.7575 29.1039 33.711 29.0259 33.681 28.9411C33.6509 28.8562 33.6379 28.7663 33.6427 28.6765C33.6475 28.5866 33.67 28.4986 33.7089 28.4175C33.7478 28.3363 33.8023 28.2637 33.8694 28.2037L36.2483 26.0697C36.3147 26.0086 36.3932 25.962 36.4787 25.9332C36.5643 25.9043 36.6549 25.8937 36.7447 25.9021C36.8341 25.904 36.9221 25.9245 37.0031 25.9622C37.0841 25.9999 37.1564 26.0541 37.2154 26.1213L38.9239 28.0554C38.9841 28.1222 39.0306 28.2002 39.0607 28.285C39.0907 28.3699 39.1037 28.4598 39.0989 28.5496C39.0941 28.6395 39.0716 28.7275 39.0328 28.8086C38.9939 28.8898 38.9393 28.9624 38.8723 29.0224L36.5255 31.1306C36.4591 31.1917 36.3806 31.2383 36.2951 31.2671C36.2096 31.296 36.119 31.3066 36.0291 31.2982C35.9398 31.2963 35.8518 31.2758 35.7708 31.2381C35.6897 31.2004 35.6175 31.1462 35.5585 31.079L33.8178 29.1707ZM24.5921 18.8554C24.4708 18.7195 24.4082 18.541 24.418 18.359C24.4207 18.2692 24.4422 18.1809 24.4811 18.0998C24.5199 18.0188 24.5753 17.9468 24.6436 17.8884L27.0226 15.7544C27.0885 15.6921 27.1667 15.6444 27.2523 15.6144C27.3378 15.5844 27.4287 15.5728 27.519 15.5803C27.6089 15.5831 27.6971 15.6046 27.7782 15.6434C27.8592 15.6823 27.9313 15.7376 27.9897 15.806L35.2877 23.9679C35.3488 24.0343 35.3954 24.1128 35.4242 24.1984C35.4531 24.2839 35.4637 24.3745 35.4553 24.4644C35.4534 24.5537 35.4329 24.6417 35.3952 24.7227C35.3575 24.8037 35.3033 24.876 35.2361 24.935L32.8507 27.069C32.7851 27.1293 32.7076 27.1753 32.6233 27.2041C32.539 27.233 32.4496 27.244 32.3608 27.2366C32.2703 27.2356 32.1811 27.2155 32.0989 27.1778C32.0167 27.14 31.9434 27.0854 31.8837 27.0174L24.5921 18.8554Z" fill="white"/>
</g>
</svg>
