<svg width="486" height="486" viewBox="0 0 486 486" fill="none" xmlns="http://www.w3.org/2000/svg">
<path d="M401.747 240.871C313.49 189.909 170.858 189.909 83.1644 240.871C-4.52942 291.833 -4.05315 374.453 84.2044 425.406C172.462 476.358 315.103 476.367 402.787 425.406C490.471 374.444 490.014 291.833 401.747 240.871Z" fill="#F5F5F5"/>
<path opacity="0.2" d="M433.619 330.48C440.131 326.728 450.648 326.728 457.122 330.48C463.595 334.232 463.557 340.326 457.044 344.088C450.532 347.85 440.015 347.85 433.541 344.088C427.068 340.326 427.106 334.261 433.619 330.48Z" fill="#B3751B"/>
<path opacity="0.2" d="M248.463 335.972L236.419 319.603C235.204 317.951 233.647 316.579 231.854 315.583C230.061 314.587 228.074 313.989 226.029 313.83L208.28 312.469L180.092 295.332L190.638 289.238C190.777 289.15 190.891 289.029 190.97 288.886C191.049 288.742 191.09 288.581 191.09 288.417C191.09 288.253 191.049 288.092 190.97 287.948C190.891 287.804 190.777 287.683 190.638 287.595L186.255 285.097C185.39 284.603 184.412 284.343 183.416 284.343C182.421 284.343 181.442 284.603 180.578 285.097L77.2059 344.866C77.0673 344.953 76.9532 345.075 76.8742 345.218C76.7951 345.362 76.7537 345.523 76.7537 345.687C76.7537 345.851 76.7951 346.012 76.8742 346.156C76.9532 346.299 77.0673 346.421 77.2059 346.508L81.4827 348.977C82.3497 349.479 83.3337 349.743 84.3355 349.743C85.3372 349.743 86.3213 349.479 87.1883 348.977L132.056 323.064L159.865 339.014L163.5 349.249C164.619 352.391 166.683 355.11 169.408 357.033C172.133 358.956 175.386 359.989 178.722 359.99H204.674L222.287 370.157L264.841 345.42L248.463 335.972Z" fill="#B3751B"/>
<path opacity="0.2" d="M406.801 320.867C378.672 304.635 333.211 304.635 305.266 320.867C280.568 335.214 277.827 357.434 296.927 373.627C281.511 372.655 265.55 375.571 253.779 382.443C233.124 394.448 233.231 413.907 254.022 425.911C274.814 437.915 308.454 437.906 329.061 425.911C345.488 416.357 348.763 402.088 338.956 390.608C362.634 394.039 388.693 390.394 407.142 379.683C435.087 363.451 434.941 337.119 406.801 320.867Z" fill="#B3751B"/>
<path opacity="0.2" d="M80.2677 365.695C72.8611 361.419 60.8861 361.419 53.528 365.695C46.17 369.972 46.2089 376.912 53.6155 381.189C61.0221 385.466 72.9972 385.466 80.3552 381.189C87.7133 376.912 87.6841 369.972 80.2677 365.695Z" fill="#B3751B"/>
<path d="M152.38 31.0456L157.58 28.0713L157.901 141.737L157.892 141.747L115.979 165.677L115.959 159.729L115.648 52.0116L152.38 31.0456Z" fill="#F0F0F0"/>
<path opacity="0.1" d="M152.691 138.753L152.38 31.0456L157.581 28.0713L157.901 141.737L157.892 141.747L152.672 138.763L152.691 138.753Z" fill="black"/>
<path opacity="0.2" d="M115.959 159.729L152.672 138.763L157.892 141.747L115.979 165.677L115.959 159.729Z" fill="black"/>
<path d="M95.0227 63.7922L100.223 60.8179L100.544 174.484L100.534 174.493L58.6213 198.424L58.6018 192.475L58.2908 84.7582L95.0227 63.7922Z" fill="#F0F0F0"/>
<path opacity="0.1" d="M95.3337 171.5L95.0227 63.7922L100.223 60.8179L100.544 174.484L100.534 174.493L95.3143 171.509L95.3337 171.5Z" fill="black"/>
<path opacity="0.2" d="M58.6018 192.475L95.3142 171.509L100.534 174.493L58.6212 198.424L58.6018 192.475Z" fill="black"/>
<path d="M273.569 94.8381C273.249 94.4979 272.938 94.148 272.597 93.7884L272.393 93.5551C271.878 92.9622 271.421 92.3595 270.896 91.7375L270.741 91.5333C270.352 91.0376 269.983 90.5613 269.613 90.0073L269.448 89.7837C269.098 89.2783 268.758 88.8117 268.427 88.248C268.34 88.1216 268.262 87.9953 268.184 87.8689C267.912 87.4412 267.65 87.0135 267.397 86.5761C267.336 86.489 267.281 86.3981 267.232 86.304C266.94 85.8083 266.658 85.332 266.386 84.7974L266.192 84.4086C265.978 84.0101 265.774 83.6018 265.57 83.1936L265.375 82.7853C265.123 82.2702 264.889 81.755 264.656 81.2301L264.569 81.0066C264.364 80.5303 264.17 80.0346 263.985 79.5875L263.82 79.1598C263.606 78.596 263.402 78.0323 263.217 77.4685C263.217 77.4685 263.217 77.381 263.169 77.3324C262.974 76.7492 262.8 76.166 262.634 75.5828L262.547 75.2523C262.352 74.5719 262.187 73.8915 262.041 73.2209C262.041 73.0653 261.983 72.9195 261.944 72.7737L261.798 71.9767C261.798 71.8115 261.73 71.6462 261.711 71.4713C261.711 71.1991 261.623 70.9269 261.585 70.6548C261.546 70.3826 261.536 70.334 261.516 70.1688C261.439 69.5856 261.39 69.0024 261.342 68.4289C261.342 68.3025 261.342 68.1762 261.342 68.0595C261.342 67.4666 261.283 66.8737 261.283 66.2905C261.283 65.892 261.283 65.4935 261.283 65.1144V64.677C261.283 64.4437 261.283 64.2007 261.342 63.9771C261.4 63.7536 261.342 63.6855 261.39 63.5397C261.439 63.3939 261.39 63.0926 261.468 62.8788C261.546 62.6649 261.526 62.5775 261.546 62.4317C261.565 62.2859 261.614 62.0331 261.653 61.8387C261.691 61.6443 261.721 61.5374 261.75 61.3819C261.779 61.2264 261.837 61.0223 261.876 60.8376C261.915 60.6529 261.964 60.546 262.002 60.4002C262.041 60.2544 262.1 60.06 262.158 59.8947L262.304 59.4671C262.362 59.3115 262.411 59.1463 262.479 58.9908C262.547 58.8353 262.595 58.7283 262.644 58.5923C262.693 58.4562 262.77 58.2909 262.838 58.1451C262.906 57.9993 262.965 57.8924 263.033 57.7661C263.101 57.6397 263.169 57.4842 263.247 57.3481L263.46 56.9982L263.694 56.5997L263.927 56.2692C264.015 56.1525 264.092 56.0262 264.189 55.9095C264.287 55.7929 264.355 55.7054 264.442 55.5985C264.53 55.4916 264.617 55.3749 264.714 55.268C264.812 55.1611 264.899 55.0736 264.987 54.9764L265.278 54.6751L265.57 54.4127L265.881 54.1405L266.192 53.9072L266.522 53.6642L266.843 53.4504C267.843 52.8255 268.945 52.3814 270.099 52.1382C267.912 54.5973 266.629 58.3395 266.61 63.1607C266.61 63.7439 266.61 64.3368 266.668 64.9297C266.668 65.0561 266.668 65.1727 266.668 65.2991C266.668 65.8725 266.765 66.4557 266.843 67.0389C266.843 67.2042 266.892 67.3694 266.911 67.5249C266.931 67.6805 266.989 68.0693 267.037 68.3414C267.086 68.6136 267.096 68.7108 267.135 68.8955L267.28 69.6925C267.28 69.8383 267.348 69.9841 267.378 70.1396C267.523 70.8103 267.689 71.4907 267.873 72.1711C267.912 72.2828 267.944 72.3963 267.971 72.5113C268.136 73.0848 268.311 73.668 268.505 74.2512C268.505 74.2512 268.505 74.3484 268.554 74.3873C268.738 74.9607 268.943 75.5245 269.156 76.0785C269.215 76.2243 269.263 76.3701 269.322 76.5062C269.506 76.9825 269.701 77.4782 269.905 77.9253L269.992 78.1489C270.226 78.6738 270.459 79.1889 270.712 79.7041C270.77 79.8402 270.838 79.9763 270.906 80.1123C271.11 80.5206 271.314 80.9288 271.528 81.3371L271.722 81.7161C271.995 82.2216 272.277 82.6881 272.568 83.2227C272.617 83.3199 272.675 83.4074 272.733 83.5046C272.986 83.9323 273.249 84.3697 273.521 84.7974L273.754 85.1667C274.094 85.6819 274.434 86.1971 274.784 86.7025L274.95 86.9261C275.319 87.4509 275.688 87.9564 276.077 88.4618L276.233 88.6659C276.719 89.288 277.205 89.8907 277.729 90.4836L277.924 90.7169L278.896 91.7763L278.954 91.8347C279.294 92.1943 279.644 92.5539 279.994 92.8941C280.062 92.9719 280.14 93.0399 280.218 93.1177C280.675 93.5551 281.131 93.9925 281.608 94.4105L281.734 94.5271C282.22 94.9548 282.706 95.3533 283.212 95.7518L283.503 95.9754C283.989 96.3545 284.475 96.7141 285 97.064L285.262 97.239C285.797 97.5889 286.332 97.9291 286.866 98.211C287.401 98.4929 287.731 98.6873 288.159 98.9108L288.519 99.0858L289.491 99.5329L289.831 99.6787L290.725 100.019L290.949 100.097C291.318 100.223 291.687 100.34 292.047 100.437L292.689 100.592L292.98 100.67C293.291 100.738 293.592 100.787 293.894 100.835C294.344 100.909 294.799 100.954 295.255 100.971H295.527C295.925 100.971 296.314 100.971 296.703 100.971H296.897C297.207 100.951 297.515 100.916 297.821 100.865H298.103L298.394 100.797C297.674 101.617 296.823 102.313 295.877 102.857L295.779 102.906H295.711C295.468 103.042 295.216 103.158 294.963 103.275L294.701 103.382C294.435 103.492 294.163 103.589 293.884 103.674H293.738C293.418 103.761 293.087 103.839 292.766 103.897H292.504C292.203 103.897 291.911 103.975 291.6 104.004H291.367C290.988 104.004 290.599 104.004 290.21 104.004H289.957H289.316L288.577 103.917L288.11 103.829L287.663 103.742L287.391 103.674H287.313L286.74 103.538C286.38 103.431 286.021 103.324 285.661 103.197L285.437 103.12L284.533 102.779L284.213 102.643C283.889 102.507 283.565 102.361 283.241 102.206L283.027 102.099C282.972 102.079 282.92 102.053 282.871 102.021C282.444 101.807 282.016 101.584 281.579 101.331C281.141 101.078 280.509 100.68 279.984 100.359H279.907L279.712 100.233C279.207 99.8828 278.74 99.5232 278.215 99.1441L278.031 98.9983L277.924 98.9205C277.428 98.522 276.952 98.1138 276.446 97.6958C276.418 97.6724 276.392 97.6464 276.369 97.6181H276.32C275.844 97.2098 275.348 96.7724 274.93 96.335L274.707 96.1115C274.357 95.7713 274.007 95.4116 273.666 95.052L273.569 94.8381Z" fill="#EBEBEB"/>
<path d="M298.112 83.7476V85.0014L301.641 87.0329V85.779L298.112 83.7476Z" fill="white"/>
<path d="M269.584 57.3867L269.04 58.1449L272.092 61.9454L272.636 61.1775L269.584 57.3867Z" fill="white"/>
<path d="M304.625 88.1314C304.625 101.03 295.459 106.23 284.213 99.7954C272.967 93.3608 263.946 77.5658 263.976 64.6673C264.005 51.7689 273.142 46.5687 284.388 53.0033C295.634 59.438 304.664 75.233 304.625 88.1314ZM275.076 75.6801C275.161 75.953 275.34 76.1871 275.581 76.3411C275.646 76.3812 275.719 76.4045 275.795 76.4091L284.427 77.0895C284.486 77.1069 284.55 77.1039 284.608 77.0811C284.667 77.0582 284.715 77.0167 284.747 76.9631L290.395 67.3889C290.446 67.2201 290.451 67.0404 290.408 66.8692C290.365 66.698 290.277 66.5416 290.152 66.4169C290.082 66.336 290 66.2671 289.909 66.2128C289.714 66.1059 289.52 66.1156 289.423 66.2809L283.872 75.6995L275.367 75.0289C275.095 75.0289 274.959 75.301 275.076 75.6898V75.6801ZM291.678 67.2334L293.447 64.7451L292.475 63.5787L290.774 66.0962L291.746 67.2626L291.678 67.2334ZM292.475 98.7359L293.447 98.6582L291.6 94.0898L290.628 94.1675L292.377 98.6971L292.475 98.7359ZM269.526 78.392L272.588 78.1295L272.053 76.7299L268.981 76.9923L269.526 78.392ZM299.016 95.4214L299.561 94.6535L296.508 90.853L295.964 91.6209L299.016 95.4214ZM269.584 57.3482L269.04 58.1063L272.092 61.9068L272.636 61.139L269.584 57.3482ZM296.557 76.0689L299.619 75.8065L299.075 74.4165L296.013 74.6692L296.557 76.0689ZM276.145 54.1017L275.173 54.1795L276.923 58.709L277.895 58.6312L276.135 54.1017H276.145ZM276.048 89.2298L277.827 86.7317L276.855 85.5751L275.076 88.0634L276.048 89.2298ZM270.488 69.0122V67.7972L266.96 65.7657V67.0099L270.488 69.0511V69.0122ZM301.641 85.7889L298.112 83.7477V85.0016L301.641 87.0331V85.7889ZM283.707 96.0143L284.786 96.6364V92.5832L283.707 91.9514V96.0143ZM284.903 56.7844L283.824 56.1623V60.2642L284.903 60.896V56.833" fill="#B3751B"/>
<path d="M283.814 56.1621L283.804 60.2154L284.883 60.8472L284.903 56.7842L283.814 56.1621Z" fill="white"/>
<path d="M292.552 63.5688L290.774 66.0572L291.717 67.2236L293.486 64.7352L292.552 63.5688Z" fill="white"/>
<path d="M299.075 74.4165L296.013 74.6692L296.557 76.0689L299.619 75.8065L299.075 74.4165Z" fill="white"/>
<path d="M296.509 90.853L295.964 91.6209L299.016 95.4214L299.561 94.6536L296.509 90.853Z" fill="white"/>
<path d="M291.639 94.0898L290.696 94.1676L292.446 98.6971L293.388 98.6194L291.639 94.0898Z" fill="white"/>
<path d="M283.717 91.9512L283.707 96.0141L284.786 96.6362L284.796 92.583L283.717 91.9512Z" fill="white"/>
<path d="M276.893 85.5747L275.115 88.063L276.048 89.2294L277.827 86.7314L276.893 85.5747Z" fill="white"/>
<path d="M272.043 76.73L268.981 76.9924L269.526 78.3921L272.588 78.1297L272.043 76.73Z" fill="white"/>
<path d="M266.96 65.7656V67.0098L270.488 69.051V67.7971L266.96 65.7656Z" fill="white"/>
<path d="M276.145 54.1016L275.212 54.1793L276.962 58.7088L277.905 58.6311L276.145 54.1016Z" fill="white"/>
<path d="M284.3 75.8159C284.236 75.7758 284.162 75.7524 284.087 75.7478H283.912L275.407 75.0771C275.134 75.0771 274.998 75.3493 275.115 75.7381C275.2 76.0111 275.379 76.2451 275.62 76.3991C275.685 76.4392 275.758 76.4626 275.834 76.4671L284.466 77.1475C284.738 77.1475 284.864 76.8851 284.747 76.4963C284.685 76.2231 284.526 75.9816 284.3 75.8159Z" fill="white"/>
<path d="M289.948 66.2029C289.753 66.096 289.559 66.1057 289.462 66.271L283.912 75.6897H284.087C284.162 75.6942 284.236 75.7176 284.3 75.7577C284.541 75.9102 284.717 76.1452 284.796 76.4187C284.913 76.8075 284.796 77.0991 284.514 77.0699C284.574 77.0873 284.638 77.0844 284.696 77.0615C284.754 77.0386 284.803 76.9971 284.835 76.9436L290.482 67.3693C290.534 67.2005 290.539 67.0209 290.496 66.8496C290.453 66.6784 290.364 66.522 290.239 66.3973C290.155 66.3154 290.056 66.2495 289.948 66.2029Z" fill="#F5F5F5"/>
<path d="M298.219 104.004L298.54 103.751C298.66 103.659 298.774 103.558 298.88 103.45C298.987 103.363 299.094 103.275 299.191 103.178L299.512 102.847L299.804 102.536C299.912 102.423 300.012 102.303 300.105 102.177C300.192 102.07 300.29 101.963 300.377 101.846C300.465 101.73 300.562 101.584 300.649 101.457C300.737 101.331 300.824 101.224 300.902 101.098C300.98 100.971 301.077 100.816 301.155 100.67C301.233 100.524 301.32 100.417 301.388 100.291C301.456 100.165 301.544 99.9897 301.621 99.8342L301.835 99.4259L302.039 98.9399C302.098 98.7941 302.166 98.6581 302.224 98.5123C302.282 98.3665 302.35 98.1623 302.409 97.9874C302.467 97.8124 302.525 97.6861 302.574 97.5403C302.622 97.3945 302.681 97.1709 302.729 96.9862C302.778 96.8015 302.827 96.6752 302.865 96.5099C302.904 96.3447 302.963 96.1309 303.002 95.9365L303.118 95.431C303.118 95.2269 303.186 95.0131 303.225 94.8089L303.313 94.3035L303.4 93.5842L303.458 93.1274L303.517 92.3012V91.9027C303.517 91.4879 303.517 91.0603 303.517 90.6196C303.517 89.9878 303.517 89.356 303.458 88.6756C303.454 88.6336 303.454 88.5913 303.458 88.5493C303.41 87.8397 303.351 87.1204 303.254 86.3914V86.1484L303.079 84.9723C303.079 84.7779 303.011 84.5835 302.972 84.3794C302.914 84.0975 302.865 83.8059 302.807 83.5143V83.3782C302.465 81.7541 302.03 80.1509 301.505 78.5765C300.803 76.4581 299.958 74.3895 298.977 72.3849L298.919 72.2585C298.355 71.1213 297.762 69.9938 297.121 68.8954L296.946 68.5941C296.654 68.0984 296.353 67.6221 296.052 67.1361L295.838 66.7959C295.002 65.5031 294.127 64.259 293.194 63.0634C292.28 61.8905 291.308 60.7663 290.278 59.6906C289.899 59.2823 289.51 58.8935 289.121 58.495L288.927 58.3201C288.422 57.8146 287.906 57.3481 287.372 56.8621H287.313C286.769 56.3761 286.205 55.8901 285.642 55.4624L285.34 55.2194C284.806 54.8111 284.271 54.4223 283.717 54.053L283.659 54.0044C283.309 53.7711 282.959 53.5378 282.609 53.324C282.259 53.1101 282.006 52.9449 281.695 52.7699C281.229 52.4978 280.723 52.2548 280.305 52.0215C278.978 51.3434 277.588 50.7965 276.155 50.3885L275.776 50.2913L275.173 50.1455L274.755 50.0678L274.191 49.9706H274.143H273.735L273.015 49.8928H272.957H272.733C272.212 49.8637 271.69 49.8637 271.169 49.8928H270.945C270.615 49.8928 270.284 49.9511 269.973 49.9997C269.513 50.0659 269.059 50.1634 268.612 50.2913H268.534H268.447C268.146 50.3885 267.854 50.4955 267.562 50.6121L267.426 50.6704C267.028 50.8454 266.629 51.0301 266.25 51.2439L271.635 48.1141L271.752 48.046L271.898 47.9683C272.16 47.8322 272.432 47.6961 272.704 47.5795C272.754 47.5497 272.806 47.5237 272.86 47.5017H272.986C273.31 47.3721 273.634 47.2555 273.958 47.1518C274.32 47.0481 274.686 46.9637 275.057 46.8991H275.183H275.358C275.679 46.8418 276.004 46.8028 276.33 46.7824H276.495H276.544C276.968 46.7581 277.393 46.7581 277.817 46.7824H277.943H278.361H278.653C278.945 46.7824 279.246 46.8407 279.547 46.8893L280.519 47.074L280.83 47.1518L281.462 47.3073H281.52C281.909 47.4142 282.308 47.5309 282.706 47.6669L282.949 47.7641C283.27 47.8711 283.591 47.9974 283.921 48.1335L284.057 48.1821L284.3 48.289C284.64 48.4348 284.99 48.6001 285.34 48.7653L285.739 48.9597C286.196 49.193 286.711 49.436 287.129 49.7081C287.547 49.9803 288.285 50.408 288.859 50.7968L289.151 50.9912C289.695 51.3605 290.239 51.7493 290.774 52.1576L291.075 52.4006C291.619 52.8283 292.154 53.2657 292.679 53.7322C292.729 53.7692 292.774 53.8115 292.815 53.8586C293.33 54.3057 293.787 54.7723 294.322 55.2583L294.467 55.3943L294.565 55.4915C294.944 55.8609 295.313 56.24 295.682 56.6385L295.741 56.6968C296.091 57.0759 296.431 57.455 296.771 57.8438L296.868 57.9507L296.985 58.0965C297.539 58.738 298.083 59.3893 298.608 60.0405V60.0988C298.65 60.1483 298.689 60.2002 298.725 60.2543C299.146 60.7987 299.554 61.3527 299.949 61.9165L300.076 62.0817C300.096 62.1087 300.112 62.1381 300.124 62.1692C300.513 62.7038 300.883 63.2578 301.242 63.8216C301.272 63.8771 301.308 63.9292 301.349 63.9771L301.495 64.2298C301.787 64.6867 302.068 65.2018 302.35 65.6198L302.477 65.8336C302.48 65.8627 302.48 65.892 302.477 65.9211C302.797 66.4654 303.099 67.0097 303.39 67.5541L303.458 67.6901L303.604 67.9623L304.275 69.2842C304.275 69.3717 304.362 69.4689 304.411 69.5564C304.46 69.6439 304.46 69.673 304.489 69.7216C304.751 70.2854 305.014 70.8491 305.257 71.4129C305.275 71.4728 305.298 71.5313 305.325 71.5879C305.548 72.103 305.752 72.6182 305.956 73.1333C305.956 73.2208 306.024 73.2986 306.063 73.3861C306.102 73.4735 306.112 73.5221 306.131 73.5999C306.365 74.2025 306.588 74.8149 306.792 75.4273V75.5342C307.006 76.1822 307.201 76.8302 307.376 77.4782L307.444 77.7212C307.448 77.7632 307.448 77.8055 307.444 77.8475C307.638 78.5863 307.823 79.3153 307.978 80.0443C307.983 80.109 307.983 80.1739 307.978 80.2387L308.037 80.5303C308.095 80.8121 308.143 81.1037 308.202 81.3856C308.26 81.6675 308.27 81.7841 308.309 81.9883C308.348 82.1924 308.396 82.5812 308.435 82.8728C308.435 83.0089 308.484 83.1449 308.503 83.2907C308.499 83.3263 308.499 83.3622 308.503 83.3977C308.581 84.0295 308.639 84.6613 308.688 85.2833C308.688 85.4194 308.688 85.5458 308.688 85.6819C308.688 86.3234 308.756 86.9552 308.756 87.6259C308.756 94.5562 306.287 99.4259 302.35 101.72L296.965 104.85L297.306 104.626C297.422 104.558 297.539 104.49 297.646 104.412L298.219 104.004Z" fill="#EBEBEB"/>
<path d="M259.641 65.2795C259.641 79.2179 269.361 96.1988 281.54 103.187C287.819 106.813 293.495 107.075 297.51 104.5C297.626 104.432 297.743 104.364 297.85 104.286L298.219 104.014L298.54 103.761C298.66 103.668 298.774 103.568 298.88 103.46C298.987 103.372 299.094 103.285 299.191 103.187L299.512 102.857L299.804 102.546C299.912 102.433 300.012 102.312 300.105 102.186C300.192 102.079 300.29 101.972 300.377 101.856C300.465 101.739 300.562 101.593 300.649 101.467C300.737 101.341 300.824 101.234 300.902 101.107C300.98 100.981 301.077 100.825 301.155 100.68C301.232 100.534 301.32 100.427 301.388 100.301C301.456 100.174 301.543 99.9993 301.621 99.8438L301.835 99.4355L302.039 98.9495C302.098 98.8037 302.166 98.6677 302.224 98.5219C302.282 98.3761 302.35 98.1719 302.409 97.997C302.467 97.822 302.525 97.6957 302.574 97.5499C302.622 97.4041 302.681 97.1805 302.729 96.9958C302.778 96.8111 302.827 96.6848 302.865 96.5195C302.904 96.3543 302.963 96.1405 303.002 95.9461L303.118 95.4406C303.118 95.2365 303.186 95.0227 303.225 94.8185L303.313 94.3131L303.4 93.5938L303.458 93.137L303.517 92.3108V91.9123C303.517 91.4975 303.517 91.0699 303.517 90.6292C303.517 89.9974 303.517 89.3656 303.458 88.6852V88.5589C303.41 87.8493 303.351 87.13 303.254 86.401V86.158L303.079 84.9819C303.079 84.7875 303.011 84.5931 302.972 84.389C302.933 84.1849 302.865 83.8155 302.807 83.5239V83.3878C302.465 81.7637 302.03 80.1605 301.505 78.5861C300.803 76.4677 299.958 74.3991 298.977 72.3945L298.919 72.2681C298.355 71.1309 297.762 70.0034 297.121 68.905L296.946 68.6037C296.654 68.108 296.353 67.6317 296.052 67.1457L295.838 66.8055C295.002 65.5127 294.127 64.2686 293.194 63.073C292.28 61.9001 291.308 60.7759 290.278 59.7002C289.899 59.2919 289.51 58.9031 289.121 58.5046L288.927 58.3297C288.422 57.8242 287.906 57.3577 287.372 56.8717H287.313C286.769 56.3857 286.205 55.8997 285.642 55.472C285.534 55.3964 285.43 55.3153 285.331 55.229C284.796 54.8207 284.261 54.4319 283.707 54.0626L283.649 54.014C283.299 53.7807 282.949 53.5474 282.599 53.3336C282.249 53.1197 281.997 52.9545 281.686 52.7795C281.219 52.5074 280.714 52.2644 280.296 52.0311C278.969 51.353 277.579 50.806 276.145 50.3981L275.747 50.3009L275.144 50.1551C274.998 50.1551 274.852 50.0968 274.707 50.0677L274.143 49.9705L273.686 49.9121L272.967 49.8344H272.685C272.164 49.8052 271.641 49.8052 271.12 49.8344H270.867C270.537 49.8344 270.206 49.8927 269.895 49.9413C269.436 50.0075 268.981 50.1049 268.534 50.2329H268.369C268.068 50.3301 267.776 50.437 267.485 50.5537L267.329 50.612C266.931 50.7869 266.532 50.9716 266.153 51.1855C262.119 53.4599 259.66 58.3199 259.641 65.2795ZM273.628 94.906L273.569 94.838C273.249 94.4978 272.938 94.1479 272.597 93.7882L272.393 93.5549C271.878 92.962 271.421 92.3594 270.896 91.7373L270.741 91.5332C270.352 91.0277 269.983 90.5612 269.613 89.9974L269.448 89.7739C269.098 89.2684 268.758 88.8019 268.428 88.2381C268.34 88.1117 268.262 87.9854 268.185 87.859C267.912 87.4411 267.65 87.0037 267.397 86.5662C267.336 86.4791 267.281 86.3882 267.232 86.2941C266.94 85.7984 266.658 85.3221 266.386 84.7875L266.192 84.3987C265.978 84.0002 265.774 83.5919 265.57 83.1837L265.375 82.7755C265.123 82.2603 264.889 81.7451 264.656 81.2202L264.569 80.9967C264.365 80.5204 264.17 80.0247 263.985 79.5776L263.82 79.1499C263.606 78.5861 263.402 78.0224 263.218 77.4586C263.218 77.4586 263.218 77.3711 263.169 77.3225C262.975 76.7393 262.8 76.1561 262.634 75.5729L262.547 75.2425C262.352 74.5621 262.187 73.8817 262.041 73.211C262.041 73.0555 261.983 72.9097 261.944 72.7639L261.798 71.9668C261.798 71.8016 261.73 71.6363 261.711 71.4614C261.692 71.2864 261.614 70.8879 261.575 70.5963C261.536 70.3047 261.526 70.2755 261.507 70.1103C261.429 69.5271 261.38 68.9439 261.332 68.3704C261.332 68.244 261.332 68.1177 261.332 68.0011C261.332 67.4081 261.274 66.8152 261.274 66.232C261.274 65.8335 261.274 65.435 261.274 65.0559V64.6185C261.274 64.3852 261.274 64.1422 261.332 63.9187C261.39 63.6951 261.332 63.6271 261.381 63.4812C261.429 63.3355 261.38 63.0341 261.458 62.8203C261.536 62.6065 261.517 62.519 261.536 62.3732C261.555 62.2274 261.604 61.9747 261.643 61.7803C261.682 61.5859 261.711 61.4789 261.74 61.3234C261.769 61.1679 261.828 60.9638 261.867 60.7791C261.905 60.5944 261.954 60.4875 261.993 60.3417C262.032 60.1959 262.09 60.0015 262.148 59.8363L262.294 59.4086C262.353 59.2531 262.401 59.0878 262.469 58.9323C262.537 58.7768 262.586 58.6699 262.634 58.5338C262.683 58.3977 262.761 58.2325 262.829 58.0867C262.897 57.9409 262.955 57.8339 263.023 57.7076C263.091 57.5812 263.159 57.4257 263.237 57.2896L263.451 56.9397L263.684 56.5412L263.917 56.2107C264.005 56.0941 264.083 55.9677 264.18 55.8511C264.277 55.7344 264.345 55.6469 264.433 55.54C264.52 55.4331 264.608 55.3165 264.705 55.2095C264.802 55.1026 264.889 55.0151 264.977 54.9179L265.269 54.6166L265.56 54.3542L265.871 54.082L266.182 53.8487L266.513 53.6057L266.833 53.3919C267.834 52.767 268.936 52.3229 270.09 52.0797C273.365 51.3799 277.331 52.1477 281.608 54.6166C292.825 61.0901 301.903 76.7977 301.864 89.6961C301.864 94.5561 300.572 98.2497 298.385 100.709C297.664 101.529 296.813 102.225 295.867 102.769L295.77 102.818C295.498 102.964 295.216 103.1 294.934 103.226L294.671 103.333C294.406 103.443 294.134 103.541 293.855 103.625H293.709C293.379 103.712 293.039 103.79 292.737 103.858H292.475C292.173 103.858 291.882 103.936 291.571 103.965H291.338C290.958 103.965 290.56 103.965 290.161 103.965H289.909H289.267L288.528 103.878L288.062 103.79L287.615 103.703C287.498 103.703 287.381 103.644 287.265 103.615L286.691 103.479C285.939 103.265 285.199 103.009 284.475 102.711L284.154 102.575C283.756 102.4 283.367 102.225 282.969 102.021C282.914 102.001 282.862 101.975 282.813 101.943C282.385 101.729 281.958 101.506 281.52 101.253C281.083 101 280.451 100.602 279.926 100.281H279.848C279.217 99.8535 278.585 99.3966 277.973 98.9204L277.866 98.8426C277.341 98.4247 276.816 97.997 276.31 97.5401H276.262C275.786 97.1319 275.29 96.6945 274.872 96.2571L274.648 96.0335C274.318 95.6253 273.968 95.2559 273.628 94.906Z" fill="white"/>
<path d="M414.16 139.327L414.101 162.033L411.351 163.636L411.419 137.752L414.16 139.327Z" fill="#F0F0F0"/>
<path d="M443.806 179.189L443.796 182.367L411.351 163.637L414.101 162.033L443.806 179.189Z" fill="#F5F5F5"/>
<path d="M408.007 165.532L447.12 188.111L447.217 154.587L408.114 132.007L408.007 165.532ZM411.351 163.588L411.419 137.694L414.16 139.278L443.874 156.492L443.806 179.198V182.376L411.351 163.588Z" fill="#B3751B"/>
<path d="M408.104 132.008L410.855 130.414L449.958 152.993L447.208 154.587L408.104 132.008Z" fill="#F5F5F5"/>
<path d="M449.958 152.993L449.861 186.508L447.11 188.112L447.208 154.587L449.958 152.993Z" fill="#F0F0F0"/>
<path d="M415.326 93.3217L415.268 116.028L412.507 117.622L412.585 91.7373L415.326 93.3217Z" fill="#F0F0F0"/>
<path d="M444.972 133.174L444.962 136.362L412.507 117.622L415.268 116.028L444.972 133.174Z" fill="#F5F5F5"/>
<path d="M409.212 119.556L448.316 142.136L448.413 108.612L409.27 86.0029L409.212 119.556ZM412.546 117.612L412.624 91.728L415.326 93.3124L445.04 110.468L444.972 133.164V136.353L412.546 117.612Z" fill="#B3751B"/>
<path d="M409.27 86.0027L412.021 84.3989L451.125 106.978L448.374 108.582L409.27 86.0027Z" fill="#F5F5F5"/>
<path d="M451.125 106.979L451.028 140.503L448.277 142.097L448.374 108.582L451.125 106.979Z" fill="#F0F0F0"/>
<path d="M423.607 147.948L415.501 154.334L415.481 160.565L442.425 176.117L442.445 169.886L437.313 159.69L432.705 163.267L434.329 168.331L431.967 163.84L423.607 147.948Z" fill="#B3751B"/>
<path d="M432.453 151.088C431.189 150.359 430.149 150.952 430.149 152.41C430.191 153.204 430.421 153.976 430.82 154.664C431.219 155.351 431.775 155.935 432.443 156.366C433.706 157.104 434.737 156.512 434.746 155.054C434.703 154.259 434.473 153.485 434.075 152.796C433.676 152.107 433.12 151.521 432.453 151.088Z" fill="#B3751B"/>
<path d="M424.764 101.943L416.667 108.32L416.648 114.55L443.592 130.112L443.611 123.881L438.479 113.675L433.862 117.262L435.495 122.326L433.133 117.826L424.764 101.943Z" fill="#B3751B"/>
<path d="M433.619 105.083C432.346 104.354 431.315 104.937 431.315 106.395C431.356 107.19 431.584 107.963 431.981 108.652C432.378 109.342 432.933 109.927 433.6 110.361C434.873 111.09 435.903 110.507 435.903 109.049C435.863 108.254 435.635 107.481 435.238 106.791C434.841 106.102 434.286 105.516 433.619 105.083Z" fill="#B3751B"/>
<path d="M332.91 67.1747L391.104 100.825C392.088 101.395 392.906 102.212 393.475 103.196C394.045 104.18 394.346 105.297 394.35 106.434V164.948C394.317 166.067 393.991 167.158 393.404 168.111C392.817 169.064 391.99 169.846 391.005 170.378C390.021 170.911 388.914 171.176 387.795 171.145C386.676 171.115 385.584 170.792 384.63 170.207L360.33 155.782L359.805 156.628C359.805 156.628 359.757 156.676 359.727 156.706H359.669C358.697 157.337 357.054 158.232 356.685 158.426C356.599 158.454 356.505 158.448 356.423 158.408C356.341 158.368 356.279 158.298 356.248 158.212L354.129 152.205L326.398 136.634C325.409 136.069 324.587 135.252 324.015 134.268C323.443 133.283 323.142 132.164 323.141 131.025V72.4332C323.141 67.7676 330.004 65.5028 332.91 67.1747Z" fill="#FFD226"/>
<path opacity="0.2" d="M359.718 156.628C359.718 156.628 359.669 156.676 359.64 156.706H359.582C358.61 157.337 356.967 158.232 356.598 158.426C356.642 158.419 356.684 158.402 356.721 158.377C356.758 158.352 356.789 158.319 356.811 158.28L358.862 154.956L358.454 154.723L360.262 155.753L359.718 156.628Z" fill="white"/>
<path opacity="0.4" d="M387.08 106.92C386.661 106.084 386.072 105.345 385.349 104.752C385.102 104.553 384.838 104.374 384.562 104.218L326.368 70.5572C326.04 70.37 325.668 70.2722 325.29 70.2737C324.912 70.2753 324.541 70.3761 324.215 70.566C323.888 70.756 323.617 71.0285 323.428 71.3561C323.24 71.6838 323.141 72.0552 323.141 72.4332C323.141 67.7676 330.004 65.5028 332.91 67.1747L391.104 100.825C392.11 101.409 392.943 102.251 393.514 103.265L387.08 106.92Z" fill="white"/>
<path opacity="0.2" d="M387.828 168.341V109.836C387.828 108.819 387.578 107.817 387.099 106.92L393.533 103.265C394.079 104.232 394.367 105.323 394.369 106.434V164.948C394.337 166.067 394.01 167.158 393.423 168.111C392.836 169.064 392.009 169.846 391.025 170.379C390.04 170.911 388.933 171.176 387.814 171.146C386.695 171.115 385.604 170.792 384.649 170.207C384.976 170.382 385.341 170.47 385.711 170.463C386.082 170.456 386.444 170.354 386.763 170.166C387.082 169.979 387.348 169.713 387.534 169.393C387.721 169.073 387.822 168.711 387.828 168.341Z" fill="white"/>
<path d="M337.391 94.5949L371.168 114.093L369.136 137.246C369.02 138.656 367.931 139.19 366.638 138.413L340.764 123.444C340.246 123.128 339.794 122.715 339.432 122.229L339.481 122.89C339.636 124.361 340.118 125.779 340.892 127.041C341.665 128.302 342.711 129.374 343.952 130.18L345.089 130.831C345.516 130.932 345.926 131.095 346.304 131.317C346.75 131.587 347.158 131.914 347.519 132.289L359.64 139.287C360.069 139.382 360.479 139.546 360.855 139.773C361.295 140.028 361.703 140.335 362.07 140.687L364.646 142.174C364.932 142.366 365.169 142.623 365.338 142.923C365.507 143.224 365.603 143.56 365.618 143.904C365.618 144.536 365.161 144.789 364.646 144.478L364.442 144.361C364.733 145.129 364.884 145.942 364.889 146.762C364.889 149.328 363.071 150.368 360.826 149.076C359.652 148.309 358.675 147.277 357.974 146.063C357.273 144.849 356.868 143.487 356.792 142.087C356.772 141.431 356.933 140.781 357.258 140.211L349.852 135.934C350.136 136.703 350.288 137.515 350.299 138.335C350.299 140.911 348.472 141.941 346.236 140.648C345.059 139.886 344.079 138.854 343.378 137.64C342.677 136.425 342.274 135.061 342.202 133.66C342.181 132.975 342.36 132.299 342.717 131.716C339.76 129.287 337.869 125.799 337.449 121.996L335.155 90.8916C335.085 90.2377 334.87 89.6077 334.525 89.0477C334.18 88.4877 333.715 88.0118 333.163 87.6549L328.983 85.2346C328.698 85.0437 328.461 84.7886 328.293 84.4898C328.124 84.191 328.027 83.8569 328.011 83.5141C328.011 82.8726 328.468 82.6199 328.983 82.9407L333.163 85.3512C334.265 86.0687 335.194 87.0229 335.882 88.1443C336.569 89.2658 336.999 90.5264 337.138 91.8345L337.391 94.5949ZM355.071 127.555L355.12 109.01C355.094 108.541 354.959 108.084 354.724 107.677C354.489 107.27 354.162 106.924 353.769 106.667C353.021 106.239 352.418 106.58 352.408 107.445L352.36 125.991C352.39 126.454 352.528 126.905 352.763 127.306C352.997 127.708 353.322 128.049 353.711 128.304C354.459 128.732 355.071 128.382 355.071 127.526V127.555ZM360.903 130.909L360.952 112.363C360.926 111.894 360.791 111.438 360.556 111.031C360.321 110.624 359.994 110.278 359.601 110.021C358.853 109.593 358.24 109.933 358.24 110.798V129.344C358.264 129.813 358.399 130.27 358.634 130.678C358.869 131.085 359.197 131.431 359.591 131.686C360.34 132.114 360.942 131.764 360.952 130.909H360.903ZM366.784 134.291L366.842 115.746C366.81 115.28 366.669 114.828 366.431 114.426C366.194 114.025 365.865 113.684 365.472 113.432C364.723 113.005 364.111 113.345 364.111 114.21L364.062 132.756C364.091 133.232 364.235 133.694 364.48 134.104C364.725 134.513 365.065 134.858 365.472 135.108C366.211 135.536 366.823 135.186 366.823 134.33L366.784 134.291ZM349.249 124.183L349.298 105.637C349.278 105.166 349.146 104.707 348.91 104.3C348.675 103.892 348.344 103.547 347.947 103.294C347.198 102.867 346.596 103.207 346.586 104.072V122.618C346.612 123.087 346.748 123.543 346.983 123.95C347.218 124.356 347.544 124.703 347.937 124.96C348.685 125.388 349.298 125.038 349.298 124.183H349.249ZM343.466 120.8L343.524 102.254C343.497 101.786 343.361 101.33 343.126 100.923C342.892 100.516 342.565 100.17 342.173 99.9118C341.425 99.4841 340.812 99.8243 340.812 100.689L340.754 119.235C340.78 119.703 340.915 120.158 341.15 120.563C341.385 120.969 341.712 121.313 342.105 121.568C342.853 122.005 343.466 121.655 343.466 120.8ZM346.382 134.262C345.546 133.776 344.865 134.165 344.856 135.127C344.885 135.653 345.038 136.164 345.302 136.62C345.565 137.076 345.932 137.463 346.372 137.752C347.218 138.238 347.888 137.849 347.898 136.887C347.871 136.361 347.719 135.848 347.455 135.392C347.192 134.936 346.824 134.549 346.382 134.262ZM360.962 142.689C360.126 142.203 359.445 142.592 359.445 143.555C359.471 144.08 359.621 144.592 359.883 145.048C360.145 145.504 360.511 145.892 360.952 146.179C361.788 146.665 362.478 146.276 362.478 145.304C362.448 144.78 362.296 144.27 362.032 143.816C361.769 143.361 361.402 142.976 360.962 142.689Z" fill="white"/>
<path d="M380.839 114.589C381.275 114.855 381.634 115.23 381.879 115.678C382.453 116.65 382.453 117.738 381.879 118.059L373.297 122.919C373.129 122.996 372.945 123.026 372.762 123.007C372.579 122.989 372.405 122.921 372.257 122.812C371.824 122.542 371.467 122.168 371.217 121.724L367.018 114.434C366.434 113.462 366.444 112.373 367.018 112.042C367.185 111.968 367.369 111.938 367.552 111.957C367.734 111.976 367.909 112.042 368.058 112.149C368.49 112.419 368.848 112.794 369.098 113.238L372.276 118.778L379.819 114.482C379.983 114.409 380.164 114.381 380.343 114.399C380.522 114.418 380.693 114.484 380.839 114.589Z" fill="white"/>
<path d="M374.463 105.598C380.188 108.903 384.805 116.912 384.786 123.483C384.766 130.053 380.12 132.697 374.395 129.392C368.67 126.088 364.063 118.098 364.082 111.517C364.102 104.937 368.748 102.303 374.463 105.598ZM373.248 122.958L381.831 118.098C382.414 117.777 382.414 116.708 381.831 115.716C381.585 115.269 381.227 114.893 380.791 114.628C380.643 114.519 380.468 114.451 380.285 114.433C380.102 114.414 379.918 114.444 379.751 114.521L372.276 118.778L369.107 113.277C368.857 112.832 368.5 112.458 368.067 112.188C367.918 112.081 367.744 112.015 367.562 111.996C367.379 111.977 367.195 112.007 367.027 112.081C366.454 112.412 366.444 113.471 367.027 114.472L371.226 121.762C371.476 122.207 371.834 122.581 372.266 122.851C372.414 122.96 372.589 123.027 372.772 123.046C372.955 123.065 373.139 123.034 373.306 122.958" fill="#FFD226"/>
<path opacity="0.3" d="M374.463 105.598C380.188 108.903 384.805 116.912 384.786 123.483C384.766 130.053 380.12 132.697 374.395 129.392C368.67 126.088 364.063 118.098 364.082 111.517C364.102 104.937 368.748 102.303 374.463 105.598ZM373.248 122.958L381.831 118.098C382.414 117.777 382.414 116.708 381.831 115.716C381.585 115.269 381.227 114.893 380.791 114.628C380.643 114.519 380.468 114.451 380.285 114.433C380.102 114.414 379.918 114.444 379.751 114.521L372.276 118.778L369.107 113.277C368.857 112.832 368.5 112.458 368.067 112.188C367.918 112.081 367.744 112.015 367.562 111.996C367.379 111.977 367.195 112.007 367.027 112.081C366.454 112.412 366.444 113.471 367.027 114.472L371.226 121.762C371.476 122.207 371.834 122.581 372.266 122.851C372.414 122.96 372.589 123.027 372.772 123.046C372.955 123.065 373.139 123.034 373.306 122.958" fill="white"/>
<path d="M187.897 77.4107C187.217 75.0098 182.337 70.4414 177.477 70.5386C177.012 70.5533 176.552 70.6452 176.117 70.8108L81.8424 124.417C80.2658 125.313 79.0007 126.669 78.2169 128.305C77.5948 129.532 77.2623 130.885 77.2449 132.261V336.235C77.2449 341.425 83.2324 346.383 88.8603 344.011C88.988 343.975 89.1118 343.926 89.2296 343.865L183.514 290.133C184.895 289.343 186.043 288.203 186.842 286.827C187.64 285.452 188.062 283.889 188.063 282.299V78.3924C188.084 78.0568 188.027 77.7209 187.897 77.4107Z" fill="#455A64"/>
<path d="M90.396 153.838C90.3991 153.047 90.6111 152.271 91.0105 151.589C91.4099 150.906 91.9825 150.341 92.6705 149.95L180.257 100.116C180.599 99.9208 180.986 99.8185 181.38 99.8193C181.774 99.8202 182.16 99.924 182.501 100.121C182.842 100.317 183.126 100.6 183.324 100.94C183.522 101.28 183.628 101.666 183.63 102.06V266.522C183.622 267.312 183.408 268.086 183.009 268.768C182.61 269.45 182.04 270.016 181.356 270.41L93.8077 320.332C93.4658 320.527 93.0788 320.63 92.6851 320.629C92.2915 320.628 91.9049 320.524 91.5638 320.327C91.2227 320.131 90.939 319.848 90.741 319.508C90.5429 319.168 90.4374 318.782 90.4349 318.388L90.396 153.838Z" fill="#FFD226"/>
<path opacity="0.2" d="M90.396 153.838C90.3991 153.047 90.6111 152.271 91.0105 151.589C91.4099 150.906 91.9825 150.341 92.6705 149.95L180.257 100.116C180.599 99.9208 180.986 99.8185 181.38 99.8193C181.774 99.8202 182.16 99.924 182.501 100.121C182.842 100.317 183.126 100.6 183.324 100.94C183.522 101.28 183.628 101.666 183.63 102.06V266.522C183.622 267.312 183.408 268.086 183.009 268.768C182.61 269.45 182.04 270.016 181.356 270.41L93.8077 320.332C93.4658 320.527 93.0788 320.63 92.6851 320.629C92.2915 320.628 91.9049 320.524 91.5638 320.327C91.2227 320.131 90.939 319.848 90.741 319.508C90.5429 319.168 90.4374 318.782 90.4349 318.388L90.396 153.838Z" fill="black"/>
<path opacity="0.1" d="M90.396 153.838C90.3991 153.047 90.6111 152.271 91.0105 151.589C91.4099 150.906 91.9825 150.341 92.6705 149.95L180.257 100.116C180.599 99.9208 180.986 99.8185 181.38 99.8193C181.774 99.8202 182.16 99.924 182.501 100.121C182.842 100.317 183.126 100.6 183.324 100.94C183.522 101.28 183.628 101.666 183.63 102.06V266.522C183.622 267.312 183.408 268.086 183.009 268.768C182.61 269.45 182.04 270.016 181.356 270.41L93.8077 320.332C93.4658 320.527 93.0788 320.63 92.6851 320.629C92.2915 320.628 91.9049 320.524 91.5638 320.327C91.2227 320.131 90.939 319.848 90.741 319.508C90.5429 319.168 90.4374 318.782 90.4349 318.388L90.396 153.838Z" fill="white"/>
<path opacity="0.3" d="M77.2837 132.28V336.234C77.2837 341.425 83.2712 346.382 88.8991 344.01C88.5613 344.134 88.1987 344.174 87.842 344.128C87.4853 344.081 87.1452 343.949 86.8504 343.743C86.5556 343.537 86.3148 343.263 86.1486 342.944C85.9824 342.625 85.8956 342.271 85.8956 341.911V137.917C85.9197 136.138 86.4711 134.406 87.48 132.941L78.2168 128.304C77.6053 129.54 77.286 130.901 77.2837 132.28Z" fill="black"/>
<path opacity="0.1" d="M177.487 70.5284C177.022 70.543 176.562 70.635 176.126 70.8005L81.8424 124.416C80.2657 125.312 79.0007 126.669 78.2168 128.304L87.48 132.941C88.2482 131.741 89.2911 130.741 90.5223 130.025L184.806 76.3895C185.073 76.2363 185.369 76.1397 185.674 76.1059C185.98 76.072 186.289 76.1016 186.583 76.1929C186.877 76.2841 187.149 76.435 187.382 76.6361C187.614 76.8372 187.803 77.0841 187.936 77.3615C187.227 74.9996 182.347 70.4312 177.487 70.5284Z" fill="white"/>
<path d="M148.648 110.108C149.319 109.729 149.863 110.03 149.863 110.788C149.838 111.206 149.716 111.613 149.506 111.975C149.297 112.338 149.007 112.647 148.658 112.878L130.19 123.57C129.529 123.959 128.994 123.638 128.994 122.87C129.016 122.458 129.135 122.057 129.341 121.699C129.547 121.341 129.835 121.036 130.18 120.81L148.648 110.108Z" fill="#263238"/>
<path d="M125.388 123.532C126.049 123.152 126.584 123.454 126.584 124.222C126.56 124.638 126.44 125.042 126.232 125.403C126.025 125.765 125.736 126.072 125.388 126.302C124.727 126.681 124.183 126.37 124.183 125.612C124.204 125.194 124.324 124.787 124.533 124.425C124.743 124.064 125.036 123.757 125.388 123.532Z" fill="#263238"/>
<path d="M137.247 108.563C138.568 107.795 139.638 108.407 139.638 109.924C139.596 110.754 139.359 111.564 138.945 112.285C138.531 113.006 137.953 113.619 137.256 114.074C135.934 114.842 134.836 114.22 134.836 112.694C134.885 111.864 135.129 111.058 135.547 110.34C135.966 109.623 136.548 109.014 137.247 108.563Z" fill="#263238"/>
<path d="M137.246 300.562C139.949 299.006 142.106 300.251 142.106 303.342C142.02 305.036 141.535 306.686 140.691 308.157C139.846 309.628 138.666 310.879 137.246 311.808C134.554 313.363 132.318 312.09 132.309 308.989C132.409 307.294 132.909 305.648 133.767 304.183C134.625 302.719 135.817 301.478 137.246 300.562Z" fill="#263238"/>
<path d="M183.339 97.5303L215.181 123.959L203.576 130.666L171.743 104.237L183.339 97.5303Z" fill="#FFD226"/>
<path d="M160.137 110.944L191.97 137.363L180.364 144.07L148.541 117.651L160.137 110.944Z" fill="#FFD226"/>
<path d="M148.541 117.651L180.364 144.07L168.759 150.777L136.936 124.358L148.541 117.651Z" fill="white"/>
<path d="M171.743 104.237L203.576 130.666L191.97 137.363L160.137 110.944L171.743 104.237Z" fill="white"/>
<path d="M113.734 137.762L145.547 164.181L133.941 170.887L102.128 144.469L113.734 137.762Z" fill="#FFD226"/>
<path d="M136.936 124.358L168.759 150.777L157.153 157.474L125.33 131.055L136.936 124.358Z" fill="#FFD226"/>
<path d="M90.3086 151.301L102.128 144.468L133.942 170.887L122.093 177.73L90.3086 151.301Z" fill="white"/>
<path d="M125.33 131.055L157.153 157.474L145.547 164.18L113.734 137.761L125.33 131.055Z" fill="white"/>
<path d="M215.181 123.959L203.576 130.666C203.575 131.453 203.781 132.226 204.174 132.907C204.566 133.589 205.131 134.155 205.812 134.549C206.492 134.943 207.265 135.151 208.051 135.152C208.838 135.153 209.611 134.947 210.292 134.554C211.772 133.689 213 132.452 213.853 130.965C214.706 129.477 215.154 127.793 215.152 126.078L215.181 123.959Z" fill="#FFD226"/>
<path d="M203.576 130.666L191.97 137.373C191.969 138.159 192.175 138.932 192.568 139.614C192.96 140.295 193.525 140.861 194.206 141.255C194.887 141.649 195.659 141.857 196.446 141.858C197.232 141.859 198.005 141.653 198.687 141.261C200.168 140.398 201.397 139.16 202.25 137.673C203.103 136.185 203.55 134.5 203.547 132.785L203.576 130.666Z" fill="#B3751B"/>
<path d="M191.97 137.373L180.364 144.07C180.363 144.857 180.57 145.629 180.962 146.311C181.355 146.993 181.92 147.559 182.6 147.953C183.281 148.347 184.053 148.555 184.84 148.556C185.626 148.557 186.399 148.351 187.081 147.958C188.562 147.095 189.791 145.857 190.644 144.37C191.497 142.882 191.944 141.197 191.941 139.482L191.97 137.373Z" fill="#FFD226"/>
<path d="M180.364 144.07L168.759 150.777C168.755 151.564 168.959 152.339 169.351 153.022C169.743 153.705 170.308 154.273 170.99 154.668C171.671 155.062 172.445 155.27 173.233 155.269C174.02 155.269 174.794 155.06 175.475 154.665C176.956 153.803 178.184 152.567 179.037 151.081C179.89 149.596 180.338 147.912 180.335 146.199L180.364 144.07Z" fill="#B3751B"/>
<path d="M168.759 150.777L157.153 157.464C157.152 158.251 157.358 159.024 157.751 159.705C158.143 160.387 158.708 160.953 159.389 161.347C160.07 161.741 160.842 161.949 161.628 161.95C162.415 161.951 163.188 161.745 163.869 161.352C165.351 160.489 166.58 159.252 167.433 157.764C168.285 156.277 168.733 154.591 168.729 152.876L168.759 150.777Z" fill="#FFD226"/>
<path d="M157.153 157.464L145.547 164.161C145.547 164.947 145.753 165.72 146.145 166.402C146.538 167.083 147.103 167.65 147.783 168.044C148.464 168.438 149.236 168.646 150.023 168.646C150.809 168.647 151.582 168.441 152.264 168.049C153.744 167.184 154.972 165.946 155.824 164.459C156.677 162.972 157.125 161.287 157.124 159.573L157.153 157.464Z" fill="#B3751B"/>
<path d="M145.547 164.181L133.942 170.887C133.938 171.675 134.142 172.45 134.534 173.133C134.926 173.816 135.491 174.384 136.173 174.779C136.855 175.173 137.628 175.381 138.416 175.38C139.204 175.38 139.977 175.171 140.658 174.775C142.144 173.917 143.377 172.681 144.231 171.193C145.084 169.704 145.528 168.016 145.518 166.3L145.547 164.181Z" fill="#FFD226"/>
<path opacity="0.2" d="M215.181 123.959L203.576 130.666C203.575 131.453 203.781 132.226 204.174 132.907C204.566 133.589 205.131 134.155 205.812 134.549C206.492 134.943 207.265 135.151 208.051 135.152C208.838 135.153 209.611 134.947 210.292 134.554C211.772 133.689 213 132.452 213.853 130.965C214.706 129.477 215.154 127.793 215.152 126.078L215.181 123.959Z" fill="black"/>
<path opacity="0.2" d="M191.97 137.373L180.364 144.07C180.363 144.857 180.57 145.629 180.962 146.311C181.355 146.993 181.92 147.559 182.6 147.953C183.281 148.347 184.053 148.555 184.84 148.556C185.626 148.557 186.399 148.351 187.081 147.958C188.562 147.095 189.791 145.857 190.644 144.37C191.497 142.882 191.944 141.197 191.941 139.482L191.97 137.373Z" fill="black"/>
<path opacity="0.2" d="M168.759 150.777L157.153 157.464C157.152 158.251 157.358 159.024 157.751 159.705C158.143 160.387 158.708 160.953 159.389 161.347C160.07 161.741 160.842 161.949 161.628 161.95C162.415 161.951 163.188 161.745 163.869 161.352C165.351 160.489 166.58 159.252 167.433 157.764C168.285 156.277 168.733 154.591 168.729 152.876L168.759 150.777Z" fill="black"/>
<path opacity="0.2" d="M145.547 164.181L133.942 170.887C133.938 171.675 134.142 172.45 134.534 173.133C134.926 173.816 135.491 174.384 136.173 174.779C136.855 175.173 137.628 175.381 138.416 175.38C139.204 175.38 139.977 175.171 140.658 174.775C142.144 173.917 143.377 172.681 144.231 171.193C145.084 169.704 145.528 168.016 145.518 166.3L145.547 164.181Z" fill="black"/>
<path d="M133.942 170.887L122.093 177.691C122.09 178.477 122.295 179.25 122.686 179.932C123.077 180.614 123.642 181.181 124.322 181.575C125.002 181.97 125.774 182.178 126.56 182.178C127.346 182.179 128.119 181.972 128.8 181.579C130.364 180.676 131.663 179.377 132.566 177.812C133.468 176.247 133.943 174.472 133.942 172.666V170.887Z" fill="#B3751B"/>
<path d="M147.472 205.092C144.029 205.5 140.69 206.531 137.616 208.135C130.45 211.831 124.974 218.135 122.317 225.747C121.164 229.017 120.614 232.468 120.693 235.934C121.457 232.659 122.562 229.473 123.988 226.428C127.18 219.605 132.213 213.808 138.52 209.69C141.337 207.852 144.337 206.312 147.472 205.092Z" fill="#FFD226"/>
<path d="M138.393 255.986C136.504 255.954 134.631 255.626 132.843 255.014C130.857 254.355 129.022 253.304 127.45 251.923C125.877 250.543 124.597 248.86 123.687 246.975C122.845 245.284 122.278 243.47 122.005 241.6C121.802 243.557 122.058 245.534 122.754 247.374C123.537 249.517 124.846 251.429 126.562 252.934C128.277 254.439 130.344 255.489 132.571 255.986C134.485 256.439 136.479 256.439 138.393 255.986Z" fill="#FFD226"/>
<path d="M153.459 224.727C153.649 227.317 153.61 229.919 153.343 232.503C152.727 238.34 150.814 243.966 147.744 248.968C146.38 251.192 144.822 253.29 143.088 255.238C145.321 253.744 147.292 251.892 148.92 249.756C152.691 244.834 154.74 238.81 154.752 232.609C154.757 229.929 154.321 227.265 153.459 224.727Z" fill="#FFD226"/>
<path d="M122.987 213.996C120.638 216.256 118.718 218.923 117.32 221.869C114.029 228.704 113.48 236.54 115.785 243.768C116.767 246.879 118.298 249.789 120.305 252.36C119.029 249.46 118.052 246.438 117.389 243.34C115.934 236.403 116.439 229.197 118.847 222.53C119.924 219.548 121.312 216.687 122.987 213.996Z" fill="#FFD226"/>
<path d="M160.118 215.142C159.869 212.488 158.916 209.947 157.357 207.784C155.587 205.23 153.111 203.247 150.231 202.078C147.352 200.909 144.194 200.605 141.144 201.204C138.521 201.679 136.069 202.839 134.039 204.567C136.322 203.448 138.795 202.769 141.329 202.565C144.125 202.308 146.943 202.725 149.545 203.781C152.147 204.836 154.46 206.499 156.288 208.63C157.963 210.541 159.262 212.75 160.118 215.142Z" fill="#FFD226"/>
<path d="M201.807 184.68C204.886 184.367 207.97 185.229 210.441 187.092C212.912 188.956 214.587 191.684 215.133 194.731L219.643 220.003L247.928 239.783L241.61 247.471L214.705 233.338C213.12 232.507 211.718 231.366 210.581 229.984C209.444 228.602 208.596 227.006 208.086 225.29L199.416 196.043L201.807 184.68Z" fill="#A56766"/>
<path d="M212.304 211.838C214.804 210.507 216.805 208.403 218.01 205.84L215.473 194.254C214.825 191.312 213.119 188.71 210.678 186.945C208.236 185.18 205.231 184.373 202.234 184.68L201.807 184.729L199.416 196.111L203.148 212.868C206.225 213.636 209.475 213.271 212.304 211.838Z" fill="#455A64"/>
<path d="M212.304 211.838C209.475 213.271 206.225 213.637 203.148 212.868L204.12 216.999C207.629 217.787 216.62 217.524 218.962 210.098L217.99 205.821C216.794 208.388 214.8 210.499 212.304 211.838Z" fill="#455A64"/>
<path opacity="0.2" d="M212.304 211.838C214.804 210.507 216.805 208.403 218.01 205.84L215.473 194.254C214.825 191.312 213.119 188.71 210.678 186.945C208.236 185.18 205.231 184.373 202.234 184.68L201.807 184.729L199.416 196.111L203.148 212.868C206.225 213.636 209.475 213.271 212.304 211.838Z" fill="white"/>
<path opacity="0.5" d="M212.304 211.838C209.475 213.271 206.225 213.637 203.148 212.868L204.12 216.999C207.629 217.787 216.62 217.524 218.962 210.098L217.99 205.821C216.794 208.388 214.8 210.499 212.304 211.838Z" fill="white"/>
<path d="M208.066 195.557C208.066 195.557 206.939 186.955 201.807 184.709C201.807 184.709 189.521 188.393 179.334 192.262C175.305 193.731 171.36 195.418 167.514 197.316C165.201 199.319 158.562 205.277 155.442 206.881C153.918 207.643 152.274 208.136 150.582 208.339C148.445 208.682 146.392 209.431 144.536 210.545C135.186 215.95 127.633 229.013 127.662 239.773C127.662 246.82 130.967 251.087 135.856 251.68H136.08C136.852 251.762 137.631 251.762 138.403 251.68C146.908 251.603 160.545 251.535 165.901 249.999C190.92 242.65 210.593 224.532 208.066 195.557Z" fill="#455A64"/>
<path d="M184.223 192.028L187.888 185.38L202.633 195.314L196.801 203.148C195.577 203.748 194.241 204.086 192.879 204.142C191.517 204.197 190.158 203.968 188.889 203.469C187.635 202.891 186.513 202.061 185.594 201.031C184.674 200.001 183.976 198.792 183.543 197.481C183.284 196.573 183.211 195.622 183.328 194.686C183.445 193.749 183.749 192.845 184.223 192.028Z" fill="#A56766"/>
<path opacity="0.2" d="M189.268 186.303C189.268 194.313 195.634 198.064 199.522 199.484L202.633 195.314L189.268 186.303Z" fill="black"/>
<path d="M182.61 178.314C182.065 175.116 181.511 171.83 182.133 168.642C182.756 165.454 184.816 162.344 187.965 161.411C188.605 160.048 189.52 158.832 190.652 157.84C191.785 156.848 193.111 156.101 194.546 155.647C197.36 154.879 200.271 154.525 203.187 154.597C206.404 154.404 209.633 154.584 212.81 155.132C216.01 155.703 218.919 157.353 221.052 159.807C222.146 161.312 222.921 163.024 223.332 164.839C223.743 166.654 223.781 168.533 223.443 170.363C222.746 174.02 221.392 177.52 219.449 180.695C213.267 181.132 206.968 181.842 200.786 182.279C197.637 182.61 194.464 182.639 191.309 182.367C188.09 181.847 185.079 180.444 182.61 178.314Z" fill="#263238"/>
<path d="M220.459 163.491C222.044 173.003 220.995 182.768 217.427 191.727C216.601 193.798 215.483 195.946 213.587 197.044C211.692 198.142 209.048 197.967 206.783 197.618C203.037 197.191 199.384 196.164 195.965 194.575C192.523 192.952 189.842 190.061 188.481 186.508C187.255 186.754 185.985 186.643 184.821 186.186C183.657 185.729 182.65 184.946 181.92 183.932C180.484 181.826 179.74 179.326 179.791 176.778C179.791 175.155 180.092 173.24 181.55 172.53C183.008 171.821 184.525 172.608 185.701 173.561C187.629 175.129 189.038 177.243 189.744 179.626C190.813 175.67 192.476 171.85 193.545 167.962C193.972 166.407 194.517 164.715 195.848 163.85C197.501 162.791 199.659 163.393 201.574 163.85C207.797 165.34 214.297 165.216 220.459 163.491Z" fill="#A56766"/>
<path d="M208.951 175.475L213.568 183.241L208.066 184.281L208.951 175.475Z" fill="#734847"/>
<path d="M202.759 186.955L206.939 188.986C206.582 189.462 206.079 189.809 205.507 189.972C204.934 190.135 204.324 190.107 203.77 189.89C203.291 189.59 202.929 189.135 202.745 188.601C202.561 188.067 202.566 187.486 202.759 186.955Z" fill="#F28F8F"/>
<path opacity="0.3" d="M202.759 186.955L206.939 188.986C206.582 189.462 206.079 189.809 205.507 189.972C204.934 190.135 204.324 190.107 203.77 189.89C203.291 189.59 202.929 189.135 202.745 188.601C202.561 188.067 202.566 187.486 202.759 186.955Z" fill="black"/>
<path d="M205.218 190.026C204.733 190.125 204.229 190.078 203.77 189.89C203.386 189.675 203.074 189.35 202.875 188.957C202.676 188.564 202.598 188.121 202.652 187.684C203.252 187.685 203.833 187.887 204.305 188.257C204.827 188.706 205.155 189.34 205.218 190.026Z" fill="#F28F8F"/>
<path d="M200.981 175.786C200.949 176.098 201.011 176.413 201.159 176.689C201.306 176.966 201.532 177.193 201.809 177.341C202.085 177.489 202.399 177.552 202.711 177.521C203.023 177.491 203.319 177.368 203.562 177.169C203.804 176.97 203.982 176.704 204.073 176.404C204.164 176.104 204.164 175.784 204.073 175.484C203.982 175.184 203.804 174.918 203.561 174.719C203.319 174.52 203.023 174.398 202.711 174.367C202.293 174.327 201.877 174.453 201.552 174.719C201.228 174.985 201.022 175.369 200.981 175.786Z" fill="#263238"/>
<path d="M214.239 176.603C214.208 176.913 214.269 177.224 214.415 177.499C214.561 177.774 214.785 177.999 215.059 178.146C215.334 178.294 215.645 178.357 215.955 178.327C216.265 178.298 216.559 178.177 216.8 177.981C217.041 177.784 217.219 177.52 217.31 177.223C217.402 176.926 217.403 176.608 217.314 176.31C217.225 176.011 217.05 175.746 216.811 175.548C216.571 175.349 216.278 175.226 215.969 175.194C215.762 175.172 215.554 175.191 215.355 175.251C215.157 175.31 214.972 175.408 214.811 175.539C214.65 175.67 214.517 175.831 214.419 176.014C214.32 176.196 214.259 176.397 214.239 176.603Z" fill="#263238"/>
<path d="M216.396 170.499L219.643 173.259C219.838 172.842 219.9 172.376 219.822 171.922C219.744 171.469 219.529 171.05 219.206 170.722C218.805 170.427 218.329 170.25 217.833 170.21C217.337 170.171 216.839 170.27 216.396 170.499Z" fill="#263238"/>
<path d="M203.469 170.285L199.746 172.346C199.637 171.899 199.667 171.43 199.832 171.001C199.997 170.571 200.289 170.203 200.67 169.945C201.122 169.736 201.623 169.657 202.117 169.717C202.612 169.777 203.08 169.974 203.469 170.285Z" fill="#263238"/>
<path d="M223.414 166.688C209.892 168.853 196.112 168.853 182.59 166.688C183.222 150.165 190.658 144.75 203.488 144.75C216.319 144.75 223.56 151.632 223.414 166.688Z" fill="#455A64"/>
<path d="M223.414 166.689C223.414 160.361 222.189 155.501 219.789 151.972L214.413 150.466C211.884 149.755 209.228 149.616 206.637 150.058L201.515 150.913C199.762 151.195 198.149 152.042 196.921 153.324C195.693 154.607 194.917 156.255 194.711 158.018L193.535 167.991C203.512 168.709 213.538 168.272 223.414 166.689Z" fill="#455A64"/>
<path opacity="0.29" d="M223.414 166.689C223.414 160.361 222.189 155.501 219.789 151.972L214.413 150.466C211.884 149.755 209.228 149.616 206.637 150.058L201.515 150.913C199.762 151.195 198.149 152.042 196.921 153.324C195.693 154.607 194.917 156.255 194.711 158.018L193.535 167.991C203.512 168.709 213.538 168.272 223.414 166.689Z" fill="white"/>
<path d="M225.018 152.779H222.647C221.879 152.779 221.12 152.779 220.362 152.866C213.408 153.372 206.818 156.168 201.622 160.817L193.632 167.991C203.577 168.701 213.57 168.264 223.414 166.688L228.615 160.38C229.167 159.697 229.516 158.872 229.621 158C229.725 157.127 229.581 156.243 229.206 155.449C228.83 154.655 228.237 153.983 227.497 153.51C226.756 153.038 225.897 152.784 225.018 152.779Z" fill="#455A64"/>
<path opacity="0.2" d="M225.018 152.779H222.647C221.879 152.779 221.12 152.779 220.362 152.866C213.408 153.372 206.818 156.168 201.622 160.817L193.632 167.991C203.577 168.701 213.57 168.264 223.414 166.688L228.615 160.38C229.167 159.697 229.516 158.872 229.621 158C229.725 157.127 229.581 156.243 229.206 155.449C228.83 154.655 228.237 153.983 227.497 153.51C226.756 153.038 225.897 152.784 225.018 152.779Z" fill="black"/>
<path d="M266.105 241.115L229.868 262.168L193.399 241.115L229.625 220.051L266.105 241.115Z" fill="#FFD226"/>
<g opacity="0.3">
<path opacity="0.3" d="M266.105 241.115L229.868 262.168L193.399 241.115L229.625 220.051L266.105 241.115Z" fill="white"/>
</g>
<path d="M266.105 241.114L265.998 277.973L229.761 299.026L229.868 262.168L266.105 241.114Z" fill="#FFD226"/>
<g opacity="0.1">
<path opacity="0.1" d="M266.105 241.114L265.998 277.973L229.761 299.026L229.868 262.168L266.105 241.114Z" fill="white"/>
</g>
<path d="M229.868 262.168L229.761 299.026L193.292 277.973L193.399 241.114L229.868 262.168Z" fill="#FFD226"/>
<path d="M236.176 238.412L248.443 230.918L242.183 227.302L229.868 234.651L236.176 238.412Z" fill="#B3751B"/>
<path d="M236.177 238.412L229.868 234.651L217.359 227.186L211.118 230.811L223.55 238.412L229.868 242.271L246.548 252.477L253.235 248.589L236.177 238.412Z" fill="white"/>
<path d="M223.55 238.412L206.424 248.628L213.13 252.506L229.868 242.271L223.55 238.412Z" fill="#B3751B"/>
<path d="M253.235 248.589L246.548 252.477L246.606 252.506L246.703 289.18L253.468 285.253L253.371 248.657L253.235 248.589Z" fill="#B3751B"/>
<path d="M213.13 252.506L206.424 248.628L206.365 248.657L206.258 285.467L213.023 289.364L213.13 252.506Z" fill="white"/>
<path opacity="0.2" d="M213.13 252.506L206.424 248.628L206.365 248.657L206.258 285.467L213.023 289.364L213.13 252.506Z" fill="black"/>
<path d="M229.849 249.551L222.267 254.188L229.849 258.571L237.411 254.178L229.849 249.551Z" fill="white"/>
<path d="M158.115 248.278C158.115 248.278 160.944 207.114 161.537 204.538C163.801 194.75 177.993 195.45 179.344 205.403C179.898 209.466 173.414 248.92 173.414 248.92L196.898 273.764L201.651 278.128L205.889 277.273L215.551 278.187C215.808 278.212 216.049 278.321 216.239 278.497C216.428 278.672 216.555 278.904 216.6 279.159C216.662 279.46 216.606 279.773 216.443 280.034C216.28 280.294 216.023 280.482 215.726 280.558L209.34 282.114L213.947 285.263C214.593 285.705 215.325 286.007 216.095 286.147L223.317 287.518C223.636 287.577 223.922 287.751 224.121 288.007C224.32 288.264 224.418 288.584 224.396 288.908C224.381 289.164 224.292 289.41 224.14 289.617C223.989 289.824 223.78 289.983 223.54 290.074L219.652 291.522C217.133 292.468 214.439 292.859 211.755 292.667C209.071 292.476 206.46 291.708 204.1 290.414L195.741 285.768C194.515 285.109 193.359 284.327 192.291 283.435L162.324 258.649C160.814 257.408 159.638 255.809 158.903 253.998C158.168 252.187 157.897 250.221 158.115 248.278Z" fill="#A56766"/>
<path d="M178.965 232.502L181.968 210.146C182.155 208.623 182.039 207.078 181.628 205.599C181.217 204.12 180.519 202.737 179.574 201.528C178.628 200.319 177.454 199.308 176.118 198.553C174.782 197.797 173.31 197.313 171.787 197.127C170.263 196.94 168.718 197.056 167.239 197.467C165.76 197.877 164.377 198.575 163.168 199.521C161.959 200.466 160.948 201.641 160.193 202.977C159.438 204.313 158.953 205.785 158.767 207.308L156.259 230.121C159.665 232.089 163.448 233.315 167.361 233.72C171.273 234.126 175.228 233.701 178.965 232.473V232.502Z" fill="#455A64"/>
<path opacity="0.2" d="M178.965 232.502L181.968 210.146C182.155 208.623 182.039 207.078 181.628 205.599C181.217 204.12 180.519 202.737 179.574 201.528C178.628 200.319 177.454 199.308 176.118 198.553C174.782 197.797 173.31 197.313 171.787 197.127C170.263 196.94 168.718 197.056 167.239 197.467C165.76 197.877 164.377 198.575 163.168 199.521C161.959 200.466 160.948 201.641 160.193 202.977C159.438 204.313 158.953 205.785 158.767 207.308L156.259 230.121C159.665 232.089 163.448 233.315 167.361 233.72C171.273 234.126 175.228 233.701 178.965 232.473V232.502Z" fill="white"/>
<path d="M166.902 233.698C163.138 233.236 159.504 232.03 156.21 230.15L155.637 235.409C165.736 243.185 178.119 238.383 178.119 238.383L178.916 232.503C175.043 233.754 170.946 234.162 166.902 233.698Z" fill="#455A64"/>
<path opacity="0.5" d="M166.902 233.698C163.138 233.236 159.504 232.03 156.21 230.15L155.637 235.409C165.736 243.185 178.119 238.383 178.119 238.383L178.916 232.503C175.043 233.754 170.946 234.162 166.902 233.698Z" fill="white"/>
<path d="M429.566 308.872L445.331 309.339L461.097 308.872C461.768 319.564 459.698 330.373 456.83 335.67C456.151 337.03 455.059 338.139 453.71 338.839C449.054 341.531 441.541 341.531 436.914 338.839C435.547 338.125 434.454 336.981 433.803 335.583C430.946 330.256 428.895 319.467 429.566 308.872Z" fill="white"/>
<path d="M434.222 302.418C428.049 305.985 428.011 311.769 434.144 315.336C440.277 318.903 450.26 318.894 456.442 315.336C462.624 311.778 462.653 305.985 456.51 302.418C450.367 298.851 440.394 298.851 434.222 302.418Z" fill="#EBEBEB"/>
<path d="M436.661 303.837C431.801 306.617 431.801 311.127 436.603 313.917C441.405 316.707 449.181 316.697 454.002 313.917C458.823 311.137 458.862 306.617 454.05 303.837C449.239 301.057 441.482 301.057 436.661 303.837Z" fill="#B3751B"/>
<g opacity="0.15">
<path opacity="0.15" d="M436.661 303.837C431.801 306.617 431.801 311.127 436.603 313.917C441.405 316.707 449.181 316.697 454.002 313.917C458.823 311.137 458.862 306.617 454.05 303.837C449.239 301.057 441.482 301.057 436.661 303.837Z" fill="black"/>
</g>
<path d="M453.37 276.621C455.936 273.433 458.91 270.575 461.262 267.232C462.866 264.948 464.178 262.148 463.527 259.456C463.154 258.212 462.44 257.097 461.466 256.238C460.492 255.379 459.297 254.81 458.016 254.596C455.428 254.21 452.788 254.799 450.609 256.248C448.451 257.689 446.557 259.491 445.011 261.575C436.13 272.819 431.931 287.056 433.288 301.32C433.321 302.953 433.831 304.541 434.756 305.888C435.323 306.553 436.068 307.041 436.903 307.296C437.738 307.551 438.629 307.562 439.47 307.327C443.766 306.053 443.193 300.251 443.893 296.839C444.858 292.155 446.523 287.643 448.831 283.454C450.138 281.047 451.657 278.76 453.37 276.621Z" fill="#FFD226"/>
<path opacity="0.2" d="M453.37 276.621C455.936 273.433 458.91 270.575 461.262 267.232C462.866 264.948 464.178 262.148 463.527 259.456C463.154 258.212 462.44 257.097 461.466 256.238C460.492 255.379 459.297 254.81 458.016 254.596C455.428 254.21 452.788 254.799 450.609 256.248C448.451 257.689 446.557 259.491 445.011 261.575C436.13 272.819 431.931 287.056 433.288 301.32C433.321 302.953 433.831 304.541 434.756 305.888C435.323 306.553 436.068 307.041 436.903 307.296C437.738 307.551 438.629 307.562 439.47 307.327C443.766 306.053 443.193 300.251 443.893 296.839C444.858 292.155 446.523 287.643 448.831 283.454C450.138 281.047 451.657 278.76 453.37 276.621Z" fill="white"/>
<path d="M439.198 302.972C439.282 302.955 439.357 302.91 439.411 302.845C439.466 302.78 439.497 302.698 439.5 302.613C439.801 295.721 442.046 272.199 458.259 258.873C458.298 258.843 458.331 258.805 458.355 258.761C458.379 258.718 458.393 258.67 458.398 258.621C458.402 258.572 458.397 258.522 458.381 258.475C458.366 258.428 458.341 258.385 458.308 258.348C458.277 258.309 458.24 258.277 458.197 258.253C458.154 258.229 458.106 258.214 458.058 258.208C458.009 258.203 457.959 258.207 457.912 258.221C457.865 258.235 457.821 258.258 457.783 258.29C441.327 271.839 439.052 295.644 438.751 302.613C438.748 302.712 438.785 302.808 438.852 302.88C438.919 302.953 439.012 302.997 439.111 303.002L439.198 302.972Z" fill="#F0F0F0"/>
<path d="M436.836 303.711C437.176 305.219 437.816 306.643 438.72 307.898C439.624 309.152 440.772 310.211 442.095 311.011C444.575 312.191 447.335 312.656 450.065 312.352C452.828 312.025 455.543 311.373 458.152 310.408C459.455 309.971 460.893 309.387 461.068 307.774C461.087 307.352 461.015 306.931 460.855 306.54C460.696 306.149 460.454 305.797 460.145 305.509C459.882 305.249 459.603 305.005 459.309 304.78C459.173 304.679 459.072 304.539 459.018 304.379C458.965 304.219 458.962 304.046 459.009 303.884C459.057 303.722 459.153 303.579 459.285 303.473C459.417 303.367 459.578 303.304 459.746 303.293C460.519 303.24 461.288 303.143 462.05 303.001C463.837 302.723 465.516 301.967 466.91 300.814C467.921 299.918 468.69 298.782 469.146 297.51C469.534 296.421 469.651 295.06 468.825 294.253C468.315 293.829 467.694 293.559 467.036 293.476C466.463 293.349 465.88 293.242 465.306 293.155C465.14 293.13 464.987 293.052 464.87 292.932C464.752 292.813 464.678 292.658 464.657 292.491C464.636 292.325 464.67 292.156 464.754 292.011C464.838 291.866 464.967 291.752 465.121 291.687L467.571 290.667C468.275 290.438 468.912 290.041 469.427 289.51C469.744 289.017 469.95 288.461 470.031 287.88C470.111 287.299 470.065 286.708 469.894 286.147C469.593 284.611 469.068 283.134 468.708 281.617C468.273 280.123 468.203 278.547 468.504 277.02C463.921 276.51 459.283 276.819 454.809 277.933C453.462 278.213 452.187 278.769 451.066 279.566C449.54 280.791 449.122 282.619 449.307 284.611C449.313 284.692 449.291 284.772 449.245 284.838C449.198 284.905 449.13 284.953 449.052 284.974C448.974 284.996 448.891 284.99 448.817 284.958C448.743 284.925 448.683 284.868 448.646 284.796L447.12 281.88C446.891 281.464 446.512 281.152 446.06 281.007C445.608 280.863 445.118 280.897 444.69 281.102C443.319 281.789 442.102 282.748 441.113 283.921C440.566 284.542 440.15 285.266 439.888 286.051C439.625 286.835 439.523 287.665 439.587 288.489C439.776 290.756 440.156 293.003 440.724 295.206C440.762 295.331 440.758 295.465 440.714 295.588C440.67 295.711 440.587 295.817 440.478 295.89C440.37 295.963 440.241 295.999 440.11 295.993C439.979 295.987 439.854 295.939 439.752 295.857H439.684C439.264 295.532 438.736 295.379 438.207 295.429C436.827 295.595 436.477 296.994 436.379 298.19C436.31 300.042 436.464 301.896 436.836 303.711Z" fill="#FFD226"/>
<path opacity="0.2" d="M436.836 303.711C437.176 305.219 437.816 306.643 438.72 307.898C439.624 309.152 440.772 310.211 442.095 311.011C444.575 312.191 447.335 312.656 450.065 312.352C452.828 312.025 455.543 311.373 458.152 310.408C459.455 309.971 460.893 309.387 461.068 307.774C461.087 307.352 461.015 306.931 460.855 306.54C460.696 306.149 460.454 305.797 460.145 305.509C459.882 305.249 459.603 305.005 459.309 304.78C459.173 304.679 459.072 304.539 459.018 304.379C458.965 304.219 458.962 304.046 459.009 303.884C459.057 303.722 459.153 303.579 459.285 303.473C459.417 303.367 459.578 303.304 459.746 303.293C460.519 303.24 461.288 303.143 462.05 303.001C463.837 302.723 465.516 301.967 466.91 300.814C467.921 299.918 468.69 298.782 469.146 297.51C469.534 296.421 469.651 295.06 468.825 294.253C468.315 293.829 467.694 293.559 467.036 293.476C466.463 293.349 465.88 293.242 465.306 293.155C465.14 293.13 464.987 293.052 464.87 292.932C464.752 292.813 464.678 292.658 464.657 292.491C464.636 292.325 464.67 292.156 464.754 292.011C464.838 291.866 464.967 291.752 465.121 291.687L467.571 290.667C468.275 290.438 468.912 290.041 469.427 289.51C469.744 289.017 469.95 288.461 470.031 287.88C470.111 287.299 470.065 286.708 469.894 286.147C469.593 284.611 469.068 283.134 468.708 281.617C468.273 280.123 468.203 278.547 468.504 277.02C463.921 276.51 459.283 276.819 454.809 277.933C453.462 278.213 452.187 278.769 451.066 279.566C449.54 280.791 449.122 282.619 449.307 284.611C449.313 284.692 449.291 284.772 449.245 284.838C449.198 284.905 449.13 284.953 449.052 284.974C448.974 284.996 448.891 284.99 448.817 284.958C448.743 284.925 448.683 284.868 448.646 284.796L447.12 281.88C446.891 281.464 446.512 281.152 446.06 281.007C445.608 280.863 445.118 280.897 444.69 281.102C443.319 281.789 442.102 282.748 441.113 283.921C440.566 284.542 440.15 285.266 439.888 286.051C439.625 286.835 439.523 287.665 439.587 288.489C439.776 290.756 440.156 293.003 440.724 295.206C440.762 295.331 440.758 295.465 440.714 295.588C440.67 295.711 440.587 295.817 440.478 295.89C440.37 295.963 440.241 295.999 440.11 295.993C439.979 295.987 439.854 295.939 439.752 295.857H439.684C439.264 295.532 438.736 295.379 438.207 295.429C436.827 295.595 436.477 296.994 436.379 298.19C436.31 300.042 436.464 301.896 436.836 303.711Z" fill="black"/>
<path opacity="0.2" d="M436.836 303.711C437.176 305.219 437.816 306.643 438.72 307.898C439.624 309.152 440.772 310.211 442.095 311.011C444.575 312.191 447.335 312.656 450.065 312.352C452.828 312.025 455.543 311.373 458.152 310.408C459.455 309.971 460.893 309.387 461.068 307.774C461.087 307.352 461.015 306.931 460.855 306.54C460.696 306.149 460.454 305.797 460.145 305.509C459.882 305.249 459.603 305.005 459.309 304.78C459.173 304.679 459.072 304.539 459.018 304.379C458.965 304.219 458.962 304.046 459.009 303.884C459.057 303.722 459.153 303.579 459.285 303.473C459.417 303.367 459.578 303.304 459.746 303.293C460.519 303.24 461.288 303.143 462.05 303.001C463.837 302.723 465.516 301.967 466.91 300.814C467.921 299.918 468.69 298.782 469.146 297.51C469.534 296.421 469.651 295.06 468.825 294.253C468.315 293.829 467.694 293.559 467.036 293.476C466.463 293.349 465.88 293.242 465.306 293.155C465.14 293.13 464.987 293.052 464.87 292.932C464.752 292.813 464.678 292.658 464.657 292.491C464.636 292.325 464.67 292.156 464.754 292.011C464.838 291.866 464.967 291.752 465.121 291.687L467.571 290.667C468.275 290.438 468.912 290.041 469.427 289.51C469.744 289.017 469.95 288.461 470.031 287.88C470.111 287.299 470.065 286.708 469.894 286.147C469.593 284.611 469.068 283.134 468.708 281.617C468.273 280.123 468.203 278.547 468.504 277.02C463.921 276.51 459.283 276.819 454.809 277.933C453.462 278.213 452.187 278.769 451.066 279.566C449.54 280.791 449.122 282.619 449.307 284.611C449.313 284.692 449.291 284.772 449.245 284.838C449.198 284.905 449.13 284.953 449.052 284.974C448.974 284.996 448.891 284.99 448.817 284.958C448.743 284.925 448.683 284.868 448.646 284.796L447.12 281.88C446.891 281.464 446.512 281.152 446.06 281.007C445.608 280.863 445.118 280.897 444.69 281.102C443.319 281.789 442.102 282.748 441.113 283.921C440.566 284.542 440.15 285.266 439.888 286.051C439.625 286.835 439.523 287.665 439.587 288.489C439.776 290.756 440.156 293.003 440.724 295.206C440.762 295.331 440.758 295.465 440.714 295.588C440.67 295.711 440.587 295.817 440.478 295.89C440.37 295.963 440.241 295.999 440.11 295.993C439.979 295.987 439.854 295.939 439.752 295.857H439.684C439.264 295.532 438.736 295.379 438.207 295.429C436.827 295.595 436.477 296.994 436.379 298.19C436.31 300.042 436.464 301.896 436.836 303.711Z" fill="white"/>
<path d="M444.097 310.641C444.956 306.961 446.19 303.378 447.781 299.949C447.782 299.896 447.794 299.844 447.816 299.796C447.837 299.747 447.869 299.704 447.907 299.667L448.17 299.113C447.721 294.846 446.481 290.699 444.515 286.886C444.468 286.798 444.456 286.697 444.481 286.601C444.506 286.505 444.567 286.423 444.651 286.37C444.739 286.322 444.842 286.309 444.939 286.337C445.035 286.364 445.117 286.429 445.166 286.516C447.009 290.069 448.225 293.913 448.763 297.879C451.883 291.619 456.859 284.271 464.538 278.964C464.621 278.907 464.722 278.886 464.821 278.904C464.919 278.922 465.006 278.979 465.063 279.061C465.091 279.101 465.11 279.146 465.12 279.194C465.13 279.242 465.131 279.291 465.122 279.339C465.113 279.387 465.094 279.432 465.068 279.473C465.041 279.514 465.006 279.549 464.966 279.576C457.044 285.097 452.048 292.737 449.015 299.074C453.102 297.228 457.639 296.614 462.069 297.305C462.168 297.327 462.254 297.385 462.31 297.468C462.366 297.552 462.388 297.654 462.371 297.753C462.356 297.826 462.319 297.893 462.265 297.945C462.212 297.997 462.143 298.032 462.069 298.044H461.924C461.856 298.044 454.692 296.732 448.491 300.192C446.912 303.586 445.687 307.133 444.836 310.777C444.819 310.85 444.781 310.916 444.728 310.967C444.674 311.019 444.607 311.054 444.535 311.069H444.389C444.294 311.05 444.21 310.995 444.155 310.915C444.101 310.835 444.08 310.737 444.097 310.641Z" fill="#F0F0F0"/>
<path d="M84.8847 341.084L66.9416 341.609L49.0082 341.084C48.2306 353.196 50.6023 365.54 53.8682 371.576C54.6389 373.129 55.8852 374.396 57.4257 375.192C62.7134 378.254 71.267 378.254 76.5255 375.192C78.0865 374.386 79.3347 373.083 80.0733 371.489C83.31 365.414 85.6526 353.137 84.8847 341.084Z" fill="white"/>
<path d="M79.5873 333.736C86.6149 337.799 86.6537 344.37 79.6748 348.433C72.6958 352.496 61.3331 352.486 54.3056 348.433C47.278 344.379 47.2391 337.799 54.2181 333.736C61.1971 329.673 72.5597 329.683 79.5873 333.736Z" fill="#EBEBEB"/>
<path d="M76.7878 335.34C82.2699 338.509 82.299 343.641 76.8558 346.81C71.4126 349.978 62.548 349.969 57.0659 346.81C51.5838 343.651 51.5547 338.509 56.9979 335.34C62.4411 332.171 71.3251 332.191 76.7878 335.34Z" fill="#B3751B"/>
<g opacity="0.15">
<path opacity="0.15" d="M76.7878 335.34C82.2699 338.509 82.299 343.641 76.8558 346.81C71.4126 349.978 62.548 349.969 57.0659 346.81C51.5838 343.651 51.5547 338.509 56.9979 335.34C62.4411 332.171 71.3251 332.191 76.7878 335.34Z" fill="black"/>
</g>
<path d="M96.4419 264.539C56.0164 277.778 55.6179 304.819 64.7644 324.074C67.0583 327.962 74.0179 330.071 80.0637 306.121L69.4495 307.482L81.823 301.203L85.0403 291.6L74.7177 292.367L87.8203 286.856C90.23 279.246 93.1094 271.793 96.4419 264.539Z" fill="#FFD226"/>
<path opacity="0.2" d="M96.4419 264.539C56.0164 277.778 55.6179 304.819 64.7644 324.074C67.0583 327.962 74.0179 330.071 80.0637 306.121L69.4495 307.482L81.823 301.203L85.0403 291.6L74.7177 292.367L87.8203 286.856C90.23 279.246 93.1094 271.793 96.4419 264.539Z" fill="black"/>
<path opacity="0.2" d="M96.4419 264.539C56.0164 277.778 55.6179 304.819 64.7644 324.074C67.0583 327.962 74.0179 330.071 80.0637 306.121L69.4495 307.482L81.823 301.203L85.0403 291.6L74.7177 292.367L87.8203 286.856C90.23 279.246 93.1094 271.793 96.4419 264.539Z" fill="white"/>
<path d="M85.0013 271.304C63.6853 287.478 61.7607 306.034 67.7871 325.396C65.6585 308.347 63.3548 291.104 85.0013 271.304Z" fill="white"/>
<path d="M27.9741 292.008C67.8261 297.616 72.6861 322.742 67.3596 342.192C65.8724 346.207 59.7391 349.317 50.126 328.011L60.264 327.564L47.628 323.734L43.0401 315.316L52.7601 314.344L39.6478 311.428C36.156 304.723 32.2575 298.237 27.9741 292.008Z" fill="#FFD226"/>
<path opacity="0.2" d="M27.9741 292.008C67.8261 297.616 72.6861 322.742 67.3596 342.192C65.8724 346.207 59.7391 349.317 50.126 328.011L60.264 327.564L47.628 323.734L43.0401 315.316L52.7601 314.344L39.6478 311.428C36.156 304.723 32.2575 298.237 27.9741 292.008Z" fill="white"/>
<path opacity="0.1" d="M27.9741 292.008C67.8261 297.616 72.6861 322.742 67.3596 342.192C65.8724 346.207 59.7391 349.317 50.126 328.011L60.264 327.564L47.628 323.734L43.0401 315.316L52.7601 314.344L39.6478 311.428C36.156 304.723 32.2575 298.237 27.9741 292.008Z" fill="black"/>
<path d="M39.7451 296.46C62.2858 307.988 67.1555 324.94 64.7644 343.971C63.9188 327.69 63.18 311.254 39.7451 296.46Z" fill="white"/>
<path d="M108.096 301.427C71.5586 302.02 64.3561 324.123 66.9805 342.251C67.8747 346.032 73.0555 349.521 84.1071 331.394L75.0383 329.819L86.7898 327.807L91.8734 320.76L83.2031 318.767L95.3531 317.572C99.2652 311.933 103.521 306.542 108.096 301.427Z" fill="#FFD226"/>
<path d="M96.9958 304.07C75.3882 311.934 69.0994 326.679 69.1285 344.097C71.7043 329.566 74.1926 314.83 96.9958 304.07Z" fill="white"/>
<path opacity="0.2" d="M108.096 301.427C71.5586 302.02 64.3561 324.123 66.9805 342.251C67.8747 346.032 73.0555 349.521 84.1071 331.394L75.0383 329.819L86.7898 327.807L91.8734 320.76L83.2031 318.767L95.3531 317.572C99.2652 311.933 103.521 306.542 108.096 301.427Z" fill="white"/>
<path d="M318.816 264.909C309.223 271.577 298.404 276.184 290.405 285.117C275.446 301.796 275.096 328.643 286.847 347.723C298.599 366.803 320.459 378.263 342.718 380.888C366.046 383.648 390.569 377.194 408.891 362.42C427.214 347.645 438.868 324.658 438.858 301.184C438.848 277.71 426.805 254.256 407.113 241.406C389.14 229.742 363.324 226.349 345.293 239.753C336.186 246.557 330.101 256.54 320.993 263.344C320.332 263.869 319.594 264.384 318.816 264.909Z" fill="#FFD226"/>
<path opacity="0.2" d="M318.816 264.909C309.223 271.577 298.404 276.184 290.405 285.117C275.446 301.796 275.096 328.643 286.847 347.723C298.599 366.803 320.459 378.263 342.718 380.888C366.046 383.648 390.569 377.194 408.891 362.42C427.214 347.645 438.868 324.658 438.858 301.184C438.848 277.71 426.805 254.256 407.113 241.406C389.14 229.742 363.324 226.349 345.293 239.753C336.186 246.557 330.101 256.54 320.993 263.344C320.332 263.869 319.594 264.384 318.816 264.909Z" fill="black"/>
<path opacity="0.1" d="M318.816 264.909C309.223 271.577 298.404 276.184 290.405 285.117C275.446 301.796 275.096 328.643 286.847 347.723C298.599 366.803 320.459 378.263 342.718 380.888C366.046 383.648 390.569 377.194 408.891 362.42C427.214 347.645 438.868 324.658 438.858 301.184C438.848 277.71 426.805 254.256 407.113 241.406C389.14 229.742 363.324 226.349 345.293 239.753C336.186 246.557 330.101 256.54 320.993 263.344C320.332 263.869 319.594 264.384 318.816 264.909Z" fill="white"/>
<path opacity="0.1" d="M322.762 362.663C322.762 362.498 322.811 362.342 322.83 362.187C323.631 356.991 326.033 352.174 329.7 348.408C333.368 344.641 338.118 342.112 343.291 341.172C352.565 339.406 361.451 336.006 369.535 331.131C375.26 327.671 380.674 323.423 387.099 321.547C393.352 319.753 400.03 320.14 406.034 322.646C400.629 316.979 391.376 314.481 383.979 317.047C389.092 309.203 393.602 300.766 395.371 291.571C397.14 282.376 395.876 272.277 390.336 264.734C387.977 261.509 384.931 258.847 381.419 256.941C377.906 255.036 374.015 253.934 370.025 253.714C366.034 253.495 362.046 254.164 358.345 255.673C354.645 257.181 351.326 259.493 348.627 262.44C343.135 268.447 340.045 276.903 336.438 284.193C333.843 289.432 331.17 294.798 326.893 298.773C320.459 304.8 311.186 306.967 304.537 312.731C296.965 319.273 293.7 329.722 293.67 339.724C293.787 346.473 294.767 353.179 296.586 359.679C304.415 367.155 313.755 372.866 323.977 376.426C322.495 371.998 322.079 367.283 322.762 362.663Z" fill="black"/>
<path d="M426.368 297.947C426.064 281.714 420.015 266.114 409.297 253.919C398.579 241.723 383.884 233.722 367.825 231.336C365.596 231.558 363.384 231.928 361.205 232.444C378.096 233.34 394.02 240.601 405.773 252.766C417.526 264.93 424.235 281.094 424.55 298.005C424.988 319.885 414.276 342.193 395.915 357.667C381.53 369.797 362.42 377.846 341.406 380.732C341.853 380.8 342.309 380.859 342.757 380.907C344.642 381.131 346.538 381.286 348.443 381.393C367.105 377.768 384.008 370.079 397.043 359.037C415.861 343.203 426.805 320.371 426.368 297.947Z" fill="white"/>
<path d="M314.287 378.749L316.697 383.522C320.089 380.372 320.712 377.836 320.712 377.836C319.613 373.947 318.33 369.991 317.689 368.067C317.368 370.75 315.54 373.053 314.773 375.668C314.49 376.672 314.327 377.707 314.287 378.749Z" fill="#37474F"/>
<path d="M314.403 383.639L316.697 383.522L314.287 378.75C314.218 380.363 314.355 381.996 314.403 383.639Z" fill="#263238"/>
<path d="M316.153 362.439C315.321 361.235 314.367 360.121 313.305 359.115C313.887 361.199 313.87 363.406 313.256 365.481C312.547 368.242 311.254 370.837 310.603 373.617C309.815 377 310 380.635 308.561 383.804C307.85 385.341 306.79 386.692 305.466 387.748C304.141 388.804 302.589 389.537 300.931 389.888C299.709 390.228 298.402 390.071 297.296 389.451C296.831 389.12 296.49 388.645 296.324 388.1C295.603 389.606 294.727 391.033 293.709 392.357C292.582 393.815 291.172 395.429 291.483 397.217C291.667 397.964 292.068 398.64 292.635 399.159C293.203 399.678 293.911 400.017 294.672 400.133C296.194 400.347 297.745 400.217 299.211 399.754C302.433 399.058 305.508 397.805 308.299 396.051C311.112 394.254 313.167 391.487 314.073 388.275C314.404 386.727 314.521 385.141 314.423 383.561C314.423 381.928 314.238 380.285 314.306 378.701C314.343 377.658 314.503 376.624 314.782 375.619C315.56 373.005 317.387 370.701 317.698 368.018C317.698 367.872 317.747 367.736 317.757 367.591C317.778 365.747 317.217 363.944 316.153 362.439Z" fill="#455A64"/>
<path opacity="0.1" d="M316.153 362.439C315.321 361.235 314.367 360.121 313.305 359.115C313.887 361.199 313.87 363.406 313.256 365.481C312.547 368.242 311.254 370.837 310.603 373.617C309.815 377 310 380.635 308.561 383.804C307.85 385.341 306.79 386.692 305.466 387.748C304.141 388.804 302.589 389.537 300.931 389.888C299.709 390.228 298.402 390.071 297.296 389.451C296.831 389.12 296.49 388.645 296.324 388.1C295.603 389.606 294.727 391.033 293.709 392.357C292.582 393.815 291.172 395.429 291.483 397.217C291.667 397.964 292.068 398.64 292.635 399.159C293.203 399.678 293.911 400.017 294.672 400.133C296.194 400.347 297.745 400.217 299.211 399.754C302.433 399.058 305.508 397.805 308.299 396.051C311.112 394.254 313.167 391.487 314.073 388.275C314.404 386.727 314.521 385.141 314.423 383.561C314.423 381.928 314.238 380.285 314.306 378.701C314.343 377.658 314.503 376.624 314.782 375.619C315.56 373.005 317.387 370.701 317.698 368.018C317.698 367.872 317.747 367.736 317.757 367.591C317.778 365.747 317.217 363.944 316.153 362.439Z" fill="black"/>
<path d="M300.931 389.888C302.589 389.537 304.141 388.804 305.466 387.748C306.79 386.692 307.85 385.341 308.562 383.804C310 380.635 309.815 377 310.603 373.617C311.254 370.837 312.547 368.242 313.256 365.481C313.87 363.406 313.887 361.2 313.305 359.115C313.033 358.843 312.761 358.571 312.479 358.308C308.377 360.427 303.731 362.196 299.989 364.898C300.069 369.684 299.763 374.469 299.075 379.206C298.567 382.284 297.634 385.277 296.305 388.1C296.47 388.645 296.812 389.121 297.277 389.451C297.827 389.761 298.433 389.959 299.06 390.034C299.688 390.109 300.323 390.059 300.931 389.888Z" fill="#AB6160"/>
<path d="M287.003 377.272C286.332 381.228 283.299 389.286 283.299 389.286C283.299 389.286 297.5 389.859 297.821 389.208L301.991 382.754L287.003 377.272Z" fill="#C48281"/>
<path d="M329.508 283.104L293.301 303.264C290.017 305.093 287.39 307.908 285.791 311.31C284.192 314.713 283.701 318.531 284.388 322.227L291.416 360.135L285.652 378.458C290.628 385.126 302.049 385.466 302.049 385.466C308.426 372.684 313.101 367.26 316.717 356.549C320.333 345.837 322.753 338.45 322.753 338.45L352.885 330.227C359.767 328.356 365.931 324.464 370.579 319.055C375.228 313.645 378.148 306.967 378.964 299.881C379.479 295.332 379.498 292.232 379.498 292.232L329.508 283.104Z" fill="#455A64"/>
<path opacity="0.2" d="M327.078 295.031C327.083 299.074 328.519 302.986 331.131 306.073L308.299 320.332C304.544 322.68 301.762 326.304 300.465 330.538L291.416 360.135L299.58 327.175C300.519 323.383 302.906 320.111 306.229 318.057L327.107 305.208C324.697 299.181 327.078 295.031 327.078 295.031Z" fill="black"/>
<path d="M291.007 407.657L291.338 412.983C295.702 411.428 297.267 409.338 297.267 409.338C297.782 405.324 298.161 401.183 298.336 399.162C296.975 401.504 294.39 402.904 292.65 404.994C291.993 405.809 291.441 406.704 291.007 407.657Z" fill="#37474F"/>
<path d="M289.189 412.186L291.338 412.983L291.007 407.657C290.307 409.105 289.782 410.67 289.189 412.186Z" fill="#263238"/>
<path d="M299.123 393.378C298.833 391.947 298.396 390.55 297.821 389.208C297.534 391.352 296.652 393.372 295.274 395.04C293.534 397.295 291.318 399.171 289.637 401.465C287.576 404.274 286.312 407.686 283.756 410.028C282.496 411.164 280.989 411.99 279.354 412.443C277.719 412.895 276.002 412.96 274.337 412.633C273.083 412.461 271.948 411.801 271.178 410.796C270.871 410.31 270.735 409.736 270.79 409.163C269.536 410.273 268.171 411.25 266.717 412.079C265.103 412.983 263.169 413.907 262.741 415.705C262.626 416.457 262.735 417.226 263.053 417.917C263.37 418.608 263.884 419.191 264.53 419.593C265.843 420.388 267.318 420.88 268.846 421.031C272.083 421.659 275.406 421.715 278.663 421.197C281.946 420.658 284.915 418.927 287.003 416.337C287.919 415.043 288.655 413.63 289.19 412.138C289.782 410.621 290.307 409.056 291.007 407.608C291.441 406.658 291.993 405.767 292.65 404.954C294.39 402.855 296.975 401.455 298.336 399.122C298.404 399.006 298.492 398.889 298.56 398.753C299.31 397.066 299.508 395.184 299.123 393.378Z" fill="#455A64"/>
<path d="M274.337 412.643C276.002 412.97 277.72 412.904 279.354 412.452C280.989 412 282.496 411.173 283.756 410.038C286.313 407.695 287.576 404.284 289.637 401.475C291.318 399.181 293.525 397.305 295.274 395.05C296.652 393.382 297.534 391.362 297.821 389.218L297.384 388.148C292.776 388.489 287.8 388.265 283.299 389.295C281.496 393.728 279.334 398.006 276.836 402.087C275.163 404.724 273.128 407.112 270.79 409.182C270.735 409.755 270.872 410.329 271.178 410.815C271.95 411.817 273.085 412.473 274.337 412.643Z" fill="#C48281"/>
<path d="M366.677 229.576C372.578 215.86 372.927 200.388 367.649 186.42C365.958 182.007 363.567 177.672 359.65 174.979C354.634 171.597 348.151 171.645 342.105 171.82C338.898 171.917 335.622 172.015 332.609 173.123C331.107 173.633 329.752 174.5 328.66 175.65C327.568 176.799 326.772 178.197 326.339 179.723C322.383 178.994 318.398 182.114 317.329 185.992C316.26 189.87 317.659 194.089 320.119 197.277C322.578 200.465 325.951 202.749 329.411 204.839C327.331 205.928 325.795 208.435 325.076 210.671C324.356 212.916 324.527 215.352 325.552 217.475C323.689 217.494 321.877 218.084 320.359 219.165C318.842 220.246 317.693 221.766 317.067 223.521C316.561 225.277 316.484 227.129 316.841 228.922C317.197 230.714 317.978 232.395 319.117 233.824C321.439 236.674 324.637 238.677 328.215 239.52C331.775 240.352 335.454 240.549 339.082 240.103C342.834 243.739 349.706 243.661 354.421 241.406C359.135 239.151 364.588 234.359 366.677 229.576Z" fill="#263238"/>
<path d="M333.095 220.449H332.172C325.999 220.517 318.184 224.726 314.364 235.496L299.532 264.228L316.464 271.732L325.727 244.613L333.095 220.449Z" fill="#C48281"/>
<path d="M321.198 239.52C320.022 242.912 319.944 246.567 319.759 250.212C319.574 253.857 319.157 258.124 317.514 261.322C315.703 260.068 313.536 259.434 311.335 259.515C309.135 259.595 307.019 260.386 305.306 261.769C304.074 262.809 303.13 264.148 302.564 265.657L316.464 271.82L325.727 244.701L330.286 229.751C328.201 230.699 326.325 232.05 324.765 233.727C323.205 235.403 321.992 237.372 321.198 239.52Z" fill="#AB6160"/>
<path d="M316.619 266.561C315.978 264.96 314.937 263.551 313.597 262.467C312.256 261.383 310.659 260.661 308.96 260.369C305.568 259.815 301.728 261.594 299.532 264.257C297.685 266.483 297.976 269.506 299.143 272.16C300.118 274.219 301.776 275.877 303.835 276.851C305.894 277.826 308.227 278.057 310.438 277.506C314.812 276.271 318.272 270.789 316.619 266.561Z" fill="#C48281"/>
<path d="M334.65 219.924C328.118 220.964 324.065 237.488 321.946 243.768C319.749 250.251 322.733 254.955 326.058 258.872C326.659 259.584 327.105 260.413 327.367 261.307C327.63 262.201 327.704 263.139 327.584 264.063L320.76 289.597C339.52 303.526 370.974 296.78 379.508 292.231C379.607 283.311 377.725 274.481 373.997 266.376C371.484 261.142 370.068 255.449 369.836 249.648L369.516 240.278L371.78 224.104L355.49 220.216L341.133 219.574C338.967 219.568 336.803 219.685 334.65 219.924Z" fill="#FFD226"/>
<path opacity="0.4" d="M334.65 219.924C328.118 220.964 324.065 237.488 321.946 243.768C319.749 250.251 322.733 254.955 326.058 258.872C326.659 259.584 327.105 260.413 327.367 261.307C327.63 262.201 327.704 263.139 327.584 264.063L320.76 289.597C339.52 303.526 370.974 296.78 379.508 292.231C379.607 283.311 377.725 274.481 373.997 266.376C371.484 261.142 370.068 255.449 369.836 249.648L369.516 240.278L371.78 224.104L355.49 220.216L341.133 219.574C338.967 219.568 336.803 219.685 334.65 219.924Z" fill="black"/>
<path d="M334.504 293.699C334.504 293.699 334.504 293.699 334.504 293.641C334.504 293.583 334.504 293.583 334.504 293.524V293.466V293.418V293.359L323.423 272.724V272.665V272.607V272.549L323.375 272.481V272.413C323.326 272.345 323.326 272.345 323.278 272.277L323.219 272.218L323.171 272.15V272.102V272.053V272.004L323.005 271.859H322.947H322.899H322.84H322.772L322.704 271.81H322.626L308.124 263.159H308.046H307.978H307.901H307.833H307.764H307.696H307.638H307.57H307.492H307.424H307.347H307.152C307.08 263.161 307.011 263.189 306.958 263.237L305.441 264.977H305.49C305.364 265.074 305.354 265.278 305.539 265.618L316.619 286.254C317.24 287.209 318.08 288.002 319.069 288.567L331.812 295.741C332.463 296.11 332.862 296.12 332.92 295.848C332.92 295.848 332.92 295.945 332.92 295.964L334.446 294.224C334.451 294.199 334.451 294.172 334.446 294.147C334.451 294.124 334.451 294.101 334.446 294.078L334.504 293.699ZM305.772 264.617C305.772 264.617 305.772 264.617 305.859 264.617H305.908H305.772ZM320.352 272.85C320.469 272.947 320.595 273.044 320.702 273.151C320.624 273.044 320.498 272.947 320.381 272.85H320.352ZM321.149 273.628L321.304 273.793L321.149 273.628ZM332.978 295.488C332.96 295.341 332.914 295.199 332.842 295.07C332.908 295.188 332.954 295.316 332.978 295.449C332.978 295.449 332.968 295.43 332.978 295.488Z" fill="#455A64"/>
<path opacity="0.15" d="M334.504 293.699C334.504 293.699 334.504 293.699 334.504 293.641C334.504 293.583 334.504 293.583 334.504 293.524V293.466V293.418V293.359L323.423 272.724L321.732 274.395L332.823 295.031C332.889 295.149 332.935 295.277 332.959 295.41C332.97 295.45 332.972 295.492 332.964 295.533C332.955 295.574 332.937 295.612 332.91 295.643L334.436 293.904C334.441 293.878 334.441 293.851 334.436 293.826C334.441 293.803 334.441 293.78 334.436 293.758L334.504 293.699Z" fill="white"/>
<path opacity="0.2" d="M323.239 272.597V272.539V272.481L323.19 272.413V272.345C323.141 272.277 323.141 272.277 323.093 272.208L323.035 272.15L322.986 272.082V272.034V271.985V271.936L322.821 271.791H322.762H322.714H322.656H322.587L322.519 271.742H322.442L308.124 263.159H308.046H307.978H307.901H307.833H307.764H307.696H307.638H307.57H307.492H307.424H307.347H307.152C307.08 263.161 307.011 263.189 306.958 263.237L305.441 264.977C305.513 264.899 305.639 264.88 305.821 264.918C306.066 264.982 306.302 265.08 306.52 265.21L319.263 272.383C319.519 272.521 319.763 272.681 319.992 272.86C320.237 273.047 320.47 273.248 320.692 273.462C320.908 273.662 321.109 273.876 321.295 274.104C321.453 274.291 321.593 274.493 321.713 274.707L323.239 272.967V272.597Z" fill="white"/>
<path d="M378.03 229.509C376.222 226.408 373.851 224.027 370.254 223.754C370.254 223.754 364.422 226.787 364.422 240.551L364.811 274.989C363.966 275.329 363.12 275.688 362.284 276.038C355.175 279.095 347.744 281.342 340.132 282.735C336.163 279.583 331.223 277.906 326.155 277.992L328.031 281.491C324.473 283.775 316.425 279.664 316.425 279.664C315.832 284.679 319.088 289.889 323.404 292.523C327.72 295.158 368.874 291.289 377.603 285.642C383.347 281.929 381.986 246.421 381.986 246.421C382.382 240.516 381.005 234.626 378.03 229.509Z" fill="#C48281"/>
<path d="M307.726 269.244C307.451 270.598 307.295 271.974 307.259 273.355C307.578 276.646 308.972 279.741 311.225 282.162C311.692 282.693 312.278 283.106 312.936 283.367C313.258 283.493 313.608 283.53 313.95 283.476C314.292 283.421 314.613 283.276 314.88 283.056C315.363 282.478 315.609 281.738 315.57 280.985C315.679 279.871 315.617 278.747 315.385 277.651C315.158 276.544 314.532 275.558 313.626 274.881C312.926 274.467 312.179 274.141 311.4 273.909C310.652 273.582 309.988 273.09 309.456 272.471L307.726 269.244Z" fill="#C48281"/>
<path d="M341.085 213.188V226.194C339.811 227.399 338.586 228.779 338.47 230.5C338.448 231.323 338.653 232.137 339.063 232.852C339.473 233.567 340.071 234.156 340.793 234.553C342.264 235.331 343.982 235.499 345.575 235.02C347.152 234.533 348.597 233.696 349.803 232.57C351.514 230.989 352.894 229.083 353.862 226.964C354.83 224.845 355.366 222.554 355.441 220.226V207.036L341.085 213.188Z" fill="#C48281"/>
<path d="M354.887 207.036C353.526 214.19 350.737 220.391 341.085 222.588V213.14L354.887 207.036Z" fill="#AB6160"/>
<path d="M351.514 199.512C351.373 200.658 351.373 201.817 351.514 202.963C351.672 203.828 352.105 204.619 352.749 205.218C353.062 205.502 353.44 205.705 353.851 205.809C354.261 205.912 354.69 205.913 355.101 205.811C354.829 204.684 355.002 203.495 355.585 202.492C356.168 201.49 357.116 200.751 358.23 200.43C359.345 200.109 360.54 200.231 361.567 200.77C362.594 201.309 363.373 202.223 363.742 203.323C363.971 204.115 364.023 204.948 363.893 205.763C363.764 206.578 363.457 207.354 362.994 208.037C362.055 209.398 360.814 210.522 359.368 211.322C358.535 211.639 357.617 211.653 356.775 211.361C355.933 211.07 355.22 210.492 354.761 209.728C350.61 215.453 343.155 219.924 335.991 219.613C334.03 219.59 332.117 219.003 330.48 217.922C327.7 215.978 327.37 212.8 326.903 209.689C326.231 205.766 326.097 201.77 326.505 197.811C327.156 192.349 329.353 186.906 333.425 183.231C336.312 194.915 347.335 198.813 351.514 199.512Z" fill="#C48281"/>
<path d="M336.584 198.774L331.938 205.004L336.555 206.385L336.584 198.774Z" fill="#AB6160"/>
<path d="M340.852 209.155L337.09 210.516C337.356 210.952 337.757 211.29 338.232 211.48C338.707 211.669 339.23 211.699 339.724 211.565C340.159 211.353 340.508 210.998 340.713 210.559C340.919 210.121 340.967 209.625 340.852 209.155Z" fill="#AB6160"/>
<path opacity="0.3" d="M340.852 209.155L337.09 210.516C337.356 210.952 337.757 211.29 338.232 211.48C338.707 211.669 339.23 211.699 339.724 211.565C340.159 211.353 340.508 210.998 340.713 210.559C340.919 210.121 340.967 209.625 340.852 209.155Z" fill="black"/>
<path d="M338.47 211.556C338.879 211.677 339.315 211.677 339.724 211.556C340.066 211.402 340.357 211.152 340.561 210.836C340.764 210.52 340.872 210.152 340.871 209.777C340.32 209.708 339.764 209.854 339.318 210.183C338.871 210.512 338.568 211 338.47 211.546V211.556Z" fill="#AB6160"/>
<path d="M343.369 199.755C343.369 200.025 343.289 200.288 343.139 200.512C342.989 200.736 342.776 200.911 342.527 201.013C342.277 201.116 342.003 201.143 341.739 201.089C341.475 201.036 341.232 200.905 341.042 200.714C340.852 200.523 340.724 200.279 340.672 200.015C340.621 199.75 340.649 199.476 340.754 199.228C340.858 198.979 341.034 198.768 341.259 198.619C341.484 198.471 341.748 198.393 342.018 198.395C342.196 198.395 342.372 198.43 342.537 198.498C342.702 198.567 342.851 198.667 342.977 198.794C343.102 198.92 343.201 199.07 343.269 199.235C343.336 199.4 343.37 199.577 343.369 199.755Z" fill="#263238"/>
<path d="M331.967 199.26C331.962 199.62 331.815 199.963 331.559 200.216C331.302 200.469 330.957 200.611 330.597 200.611C330.236 200.611 329.89 200.467 329.634 200.212C329.379 199.957 329.236 199.611 329.236 199.25C329.236 198.889 329.379 198.543 329.634 198.288C329.89 198.033 330.236 197.889 330.597 197.889C330.777 197.889 330.955 197.925 331.121 197.993C331.287 198.062 331.438 198.163 331.566 198.291C331.693 198.418 331.794 198.569 331.863 198.735C331.932 198.901 331.967 199.08 331.967 199.26Z" fill="#263238"/>
<path d="M330.665 193.856L327.642 195.926C327.514 195.552 327.503 195.148 327.611 194.768C327.719 194.387 327.94 194.049 328.245 193.797C328.613 193.58 329.035 193.471 329.463 193.481C329.891 193.491 330.307 193.621 330.665 193.856Z" fill="#263238"/>
<path d="M342.3 193.739L345.303 195.838C345.437 195.466 345.453 195.062 345.351 194.68C345.248 194.297 345.032 193.956 344.73 193.7C344.361 193.479 343.939 193.366 343.509 193.373C343.08 193.38 342.661 193.506 342.3 193.739Z" fill="#263238"/>
</svg>
