<svg width="480" height="399" viewBox="0 0 480 399" fill="none" xmlns="http://www.w3.org/2000/svg">
<path d="M70.2437 361.337C163.93 410.274 315.756 410.274 409.42 361.337C503.083 312.4 503.105 233.087 409.42 184.15C315.734 135.213 163.908 135.224 70.2437 184.15C-23.4201 233.076 -23.4091 312.411 70.2437 361.337Z" fill="#F5F5F5"/>
<path d="M42.4573 283.324H46.4031C48.2117 277.285 49.3972 271.077 49.9411 264.796C50.8009 253.168 45.1687 235.368 34.8522 229.405C24.5357 223.442 18.9477 230.816 22.4085 237.12C25.8694 243.425 37.5415 261.358 37.6959 276.788L42.4573 283.324Z" fill="#B3751B"/>
<path d="M41.5097 283.324H42.6119C43.6887 275.709 43.6887 267.98 42.6119 260.365C40.8263 245.277 35.8665 238.267 31.2593 233.395C31.1585 233.288 31.0194 233.226 30.8726 233.222C30.7259 233.218 30.5835 233.272 30.4768 233.373C30.3701 233.474 30.3078 233.613 30.3037 233.76C30.2996 233.906 30.3539 234.049 30.4547 234.156C34.9406 238.884 39.7682 245.717 41.4766 260.487C42.5685 268.059 42.5796 275.748 41.5097 283.324Z" fill="white"/>
<path d="M42.7769 283.324C40.7489 273.757 31.5346 262.382 22.8383 260.421C12.7533 258.216 7.8486 263.54 9.29246 268.136C10.7363 272.732 18.7051 274.87 26.4425 278.474C29.0478 279.68 31.4293 281.32 33.4855 283.324H42.7769Z" fill="#B3751B"/>
<path d="M39.1069 283.324H40.2862C36.0208 272.6 26.3215 264.951 18.3858 264.245C18.314 264.238 18.2413 264.244 18.1722 264.265C18.1031 264.286 18.0389 264.321 17.9834 264.367C17.9279 264.414 17.8822 264.471 17.8491 264.535C17.816 264.599 17.7961 264.669 17.7906 264.741C17.7814 264.813 17.7872 264.886 17.8076 264.956C17.8279 265.026 17.8625 265.091 17.909 265.147C17.9555 265.203 18.0131 265.248 18.0781 265.281C18.143 265.314 18.214 265.332 18.2866 265.336C25.7815 266.009 34.9406 273.195 39.1069 283.324Z" fill="white"/>
<path d="M398.574 182.485L406.829 186.817L407.523 181.647C403.434 170.119 406.796 157.047 411.216 151.602C415.635 146.157 414.787 142.156 413.189 140.371C411.59 138.585 405.528 137.229 399.533 144.239C393.537 151.249 392.159 159.758 393.162 168.344C393.801 173.712 396.623 179.223 398.574 182.485Z" fill="#B3751B"/>
<path opacity="0.2" d="M398.574 182.485L406.829 186.817L407.523 181.647C403.434 170.119 406.796 157.047 411.216 151.602C415.635 146.157 414.787 142.156 413.189 140.371C411.59 138.585 405.528 137.229 399.533 144.239C393.537 151.249 392.159 159.758 393.162 168.344C393.801 173.712 396.623 179.223 398.574 182.485Z" fill="black"/>
<path d="M401.979 184.271L403.61 185.13C403.595 185.099 403.576 185.07 403.555 185.042C401.219 182.265 398.199 168.664 399.466 160.695C401.031 150.852 406.079 144.427 410.4 141.704C410.453 141.672 410.499 141.629 410.535 141.578C410.571 141.528 410.596 141.47 410.609 141.41C410.623 141.349 410.624 141.286 410.612 141.225C410.601 141.164 410.578 141.106 410.543 141.054C410.473 140.949 410.365 140.875 410.242 140.848C410.118 140.821 409.989 140.844 409.882 140.911C405.473 143.743 400.139 150.389 398.518 160.552C397.35 167.969 399.687 179.719 401.979 184.271Z" fill="white"/>
<path d="M406.994 162.811C409.408 168.73 409.397 171.628 405.462 172.235C401.913 172.764 397.604 177.073 401.605 184.072L425.015 196.35C425.074 195.042 425.397 193.759 425.966 192.579C426.534 191.399 427.335 190.346 428.322 189.484C432.168 185.637 435.717 182.738 435.166 178.462C434.615 174.185 430.901 170.063 430.284 166.338C429.666 162.613 431.562 160.485 435.607 156.308C439.652 152.131 443.322 145.65 437.922 142.696C432.521 139.742 426.338 144.801 423.759 148.207C421.18 151.613 418.821 153.112 413.74 152.825C408.659 152.539 404.581 156.892 406.994 162.811Z" fill="#B3751B"/>
<path d="M413.619 190.377C413.509 172.213 426.525 150.941 433.767 146.642C433.874 146.574 433.95 146.467 433.981 146.344C434.012 146.221 433.994 146.091 433.932 145.981C433.866 145.875 433.761 145.798 433.64 145.767C433.519 145.737 433.391 145.754 433.282 145.815C425.941 150.224 412.814 171.507 412.671 189.903L413.619 190.377Z" fill="white"/>
<path d="M417.101 171.496C417.002 171.519 416.897 171.508 416.805 171.464C416.713 171.42 416.639 171.346 416.594 171.254C414.491 167.331 412.722 163.239 411.304 159.02C411.285 158.96 411.278 158.898 411.283 158.836C411.289 158.774 411.306 158.713 411.335 158.658C411.363 158.603 411.403 158.554 411.45 158.514C411.498 158.474 411.553 158.443 411.612 158.425C411.672 158.406 411.734 158.399 411.796 158.404C411.858 158.409 411.919 158.427 411.974 158.456C412.029 158.484 412.078 158.523 412.118 158.571C412.158 158.619 412.189 158.674 412.207 158.733C413.612 162.894 415.36 166.93 417.432 170.802C417.491 170.915 417.503 171.046 417.466 171.168C417.429 171.289 417.345 171.392 417.233 171.452L417.101 171.496Z" fill="white"/>
<path d="M413.971 182.629C413.881 182.645 413.788 182.637 413.702 182.603C413.617 182.57 413.542 182.514 413.486 182.441C413.414 182.336 413.386 182.206 413.408 182.08C413.431 181.954 413.503 181.842 413.607 181.769C418.354 178.446 424.112 176.886 429.887 177.36C430.012 177.376 430.127 177.441 430.204 177.542C430.282 177.642 430.316 177.769 430.3 177.895C430.284 178.02 430.219 178.134 430.118 178.212C430.018 178.29 429.891 178.324 429.765 178.308C424.237 177.887 418.73 179.369 414.159 182.507C414.105 182.56 414.041 182.601 413.971 182.629Z" fill="white"/>
<path d="M275.648 71.6718L248.788 56.1641L221.938 71.6718L248.788 87.1796L275.648 71.6718Z" fill="#F5F5F5"/>
<path d="M248.788 118.206L275.648 102.698V71.6714L248.788 87.1791V118.206Z" fill="#EBEBEB"/>
<path d="M253.968 107.912C253.826 107.914 253.685 107.88 253.56 107.813C253.389 107.687 253.252 107.52 253.163 107.327C253.075 107.134 253.037 106.922 253.053 106.71V103.404V103.161H253.218L255.797 101.651V105.322C255.794 105.794 255.677 106.259 255.456 106.677C255.236 107.095 254.918 107.455 254.53 107.724C254.363 107.837 254.169 107.902 253.968 107.912ZM253.472 103.646V106.688C253.454 106.83 253.471 106.974 253.523 107.107C253.575 107.24 253.66 107.357 253.769 107.449C253.859 107.489 253.957 107.504 254.054 107.492C254.151 107.48 254.243 107.443 254.321 107.383C254.651 107.152 254.922 106.848 255.114 106.494C255.305 106.14 255.411 105.746 255.423 105.344V105.079H254.464L254.276 103.79L253.472 103.646ZM254.795 104.66H255.39V102.401L253.847 103.294L254.607 103.437L254.795 104.66Z" fill="white"/>
<path d="M254.431 110.535C254.375 110.535 254.322 110.513 254.283 110.474C254.244 110.434 254.222 110.381 254.222 110.326V107.57C254.22 107.542 254.224 107.514 254.234 107.488C254.244 107.462 254.26 107.438 254.279 107.418C254.299 107.399 254.323 107.383 254.349 107.373C254.375 107.363 254.403 107.359 254.431 107.361C254.486 107.361 254.54 107.383 254.579 107.422C254.618 107.461 254.64 107.515 254.64 107.57V110.281C254.645 110.312 254.643 110.343 254.635 110.373C254.627 110.403 254.612 110.431 254.592 110.455C254.573 110.479 254.548 110.499 254.52 110.512C254.492 110.526 254.462 110.534 254.431 110.535Z" fill="white"/>
<path d="M253.23 111.229C253.193 111.229 253.157 111.219 253.126 111.199C253.095 111.18 253.07 111.152 253.053 111.119C253.038 111.097 253.028 111.071 253.023 111.044C253.019 111.017 253.021 110.99 253.028 110.964C253.035 110.937 253.048 110.913 253.066 110.892C253.084 110.872 253.106 110.855 253.13 110.844L255.522 109.455C255.546 109.441 255.572 109.432 255.6 109.429C255.627 109.425 255.655 109.427 255.681 109.434C255.708 109.441 255.733 109.453 255.755 109.47C255.777 109.487 255.795 109.508 255.809 109.532C255.834 109.581 255.84 109.637 255.826 109.69C255.811 109.743 255.778 109.789 255.732 109.819L253.329 111.196L253.23 111.229Z" fill="white"/>
<path d="M261.782 106.468C261.707 106.491 261.626 106.491 261.551 106.468C261.47 106.414 261.406 106.339 261.363 106.252C261.321 106.165 261.302 106.068 261.308 105.972V105.41C261.307 105.383 261.311 105.356 261.32 105.33C261.33 105.305 261.344 105.282 261.363 105.262C261.381 105.243 261.404 105.227 261.428 105.216C261.453 105.206 261.48 105.2 261.507 105.2C261.535 105.199 261.563 105.203 261.589 105.213C261.615 105.223 261.639 105.238 261.658 105.258C261.678 105.278 261.694 105.302 261.704 105.328C261.714 105.354 261.718 105.382 261.716 105.41V105.873C261.716 105.961 261.716 106.005 261.716 106.005C261.716 106.005 261.782 106.005 261.849 106.005C261.977 105.888 262.078 105.745 262.145 105.585C262.211 105.425 262.242 105.252 262.234 105.079V101.464C262.234 101.437 262.24 101.41 262.25 101.385C262.261 101.36 262.277 101.338 262.296 101.319C262.316 101.301 262.339 101.287 262.364 101.277C262.39 101.268 262.417 101.264 262.444 101.265C262.496 101.265 262.547 101.286 262.584 101.324C262.621 101.361 262.642 101.411 262.642 101.464V105.145C262.65 105.391 262.602 105.634 262.501 105.858C262.399 106.082 262.248 106.279 262.058 106.435C261.969 106.463 261.876 106.474 261.782 106.468Z" fill="white"/>
<path d="M259.6 103.26V102.908C259.651 101.99 259.917 101.097 260.377 100.3C260.836 99.504 261.476 98.8266 262.245 98.3227C262.52 98.0911 262.86 97.9499 263.218 97.918C263.576 97.8862 263.936 97.9653 264.247 98.1446C264.559 98.3239 264.808 98.5947 264.96 98.9204C265.113 99.246 265.162 99.6107 265.1 99.9649V100.086L259.6 103.26ZM263.48 98.3667C263.115 98.3782 262.761 98.4887 262.455 98.6864C261.8 99.1181 261.245 99.6846 260.827 100.348C260.409 101.011 260.137 101.756 260.03 102.533L264.681 99.8547C264.699 99.5946 264.649 99.3343 264.537 99.0988C264.425 98.8633 264.255 98.6606 264.042 98.51C263.87 98.4129 263.676 98.3635 263.48 98.3667Z" fill="white"/>
<path d="M269.156 102.235C269.102 102.235 269.051 102.215 269.012 102.178C268.973 102.141 268.949 102.09 268.947 102.037V95.0048C268.947 94.9493 268.969 94.896 269.008 94.8567C269.047 94.8175 269.1 94.7954 269.156 94.7954C269.211 94.7954 269.265 94.8175 269.304 94.8567C269.343 94.896 269.365 94.9493 269.365 95.0048V102.037C269.363 102.09 269.339 102.141 269.3 102.178C269.261 102.215 269.21 102.235 269.156 102.235Z" fill="white"/>
<path d="M268.594 96.6033H268.517C268.491 96.5925 268.468 96.5768 268.449 96.557C268.43 96.5373 268.415 96.514 268.404 96.4884C268.394 96.4628 268.389 96.4354 268.389 96.4079C268.39 96.3803 268.396 96.3531 268.407 96.3277L269.145 94.6304L269.961 95.5783C269.978 95.5985 269.991 95.622 269.999 95.6474C270.008 95.6727 270.011 95.6995 270.009 95.7261C270.007 95.7527 270 95.7787 269.988 95.8025C269.975 95.8263 269.959 95.8474 269.939 95.8648C269.918 95.8822 269.895 95.8954 269.869 95.9037C269.844 95.912 269.817 95.9152 269.791 95.9131C269.764 95.9111 269.738 95.9038 269.714 95.8918C269.691 95.8797 269.669 95.863 269.652 95.8428L269.255 95.4019L268.781 96.5041C268.763 96.5366 268.735 96.5633 268.702 96.5808C268.669 96.5984 268.631 96.6062 268.594 96.6033Z" fill="white"/>
<path d="M271.107 101.155C271.053 101.152 271.003 101.129 270.966 101.09C270.929 101.051 270.908 101 270.908 100.946V93.9139C270.901 93.8831 270.901 93.8512 270.908 93.8204C270.915 93.7896 270.929 93.7608 270.948 93.736C270.968 93.7113 270.993 93.6913 271.021 93.6776C271.05 93.6639 271.081 93.6567 271.112 93.6567C271.144 93.6567 271.175 93.6639 271.203 93.6776C271.232 93.6913 271.257 93.7113 271.276 93.736C271.296 93.7608 271.31 93.7896 271.317 93.8204C271.324 93.8512 271.323 93.8831 271.316 93.9139V100.946C271.316 101.001 271.294 101.055 271.255 101.094C271.216 101.133 271.162 101.155 271.107 101.155Z" fill="white"/>
<path d="M270.501 95.512H270.423C270.398 95.5012 270.375 95.4854 270.356 95.4657C270.337 95.446 270.321 95.4227 270.311 95.3971C270.301 95.3715 270.296 95.3441 270.296 95.3166C270.297 95.289 270.302 95.2618 270.313 95.2364L271.052 93.5391L271.867 94.4869C271.904 94.5258 271.924 94.577 271.924 94.6302C271.924 94.6835 271.904 94.7347 271.867 94.7735C271.827 94.8107 271.774 94.8313 271.719 94.8313C271.663 94.8313 271.61 94.8107 271.57 94.7735L271.184 94.3216L270.71 95.4238C270.687 95.4571 270.655 95.4831 270.618 95.4988C270.581 95.5144 270.54 95.519 270.501 95.512Z" fill="white"/>
<path d="M248.788 118.206L221.927 102.698L221.938 71.6714L248.788 87.1791V118.206Z" fill="#E0E0E0"/>
<path d="M236.818 80.2688L263.656 64.75L260.625 62.9976L233.776 78.5163L236.818 80.2688Z" fill="white"/>
<path d="M226.006 89.4609L235.628 94.9718C236.181 95.3364 236.642 95.8252 236.973 96.3993C237.304 96.9734 237.496 97.6168 237.535 98.2784V104.208C237.535 105.432 236.675 105.928 235.628 105.31L226.006 99.7994C225.452 99.4355 224.991 98.9468 224.66 98.3726C224.328 97.7984 224.136 97.1546 224.099 96.4929V90.5631C224.099 89.3397 224.959 88.8547 226.006 89.4609Z" fill="#B3751B"/>
<path d="M225.267 90.938L225.631 91.1584V97.7385L225.267 97.5291V90.938Z" fill="#B3751B"/>
<path d="M226.755 91.7974L227.383 92.1721V98.7522L226.755 98.3885V91.7974Z" fill="#B3751B"/>
<path d="M228.243 92.6572L228.607 92.8666V99.4577L228.243 99.2483V92.6572Z" fill="#B3751B"/>
<path d="M229.356 93.2964L230.094 93.7262V100.317L229.356 99.8764V93.2964Z" fill="#B3751B"/>
<path d="M231.208 94.3765L231.582 94.5859V101.177L231.208 100.957V94.3765Z" fill="#B3751B"/>
<path d="M232.288 94.9829L233.059 95.4458V102.026L232.277 101.563L232.288 94.9829Z" fill="#B3751B"/>
<path d="M234.184 96.0962L234.547 96.3056V102.886L234.184 102.676V96.0962Z" fill="#B3751B"/>
<path d="M235.032 96.5698L235.22 96.68V103.26L235.032 103.161V96.5698Z" fill="#B3751B"/>
<path d="M233.511 95.7324L233.688 95.8426V102.423L233.511 102.323V95.7324Z" fill="#B3751B"/>
<path d="M230.513 93.98L230.69 94.0792V100.67L230.513 100.56V93.98Z" fill="#B3751B"/>
<path d="M228.871 93.0322L229.059 93.1424V99.7335L228.871 99.6233V93.0322Z" fill="#B3751B"/>
<path d="M227.692 92.3818L227.879 92.4921V99.0831L227.692 98.9729V92.3818Z" fill="#B3751B"/>
<path d="M226.094 91.4121L226.281 91.5223V98.1134L226.094 98.0032V91.4121Z" fill="#B3751B"/>
<path d="M235.672 96.9448L236.035 97.1542V103.745L235.672 103.536V96.9448Z" fill="#B3751B"/>
<path d="M239.838 66.5024L208.492 48.4155L177.157 66.5024L208.492 84.6003L239.838 66.5024Z" fill="#F5F5F5"/>
<path d="M195.056 76.8408L226.403 58.7539L223.361 57.0015L192.025 75.0883L195.056 76.8408Z" fill="white"/>
<path d="M208.491 141.462L239.838 123.375V66.5024L208.491 84.6003V141.462Z" fill="#EBEBEB"/>
<path d="M213.672 131.223C213.528 131.225 213.387 131.187 213.264 131.112C213.09 130.989 212.952 130.823 212.863 130.629C212.774 130.436 212.737 130.222 212.757 130.01V126.704V126.461H212.933L215.501 124.951V128.621C215.496 129.094 215.378 129.558 215.158 129.976C214.937 130.394 214.621 130.753 214.234 131.024C214.068 131.141 213.874 131.209 213.672 131.223ZM213.176 126.957V129.999C213.157 130.141 213.175 130.285 213.227 130.418C213.279 130.551 213.364 130.668 213.473 130.76C213.563 130.8 213.661 130.814 213.758 130.803C213.855 130.791 213.947 130.753 214.024 130.694C214.355 130.463 214.626 130.159 214.818 129.805C215.009 129.451 215.115 129.057 215.127 128.655V128.39H214.168L213.98 127.1L213.176 126.957ZM214.498 127.971H215.149V125.712L213.606 126.615L214.366 126.748L214.498 127.971Z" fill="white"/>
<path d="M214.135 133.802C214.079 133.802 214.026 133.78 213.987 133.741C213.948 133.701 213.926 133.648 213.926 133.593V130.826C213.925 130.799 213.931 130.772 213.942 130.748C213.952 130.723 213.968 130.7 213.987 130.682C214.007 130.663 214.03 130.649 214.056 130.64C214.081 130.63 214.108 130.626 214.135 130.628C214.189 130.628 214.24 130.648 214.279 130.685C214.318 130.722 214.342 130.773 214.344 130.826V133.593C214.342 133.647 214.319 133.699 214.28 133.738C214.241 133.776 214.19 133.799 214.135 133.802Z" fill="white"/>
<path d="M212.945 134.529C212.909 134.53 212.874 134.521 212.843 134.504C212.812 134.487 212.786 134.461 212.768 134.43C212.743 134.381 212.737 134.325 212.751 134.272C212.766 134.219 212.799 134.173 212.846 134.144L215.237 132.766C215.261 132.752 215.287 132.743 215.315 132.74C215.342 132.736 215.37 132.738 215.397 132.745C215.423 132.752 215.448 132.765 215.47 132.781C215.492 132.798 215.51 132.819 215.524 132.843C215.537 132.866 215.546 132.892 215.55 132.918C215.553 132.945 215.551 132.972 215.544 132.997C215.537 133.023 215.524 133.047 215.508 133.068C215.491 133.089 215.47 133.106 215.447 133.119L213.044 134.507C213.014 134.525 212.979 134.533 212.945 134.529Z" fill="white"/>
<path d="M221.486 129.735C221.406 129.735 221.326 129.716 221.255 129.68C221.174 129.626 221.11 129.551 221.067 129.464C221.024 129.377 221.006 129.28 221.012 129.184V128.611C221.012 128.584 221.018 128.557 221.028 128.532C221.039 128.507 221.055 128.485 221.074 128.466C221.094 128.448 221.117 128.433 221.142 128.424C221.168 128.415 221.195 128.411 221.222 128.412C221.248 128.412 221.274 128.417 221.298 128.427C221.322 128.437 221.344 128.452 221.362 128.47C221.38 128.489 221.395 128.511 221.405 128.535C221.415 128.559 221.42 128.585 221.42 128.611V129.184C221.42 129.261 221.42 129.305 221.42 129.316C221.42 129.327 221.486 129.316 221.552 129.316C221.681 129.197 221.782 129.052 221.849 128.89C221.915 128.728 221.946 128.554 221.938 128.379V124.709C221.938 124.653 221.96 124.6 222 124.561C222.039 124.522 222.092 124.5 222.148 124.5C222.202 124.502 222.254 124.525 222.293 124.564C222.331 124.603 222.354 124.654 222.357 124.709V128.379C222.367 128.626 222.319 128.872 222.215 129.096C222.112 129.32 221.956 129.517 221.762 129.669C221.676 129.712 221.582 129.734 221.486 129.735Z" fill="white"/>
<path d="M219.304 126.528V126.164C219.356 125.248 219.623 124.356 220.082 123.562C220.542 122.767 221.181 122.092 221.949 121.59C222.225 121.358 222.564 121.217 222.922 121.185C223.281 121.153 223.64 121.232 223.952 121.412C224.263 121.591 224.512 121.862 224.665 122.187C224.817 122.513 224.866 122.878 224.804 123.232V123.353L219.304 126.528ZM223.184 121.623C222.82 121.639 222.467 121.75 222.159 121.942C221.503 122.375 220.947 122.944 220.529 123.609C220.111 124.274 219.84 125.021 219.734 125.8L224.385 123.122C224.402 122.86 224.352 122.599 224.24 122.362C224.128 122.125 223.958 121.92 223.746 121.766C223.573 121.672 223.38 121.623 223.184 121.623Z" fill="white"/>
<path d="M228.904 125.503C228.848 125.503 228.795 125.48 228.756 125.441C228.717 125.402 228.695 125.349 228.695 125.293V118.261C228.695 118.206 228.717 118.152 228.756 118.113C228.795 118.074 228.848 118.052 228.904 118.052C228.96 118.052 229.013 118.074 229.052 118.113C229.091 118.152 229.113 118.206 229.113 118.261V125.293C229.113 125.349 229.091 125.402 229.052 125.441C229.013 125.48 228.96 125.503 228.904 125.503Z" fill="white"/>
<path d="M228.298 119.87H228.221C228.196 119.86 228.173 119.846 228.154 119.827C228.135 119.808 228.119 119.786 228.109 119.761C228.099 119.737 228.094 119.71 228.094 119.683C228.094 119.657 228.1 119.63 228.11 119.606L228.849 117.908L229.664 118.856C229.7 118.897 229.717 118.95 229.713 119.004C229.709 119.058 229.683 119.108 229.642 119.143C229.601 119.178 229.548 119.195 229.495 119.191C229.441 119.187 229.391 119.162 229.356 119.121L228.959 118.669L228.485 119.771C228.466 119.803 228.439 119.83 228.406 119.848C228.373 119.865 228.335 119.873 228.298 119.87Z" fill="white"/>
<path d="M230.811 124.411C230.758 124.411 230.708 124.39 230.67 124.353C230.633 124.316 230.612 124.265 230.612 124.213V117.181C230.611 117.154 230.615 117.127 230.624 117.102C230.633 117.076 230.648 117.053 230.666 117.033C230.685 117.014 230.707 116.998 230.732 116.988C230.757 116.977 230.784 116.971 230.811 116.972C230.839 116.97 230.867 116.974 230.893 116.984C230.919 116.994 230.943 117.01 230.962 117.029C230.982 117.049 230.998 117.073 231.007 117.099C231.017 117.125 231.022 117.153 231.02 117.181V124.213C231.02 124.24 231.015 124.267 231.004 124.291C230.993 124.316 230.978 124.339 230.958 124.357C230.939 124.376 230.915 124.39 230.89 124.399C230.865 124.409 230.838 124.413 230.811 124.411Z" fill="white"/>
<path d="M230.216 118.779H230.128C230.078 118.755 230.04 118.714 230.019 118.663C229.999 118.612 229.998 118.555 230.017 118.504L230.756 116.806L231.582 117.754C231.617 117.794 231.635 117.845 231.635 117.897C231.635 117.95 231.617 118.001 231.582 118.041C231.563 118.06 231.54 118.076 231.514 118.087C231.489 118.097 231.461 118.103 231.434 118.103C231.406 118.103 231.379 118.097 231.353 118.087C231.328 118.076 231.304 118.06 231.285 118.041L230.899 117.589L230.425 118.691C230.404 118.725 230.372 118.752 230.334 118.768C230.297 118.784 230.256 118.788 230.216 118.779Z" fill="white"/>
<path d="M208.492 141.462L177.157 123.375V66.5024L208.492 84.6003V141.462Z" fill="#E0E0E0"/>
<path d="M183.527 111.549L193.138 117.06C193.694 117.422 194.158 117.911 194.491 118.485C194.824 119.059 195.018 119.704 195.056 120.366V126.307C195.056 127.519 194.197 128.015 193.138 127.409L183.527 121.898C182.972 121.536 182.509 121.048 182.178 120.474C181.846 119.899 181.656 119.254 181.621 118.592V112.662C181.621 111.383 182.48 110.943 183.527 111.549Z" fill="#F5F5F5"/>
<path d="M182.789 113.026L183.152 113.246V119.826L182.789 119.617V113.026Z" fill="#E0E0E0"/>
<path d="M184.277 113.885L184.905 114.26V120.851L184.277 120.476V113.885Z" fill="#E0E0E0"/>
<path d="M185.754 114.745L186.128 114.955L186.117 121.546L185.754 121.336V114.745Z" fill="#E0E0E0"/>
<path d="M186.878 115.384L187.605 115.814V122.405L186.878 121.964V115.384Z" fill="#E0E0E0"/>
<path d="M188.73 116.464L189.093 116.674V123.265L188.73 123.044V116.464Z" fill="#E0E0E0"/>
<path d="M189.799 117.071L190.581 117.534V124.114L189.799 123.651V117.071Z" fill="#E0E0E0"/>
<path d="M191.705 118.173L192.069 118.393V124.973L191.705 124.764V118.173Z" fill="#E0E0E0"/>
<path d="M192.554 118.658L192.741 118.768V125.359L192.554 125.249V118.658Z" fill="#E0E0E0"/>
<path d="M191.033 117.82L191.21 117.931V124.511L191.033 124.411V117.82Z" fill="#E0E0E0"/>
<path d="M188.035 116.068L188.212 116.167V122.758L188.035 122.648V116.068Z" fill="#E0E0E0"/>
<path d="M186.393 115.12L186.569 115.23V121.821L186.393 121.711V115.12Z" fill="#E0E0E0"/>
<path d="M185.213 114.47L185.401 114.58V121.171L185.213 121.061V114.47Z" fill="#E0E0E0"/>
<path d="M183.615 113.5L183.803 113.61V120.201L183.615 120.091V113.5Z" fill="#E0E0E0"/>
<path d="M193.193 119.033L193.557 119.242V125.833L193.193 125.624V119.033Z" fill="#E0E0E0"/>
<path d="M192.025 82.4289L195.056 84.1814V76.8409L192.025 75.0884V82.4289Z" fill="#F0F0F0"/>
<path d="M145.81 125.954L123.425 113.037L92.0894 131.124L114.475 144.052L145.81 125.954Z" fill="#F5F5F5"/>
<path d="M114.476 195.745L145.811 177.658V125.955L114.476 144.052V195.745Z" fill="#EBEBEB"/>
<path d="M119.645 185.461C119.504 185.464 119.366 185.426 119.248 185.351C119.075 185.227 118.937 185.061 118.848 184.867C118.759 184.674 118.722 184.461 118.741 184.249V180.942V180.7H118.906L121.485 179.19V182.86C121.48 183.333 121.362 183.797 121.142 184.215C120.921 184.632 120.605 184.992 120.218 185.263C120.047 185.378 119.85 185.447 119.645 185.461ZM119.16 181.196V184.238C119.139 184.38 119.156 184.524 119.208 184.658C119.26 184.791 119.346 184.908 119.457 184.998C119.547 185.034 119.645 185.047 119.741 185.035C119.837 185.023 119.929 184.988 120.008 184.932C120.338 184.702 120.61 184.398 120.801 184.044C120.993 183.69 121.099 183.296 121.11 182.893V182.629H120.152L119.964 181.339L119.16 181.196ZM120.482 182.21H121.077V179.939L119.534 180.843L120.295 180.975L120.482 182.21Z" fill="white"/>
<path d="M120.118 188.085C120.063 188.085 120.009 188.063 119.97 188.023C119.931 187.984 119.909 187.931 119.909 187.875V185.109C119.909 185.082 119.914 185.055 119.925 185.03C119.935 185.005 119.951 184.983 119.971 184.965C119.99 184.946 120.013 184.932 120.039 184.922C120.064 184.913 120.091 184.909 120.118 184.91C120.171 184.91 120.221 184.931 120.258 184.969C120.296 185.006 120.317 185.056 120.317 185.109V187.875C120.317 187.929 120.296 187.981 120.259 188.02C120.222 188.059 120.172 188.082 120.118 188.085Z" fill="white"/>
<path d="M118.917 188.768C118.881 188.77 118.845 188.762 118.814 188.744C118.783 188.727 118.757 188.701 118.74 188.669C118.725 188.646 118.714 188.62 118.708 188.593C118.703 188.566 118.704 188.538 118.71 188.511C118.716 188.484 118.728 188.459 118.745 188.437C118.761 188.414 118.782 188.396 118.807 188.382L121.209 187.005C121.233 186.991 121.26 186.982 121.287 186.978C121.314 186.975 121.342 186.977 121.369 186.984C121.395 186.991 121.42 187.003 121.442 187.02C121.464 187.037 121.482 187.058 121.496 187.082C121.509 187.105 121.518 187.13 121.522 187.157C121.525 187.183 121.523 187.21 121.516 187.236C121.509 187.262 121.496 187.286 121.48 187.307C121.463 187.328 121.442 187.345 121.419 187.357L119.016 188.746C118.986 188.764 118.951 188.771 118.917 188.768Z" fill="white"/>
<path d="M127.47 184.017C127.39 184.018 127.311 183.999 127.239 183.962C127.158 183.908 127.094 183.834 127.051 183.747C127.009 183.66 126.99 183.563 126.996 183.466V182.893C126.996 182.841 127.017 182.79 127.055 182.753C127.092 182.716 127.142 182.695 127.195 182.695C127.222 182.693 127.249 182.697 127.274 182.707C127.3 182.716 127.323 182.73 127.342 182.749C127.362 182.767 127.378 182.79 127.388 182.815C127.399 182.84 127.404 182.866 127.404 182.893V183.466C127.404 183.544 127.404 183.588 127.404 183.599C127.404 183.61 127.47 183.599 127.537 183.599C127.663 183.478 127.763 183.333 127.829 183.171C127.895 183.01 127.927 182.836 127.922 182.662V178.992C127.915 178.961 127.915 178.929 127.922 178.898C127.929 178.867 127.942 178.838 127.962 178.814C127.982 178.789 128.007 178.769 128.035 178.755C128.063 178.741 128.095 178.734 128.126 178.734C128.158 178.734 128.189 178.741 128.217 178.755C128.246 178.769 128.271 178.789 128.29 178.814C128.31 178.838 128.324 178.867 128.331 178.898C128.337 178.929 128.337 178.961 128.33 178.992V182.662C128.339 182.907 128.291 183.152 128.19 183.375C128.088 183.599 127.936 183.796 127.746 183.951C127.66 183.994 127.566 184.017 127.47 184.017Z" fill="white"/>
<path d="M125.287 180.821V180.458C125.34 179.541 125.606 178.65 126.066 177.856C126.525 177.061 127.164 176.386 127.933 175.884C128.206 175.65 128.546 175.506 128.905 175.473C129.263 175.44 129.623 175.519 129.935 175.699C130.247 175.879 130.495 176.152 130.646 176.479C130.797 176.806 130.842 177.172 130.776 177.526V177.647L125.287 180.821ZM129.167 175.917C128.804 175.933 128.451 176.043 128.142 176.236C127.486 176.669 126.93 177.237 126.512 177.903C126.094 178.568 125.823 179.315 125.717 180.094L130.368 177.405C130.384 177.145 130.333 176.885 130.222 176.65C130.11 176.415 129.94 176.212 129.729 176.06C129.561 175.964 129.372 175.911 129.178 175.906L129.167 175.917Z" fill="white"/>
<path d="M134.888 179.785C134.832 179.785 134.779 179.763 134.74 179.724C134.701 179.685 134.678 179.631 134.678 179.576V172.544C134.678 172.488 134.701 172.435 134.74 172.396C134.779 172.357 134.832 172.334 134.888 172.334C134.943 172.334 134.997 172.357 135.036 172.396C135.075 172.435 135.097 172.488 135.097 172.544V179.576C135.097 179.631 135.075 179.685 135.036 179.724C134.997 179.763 134.943 179.785 134.888 179.785Z" fill="white"/>
<path d="M134.281 174.208H134.204C134.179 174.198 134.156 174.184 134.137 174.165C134.118 174.146 134.103 174.124 134.093 174.099C134.082 174.075 134.077 174.048 134.077 174.021C134.078 173.994 134.083 173.968 134.094 173.943L134.832 172.246L135.648 173.194C135.683 173.235 135.701 173.288 135.696 173.342C135.692 173.396 135.667 173.445 135.626 173.481C135.606 173.498 135.582 173.511 135.557 173.519C135.532 173.528 135.505 173.531 135.478 173.529C135.424 173.525 135.375 173.499 135.339 173.459L134.943 173.007L134.469 174.109C134.45 174.141 134.423 174.168 134.389 174.186C134.356 174.203 134.319 174.211 134.281 174.208Z" fill="white"/>
<path d="M136.795 178.694C136.741 178.694 136.689 178.674 136.65 178.637C136.611 178.6 136.588 178.549 136.585 178.496V171.464C136.585 171.408 136.607 171.355 136.647 171.316C136.686 171.276 136.739 171.254 136.795 171.254C136.823 171.253 136.85 171.257 136.877 171.267C136.903 171.277 136.926 171.292 136.946 171.312C136.966 171.332 136.981 171.356 136.991 171.382C137.001 171.408 137.006 171.436 137.004 171.464V178.496C137.004 178.523 136.999 178.549 136.988 178.574C136.977 178.599 136.962 178.621 136.942 178.64C136.922 178.658 136.899 178.673 136.874 178.682C136.849 178.691 136.822 178.695 136.795 178.694Z" fill="white"/>
<path d="M136.188 173.106C136.163 173.115 136.136 173.115 136.111 173.106C136.086 173.096 136.063 173.082 136.044 173.063C136.025 173.044 136.01 173.022 135.999 172.997C135.989 172.972 135.984 172.946 135.984 172.919C135.984 172.892 135.99 172.866 136.001 172.841L136.739 171.144L137.555 172.092C137.591 172.131 137.612 172.182 137.612 172.235C137.612 172.288 137.591 172.34 137.555 172.378C137.535 172.398 137.512 172.414 137.487 172.424C137.461 172.435 137.434 172.441 137.406 172.441C137.378 172.441 137.351 172.435 137.325 172.424C137.3 172.414 137.277 172.398 137.257 172.378L136.871 171.927L136.398 173.029C136.373 173.06 136.341 173.084 136.304 173.098C136.267 173.111 136.227 173.114 136.188 173.106Z" fill="white"/>
<path d="M114.475 195.745L92.0894 182.827V131.124L114.475 144.052V195.745Z" fill="#E0E0E0"/>
<path d="M102.484 144.471L105.515 146.223V138.883L102.484 137.13V144.471Z" fill="#F5F5F5"/>
<path d="M105.515 138.883L136.861 120.785L133.819 119.033L102.484 137.131L105.515 138.883Z" fill="white"/>
<path d="M105.514 169.899L65.2295 146.643L24.9336 169.899L65.2295 193.166L105.514 169.899Z" fill="#F5F5F5"/>
<path d="M65.23 224.181L105.515 200.925V169.898L65.23 193.166V224.181Z" fill="#EBEBEB"/>
<path d="M70.3985 213.887C70.259 213.884 70.1225 213.846 70.0017 213.777C69.8294 213.652 69.6923 213.485 69.6034 213.292C69.5146 213.099 69.4772 212.886 69.4947 212.675V209.368V209.125H69.66L72.2391 207.604V211.286C72.232 211.756 72.1134 212.218 71.893 212.634C71.6727 213.05 71.3569 213.407 70.9716 213.678C70.802 213.796 70.6045 213.868 70.3985 213.887ZM69.9025 209.621V212.664C69.8829 212.804 69.9 212.946 69.9522 213.078C70.0044 213.209 70.0898 213.325 70.2001 213.413C70.2903 213.454 70.3898 213.471 70.4886 213.461C70.5873 213.452 70.6817 213.416 70.7622 213.358C71.091 213.126 71.3617 212.822 71.553 212.468C71.7442 212.114 71.8508 211.721 71.8644 211.319V211.043H70.8724L70.685 209.754L69.9025 209.621ZM71.2251 210.636H71.8644V208.376L70.3323 209.28L71.0929 209.412L71.2251 210.636Z" fill="white"/>
<path d="M70.8614 216.51C70.8353 216.51 70.8095 216.505 70.7855 216.495C70.7614 216.485 70.7395 216.47 70.7211 216.452C70.7027 216.434 70.688 216.412 70.6781 216.388C70.6681 216.364 70.663 216.338 70.663 216.312V213.545C70.6558 213.515 70.6556 213.483 70.6625 213.452C70.6694 213.421 70.6832 213.392 70.7028 213.367C70.7224 213.343 70.7474 213.323 70.7758 213.309C70.8042 213.295 70.8353 213.288 70.8669 213.288C70.8984 213.288 70.9296 213.295 70.958 213.309C70.9864 213.323 71.0114 213.343 71.031 213.367C71.0506 213.392 71.0643 213.421 71.0712 213.452C71.0781 213.483 71.078 213.515 71.0708 213.545V216.312C71.0708 216.339 71.0654 216.365 71.0547 216.39C71.0441 216.415 71.0284 216.437 71.0088 216.456C70.9892 216.475 70.966 216.489 70.9407 216.498C70.9153 216.508 70.8883 216.512 70.8614 216.51Z" fill="white"/>
<path d="M69.6604 217.193C69.6163 217.19 69.5742 217.174 69.5401 217.146C69.506 217.117 69.4817 217.079 69.4707 217.036C69.4597 216.993 69.4625 216.948 69.4788 216.907C69.495 216.866 69.5239 216.831 69.5612 216.807L71.964 215.43C71.9858 215.414 72.0108 215.403 72.0372 215.398C72.0636 215.393 72.0907 215.393 72.1169 215.4C72.143 215.406 72.1675 215.418 72.1887 215.434C72.2098 215.451 72.2272 215.472 72.2395 215.496C72.2554 215.518 72.2663 215.544 72.2715 215.571C72.2768 215.599 72.2763 215.627 72.27 215.654C72.2638 215.681 72.252 215.706 72.2353 215.728C72.2187 215.75 72.1976 215.769 72.1734 215.782L69.7706 217.193H69.6604Z" fill="white"/>
<path d="M78.2131 212.454C78.1405 212.47 78.0653 212.47 77.9927 212.454C77.9084 212.401 77.8404 212.325 77.7957 212.236C77.7511 212.147 77.7315 212.047 77.7392 211.947V211.385C77.7392 211.33 77.7612 211.276 77.8005 211.237C77.8398 211.198 77.893 211.176 77.9486 211.176C78.0041 211.176 78.0574 211.198 78.0967 211.237C78.1359 211.276 78.158 211.33 78.158 211.385V211.947C78.1428 211.994 78.1428 212.044 78.158 212.09C78.158 212.09 78.2241 212.09 78.3013 212.09C78.4256 211.969 78.5232 211.823 78.5878 211.662C78.6523 211.5 78.6824 211.327 78.676 211.154V207.483C78.6787 207.429 78.7016 207.377 78.7403 207.338C78.779 207.3 78.8308 207.277 78.8854 207.274C78.941 207.274 78.9942 207.296 79.0335 207.335C79.0728 207.375 79.0948 207.428 79.0948 207.483V211.154C79.1039 211.399 79.0559 211.643 78.9545 211.867C78.8531 212.091 78.7012 212.288 78.5107 212.443C78.4137 212.47 78.3118 212.474 78.2131 212.454Z" fill="white"/>
<path d="M76.042 209.247V208.883C76.0899 207.966 76.3546 207.073 76.8144 206.278C77.2742 205.483 77.9161 204.808 78.6872 204.309C78.961 204.075 79.3006 203.931 79.6592 203.898C80.0178 203.865 80.3779 203.944 80.6897 204.125C81.0016 204.305 81.25 204.577 81.4006 204.904C81.5512 205.231 81.5968 205.597 81.5309 205.951V206.072L76.042 209.247ZM79.9217 204.342C79.5551 204.361 79.199 204.47 78.8856 204.662C78.2318 205.096 77.6782 205.664 77.262 206.33C76.8457 206.995 76.5763 207.741 76.4718 208.519L81.112 205.83C81.1298 205.571 81.0815 205.312 80.9716 205.076C80.8617 204.841 80.6939 204.638 80.4838 204.485C80.3126 204.388 80.1185 204.339 79.9217 204.342Z" fill="white"/>
<path d="M85.6419 208.222C85.614 208.223 85.5861 208.219 85.5599 208.209C85.5338 208.199 85.5101 208.184 85.4903 208.164C85.4705 208.144 85.4551 208.12 85.4452 208.094C85.4352 208.068 85.4309 208.04 85.4325 208.012V200.98C85.4253 200.95 85.4252 200.918 85.4321 200.887C85.439 200.856 85.4527 200.827 85.4723 200.802C85.4919 200.778 85.5169 200.758 85.5453 200.744C85.5737 200.73 85.6049 200.723 85.6364 200.723C85.668 200.723 85.6991 200.73 85.7275 200.744C85.756 200.758 85.7809 200.778 85.8005 200.802C85.8201 200.827 85.8339 200.856 85.8408 200.887C85.8477 200.918 85.8475 200.95 85.8403 200.98V208.012C85.8418 208.039 85.8378 208.066 85.8285 208.092C85.8192 208.117 85.8048 208.14 85.7863 208.16C85.7677 208.179 85.7453 208.195 85.7205 208.206C85.6957 208.216 85.6689 208.222 85.6419 208.222Z" fill="white"/>
<path d="M85.0908 202.59H85.0027C84.9772 202.579 84.9543 202.563 84.9353 202.543C84.9163 202.523 84.9017 202.5 84.8923 202.474C84.883 202.448 84.8792 202.42 84.8811 202.393C84.883 202.365 84.8906 202.338 84.9035 202.314L85.6309 200.617L86.4575 201.565C86.4941 201.607 86.5123 201.662 86.5082 201.718C86.504 201.774 86.4779 201.826 86.4355 201.862C86.3931 201.899 86.3379 201.917 86.2821 201.913C86.2263 201.909 86.1744 201.883 86.1379 201.84L85.7521 201.388L85.2782 202.49C85.2586 202.522 85.2309 202.548 85.198 202.565C85.1651 202.583 85.1281 202.591 85.0908 202.59Z" fill="white"/>
<path d="M87.5488 207.13C87.4932 207.13 87.44 207.108 87.4007 207.069C87.3614 207.03 87.3394 206.977 87.3394 206.921V199.889C87.3394 199.834 87.3614 199.78 87.4007 199.741C87.44 199.702 87.4932 199.68 87.5488 199.68C87.6043 199.68 87.6576 199.702 87.6968 199.741C87.7361 199.78 87.7582 199.834 87.7582 199.889V206.921C87.7582 206.977 87.7361 207.03 87.6968 207.069C87.6576 207.108 87.6043 207.13 87.5488 207.13Z" fill="white"/>
<path d="M86.9425 201.498H86.8654C86.8404 201.489 86.8176 201.474 86.7985 201.455C86.7793 201.437 86.7641 201.414 86.7538 201.39C86.7435 201.365 86.7383 201.338 86.7385 201.312C86.7388 201.285 86.7444 201.258 86.7551 201.234L87.4936 199.525L88.3092 200.473C88.3289 200.493 88.3445 200.516 88.3551 200.541C88.3658 200.567 88.3713 200.594 88.3713 200.622C88.3713 200.65 88.3658 200.677 88.3551 200.703C88.3445 200.728 88.3289 200.751 88.3092 200.771C88.2907 200.79 88.2685 200.806 88.2438 200.816C88.2192 200.827 88.1927 200.832 88.1659 200.832C88.1392 200.832 88.1127 200.827 88.088 200.816C88.0634 200.806 88.0412 200.79 88.0227 200.771L87.6259 200.319L87.1519 201.421C87.1288 201.454 87.0964 201.478 87.0591 201.492C87.0218 201.506 86.9811 201.508 86.9425 201.498Z" fill="white"/>
<path d="M65.2295 224.181L24.9336 200.925V169.898L65.2295 193.166V224.181Z" fill="#E0E0E0"/>
<path d="M43.5605 187.996L46.5916 189.749V182.408L43.5605 180.656V187.996Z" fill="#F5F5F5"/>
<path d="M46.5916 182.408L86.8875 159.152L83.8565 157.389L43.5605 180.656L46.5916 182.408Z" fill="white"/>
<path d="M31.3155 189.099L40.9265 194.609C41.4826 194.972 41.9458 195.46 42.2788 196.035C42.6119 196.609 42.8056 197.253 42.8443 197.916V203.857C42.8443 205.069 41.9846 205.565 40.9265 204.959L31.3155 199.448C30.7597 199.086 30.2972 198.598 29.9659 198.023C29.6345 197.449 29.4436 196.804 29.4087 196.141V190.212C29.4087 188.977 30.2684 188.536 31.3155 189.099Z" fill="#F5F5F5"/>
<path d="M30.5771 190.576L30.9409 190.785V197.376L30.5771 197.167V190.576Z" fill="#E0E0E0"/>
<path d="M32.0535 191.435L32.6927 191.81V198.39L32.0535 198.026V191.435Z" fill="#E0E0E0"/>
<path d="M33.542 192.295L33.9167 192.504L33.9057 199.095L33.542 198.886V192.295Z" fill="#E0E0E0"/>
<path d="M34.6658 192.934L35.4042 193.364L35.3932 199.955L34.6658 199.514V192.934Z" fill="#E0E0E0"/>
<path d="M36.5173 194.014L36.8811 194.224V200.815L36.5173 200.594V194.014Z" fill="#E0E0E0"/>
<path d="M37.5867 194.621L38.3692 195.084V201.664L37.5867 201.201V194.621Z" fill="#E0E0E0"/>
<path d="M39.4934 195.734L39.8571 195.943V202.523L39.4934 202.314V195.734Z" fill="#E0E0E0"/>
<path d="M40.342 196.208L40.5294 196.318V202.898L40.342 202.799V196.208Z" fill="#E0E0E0"/>
<path d="M38.8215 195.37L38.9979 195.469V202.06L38.8215 201.961V195.37Z" fill="#E0E0E0"/>
<path d="M35.823 193.618L35.9993 193.717V200.308L35.823 200.198V193.618Z" fill="#E0E0E0"/>
<path d="M34.1812 192.67L34.3685 192.78V199.36L34.1812 199.261V192.67Z" fill="#E0E0E0"/>
<path d="M33.0015 192.02L33.1888 192.13V198.721L33.0015 198.611V192.02Z" fill="#E0E0E0"/>
<path d="M31.4033 191.049L31.5907 191.16V197.74L31.4033 197.64V191.049Z" fill="#E0E0E0"/>
<path d="M40.9812 196.583L41.3449 196.803V203.383L40.9812 203.174V196.583Z" fill="#E0E0E0"/>
<path d="M96.5649 107.867L65.2297 89.7695L33.8835 107.867L65.2297 125.954L96.5649 107.867Z" fill="#F5F5F5"/>
<path d="M65.23 187.996L96.5651 169.898V107.867L65.23 125.954V187.996Z" fill="#EBEBEB"/>
<path d="M70.3985 177.702C70.2599 177.703 70.1234 177.669 70.0017 177.603C69.8294 177.478 69.6923 177.311 69.6034 177.118C69.5146 176.925 69.4772 176.712 69.4947 176.5V173.194V172.951H69.66L72.2391 171.441V175.112C72.2328 175.584 72.1147 176.048 71.8943 176.466C71.674 176.883 71.3578 177.243 70.9716 177.514C70.8003 177.626 70.6026 177.691 70.3985 177.702ZM69.9025 173.436V176.489C69.885 176.629 69.9031 176.771 69.9552 176.902C70.0072 177.033 70.0914 177.149 70.2001 177.239C70.2903 177.28 70.3898 177.297 70.4886 177.287C70.5873 177.277 70.6817 177.242 70.7622 177.184C71.0913 176.95 71.3619 176.643 71.5531 176.288C71.7443 175.932 71.8508 175.537 71.8644 175.134V174.869H70.8724L70.685 173.58L69.9025 173.436ZM71.2251 174.45H71.8644V172.191L70.3323 173.095L71.0929 173.227L71.2251 174.45Z" fill="white"/>
<path d="M70.8618 180.325C70.8348 180.325 70.808 180.32 70.7832 180.309C70.7584 180.298 70.736 180.283 70.7175 180.263C70.6989 180.243 70.6845 180.22 70.6752 180.195C70.6659 180.17 70.6619 180.143 70.6634 180.116V177.36C70.6619 177.333 70.6659 177.306 70.6752 177.281C70.6845 177.255 70.6989 177.232 70.7175 177.213C70.736 177.193 70.7584 177.177 70.7832 177.167C70.808 177.156 70.8348 177.151 70.8618 177.151C70.8897 177.149 70.9176 177.153 70.9438 177.163C70.9699 177.173 70.9936 177.189 71.0134 177.209C71.0332 177.228 71.0486 177.252 71.0585 177.278C71.0685 177.304 71.0728 177.332 71.0712 177.36V180.116C71.0728 180.144 71.0685 180.171 71.0585 180.198C71.0486 180.224 71.0332 180.247 71.0134 180.267C70.9936 180.287 70.9699 180.302 70.9438 180.312C70.9176 180.322 70.8897 180.327 70.8618 180.325Z" fill="white"/>
<path d="M69.6604 181.02C69.6163 181.017 69.5742 181 69.5401 180.972C69.506 180.944 69.4817 180.906 69.4707 180.863C69.4597 180.82 69.4625 180.775 69.4788 180.734C69.495 180.693 69.5239 180.658 69.5612 180.634L71.964 179.245C72.0122 179.218 72.0695 179.21 72.1233 179.224C72.177 179.239 72.2228 179.274 72.2506 179.322C72.2783 179.371 72.2858 179.428 72.2713 179.482C72.2569 179.535 72.2216 179.581 72.1734 179.609L69.7706 180.987C69.7383 181.009 69.6997 181.021 69.6604 181.02Z" fill="white"/>
<path d="M78.2133 176.269C78.1349 176.269 78.0582 176.246 77.9928 176.203C77.9086 176.152 77.8403 176.079 77.7955 175.991C77.7507 175.903 77.7313 175.805 77.7393 175.707V175.145C77.7393 175.089 77.7614 175.036 77.8007 174.997C77.8399 174.958 77.8932 174.935 77.9487 174.935C78.0043 174.935 78.0575 174.958 78.0968 174.997C78.1361 175.036 78.1582 175.089 78.1582 175.145V175.707C78.143 175.754 78.143 175.804 78.1582 175.85C78.205 175.863 78.2546 175.863 78.3014 175.85C78.4272 175.732 78.5259 175.588 78.5906 175.429C78.6553 175.269 78.6845 175.097 78.6762 174.924V171.254C78.6762 171.199 78.6982 171.145 78.7375 171.106C78.7768 171.067 78.8301 171.045 78.8856 171.045C78.9135 171.043 78.9415 171.047 78.9676 171.057C78.9937 171.067 79.0175 171.083 79.0372 171.103C79.057 171.122 79.0724 171.146 79.0823 171.172C79.0923 171.198 79.0966 171.226 79.095 171.254V174.924C79.1041 175.17 79.056 175.414 78.9547 175.638C78.8533 175.862 78.7014 176.059 78.5108 176.214C78.4175 176.256 78.3154 176.275 78.2133 176.269Z" fill="white"/>
<path d="M76.042 173.106V172.753C76.0916 171.835 76.357 170.941 76.8166 170.145C77.2762 169.348 77.9171 168.671 78.6872 168.168C78.9634 167.94 79.3031 167.801 79.6605 167.772C80.0179 167.742 80.3757 167.823 80.6857 168.003C80.9957 168.183 81.243 168.454 81.3941 168.779C81.5452 169.105 81.593 169.468 81.5309 169.822V169.932L76.042 173.106ZM79.9217 168.212C79.5551 168.231 79.199 168.341 78.8856 168.532C78.2331 168.965 77.6803 169.532 77.2641 170.195C76.8479 170.858 76.5778 171.603 76.4718 172.379L81.112 169.7C81.132 169.441 81.0846 169.181 80.9745 168.945C80.8645 168.71 80.6954 168.507 80.4838 168.356C80.3182 168.239 80.1237 168.17 79.9217 168.157V168.212Z" fill="white"/>
<path d="M85.6419 172.004C85.5864 172.004 85.5331 171.982 85.4938 171.943C85.4546 171.903 85.4325 171.85 85.4325 171.794V164.763C85.4253 164.732 85.4252 164.7 85.4321 164.669C85.439 164.638 85.4527 164.609 85.4723 164.585C85.4919 164.56 85.5169 164.54 85.5453 164.526C85.5737 164.512 85.6049 164.505 85.6364 164.505C85.668 164.505 85.6991 164.512 85.7275 164.526C85.756 164.54 85.7809 164.56 85.8005 164.585C85.8201 164.609 85.8339 164.638 85.8408 164.669C85.8477 164.7 85.8475 164.732 85.8403 164.763V171.794C85.8404 171.848 85.8199 171.9 85.7829 171.939C85.746 171.978 85.6955 172.001 85.6419 172.004Z" fill="white"/>
<path d="M85.0908 166.393H85.0027C84.9772 166.383 84.9543 166.367 84.9353 166.347C84.9163 166.327 84.9017 166.303 84.8923 166.277C84.883 166.251 84.8792 166.224 84.8811 166.196C84.883 166.169 84.8906 166.142 84.9035 166.118L85.6309 164.42L86.4575 165.368C86.494 165.407 86.5142 165.458 86.5142 165.512C86.5142 165.565 86.494 165.616 86.4575 165.655C86.4169 165.692 86.3638 165.713 86.3088 165.713C86.2537 165.713 86.2006 165.692 86.16 165.655L85.7742 165.203L85.3003 166.305C85.2786 166.34 85.2469 166.366 85.2094 166.382C85.172 166.398 85.1306 166.402 85.0908 166.393Z" fill="white"/>
<path d="M87.5488 170.901C87.4941 170.899 87.4424 170.876 87.4037 170.837C87.365 170.798 87.342 170.747 87.3394 170.692V163.66C87.3394 163.605 87.3614 163.551 87.4007 163.512C87.44 163.473 87.4932 163.451 87.5488 163.451C87.6043 163.451 87.6576 163.473 87.6968 163.512C87.7361 163.551 87.7582 163.605 87.7582 163.66V170.692C87.7555 170.747 87.7326 170.798 87.6939 170.837C87.6552 170.876 87.6035 170.899 87.5488 170.901Z" fill="white"/>
<path d="M86.9423 165.314H86.8651C86.8397 165.303 86.8168 165.287 86.7975 165.267C86.7782 165.248 86.763 165.224 86.7528 165.199C86.7425 165.173 86.7374 165.146 86.7378 165.118C86.7382 165.091 86.744 165.064 86.7549 165.038L87.4934 163.341L88.309 164.289C88.3286 164.308 88.3442 164.331 88.3549 164.357C88.3656 164.382 88.371 164.41 88.371 164.437C88.371 164.465 88.3656 164.493 88.3549 164.518C88.3442 164.544 88.3286 164.567 88.309 164.586C88.269 164.62 88.2182 164.639 88.1657 164.639C88.1132 164.639 88.0623 164.62 88.0224 164.586L87.6256 164.134L87.1517 165.237C87.1276 165.268 87.0952 165.292 87.0581 165.305C87.0211 165.319 86.9809 165.322 86.9423 165.314Z" fill="white"/>
<path d="M65.2297 187.996L33.8835 169.898V107.867L65.2297 125.954V187.996Z" fill="#E0E0E0"/>
<path d="M48.7522 123.783L51.7942 125.535V118.206L48.7522 116.442V123.783Z" fill="#F5F5F5"/>
<path d="M51.7942 118.206L83.1294 100.108L80.0984 98.3555L48.7522 116.442L51.7942 118.206Z" fill="white"/>
<path d="M40.2652 158.072L49.8763 163.583C50.4327 163.944 50.8956 164.433 51.2271 165.007C51.5585 165.582 51.749 166.227 51.7831 166.89V172.819C51.7831 174.032 50.9344 174.528 49.8763 173.922L40.2652 168.411C39.7074 168.05 39.2428 167.562 38.9095 166.988C38.5761 166.413 38.3835 165.768 38.3474 165.104V159.174C38.3584 157.962 39.2071 157.466 40.2652 158.072Z" fill="#F5F5F5"/>
<path d="M39.5159 159.56L39.8796 159.769V166.361L39.5159 166.14V159.56Z" fill="#E0E0E0"/>
<path d="M41.0034 160.42L41.6317 160.784V167.375L41.0034 167V160.42Z" fill="#E0E0E0"/>
<path d="M42.4912 161.269L42.8549 161.489V168.069L42.4912 167.86V161.269Z" fill="#E0E0E0"/>
<path d="M43.6157 161.908L44.3432 162.349V168.929L43.6157 168.499V161.908Z" fill="#E0E0E0"/>
<path d="M45.4673 162.988L45.831 163.197V169.788L45.4673 169.579V162.988Z" fill="#E0E0E0"/>
<path d="M46.5366 163.594L47.3192 164.057V170.648L46.5366 170.185V163.594Z" fill="#E0E0E0"/>
<path d="M48.4434 164.708L48.8071 164.917V171.508L48.4434 171.288V164.708Z" fill="#E0E0E0"/>
<path d="M49.292 165.192L49.4683 165.292V171.883L49.292 171.772V165.192Z" fill="#E0E0E0"/>
<path d="M47.7595 164.343L47.9469 164.453V171.045L47.7595 170.934V164.343Z" fill="#E0E0E0"/>
<path d="M44.762 162.591L44.9493 162.701V169.281L44.762 169.182V162.591Z" fill="#E0E0E0"/>
<path d="M43.1199 161.654L43.3072 161.753V168.345L43.1199 168.234V161.654Z" fill="#E0E0E0"/>
<path d="M41.9514 161.004L42.1278 161.103V167.694L41.9514 167.584V161.004Z" fill="#E0E0E0"/>
<path d="M40.3533 160.034L40.5296 160.133V166.724L40.3533 166.614V160.034Z" fill="#E0E0E0"/>
<path d="M49.9199 165.567L50.2947 165.776V172.356L49.9199 172.147V165.567Z" fill="#E0E0E0"/>
<path d="M34.1805 278.64L154.473 348.078C155.952 348.828 157.587 349.219 159.246 349.219C160.904 349.219 162.539 348.828 164.018 348.078L427.584 195.976C430.218 194.455 430.218 191.986 427.584 190.465L307.291 121.027C305.814 120.272 304.178 119.878 302.519 119.878C300.859 119.878 299.224 120.272 297.746 121.027L34.1805 273.129C31.5463 274.65 31.5463 277.119 34.1805 278.64Z" fill="#455A64"/>
<path d="M99.198 310.879C101.249 311.914 103.514 312.453 105.811 312.453C108.108 312.453 110.373 311.914 112.424 310.879C116.095 308.763 116.095 305.368 112.424 303.219C110.375 302.179 108.109 301.637 105.811 301.637C103.513 301.637 101.247 302.179 99.198 303.219C95.5277 305.368 95.5277 308.785 99.198 310.879Z" fill="#263238"/>
<path d="M156.732 348.078L36.4397 278.64C34.081 277.273 33.8385 275.157 35.7012 273.636C34.5247 274.567 33.5574 275.735 32.8624 277.064C32.1673 278.394 31.7601 279.854 31.6672 281.352V285.837C31.7577 287.493 32.2369 289.105 33.0661 290.541C33.8952 291.977 35.051 293.198 36.4397 294.104L156.732 363.542C158.203 364.31 159.846 364.689 161.505 364.644V349.224C159.842 349.256 158.199 348.861 156.732 348.078Z" fill="#37474F"/>
<path d="M427.572 211.429C428.964 210.525 430.123 209.305 430.954 207.869C431.786 206.432 432.266 204.82 432.356 203.163V198.677C432.267 197.178 431.86 195.715 431.162 194.384C430.465 193.054 429.493 191.888 428.311 190.961C430.185 192.482 429.942 194.599 427.583 195.954L164.018 348.078C162.546 348.844 160.904 349.223 159.245 349.18V364.688C160.904 364.731 162.546 364.351 164.018 363.586L427.572 211.429Z" fill="#263238"/>
<path d="M174.29 333.694L59.1557 267.188C57.5685 266.273 57.5685 264.785 59.1557 263.882L281.709 135.356C282.597 134.905 283.579 134.669 284.575 134.669C285.571 134.669 286.553 134.905 287.441 135.356L402.619 201.851C404.195 202.765 404.195 204.242 402.619 205.157L179.977 333.694C179.095 334.138 178.121 334.369 177.134 334.369C176.146 334.369 175.172 334.138 174.29 333.694Z" fill="white"/>
<path d="M127.899 296.562L141.335 288.802L136.86 286.223L123.425 293.972L127.899 296.562Z" fill="#B3751B"/>
<path d="M289.083 203.504L302.519 195.745L298.033 193.166L284.608 200.925L289.083 203.504Z" fill="#B3751B"/>
<path d="M315.943 187.996L329.379 180.237L324.904 177.658L311.468 185.406L315.943 187.996Z" fill="#B3751B"/>
<path d="M359.061 160.828C359.583 161.088 360.158 161.224 360.741 161.224C361.325 161.224 361.9 161.088 362.422 160.828C362.625 160.758 362.8 160.628 362.925 160.454C363.049 160.28 363.116 160.071 363.116 159.858C363.116 159.644 363.049 159.435 362.925 159.261C362.8 159.088 362.625 158.957 362.422 158.888C361.902 158.622 361.326 158.483 360.741 158.483C360.157 158.483 359.581 158.622 359.061 158.888C358.858 158.957 358.683 159.088 358.558 159.261C358.434 159.435 358.367 159.644 358.367 159.858C358.367 160.071 358.434 160.28 358.558 160.454C358.683 160.628 358.858 160.758 359.061 160.828Z" fill="#263238"/>
<path d="M364.428 176.049C365.468 176.576 366.618 176.85 367.784 176.85C368.95 176.85 370.1 176.576 371.14 176.049C372.992 174.947 372.992 173.238 371.14 172.169C370.1 171.642 368.95 171.368 367.784 171.368C366.618 171.368 365.468 171.642 364.428 172.169C362.576 173.238 362.576 174.98 364.428 176.049Z" fill="#263238"/>
<path d="M359.689 169.303C360.923 168.587 360.857 167.396 359.546 166.636L337.502 153.884C336.793 153.503 336.003 153.297 335.198 153.282C334.393 153.266 333.596 153.442 332.873 153.796C331.638 154.512 331.704 155.702 333.016 156.463L355.126 169.215C355.827 169.584 356.605 169.784 357.397 169.799C358.189 169.814 358.974 169.645 359.689 169.303Z" fill="#263238"/>
<path d="M322.061 117.589L322.81 117.148C322.292 119.029 322.04 120.973 322.061 122.923V125.613C322.061 135.268 333.645 159.935 337.91 168.664C338.351 169.579 332.498 175.806 332.498 175.806L339.453 171.794C339.453 171.794 356.835 157.466 356.835 145.695V143.005C356.835 131.179 349.053 117.104 339.453 111.56C334.603 108.771 330.228 108.672 327.076 110.788L320.462 114.58L322.061 117.589ZM330.757 126.616C330.757 121.105 334.648 118.823 339.453 121.601C339.056 125.161 345.559 136.249 348.138 136.657C348.138 142.168 344.248 144.449 339.453 141.672C336.929 140.018 334.831 137.794 333.328 135.178C331.824 132.562 330.959 129.629 330.801 126.616H330.757Z" fill="#B3751B"/>
<path d="M314.907 129.923C315.106 141.738 333.049 175.807 333.049 175.807C333.049 175.807 350.199 161.236 350.012 149.42V146.731C349.814 134.915 341.801 120.962 332.101 115.583C322.402 110.204 314.709 115.407 314.907 127.233V129.923ZM323.615 130.782C323.526 125.271 327.384 122.924 332.223 125.613C334.78 127.221 336.922 129.409 338.476 132C340.029 134.591 340.949 137.512 341.161 140.526C341.261 146.037 337.403 148.384 332.553 145.695C329.999 144.084 327.859 141.895 326.306 139.304C324.753 136.714 323.831 133.795 323.615 130.782Z" fill="#B3751B"/>
<path opacity="0.1" d="M314.907 129.923C315.106 141.738 333.049 175.807 333.049 175.807C333.049 175.807 350.199 161.236 350.012 149.42V146.731C349.814 134.915 341.801 120.962 332.101 115.583C322.402 110.204 314.709 115.407 314.907 127.233V129.923ZM323.615 130.782C323.526 125.271 327.384 122.924 332.223 125.613C334.78 127.221 336.922 129.409 338.476 132C340.029 134.591 340.949 137.512 341.161 140.526C341.261 146.037 337.403 148.384 332.553 145.695C329.999 144.084 327.859 141.895 326.306 139.304C324.753 136.714 323.831 133.795 323.615 130.782Z" fill="black"/>
<path d="M146.813 287.502C157.956 293.916 184.078 289.254 205.163 277.075L263.083 243.646C284.167 231.467 292.213 216.411 281.048 210.007C269.883 203.603 243.739 208.288 222.632 220.456L164.823 253.841C143.749 266.009 135.681 281.12 146.813 287.502Z" fill="#F0F0F0"/>
<path d="M315.447 7.24882H315.502L325.036 1.73788H325.113C331.12 -1.30415 339.144 -0.466482 347.785 5.15467C365.156 16.3308 378.415 42.122 377.412 62.7439C376.905 73.0273 373.003 80.0813 366.974 83.1895H366.919L357.374 88.7004H357.308C351.301 91.7534 343.266 90.9048 334.614 85.2946C317.255 74.1075 303.995 48.3273 304.998 27.7054C305.527 17.411 309.484 10.357 315.447 7.24882Z" fill="#37474F"/>
<path d="M357.859 88.4137L366.952 83.1232H367.018C372.992 80.004 376.938 72.95 377.445 62.6777C377.886 53.4854 375.494 43.2681 371.174 33.7783L361.629 39.2893C365.96 48.7791 368.352 58.9963 367.9 68.1996C367.426 78.2295 363.635 85.2063 357.859 88.4137Z" fill="#263238"/>
<path d="M334.658 85.2834C317.299 74.0962 304.04 48.316 305.043 27.6941C306.046 7.07223 320.958 -0.587966 338.285 10.5882C355.611 21.7644 368.914 47.5555 367.911 68.1774C366.908 88.7994 352.018 96.4596 334.658 85.2834Z" fill="#455A64"/>
<path d="M349.207 83.8288C359.446 84.3248 361.111 72.807 361.331 67.8471C362.213 49.6611 350.023 25.964 334.713 16.0995C331.451 13.8145 327.655 12.4099 323.691 12.0214C313.463 11.5254 311.799 23.0432 311.567 28.0031C310.686 46.1892 322.865 69.8862 338.185 79.8059C341.447 82.0908 345.243 83.4955 349.207 83.8839V83.8288Z" fill="#FAFAFA"/>
<path d="M334.471 51.3476C334.591 51.348 334.711 51.3255 334.823 51.2815C335.053 51.2068 335.253 51.0583 335.39 50.8591C335.528 50.6599 335.596 50.421 335.584 50.1793V23.9142C335.584 23.6219 335.468 23.3415 335.261 23.1348C335.054 22.9281 334.774 22.812 334.482 22.812C334.189 22.812 333.909 22.9281 333.702 23.1348C333.496 23.3415 333.379 23.6219 333.379 23.9142V46.983L321.112 31.2217C320.931 30.9878 320.664 30.8356 320.371 30.7984C320.077 30.7612 319.781 30.8421 319.547 31.0233C319.313 31.2045 319.161 31.4712 319.124 31.7648C319.086 32.0583 319.167 32.3546 319.349 32.5884L333.622 50.9178C333.722 51.0482 333.851 51.1546 333.997 51.229C334.144 51.3034 334.306 51.3439 334.471 51.3476Z" fill="#37474F"/>
<path d="M340.797 70.779C340.848 70.7891 340.901 70.7891 340.952 70.779C341.069 70.7432 341.167 70.6635 341.227 70.5567C341.286 70.4499 341.302 70.3242 341.271 70.2059L335.088 49.3856C335.053 49.2672 334.972 49.1676 334.864 49.1087C334.755 49.0497 334.628 49.0363 334.509 49.0714C334.391 49.1065 334.291 49.1872 334.232 49.2957C334.174 49.4042 334.16 49.5317 334.195 49.6501L340.367 70.4704C340.399 70.5596 340.457 70.637 340.534 70.6922C340.611 70.7473 340.703 70.7776 340.797 70.779Z" fill="#B3751B"/>
<path d="M334.823 44.9656C332.773 43.654 331.021 44.5577 330.91 46.9826C330.917 48.3051 331.236 49.6075 331.841 50.7835C332.446 51.9594 333.321 52.9759 334.393 53.75C336.432 55.0726 338.185 54.1688 338.306 51.744C338.297 50.4204 337.977 49.1174 337.372 47.9401C336.767 46.7627 335.894 45.7439 334.823 44.9656Z" fill="#B3751B"/>
<path d="M154.771 281.054L168.195 273.294L163.72 270.715L150.296 278.464L154.771 281.054Z" fill="#B3751B"/>
<path d="M181.631 265.546L195.067 257.787L190.581 255.208L177.156 262.956L181.631 265.546Z" fill="#B3751B"/>
<path d="M176.109 262.383C176.109 268.864 171.568 276.712 165.958 280.018C162.971 281.749 160.282 281.804 158.43 280.503C157.684 279.917 157.07 279.178 156.631 278.336C156.192 277.494 155.938 276.568 155.884 275.62C156.261 275.444 156.629 275.249 156.986 275.036C162.596 271.807 167.137 263.926 167.137 257.401C167.143 256.919 167.113 256.436 167.049 255.957C167.89 255.513 168.814 255.248 169.763 255.179C170.712 255.111 171.664 255.241 172.56 255.561C174.764 256.487 176.109 258.878 176.109 262.383Z" fill="#263238"/>
<path d="M177.024 249.069L176.837 248.958C174.015 247.459 170.223 247.735 165.958 250.182C157.306 255.175 150.285 267.321 150.285 277.318C150.285 282.344 152.059 285.86 154.925 287.491C157.791 289.122 161.659 288.846 165.947 286.389C174.599 281.396 181.609 269.239 181.609 259.242C181.62 254.216 179.879 250.7 177.024 249.069ZM166.002 279.996C163.004 281.726 160.315 281.781 158.463 280.47C156.832 279.368 155.84 277.163 155.84 274.132C155.84 267.662 160.392 259.804 166.002 256.497C168.559 255.02 170.885 254.767 172.615 255.527C174.753 256.442 176.098 258.834 176.098 262.361C176.109 268.886 171.568 276.766 165.958 280.018L166.002 279.996Z" fill="#37474F"/>
<path d="M173.133 255.825L173.012 255.759C171.182 254.778 168.702 254.965 165.958 256.541C160.348 259.782 155.796 267.662 155.796 274.176C155.796 277.483 156.898 279.687 158.805 280.789C160.711 281.891 163.213 281.671 165.958 280.062C171.568 276.821 176.109 268.941 176.109 262.427C176.109 259.164 174.974 256.872 173.133 255.825ZM165.958 277.703C163.555 279.092 161.395 279.136 159.896 278.078C158.595 277.163 157.791 275.411 157.791 272.986C157.945 270.153 158.765 267.396 160.184 264.939C161.603 262.482 163.581 260.394 165.958 258.845C166.73 258.306 167.617 257.954 168.549 257.818C169.481 257.682 170.432 257.766 171.325 258.062C173.045 258.801 174.125 260.718 174.125 263.573C173.972 266.405 173.152 269.16 171.733 271.616C170.314 274.071 168.335 276.157 165.958 277.703Z" fill="#B3751B"/>
<path d="M208.491 250.027L221.927 242.279L217.452 239.689L204.016 247.448L208.491 250.027Z" fill="#B3751B"/>
<path d="M235.362 234.52L248.787 226.771L244.312 224.181L230.876 231.941L235.362 234.52Z" fill="#B3751B"/>
<path d="M262.223 219.012L275.648 211.263L271.173 208.673L257.737 216.433L262.223 219.012Z" fill="#B3751B"/>
<path d="M195.375 146.896C195.516 146.708 195.712 146.57 195.936 146.502C196.16 146.434 196.4 146.439 196.622 146.516C196.843 146.593 197.033 146.739 197.166 146.932C197.299 147.125 197.366 147.356 197.359 147.59C197.445 148.217 197.381 148.856 197.172 149.454C196.964 150.052 196.616 150.592 196.158 151.029C195.276 151.789 194.383 151.481 194.174 150.334C194.088 149.707 194.153 149.069 194.362 148.471C194.57 147.873 194.918 147.333 195.375 146.896Z" fill="#B3751B"/>
<path d="M205.714 151.767L196.731 146.576L194.758 151.327L203.774 156.529L205.714 151.767Z" fill="#B3751B"/>
<path d="M204.336 152.065C205.218 151.315 206.1 151.624 206.32 152.77C206.401 153.397 206.334 154.033 206.123 154.629C205.912 155.224 205.565 155.762 205.108 156.198C204.226 156.959 203.333 156.65 203.124 155.504C203.043 154.876 203.111 154.237 203.322 153.64C203.532 153.043 203.88 152.504 204.336 152.065Z" fill="#B3751B"/>
<path d="M273.377 195.535C273.377 195.756 273.377 195.954 273.377 196.175C273.377 196.616 273.377 197.067 273.377 197.519C271.591 196.759 269.266 197.012 266.709 198.489C261.099 201.73 256.547 209.61 256.547 216.124C256.547 219.144 257.539 221.327 259.17 222.462C258.712 222.787 258.237 223.089 257.748 223.366L257.23 223.63L255.676 229.483L246.682 224.468C243.838 222.826 242.086 219.321 242.086 214.317C242.086 204.32 249.096 192.174 257.748 187.17C262.024 184.701 265.893 184.447 268.77 186.068L277.587 191.005L277.775 191.116L273.377 195.535Z" fill="#455A64"/>
<path d="M277.764 191.016L277.576 190.906C274.755 189.407 270.963 189.683 266.698 192.13C258.046 197.122 251.025 209.269 251.025 219.265C251.025 224.291 252.799 227.807 255.665 229.439C258.531 231.07 262.399 230.794 266.687 228.336C275.339 223.343 282.349 211.186 282.349 201.189C282.382 196.164 280.607 192.648 277.764 191.016ZM266.742 221.944C263.744 223.674 261.055 223.729 259.203 222.418C257.572 221.315 256.58 219.111 256.58 216.08C256.58 209.61 261.132 201.752 266.742 198.445C269.299 196.968 271.625 196.715 273.41 197.475C275.548 198.39 276.893 200.782 276.893 204.309C276.871 210.834 272.308 218.714 266.698 221.944H266.742Z" fill="#37474F"/>
<path d="M276.871 204.353C276.871 210.834 272.33 218.681 266.72 221.988C263.733 223.718 261.043 223.773 259.192 222.473C258.445 221.886 257.832 221.147 257.393 220.306C256.954 219.464 256.699 218.538 256.646 217.59C257.023 217.414 257.391 217.219 257.748 217.006C263.358 213.777 267.899 205.896 267.899 199.371C267.904 198.888 267.875 198.406 267.811 197.927C268.652 197.482 269.576 197.217 270.525 197.149C271.473 197.081 272.426 197.211 273.322 197.53C275.504 198.456 276.871 200.826 276.871 204.353Z" fill="#263238"/>
<path d="M273.873 197.773L273.752 197.695C271.922 196.726 269.431 196.902 266.698 198.489C261.087 201.729 256.535 209.599 256.535 216.124C256.535 219.431 257.638 221.635 259.544 222.737C261.451 223.839 263.953 223.608 266.698 221.999C272.308 218.769 276.849 210.889 276.849 204.364C276.871 201.112 275.769 198.831 273.873 197.773ZM266.698 219.64C264.284 221.04 262.123 221.084 260.636 220.026C259.324 219.111 258.53 217.358 258.53 214.934C258.685 212.101 259.505 209.344 260.924 206.887C262.343 204.43 264.321 202.342 266.698 200.793C268.748 199.602 270.621 199.393 272.054 200.01C273.774 200.749 274.854 202.666 274.854 205.521C274.701 208.35 273.882 211.103 272.465 213.556C271.048 216.01 269.072 218.094 266.698 219.64Z" fill="#B3751B"/>
<path d="M257.737 207.648L283.087 193.011C286.03 191.303 276.474 181.328 269.365 180.656C265.451 180.183 261.481 180.559 257.726 181.758C257.726 181.758 263.138 188.691 262.212 192.625C261.286 196.56 257.737 207.648 257.737 207.648Z" fill="#B3751B"/>
<path d="M221.927 166.283C221.927 166.283 258.674 184.822 260.261 185.935C261.848 187.048 260.261 199.977 257.737 207.648C255.213 215.319 251.333 227.113 249.779 230.419C248.225 233.726 246.197 234.96 242.472 237.11L216.019 252.397L180.209 256.762L165.991 249.046L169.694 225.779C169.694 225.779 207.753 205.532 212.966 202.523C218.18 199.514 233.599 185.395 221.927 166.283Z" fill="#B3751B"/>
<path opacity="0.2" d="M221.927 166.283C221.927 166.283 258.674 184.822 260.261 185.935C261.848 187.048 260.261 199.977 257.737 207.648C255.213 215.319 251.333 227.113 249.779 230.419C248.225 233.726 246.197 234.96 242.472 237.11L216.019 252.397L180.209 256.762L165.991 249.046L169.694 225.779C169.694 225.779 207.753 205.532 212.966 202.523C218.18 199.514 233.599 185.395 221.927 166.283Z" fill="black"/>
<path d="M260.966 203.229C264.273 194.345 266.742 186.982 266.323 182.012C265.816 176.115 263.612 171.298 253.89 168.873C244.169 166.449 230.579 166.493 230.579 166.493L226.446 168.884C226.446 168.884 254.397 185.087 257.572 186.85C259.511 187.952 261.583 192.813 257.781 207.659L258.431 208.034C258.751 208.233 259.908 206.083 260.966 203.229Z" fill="#B3751B"/>
<path opacity="0.3" d="M260.966 203.229C264.273 194.345 266.742 186.982 266.323 182.012C265.816 176.115 263.612 171.298 253.89 168.873C244.169 166.449 230.579 166.493 230.579 166.493L226.446 168.884C226.446 168.884 254.397 185.087 257.572 186.85C259.511 187.952 261.583 192.813 257.781 207.659L258.431 208.034C258.751 208.233 259.908 206.083 260.966 203.229Z" fill="white"/>
<path d="M239.793 176.622L244.312 174.043C244.312 174.043 244.048 158.381 237.456 154.578C230.865 150.776 208.491 153.366 208.491 153.366L204.016 155.945L239.793 176.622Z" fill="#B3751B"/>
<path d="M225.134 158.16C222.985 159.405 222.985 161.411 225.134 162.646C226.34 163.259 227.673 163.579 229.025 163.579C230.377 163.579 231.711 163.259 232.916 162.646C235.054 161.411 235.054 159.394 232.916 158.16C231.709 157.551 230.377 157.234 229.025 157.234C227.674 157.234 226.341 157.551 225.134 158.16Z" fill="#F0F0F0"/>
<path d="M232.012 165.644C230.502 166.526 230.502 167.948 232.012 168.818C232.865 169.255 233.81 169.482 234.768 169.482C235.726 169.482 236.67 169.255 237.523 168.818C239.044 167.948 239.044 166.526 237.523 165.644C236.669 165.213 235.725 164.988 234.768 164.988C233.81 164.988 232.867 165.213 232.012 165.644Z" fill="#F0F0F0"/>
<path d="M214.697 156.165C213.176 157.036 213.176 158.458 214.697 159.34C215.551 159.771 216.495 159.995 217.452 159.995C218.409 159.995 219.353 159.771 220.208 159.34C221.729 158.458 221.729 157.036 220.208 156.165C219.355 155.729 218.41 155.501 217.452 155.501C216.494 155.501 215.55 155.729 214.697 156.165Z" fill="#F0F0F0"/>
<path d="M240.498 172.081C241.38 171.32 242.262 171.629 242.482 172.775C242.564 173.403 242.496 174.042 242.286 174.639C242.075 175.236 241.727 175.776 241.27 176.214C241.129 176.402 240.933 176.54 240.709 176.608C240.485 176.676 240.245 176.671 240.024 176.594C239.802 176.516 239.612 176.371 239.479 176.177C239.346 175.984 239.279 175.754 239.286 175.52C239.201 174.891 239.267 174.252 239.478 173.654C239.688 173.056 240.038 172.517 240.498 172.081Z" fill="#B3751B"/>
<path d="M250.782 176.953L241.788 171.761L239.826 176.512L248.831 181.703L250.782 176.953Z" fill="#B3751B"/>
<path d="M249.393 177.25C249.534 177.062 249.73 176.924 249.954 176.856C250.178 176.788 250.418 176.793 250.64 176.87C250.861 176.947 251.051 177.093 251.184 177.286C251.317 177.48 251.384 177.71 251.377 177.944C251.461 178.572 251.395 179.211 251.184 179.809C250.973 180.407 250.624 180.946 250.165 181.383C249.283 182.143 248.401 181.824 248.181 180.689C248.099 180.06 248.166 179.422 248.376 178.824C248.587 178.227 248.935 177.687 249.393 177.25Z" fill="#B3751B"/>
<path d="M249.393 177.25C249.534 177.062 249.73 176.924 249.954 176.856C250.178 176.788 250.418 176.793 250.64 176.87C250.861 176.947 251.051 177.093 251.184 177.286C251.317 177.48 251.384 177.71 251.377 177.944C251.461 178.572 251.395 179.211 251.184 179.809C250.973 180.407 250.624 180.946 250.165 181.383C249.283 182.143 248.401 181.824 248.181 180.689C248.099 180.06 248.166 179.422 248.376 178.824C248.587 178.227 248.935 177.687 249.393 177.25Z" fill="black"/>
<path d="M172.637 253.565C172.637 253.786 172.637 253.984 172.637 254.204C172.637 254.645 172.637 255.097 172.637 255.549C170.851 254.789 168.526 255.042 166.024 256.519C160.414 259.759 155.862 267.64 155.862 274.154C155.862 277.174 156.854 279.356 158.485 280.492C158.027 280.817 157.552 281.119 157.063 281.395L156.545 281.66L154.991 287.513L145.997 282.498C143.153 280.855 141.401 277.35 141.401 272.346C141.401 262.35 148.411 250.204 157.063 245.2C161.339 242.731 165.208 242.477 168.085 244.097L176.902 249.035L177.09 249.145L172.637 253.565Z" fill="#455A64"/>
<path d="M145.81 236.074L139.098 259.341L152.534 267.1L159.488 243.976L145.81 236.074Z" fill="#B3751B"/>
<path opacity="0.2" d="M145.81 236.074L139.098 259.341L152.534 267.1L159.488 243.976L145.81 236.074Z" fill="black"/>
<path d="M145.81 236.074C145.81 236.074 153.426 242.544 159.488 243.976C167.446 245.905 180.099 246.115 184.585 246.423C191.44 246.897 196.621 246.886 199.045 246.015C202.187 244.913 210.629 240.009 212.966 238.664C217.441 236.085 219.348 225.934 207.014 223.156C198.675 221.428 190.18 220.56 181.664 220.566L145.81 236.074Z" fill="#B3751B"/>
<path d="M221.762 233.098C221.378 234.056 221.119 235.06 220.99 236.085C220.635 237.149 220.552 238.286 220.748 239.391C221.588 240.781 222.91 241.812 224.462 242.29C225.58 242.539 226.737 242.554 227.862 242.336C228.986 242.118 230.054 241.671 230.998 241.022C233.279 239.656 234.999 238.002 238.239 237.077C240.555 236.586 242.737 235.597 244.632 234.178C246.428 232.734 248.831 228.744 245.392 227.818C241.954 226.892 234.481 230.155 227.669 230.452L221.762 233.098Z" fill="#37474F"/>
<path d="M221.762 228.843V233.935C221.97 234.508 222.333 235.011 222.809 235.39C223.286 235.769 223.858 236.01 224.462 236.085C225.016 236.166 225.581 236.105 226.104 235.908C226.93 235.593 227.645 235.043 228.162 234.326C228.679 233.61 228.975 232.757 229.014 231.874L229.212 228.843H221.762Z" fill="#FFA8A7"/>
<path d="M231.461 197.354C231.461 203.692 229.675 231.092 229.675 231.092C229.675 231.092 227.085 234.398 221.453 231.092L219.557 200.473L231.461 197.354Z" fill="#37474F"/>
<path d="M201.922 224.358L219.557 214.195C220.28 213.816 220.885 213.247 221.307 212.548C221.729 211.85 221.953 211.049 221.953 210.233C221.953 209.417 221.729 208.616 221.307 207.918C220.885 207.22 220.28 206.65 219.557 206.271L206.419 198.688C205.68 198.313 204.862 198.118 204.033 198.118C203.204 198.118 202.386 198.313 201.647 198.688L184.012 208.85C183.292 209.232 182.69 209.802 182.27 210.5C181.851 211.198 181.629 211.998 181.629 212.812C181.629 213.627 181.851 214.426 182.27 215.124C182.69 215.822 183.292 216.393 184.012 216.775L197.15 224.358C197.889 224.732 198.707 224.928 199.536 224.928C200.365 224.928 201.183 224.732 201.922 224.358Z" fill="#B3751B"/>
<path d="M201.922 224.358L219.557 214.195C220.28 213.816 220.885 213.247 221.307 212.548C221.729 211.85 221.953 211.049 221.953 210.233C221.953 209.417 221.729 208.616 221.307 207.918C220.885 207.22 220.28 206.65 219.557 206.271L206.419 198.688C205.68 198.313 204.862 198.118 204.033 198.118C203.204 198.118 202.386 198.313 201.647 198.688L184.012 208.85C183.292 209.232 182.69 209.802 182.27 210.5C181.851 211.198 181.629 211.998 181.629 212.812C181.629 213.627 181.851 214.426 182.27 215.124C182.69 215.822 183.292 216.393 184.012 216.775L197.15 224.358C197.889 224.732 198.707 224.928 199.536 224.928C200.365 224.928 201.183 224.732 201.922 224.358Z" fill="white"/>
<path d="M184.012 211.605L197.15 219.188C197.889 219.563 198.707 219.758 199.536 219.758C200.365 219.758 201.182 219.563 201.922 219.188L219.557 209.026C219.845 208.929 220.095 208.743 220.272 208.496C220.449 208.249 220.544 207.953 220.544 207.648C220.544 207.344 220.449 207.048 220.272 206.801C220.095 206.554 219.845 206.368 219.557 206.271L206.419 198.688C205.679 198.313 204.862 198.118 204.033 198.118C203.204 198.118 202.386 198.313 201.647 198.688L184.012 208.85C183.724 208.948 183.474 209.133 183.297 209.38C183.119 209.627 183.024 209.924 183.024 210.228C183.024 210.532 183.119 210.828 183.297 211.075C183.474 211.322 183.724 211.508 184.012 211.605Z" fill="#B3751B"/>
<path d="M194.758 144.151L192.52 153.377L182.909 153.961L184.982 141.175L194.758 144.151Z" fill="#FFA8A7"/>
<path d="M204.127 137.208C204.127 137.208 205.229 141.109 204.777 141.33C204.083 141.436 203.377 141.436 202.683 141.33L204.127 137.208Z" fill="#F28F8F"/>
<path d="M202.286 124.753C203.829 126.571 205.24 129.558 204.148 136.877C202.958 144.879 201.481 145.805 200.291 146.576C198.737 147.59 192.52 147.05 190.768 145.771C188.663 144.239 185.411 139.379 184.64 134.584C183.736 128.952 185.621 122.703 189.765 121.634C195.595 120.124 200.974 123.21 202.286 124.753Z" fill="#FFA8A7"/>
<path d="M184.011 143.766C185.499 145.309 188.552 145.727 190.47 146.08C192.388 146.433 198.285 146.819 200.026 142.619C201.768 138.42 200.577 135.4 202.716 134.386C204.854 133.372 206.992 132.711 207.554 132.182C208.116 131.653 208.127 124.742 202.385 121.16C196.643 117.578 187.847 116.751 182.061 124.014C177.674 129.625 179.47 139.026 184.011 143.766Z" fill="#455A64"/>
<path d="M189.798 146.136C191.286 146.268 195.992 145.529 197.414 143.589C198.836 141.65 199.409 138.178 199.619 136.359C199.638 135.643 199.9 134.955 200.363 134.408C200.826 133.861 201.461 133.488 202.165 133.35C203.586 132.898 206.728 131.355 206.728 131.355V130.496C207.741 130.432 208.757 130.432 209.77 130.496C210.431 130.617 210.067 131.598 208.392 132.446C206.717 133.295 202.121 134.937 201.415 135.499C200.71 136.062 200.379 138.431 199.817 140.955C199.255 143.479 197.513 147.249 189.798 146.136Z" fill="#37474F"/>
<path d="M203.024 156.573L208.535 153.41C209.064 151.812 208.216 151.007 206.717 151.106C205.218 151.206 205.681 149.751 204.766 149.343C203.564 148.792 202.881 149.1 202.341 148.847C201.801 148.593 201.569 147.954 200.864 147.877C197.712 147.579 195.562 152.076 195.562 152.076L203.024 156.573Z" fill="#F28F8F"/>
<path d="M165.616 197.045C165.616 197.045 189.964 184.977 194.207 183.026C198.45 181.075 205.108 178.242 208.646 178.242C210.028 178.356 211.323 178.965 212.293 179.958C213.263 180.95 213.842 182.258 213.925 183.643C213.971 185.769 213.849 187.895 213.561 190.003C206.872 192.197 200.036 193.917 193.105 195.15C182.976 196.913 165.616 197.045 165.616 197.045Z" fill="#37474F"/>
<path d="M168.261 190.069C168.261 195.072 167.787 200.275 169.87 203.934C171.954 207.593 183.24 216.058 193.865 214.284C200.809 213.115 221.42 203.625 221.42 203.625C221.42 203.625 231.416 199.955 231.461 197.343C231.527 193.496 231.262 188.074 222.544 188.305C214.597 188.514 191.154 193.408 191.154 193.408L168.261 190.069Z" fill="#455A64"/>
<path d="M175.062 150.423C178.831 146.488 181.378 146.157 183.185 146.642C187.339 147.831 191.361 149.441 195.188 151.448C195.188 151.448 193.733 165.534 200.622 169.59V191.545C200.622 191.545 200.412 193.926 197.414 196.296C194.769 198.379 188.784 200.484 181.642 199.889C173.155 199.183 168.261 190.068 168.261 190.068C168.261 190.068 168.041 172.114 169.242 164.983C170.653 156.661 173.761 151.789 175.062 150.423Z" fill="#455A64"/>
<path d="M200.622 170.659C200.622 170.659 196.455 167.352 195.188 163.054C195.188 163.054 195.684 169.799 200.622 173.216V170.659Z" fill="#37474F"/>
<path d="M239.187 181.02C241.166 181.101 243.112 180.498 244.698 179.311C244.698 179.311 246.616 175.586 248.975 175.905C248.975 175.905 249.393 174.318 248.423 173.8C247.454 173.282 247.035 173.425 246.638 172.874C246.241 172.323 246.197 171.298 244.434 171.298C243.706 171.298 243.805 170.78 242.042 170.571C240.278 170.361 238.537 174.428 237.247 174.428L239.187 181.02Z" fill="#FFA8A7"/>
<path d="M195.188 151.448C201.239 152.385 203.432 154.181 205.636 156.22C207.841 158.259 221.332 171.794 221.332 171.794L237.666 174.142C238.524 174.837 239.154 175.774 239.474 176.831C240.135 178.749 239.54 180.843 238.911 181.339C238.911 181.339 222.709 182.309 219.524 181.703C216.339 181.097 200.566 170.626 200.566 170.626C199.059 169.489 197.795 168.061 196.848 166.428C195.901 164.794 195.292 162.987 195.055 161.114C194.03 154.468 195.188 151.448 195.188 151.448Z" fill="#455A64"/>
<path d="M180.661 209.665L155.63 240.218C155.352 240.253 155.073 240.271 154.793 240.273C153.8 240.288 152.819 240.057 151.938 239.6L130.798 227.388L129.365 226.562C128.583 226.11 127.932 224.258 127.932 222.428V217.281C127.932 211.994 129.322 206.799 131.965 202.22C134.608 197.64 138.41 193.837 142.988 191.192L168.228 176.622L195.089 192.129L180.661 209.665Z" fill="#B3751B"/>
<g opacity="0.1">
<path opacity="0.1" d="M180.661 209.665L155.63 240.218C155.352 240.253 155.073 240.271 154.793 240.273C153.8 240.288 152.819 240.057 151.938 239.6L130.798 227.388L129.365 226.562C128.583 226.11 127.932 224.258 127.932 222.428V217.281C127.932 211.994 129.322 206.799 131.965 202.22C134.608 197.64 138.41 193.837 142.988 191.192L168.228 176.622L195.089 192.129L180.661 209.665Z" fill="black"/>
</g>
<path d="M172.031 220.202L195.055 192.141L168.195 176.633L142.966 191.193C139.703 193.082 136.824 195.568 134.479 198.522L172.031 220.202Z" fill="#B3751B"/>
<path d="M195.056 214.669C195.056 216.499 194.416 218.35 193.623 218.802L192.19 219.629L157.625 239.59C156.997 239.928 156.308 240.142 155.597 240.218C155.32 240.253 155.04 240.271 154.76 240.273V232.789C154.759 227.5 156.151 222.305 158.796 217.725C161.441 213.145 165.245 209.343 169.827 206.7L172.681 205.058L195.056 192.129V214.669Z" fill="#B3751B"/>
<g opacity="0.2">
<path opacity="0.2" d="M195.056 214.669C195.056 216.499 194.416 218.35 193.623 218.802L192.19 219.629L157.625 239.59C156.997 239.928 156.308 240.142 155.597 240.218C155.32 240.253 155.04 240.271 154.76 240.273V232.789C154.759 227.5 156.151 222.305 158.796 217.725C161.441 213.145 165.245 209.343 169.827 206.7L172.681 205.058L195.056 192.129V214.669Z" fill="black"/>
</g>
<path d="M202.473 252.474L215.997 252.43L235.352 241.254L216.394 254.954L202.121 255.152L202.473 252.474Z" fill="#E0E0E0"/>
<path d="M169.639 271.718C169.639 271.718 194.019 262.526 196.092 261.446C198.524 259.956 200.831 258.271 202.991 256.409C203.432 255.826 203.639 255.099 203.572 254.371C203.505 253.643 203.168 252.967 202.628 252.474C202.628 252.474 192.708 252.022 190.162 252.805C188.74 253.235 165.792 260.597 165.792 260.597L169.639 271.718Z" fill="#E0E0E0"/>
<path d="M168.548 261.446C166.531 259.715 164.503 260.432 164.007 263.033C163.817 264.468 163.969 265.928 164.45 267.293C164.931 268.659 165.727 269.892 166.773 270.892C168.79 272.622 170.818 271.917 171.314 269.304C171.503 267.869 171.351 266.41 170.87 265.045C170.389 263.679 169.594 262.446 168.548 261.446Z" fill="#455A64"/>
</svg>
