<svg width="362" height="443" viewBox="0 0 362 443" fill="none" xmlns="http://www.w3.org/2000/svg">
<path d="M52.156 415.749C121.697 452.083 234.46 452.083 304.001 415.749C373.542 379.415 373.542 320.521 304.001 284.187C234.46 247.853 121.697 247.865 52.156 284.187C-17.3853 320.508 -17.3853 379.363 52.156 415.749Z" fill="#F5F5F5"/>
<path d="M353.761 285.515C343.413 280.828 326.632 280.828 316.284 285.515C305.935 290.202 305.935 297.799 316.284 302.486C326.632 307.172 343.413 307.171 353.761 302.486C364.11 297.8 364.11 290.209 353.761 285.515Z" fill="#F5F5F5"/>
<path d="M98.8009 267.997C98.4778 267.558 98.6587 238.136 88.6837 229.389C78.7086 220.641 69.9093 227.58 75.6851 238.059C79.5614 244.971 90.2729 257.208 90.2859 268.927L98.8009 267.997Z" fill="#FFD226"/>
<path opacity="0.6" d="M98.8009 267.997C98.4778 267.558 98.6587 238.136 88.6837 229.389C78.7086 220.641 69.9093 227.58 75.6851 238.059C79.5614 244.971 90.2729 257.208 90.2859 268.927L98.8009 267.997Z" fill="white"/>
<path d="M95.2993 268.682C95.1673 268.682 95.0398 268.634 94.9418 268.545C94.8438 268.457 94.7824 268.335 94.7695 268.204C91.7718 239.997 80.4788 229.893 80.3625 229.789C80.2563 229.697 80.1911 229.566 80.1814 229.425C80.1717 229.285 80.2183 229.146 80.3108 229.04C80.4033 228.934 80.5343 228.868 80.6748 228.859C80.8154 228.849 80.954 228.896 81.0602 228.988C81.5383 229.402 92.7926 239.415 95.829 268.087C95.8436 268.229 95.8015 268.371 95.712 268.483C95.6225 268.594 95.4928 268.665 95.3509 268.682H95.2993Z" fill="white"/>
<path d="M96.8755 299.137C93.2188 282.533 87.9987 272.894 67.3379 262.26C48.3051 252.453 31.9341 242.09 50.9669 238.33C66.7694 235.203 97.1856 260.296 98.271 282.262L96.8755 299.137Z" fill="#FFD226"/>
<path d="M94.8469 278.269C94.7386 278.271 94.6323 278.24 94.5422 278.18C94.4521 278.12 94.3825 278.034 94.3429 277.933C88.1021 261.291 68.1648 245.191 50.8893 242.775C50.7497 242.753 50.6243 242.677 50.5398 242.563C50.4553 242.45 50.4185 242.308 50.4371 242.168C50.4466 242.098 50.4699 242.03 50.5057 241.97C50.5415 241.909 50.5891 241.856 50.6457 241.814C50.7022 241.772 50.7666 241.741 50.8351 241.724C50.9036 241.708 50.9747 241.704 51.0444 241.715C68.6946 244.183 88.9807 260.593 95.3508 277.559C95.3968 277.692 95.3888 277.839 95.3284 277.967C95.2681 278.095 95.1602 278.194 95.0278 278.243L94.8469 278.269Z" fill="white"/>
<path d="M248.97 324.319C248.427 325.043 248.336 326.71 247.781 328.971C247.219 330.634 247.09 332.413 247.406 334.139C248.705 336.307 250.764 337.915 253.182 338.649C256.154 339.579 259.81 338.804 263.351 336.685C266.891 334.566 269.566 331.995 274.618 330.56C279.67 329.126 282.177 327.976 284.567 326.038C287.371 323.79 291.105 317.588 285.756 316.153C280.407 314.719 268.765 319.784 258.182 320.249L248.97 324.319Z" fill="#263238"/>
<path d="M248.97 317.704V325.638C249.29 326.532 249.854 327.318 250.599 327.907C251.344 328.496 252.238 328.865 253.182 328.971C254.052 329.111 254.944 329.017 255.766 328.7C257.051 328.206 258.165 327.35 258.972 326.235C259.78 325.12 260.246 323.795 260.314 322.42L260.625 317.704H248.97Z" fill="#C48281"/>
<path d="M264.113 268.708C264.178 278.566 261.348 321.18 261.348 321.18C261.348 321.18 257.317 326.284 248.556 321.18L245.571 273.618L264.113 268.708Z" fill="#FFD226"/>
<path opacity="0.5" d="M264.113 268.708C264.178 278.566 261.348 321.18 261.348 321.18C261.348 321.18 257.317 326.284 248.556 321.18L245.571 273.618L264.113 268.708Z" fill="black"/>
<path d="M238.529 358.147C239.641 349.916 248.181 334.437 262.847 327.899C277.512 321.361 295.253 323.208 298.625 326.051C301.998 328.894 302.876 334.837 295.821 336.75C288.766 338.662 283.223 341.918 287.591 345.601C291.958 349.283 293.315 354.361 286.169 355.744C279.024 357.126 270.587 352.035 268.597 356.583C266.607 361.132 270.806 364.62 262.847 366.261C254.887 367.902 245.106 361.752 239.589 370.823L238.529 358.147Z" fill="#FFD226"/>
<path d="M239.008 364.375C238.939 364.387 238.869 364.387 238.801 364.375C238.736 364.348 238.677 364.309 238.628 364.259C238.579 364.209 238.539 364.15 238.513 364.085C238.487 364.02 238.473 363.951 238.474 363.881C238.475 363.811 238.489 363.741 238.517 363.677C249.396 337.835 280.846 326.206 291.816 326.904C291.958 326.914 292.09 326.979 292.184 327.085C292.278 327.191 292.327 327.33 292.32 327.472C292.317 327.543 292.299 327.612 292.269 327.676C292.238 327.74 292.195 327.797 292.142 327.844C292.089 327.891 292.027 327.927 291.96 327.95C291.893 327.972 291.822 327.981 291.751 327.976C283.043 327.446 250.83 337.253 239.499 364.09C239.452 364.18 239.381 364.254 239.294 364.304C239.207 364.354 239.108 364.379 239.008 364.375Z" fill="white"/>
<path d="M282.073 348.56C282.001 348.572 281.926 348.572 281.854 348.56C281.712 348.482 266.943 341.944 253.298 345.006C253.23 345.023 253.159 345.027 253.09 345.016C253.021 345.004 252.955 344.979 252.896 344.942C252.836 344.904 252.785 344.855 252.746 344.798C252.706 344.74 252.679 344.675 252.665 344.606C252.65 344.538 252.648 344.468 252.66 344.399C252.672 344.331 252.697 344.265 252.734 344.206C252.809 344.088 252.928 344.004 253.066 343.973C267.059 340.833 282.151 347.513 282.293 347.578C282.409 347.624 282.505 347.71 282.563 347.821C282.622 347.931 282.639 348.058 282.613 348.181C282.587 348.303 282.518 348.412 282.42 348.488C282.321 348.564 282.198 348.604 282.073 348.598V348.56Z" fill="white"/>
<path d="M160.744 228.897L114.526 255.579L224.303 318.957L258.97 298.943L270.522 292.275L160.744 228.897Z" fill="#FFD226"/>
<path d="M270.522 292.275V298.956L235.855 318.97L235.842 312.29L270.522 292.275Z" fill="#FFD226"/>
<path opacity="0.2" d="M270.522 292.275V298.956L235.855 318.97L235.842 312.29L270.522 292.275Z" fill="black"/>
<path d="M165.693 262.26C165.693 262.26 206.175 250.036 213.204 248.111C220.233 246.186 233.749 242.943 237.69 244.713C241.631 246.483 243.633 248.525 243.995 254.223C244.073 255.295 243.995 260.502 243.995 260.502C243.995 260.502 224.433 266.55 208.41 266.55C192.388 266.55 165.693 262.26 165.693 262.26Z" fill="#FFD226"/>
<path opacity="0.6" d="M165.693 262.26C165.693 262.26 206.175 250.036 213.204 248.111C220.233 246.186 233.749 242.943 237.69 244.713C241.631 246.483 243.633 248.525 243.995 254.223C244.073 255.295 243.995 260.502 243.995 260.502C243.995 260.502 224.433 266.55 208.41 266.55C192.388 266.55 165.693 262.26 165.693 262.26Z" fill="black"/>
<path d="M200.296 193.468L197.608 207.978L182.723 209.697L184.868 189.669L200.296 193.468Z" fill="#C48281"/>
<path d="M214.173 181.877C214.173 181.877 216.124 187.86 215.53 188.235C214.46 188.462 213.362 188.523 212.274 188.416L214.173 181.877Z" fill="#AB6F6E"/>
<path d="M210.297 162.69C212.881 165.39 215.297 169.9 214.173 181.335C212.997 193.868 209.25 197.215 207.713 197.938C205.348 199.037 197.376 197.124 194.714 195.199C191.458 192.796 185.308 186.801 183.705 179.423C181.819 170.74 184.235 160.868 190.579 158.865C199.572 156.035 208.178 160.403 210.297 162.69Z" fill="#C48281"/>
<path d="M216.202 168.853C214.677 171.722 211.808 178.867 203.655 180.883C203.655 180.883 203.203 176.024 199.172 175.973C195.14 175.921 193.771 180.896 195.773 184.359C197.776 187.821 200.296 187.033 200.296 187.033C200.296 187.033 199.882 193.868 194.959 196.311C194.959 196.311 189.029 199.011 183.628 195.561C181.198 194.011 178.382 187.279 176.934 181.878C173.859 170.455 174.415 161.708 181.676 159.912C183.201 155.118 185.669 153.581 190.23 153.283C200.076 152.624 206.433 159.912 214.612 159.912C218.876 159.912 217.933 165.584 216.202 168.853Z" fill="#263238"/>
<path d="M181.87 160.739L176.935 158.62C177.073 158.297 177.273 158.004 177.525 157.758C177.776 157.512 178.074 157.319 178.4 157.188C178.726 157.057 179.075 156.992 179.427 156.996C179.779 157 180.126 157.073 180.449 157.211C180.772 157.35 181.065 157.55 181.311 157.802C181.557 158.053 181.75 158.351 181.881 158.677C182.012 159.003 182.077 159.352 182.073 159.704C182.069 160.055 181.996 160.403 181.858 160.726L181.87 160.739Z" fill="#263238"/>
<path d="M165.796 257.389C165.796 265.141 165.06 273.256 168.303 278.954C171.546 284.652 186.238 296.385 202.777 293.594C213.579 291.772 248.504 278.463 248.504 278.463C248.504 278.463 264.01 272.765 264.113 268.708C264.216 262.712 263.803 254.288 250.249 254.649C237.896 254.972 201.239 260.981 201.239 260.981L165.796 257.389Z" fill="#FFD226"/>
<path opacity="0.5" d="M165.796 257.389C165.796 265.141 165.06 273.256 168.303 278.954C171.546 284.652 186.238 296.385 202.777 293.594C213.579 291.772 248.504 278.463 248.504 278.463C248.504 278.463 264.01 272.765 264.113 268.708C264.216 262.712 263.803 254.288 250.249 254.649C237.896 254.972 201.239 260.981 201.239 260.981L165.796 257.389Z" fill="black"/>
<path d="M168.678 207.126C169.97 203.068 175.139 198.649 180.307 199.606C189.778 201.363 200.141 204.438 202.88 205.239C202.88 205.239 201.588 226.12 212.351 232.373L213.76 258.952C213.76 258.952 211.111 264.237 207.028 266.847C202.596 269.651 196.446 273.876 185.32 272.946C181.471 272.642 177.73 271.527 174.343 269.675C170.956 267.822 167.999 265.273 165.667 262.195C165.667 262.195 165.797 237.077 166.223 225.835C166.611 216.351 167.761 209.917 168.678 207.126Z" fill="#FFD226"/>
<path opacity="0.2" d="M168.678 207.126C169.97 203.068 175.139 198.649 180.307 199.606C189.778 201.363 200.141 204.438 202.88 205.239C202.88 205.239 201.588 226.12 212.351 232.373L213.76 258.952C213.76 258.952 211.111 264.237 207.028 266.847C202.596 269.651 196.446 273.876 185.32 272.946C181.471 272.642 177.73 271.527 174.343 269.675C170.956 267.822 167.999 265.273 165.667 262.195C165.667 262.195 165.797 237.077 166.223 225.835C166.611 216.351 167.761 209.917 168.678 207.126Z" fill="black"/>
<path d="M212.649 237.58C212.649 237.58 207.054 231.779 205.09 225.047C205.09 225.047 205.09 234.893 212.765 240.216L212.649 237.58Z" fill="#FFD226"/>
<path opacity="0.4" d="M212.649 237.58C212.649 237.58 207.054 231.779 205.09 225.047C205.09 225.047 205.09 234.893 212.765 240.216L212.649 237.58Z" fill="black"/>
<path d="M249.435 218.509L255.443 209.878C255.443 209.878 256.877 207.797 257.407 206.932C257.937 206.066 258.299 203.172 256.528 202.435C253.324 201.143 246.657 197.951 244.706 197.938C243.904 197.938 240.558 203.546 234.821 211.105C231.384 215.627 226.642 221.907 226.642 222.463C226.642 223.018 225.414 223.587 230.402 226.132C233.977 227.887 237.679 229.373 241.475 230.577L249.435 218.509Z" fill="#FFD226"/>
<path opacity="0.6" d="M249.435 218.509L255.443 209.878C255.443 209.878 256.877 207.797 257.407 206.932C257.937 206.066 258.299 203.172 256.528 202.435C253.324 201.143 246.657 197.951 244.706 197.938C243.904 197.938 240.558 203.546 234.821 211.105C231.384 215.627 226.642 221.907 226.642 222.463C226.642 223.018 225.414 223.587 230.402 226.132C233.977 227.887 237.679 229.373 241.475 230.577L249.435 218.509Z" fill="black"/>
<path d="M253.259 209.141C249.577 214.439 241.721 227.541 241.488 227.903C241.256 228.264 229.859 223.341 226.797 222.01C226.721 222.152 226.669 222.305 226.642 222.463C226.642 223.005 225.414 223.587 230.402 226.132C233.977 227.887 237.679 229.373 241.475 230.577L249.435 218.509L255.443 209.878C255.443 209.878 256.877 207.797 257.407 206.932C257.937 206.066 258.299 203.172 256.528 202.435C256.877 202.616 256.929 203.843 253.259 209.141Z" fill="#263238"/>
<path d="M243.543 200.691L254.913 205.304L242.225 224.698L230.893 219.84L243.543 200.691Z" fill="#FFD226"/>
<path opacity="0.8" d="M243.543 200.691L254.913 205.304L242.225 224.698L230.893 219.84L243.543 200.691Z" fill="white"/>
<path d="M202.906 205.239C208.746 206.996 212.312 207.319 218.773 217.255C225.233 227.192 239.382 246.896 240.739 249.274C242.69 252.569 243.53 256.484 241.85 259.52C240.274 262.337 235.699 261.11 229.291 255.476C223.089 250.036 210.813 234.66 210.813 234.66C206.77 225.287 204.106 215.376 202.906 205.239Z" fill="#C48281"/>
<path d="M240.468 260.981C243.427 260.128 247.884 249.132 251.296 236.663C254.707 224.194 256.464 221.416 256.464 217.488C256.464 213.56 256.283 208.547 256.283 208.547L250.443 216.958C250.208 215.309 249.711 213.708 248.97 212.216C248.22 210.679 246.812 209.477 245.662 210.395C245.042 210.886 246.67 212.979 246.321 217.721C246.218 219.61 246.335 221.505 246.67 223.367L235.79 249.701L240.468 260.981Z" fill="#C48281"/>
<path d="M202.906 205.239C205.804 205.854 208.635 206.754 211.356 207.926C213.983 208.96 216.217 210.796 217.739 213.172C222.262 220.679 228.722 231.365 228.722 231.365C228.722 231.365 229.833 240.668 218.527 243.924L212.506 237.464C210.046 234.833 208.026 231.822 206.524 228.548C203.978 222.915 201.071 214.025 202.906 205.239Z" fill="#FFD226"/>
<path opacity="0.2" d="M202.906 205.239C205.804 205.854 208.635 206.754 211.356 207.926C213.983 208.96 216.217 210.796 217.739 213.172C222.262 220.679 228.722 231.365 228.722 231.365C228.722 231.365 229.833 240.668 218.527 243.924L212.506 237.464C210.046 234.833 208.026 231.822 206.524 228.548C203.978 222.915 201.071 214.025 202.906 205.239Z" fill="black"/>
<path d="M218.14 81.9072L97.5732 12.3013C94.5367 10.544 92.0171 11.6294 91.5132 14.6917C91.7944 12.7685 92.4798 10.9266 93.5243 9.28747C94.5688 7.64832 95.9487 6.24903 97.5732 5.18176L102.587 2.27451C104.495 1.30633 106.604 0.801758 108.743 0.801758C110.883 0.801758 112.992 1.30633 114.9 2.27451L235.48 71.8804C237.294 73.024 238.792 74.6059 239.834 76.4803L222.494 86.4942C221.461 84.6163 219.961 83.0365 218.14 81.9072Z" fill="#37474F"/>
<path d="M241.63 368.561C241.516 370.698 240.897 372.778 239.826 374.63C238.755 376.483 237.262 378.056 235.467 379.221L230.454 382.154C228.716 383.026 226.814 383.52 224.873 383.605C222.931 383.689 220.993 383.362 219.187 382.645C222.094 383.744 224.355 382.103 224.355 378.588V92.567C224.278 90.426 223.655 88.3401 222.546 86.507L239.886 76.4932C240.99 78.3324 241.608 80.4222 241.682 82.5661L241.63 368.561Z" fill="#263238"/>
<path d="M218.14 81.9072L97.573 12.3013C94.1748 10.3373 91.4226 11.9266 91.4226 15.8546V301.85C91.5391 303.985 92.1565 306.062 93.225 307.914C94.2935 309.766 95.7831 311.341 97.573 312.51L218.14 382.154C221.551 384.106 224.29 382.516 224.29 378.588V92.5671C224.177 90.4315 223.561 88.3528 222.492 86.5004C221.423 84.648 219.932 83.0742 218.14 81.9072ZM218.514 338.042C218.514 340.406 216.873 341.363 214.819 340.174L100.894 274.393C99.8061 273.689 98.9022 272.735 98.2572 271.611C97.6122 270.488 97.2448 269.226 97.1854 267.932V56.3751C97.1854 54.0105 98.8393 53.0544 100.894 54.2431L105.429 56.8274L214.819 119.999C215.905 120.703 216.807 121.657 217.45 122.781C218.092 123.905 218.458 125.166 218.514 126.459V338.042Z" fill="#455A64"/>
<path d="M157.85 57.9516C158.483 58.3597 159.009 58.9123 159.387 59.5637C159.764 60.2151 159.981 60.9469 160.021 61.6987C160.021 63.0813 159.052 63.6498 157.85 62.9908C157.221 62.5797 156.698 62.0262 156.323 61.3752C155.948 60.7241 155.732 59.9939 155.692 59.2437C155.692 57.8353 156.661 57.2539 157.85 57.9516Z" fill="#263238"/>
<path d="M157.85 317.446C160.332 319.075 162.396 321.266 163.876 323.84C165.355 326.415 166.208 329.301 166.365 332.266C166.365 337.719 162.489 339.941 157.811 337.202C155.323 335.579 153.252 333.393 151.766 330.82C150.28 328.248 149.42 325.361 149.258 322.395C149.296 316.929 153.134 314.72 157.85 317.446Z" fill="#263238"/>
<path d="M178.317 79.9691C179.578 80.79 180.628 81.8962 181.382 83.1981C182.137 84.5 182.574 85.9611 182.659 87.4634C182.659 90.2285 180.707 91.3397 178.317 89.9701C177.057 89.1465 176.008 88.0377 175.256 86.7334C174.504 85.4292 174.07 83.9662 173.989 82.4629C173.989 79.6978 175.927 78.5866 178.317 79.9691Z" fill="#263238"/>
<path d="M167.722 79.0259C167.722 80.8736 166.352 81.6102 164.647 80.5894L136.143 64.1279C135.255 63.5729 134.512 62.8148 133.975 61.9162C133.438 61.0176 133.123 60.0041 133.055 58.9595C133.055 57.1118 134.437 56.3753 136.143 57.396L164.647 73.8575C165.533 74.4124 166.275 75.1707 166.81 76.0696C167.345 76.9685 167.657 77.982 167.722 79.0259Z" fill="#263238"/>
<path d="M114.526 62.1119L100.881 54.243C98.8397 53.0542 97.1858 54.0104 97.1858 56.3749V267.996C97.2458 269.289 97.6122 270.549 98.2547 271.672C98.8972 272.796 99.7974 273.75 100.881 274.457L114.526 282.339V62.1119Z" fill="#263238"/>
<g opacity="0.15">
<path opacity="0.15" d="M218.515 126.42V315.624L105.429 250.359V56.853L214.819 120.024C215.897 120.723 216.793 121.666 217.435 122.778C218.078 123.89 218.448 125.138 218.515 126.42Z" fill="white"/>
</g>
<path d="M106.14 58.0936L214.47 120.645C215.433 121.285 216.235 122.14 216.814 123.142C217.392 124.144 217.731 125.266 217.804 126.42V314.396L106.14 249.933V58.0936ZM105.429 56.8015V250.359L218.515 315.637V126.42C218.458 125.127 218.093 123.866 217.45 122.742C216.807 121.618 215.905 120.664 214.819 119.96L105.429 56.7886V56.8015Z" fill="white"/>
<path d="M218.528 338.042V322.304L114.526 262.26L98.271 271.628C98.8816 272.755 99.7714 273.707 100.855 274.393L214.806 340.174C216.861 341.363 218.528 340.406 218.528 338.042Z" fill="#37474F"/>
<path d="M218.527 328.971L183.86 348.986V342.319L218.527 322.304V328.971Z" fill="#FFD226"/>
<path opacity="0.2" d="M218.527 328.971L183.86 348.986V342.319L218.527 322.304V328.971Z" fill="black"/>
<path d="M74.0828 278.941L183.86 342.319V348.986L74.0828 285.608V278.941Z" fill="#FFD226"/>
<path opacity="0.2" d="M74.0828 278.941L183.86 342.319V348.986L74.0828 285.608V278.941Z" fill="black"/>
<path d="M114.526 255.58L74.0828 278.941L183.86 342.319L218.528 322.304V315.624L114.526 255.58Z" fill="#FFD226"/>
<path d="M114.526 255.58L74.0828 278.941L183.86 342.319L218.528 322.304V315.624L114.526 255.58Z" fill="#FFD226"/>
<path d="M115.534 202.81C112.097 202.81 109.474 203.016 103.129 212.216C97.7542 219.969 80.1686 244.286 79.122 245.436C78.0754 246.586 87.0555 250.682 87.0555 250.682L110.804 226.817L115.534 202.81Z" fill="#C48281"/>
<path d="M82.6882 243.473C82.6882 243.473 84.5747 242.465 89.3426 242.503C92.3015 242.503 94.1492 242.71 94.511 241.754C94.9891 240.32 96.152 237.684 96.7593 237.697V244.713L82.6882 243.473Z" fill="#AB6F6E"/>
<path d="M74.3409 348.65C66.3945 359.142 60.1923 361.571 58.0216 363.845C55.8508 366.119 57.1042 370.603 62.4148 371.598C67.7253 372.593 73.4752 371.378 76.8993 367.954C80.3234 364.53 82.688 360.072 86.1766 357.617C89.6653 355.162 91.4614 354.465 91.9911 351.519C92.5209 348.573 89.8591 339.812 89.8591 339.812L74.3409 348.65Z" fill="#263238"/>
<path d="M78.1529 332.654C78.8894 336.466 79.7164 339.799 77.1192 344.386C76.2761 345.86 75.3486 347.283 74.3412 348.65C69.7026 354.891 65.9296 359.762 65.2965 360.615C64.6633 361.468 68.5655 364.181 73.0491 362.321C77.5327 360.46 81.3961 353.819 84.3163 349.813C85.6084 348.03 86.9005 346.415 87.9084 345.161C89.2736 343.494 89.9814 341.384 89.8982 339.231L89.6527 333.145L78.1529 332.654Z" fill="#C48281"/>
<path d="M93.6838 363.561C85.7374 374.066 79.5352 376.482 77.3645 378.769C75.1938 381.056 76.46 385.514 81.7577 386.522C87.0553 387.53 92.8181 386.289 96.2422 382.878C99.6663 379.467 102.031 374.983 105.532 372.541C109.034 370.099 110.817 369.376 111.334 366.43C111.851 363.484 109.215 354.723 109.215 354.723L93.6838 363.561Z" fill="#263238"/>
<path d="M97.4957 347.565C98.2451 351.377 99.0592 354.71 96.462 359.297C95.6249 360.775 94.6972 362.199 93.684 363.561C89.0453 369.802 85.2724 374.673 84.6392 375.526C84.0061 376.379 87.9083 379.105 92.3919 377.245C96.8755 375.384 100.739 368.743 103.659 364.737C104.951 362.954 106.243 361.326 107.251 360.085C108.615 358.412 109.323 356.299 109.241 354.142L109.008 348.056L97.4957 347.565Z" fill="#C48281"/>
<path d="M149.309 254.236C155.395 266.743 152.992 279.135 136.543 287.249C127.356 291.784 109.577 299.795 109.577 299.795C109.577 299.795 112.161 306.902 112.252 318.88C112.342 329.423 109.538 352.358 109.538 352.358C109.538 352.358 102.664 355.55 97.7413 352.358C97.7413 352.358 95.5576 338.145 93.865 323.816C91.8105 305.817 90.0791 295.234 90.9965 291.358C91.8105 287.934 98.9688 282.92 104.434 279.083L85.3629 288.05C85.3629 288.05 89.4589 293.71 90.4279 303.904C91.6038 316.231 90.1178 337.422 90.1178 337.422C88.2941 338.313 86.3055 338.817 84.2773 338.902C82.2491 338.986 80.2254 338.649 78.3338 337.913C78.3338 337.913 64.9088 285.647 66.9245 278.398C69.8188 267.997 109.435 252.155 111.451 248.072L149.309 254.236Z" fill="#FFD226"/>
<path d="M149.309 254.236C155.395 266.743 152.992 279.135 136.543 287.249C127.356 291.784 109.577 299.795 109.577 299.795C109.577 299.795 112.161 306.902 112.252 318.88C112.342 329.423 109.538 352.358 109.538 352.358C109.538 352.358 102.664 355.55 97.7413 352.358C97.7413 352.358 95.5576 338.145 93.865 323.816C91.8105 305.817 90.0791 295.234 90.9965 291.358C91.8105 287.934 98.9688 282.92 104.434 279.083L85.3629 288.05C85.3629 288.05 89.4589 293.71 90.4279 303.904C91.6038 316.231 90.1178 337.422 90.1178 337.422C88.2941 338.313 86.3055 338.817 84.2773 338.902C82.2491 338.986 80.2254 338.649 78.3338 337.913C78.3338 337.913 64.9088 285.647 66.9245 278.398C69.8188 267.997 109.435 252.155 111.451 248.072L149.309 254.236Z" fill="#262626"/>
<path d="M135.794 202.836C148.198 203.998 150.175 202.009 153.883 212.061L142.513 241.043L149.309 254.236C147.707 256.626 128.765 266.808 112.122 254.662C109.201 244.032 106.872 233.248 105.145 222.359C103.853 213.198 111.967 203.094 115.986 202.693C117.435 202.521 118.894 202.439 120.353 202.448L135.794 202.836Z" fill="#FFD226"/>
<path opacity="0.6" d="M135.794 202.836C148.198 203.998 150.175 202.009 153.883 212.061L142.513 241.043L149.309 254.236C147.707 256.626 128.765 266.808 112.122 254.662C109.201 244.032 106.872 233.248 105.145 222.359C103.853 213.198 111.967 203.094 115.986 202.693C117.435 202.521 118.894 202.439 120.353 202.448L135.794 202.836Z" fill="white"/>
<path d="M92.5469 243.447C95.1311 243.524 95.0278 241.87 95.6738 240.255C96.4362 238.356 97.1339 236.663 97.1339 236.663L98.8395 242.814L101.178 254.21C101.178 254.21 94.3171 254.119 89.2779 254.21C84.2387 254.3 78.5146 252.621 77.9332 249.042C77.5714 246.819 79.2253 243.705 84.3937 243.214C87.1134 243.083 89.8391 243.161 92.5469 243.447Z" fill="#C48281"/>
<path d="M97.4052 228.897C94.821 229.802 95.4929 234.13 96.5782 238.976C97.6636 243.821 99.4596 251.961 100.015 254.106C100.571 256.251 101.307 257.582 104.512 257.582C107.716 257.582 112.936 257.931 115.198 257.582C117.459 257.233 117.782 255.23 117.317 250.669C116.772 245.463 115.961 240.288 114.887 235.164C113.983 230.835 113.427 228.536 110.74 228.536C107.613 228.497 100.119 227.954 97.4052 228.897Z" fill="#263238"/>
<path d="M97.2371 241.986C97.4955 243.123 99.8213 244.067 101.94 244.157C105.007 244.277 108.078 244.069 111.101 243.537C113.259 242.955 114.629 246.677 112.549 250.075C110.468 253.473 105.765 254.507 100.028 254.197C98.3055 252.501 97.1654 250.302 96.7719 247.917C96.5986 245.928 96.7558 243.924 97.2371 241.986Z" fill="#C48281"/>
<path d="M142.564 241.043C142.564 241.043 141.272 243.188 137.254 243.188C140.807 240.772 143.895 235.991 146.79 230.267L142.564 241.043Z" fill="#FFD226"/>
<path opacity="0.1" d="M142.564 241.043C142.564 241.043 141.272 243.188 137.254 243.188C140.807 240.772 143.895 235.991 146.79 230.267L142.564 241.043Z" fill="white"/>
<path d="M148.185 204.141C155.034 205.433 157.889 211.893 158.096 224.556C158.303 237.219 156.675 279.186 156.532 281.047C156.386 282.473 156.621 283.913 157.213 285.218C157.806 286.524 158.735 287.648 159.905 288.477C164.789 291.965 170.681 294.769 173.562 296.72C177.361 299.304 173.562 303.517 168.898 303.801C164.531 304.072 157.54 300.286 155.757 298.801C156.64 299.973 157.326 301.283 157.786 302.677C158.548 305.649 157.786 307.393 156.416 306.773C155.641 306.424 154.698 305.248 152.023 301.979C147.384 296.281 146.389 293.723 146.338 286.642C146.338 281.848 145.937 257.13 145.55 247.723C145.304 241.961 145.356 229.44 145.459 221.662C145.562 213.883 146.751 205.239 148.185 204.141Z" fill="#C48281"/>
<path d="M105.739 179.294C105.739 179.294 101.385 172.342 104.447 165.662C107.509 158.982 120.03 150.26 134.308 156.462C147.875 162.367 146.673 177.976 146.725 185.043C146.815 191.737 105.739 179.294 105.739 179.294Z" fill="#263238"/>
<path d="M109.719 165.248C111.696 161.372 124.255 155.183 136.195 161.243C148.134 167.303 146.751 183.622 146.751 194.837V215.511C146.751 218.457 139.838 222.514 133.197 220.163L133.675 189.966C133.675 189.966 135.536 171.528 129.799 167.109C124.062 162.69 109.719 165.248 109.719 165.248Z" fill="#263238"/>
<path d="M133.675 181.464C134.45 181.929 135.561 180.43 136.517 179.423C137.474 178.415 140.613 177.058 142.164 180.34C143.714 183.622 140.148 188.157 138.029 189.63C137.437 190.146 136.696 190.46 135.913 190.527C135.13 190.595 134.347 190.412 133.675 190.005L133.468 202.745C133.468 202.745 130.328 209.645 122.808 210.666C115.288 211.686 116.826 205.497 119.294 202.435V197.77C117.413 198.172 115.48 198.268 113.57 198.055C112.588 197.796 110.236 194.967 108.724 191.801C107.031 188.235 104.202 181.916 106.721 171.231C109.422 159.757 121.749 159.408 129.114 164.033C136.479 168.659 133.675 181.464 133.675 181.464Z" fill="#C48281"/>
<path d="M119.306 197.77C119.306 197.77 126.284 196.362 128.713 195.07C130.149 194.327 131.325 193.164 132.085 191.736C131.714 193.143 131.063 194.461 130.173 195.613C128.39 197.887 119.306 199.567 119.306 199.567V197.77Z" fill="#AB6F6E"/>
<path d="M119.384 181.167C119.394 181.444 119.486 181.711 119.647 181.936C119.808 182.161 120.033 182.334 120.291 182.432C120.55 182.53 120.832 182.55 121.102 182.489C121.372 182.428 121.618 182.289 121.81 182.089C122.001 181.888 122.129 181.636 122.178 181.364C122.227 181.091 122.194 180.81 122.084 180.556C121.974 180.302 121.792 180.086 121.56 179.935C121.328 179.784 121.056 179.705 120.78 179.707C120.592 179.71 120.407 179.751 120.235 179.826C120.062 179.902 119.907 180.01 119.777 180.146C119.648 180.282 119.546 180.442 119.479 180.617C119.411 180.793 119.379 180.979 119.384 181.167Z" fill="#263238"/>
<path d="M120.87 175.882L123.855 177.536C124.066 177.126 124.111 176.65 123.981 176.208C123.851 175.765 123.556 175.389 123.157 175.158C122.96 175.052 122.744 174.986 122.521 174.965C122.298 174.943 122.073 174.967 121.86 175.035C121.646 175.102 121.449 175.212 121.279 175.358C121.109 175.503 120.97 175.682 120.87 175.882Z" fill="#263238"/>
<path d="M136.156 153.774L136.97 158.71C137.639 158.593 138.236 158.217 138.63 157.663C139.024 157.109 139.184 156.422 139.076 155.751C139.019 155.427 138.897 155.118 138.718 154.842C138.539 154.566 138.307 154.329 138.034 154.144C137.762 153.96 137.455 153.832 137.132 153.768C136.81 153.705 136.477 153.707 136.156 153.774Z" fill="#263238"/>
<path d="M142.125 156.216L137.551 158.206C137.833 158.819 138.344 159.298 138.974 159.539C139.605 159.781 140.304 159.766 140.924 159.498C141.222 159.366 141.49 159.175 141.713 158.937C141.936 158.699 142.109 158.419 142.221 158.112C142.333 157.806 142.383 157.48 142.366 157.155C142.35 156.829 142.268 156.51 142.125 156.216Z" fill="#263238"/>
<path d="M120.34 189.798L117.149 191C117.217 191.215 117.328 191.415 117.475 191.586C117.623 191.757 117.804 191.896 118.007 191.995C118.21 192.094 118.431 192.151 118.657 192.162C118.882 192.173 119.108 192.138 119.319 192.06C119.748 191.886 120.093 191.555 120.283 191.133C120.473 190.712 120.494 190.234 120.34 189.798Z" fill="#AB6F6E"/>
<path d="M106.928 177.058L109.655 174.952C109.525 174.768 109.36 174.613 109.169 174.494C108.978 174.376 108.765 174.298 108.543 174.264C108.321 174.23 108.094 174.242 107.877 174.298C107.659 174.354 107.455 174.453 107.277 174.59C106.914 174.878 106.675 175.295 106.61 175.754C106.545 176.213 106.659 176.68 106.928 177.058Z" fill="#263238"/>
<path d="M107.768 180.766C107.78 181.039 107.873 181.302 108.034 181.523C108.195 181.744 108.417 181.913 108.673 182.009C108.928 182.104 109.207 182.123 109.473 182.062C109.739 182.001 109.982 181.863 110.171 181.666C110.359 181.468 110.486 181.22 110.535 180.951C110.584 180.682 110.552 180.405 110.445 180.154C110.338 179.902 110.159 179.688 109.931 179.538C109.704 179.387 109.436 179.306 109.163 179.306C108.785 179.316 108.426 179.475 108.165 179.749C107.904 180.022 107.761 180.388 107.768 180.766Z" fill="#263238"/>
<path d="M113.582 180.133L114.72 188.467L110.12 187.821L113.582 180.133Z" fill="#AB6F6E"/>
<path d="M109.655 164.008C109.655 164.008 115.973 177.536 134.799 175.637C134.799 175.637 136.97 166.204 129.54 162.561C122.11 158.917 113.221 158.71 109.655 164.008Z" fill="#263238"/>
<path d="M129.101 173.944C131.31 174.228 131.956 177.601 131.414 180.405C130.871 183.209 133.533 183.441 135.613 180.405C136.951 178.078 137.709 175.463 137.823 172.781L129.101 173.944Z" fill="#263238"/>
<path d="M104.486 279.122C104.486 279.122 115.96 271.369 119.307 269.831C119.307 269.831 112.846 268.539 109.719 264.301C110.245 266.308 111.167 268.188 112.433 269.831L85.4146 288.089L104.486 279.122Z" fill="#FFD226"/>
<path d="M104.486 279.122C104.486 279.122 115.96 271.369 119.307 269.831C119.307 269.831 112.846 268.539 109.719 264.301C110.245 266.308 111.167 268.188 112.433 269.831L85.4146 288.089L104.486 279.122Z" fill="#212020"/>
<path d="M190.203 393.688L138.133 393.65L143.893 385.289L186.263 385.304L190.203 393.688Z" fill="#0DA54E"/>
<g opacity="0.1">
<path opacity="0.1" d="M171.232 389.588C171.316 391.156 168.172 392.426 164.294 392.419C160.416 392.411 157.547 391.149 157.976 389.581C158.404 388.012 161.502 386.743 164.914 386.743C168.325 386.743 171.148 387.99 171.232 389.588Z" fill="black"/>
<path opacity="0.1" d="M153.637 389.397C153.507 389.757 152.589 390.047 151.595 390.047C150.601 390.047 149.935 389.749 150.103 389.389C150.272 389.03 151.19 388.739 152.146 388.739C153.102 388.739 153.775 389.038 153.637 389.397Z" fill="black"/>
<path opacity="0.1" d="M179.148 389.412C179.24 389.772 178.506 390.062 177.511 390.062C176.517 390.062 175.668 389.764 175.607 389.405C175.545 389.045 176.287 388.754 177.244 388.754C178.2 388.754 179.056 389.045 179.148 389.412Z" fill="black"/>
</g>
<g opacity="0.1">
<path opacity="0.1" d="M145.171 385.29L139.709 393.65H138.133L143.893 385.29H145.171Z" fill="black"/>
<path opacity="0.1" d="M190.202 393.688L188.627 393.68L184.978 385.304H186.263L190.202 393.688Z" fill="black"/>
<path opacity="0.1" d="M189.958 393.16L190.203 393.688L138.133 393.65L138.5 393.122L189.958 393.16Z" fill="black"/>
<path opacity="0.1" d="M186.263 385.304L186.508 385.832L143.526 385.817L143.893 385.289L186.263 385.304Z" fill="black"/>
<path opacity="0.1" d="M143.534 393.122H140.084L140.849 391.959C142.67 391.959 143.871 392.48 143.534 393.122Z" fill="black"/>
<path opacity="0.1" d="M187.9 391.99L188.405 393.16H184.955C184.717 392.51 186.033 391.99 187.9 391.99Z" fill="black"/>
<path opacity="0.1" d="M182.324 385.832H185.208L185.72 386.995C184.075 386.995 182.546 386.459 182.324 385.832Z" fill="black"/>
<path opacity="0.1" d="M144.07 386.98L144.835 385.817H147.711C147.359 386.459 145.707 386.98 144.07 386.98Z" fill="black"/>
</g>
<path d="M164.905 387.438C165.073 387.438 165.203 387.492 165.196 387.561V387.752C165.957 387.77 166.713 387.886 167.445 388.096C167.559 388.135 167.628 388.165 167.62 388.211C167.613 388.257 167.468 388.333 167.284 388.333C167.206 388.335 167.128 388.322 167.054 388.295C166.436 388.109 165.796 388.003 165.15 387.982L165.012 389.351C167.016 389.504 167.858 389.787 167.85 390.269C167.842 390.751 166.588 391.148 164.859 391.171L164.821 391.554C164.821 391.615 164.653 391.669 164.469 391.669C164.285 391.669 164.14 391.615 164.148 391.554L164.194 391.164C163.156 391.159 162.124 390.999 161.134 390.689C161.042 390.689 160.996 390.628 161.004 390.582C161.011 390.536 161.195 390.46 161.371 390.46C161.449 390.445 161.53 390.445 161.608 390.46C162.45 390.741 163.329 390.891 164.217 390.904L164.377 389.511C162.404 389.351 161.631 389.083 161.715 388.594C161.799 388.104 163 387.722 164.553 387.706V387.523C164.599 387.492 164.744 387.438 164.905 387.438ZM164.415 389.297L164.568 387.966C163.329 387.966 162.457 388.257 162.404 388.609C162.35 388.961 162.733 389.144 164.415 389.297ZM164.974 389.596L164.836 390.95C166.213 390.95 167.131 390.659 167.131 390.284C167.131 389.909 166.695 389.741 164.951 389.596H164.974Z" fill="#0DA54E"/>
<path d="M190.203 399.257H138.133V393.65L190.203 393.688V399.257Z" fill="#0DA54E"/>
<path opacity="0.2" d="M190.203 399.257H138.133V393.65L190.203 393.688V399.257Z" fill="black"/>
<path d="M170.436 393.657H157.906V399.257H170.436V393.657Z" fill="#EBEBEB"/>
<path d="M157.906 393.658H170.436L168.853 385.289H160.301L157.906 393.658Z" fill="#EBEBEB"/>
<path d="M193.176 386.383L141.106 386.337L146.859 377.984L189.237 377.999L193.176 386.383Z" fill="#0DA54E"/>
<g opacity="0.1">
<path opacity="0.1" d="M174.205 382.283C174.29 383.812 171.184 385.121 167.267 385.113C163.351 385.105 160.521 383.843 160.941 382.275C161.362 380.707 164.475 379.437 167.879 379.437C171.283 379.437 174.129 380.714 174.205 382.283Z" fill="black"/>
<path opacity="0.1" d="M156.612 382.091C156.474 382.451 155.564 382.742 154.57 382.742C153.575 382.742 152.91 382.443 153.04 382.084C153.17 381.724 154.118 381.434 155.082 381.434C156.046 381.434 156.75 381.724 156.612 382.091Z" fill="black"/>
<path opacity="0.1" d="M182.123 382.099C182.207 382.458 181.481 382.757 180.486 382.757C179.492 382.757 178.643 382.458 178.582 382.099C178.52 381.739 179.255 381.449 180.219 381.449C181.182 381.449 182.032 381.739 182.123 382.099Z" fill="black"/>
</g>
<g opacity="0.1">
<path opacity="0.1" d="M148.144 377.986L142.682 386.347L141.106 386.339L146.859 377.986H148.144Z" fill="black"/>
<path opacity="0.1" d="M193.176 386.383L191.592 386.375L187.951 377.999H189.236L193.176 386.383Z" fill="black"/>
<path opacity="0.1" d="M192.924 385.855L193.168 386.375L141.106 386.337L141.466 385.817L192.924 385.855Z" fill="black"/>
<path opacity="0.1" d="M189.237 377.999L189.481 378.527L146.499 378.512L146.859 377.984L189.237 377.999Z" fill="black"/>
<path opacity="0.1" d="M146.47 385.817H143.027L143.792 384.654C145.643 384.654 146.844 385.174 146.47 385.817Z" fill="black"/>
<path opacity="0.1" d="M190.859 384.685L191.363 385.855H187.898C187.692 385.205 189.007 384.685 190.859 384.685Z" fill="black"/>
<path opacity="0.1" d="M185.297 378.527H188.181L188.686 379.69C187.041 379.69 185.527 379.17 185.297 378.527Z" fill="black"/>
<path opacity="0.1" d="M147.043 379.674L147.808 378.512H150.684C150.31 379.154 148.68 379.674 147.043 379.674Z" fill="black"/>
</g>
<path d="M167.88 380.133C168.041 380.133 168.178 380.187 168.171 380.256V380.447C168.935 380.461 169.694 380.577 170.427 380.791C170.542 380.829 170.603 380.852 170.603 380.906C170.603 380.959 170.443 381.028 170.259 381.028C170.183 381.042 170.106 381.042 170.03 381.028C169.412 380.837 168.771 380.732 168.125 380.715L167.987 382.084C169.999 382.237 170.84 382.52 170.825 383.002C170.81 383.484 169.571 383.882 167.834 383.904L167.796 384.287C167.796 384.348 167.635 384.402 167.452 384.402C167.268 384.402 167.123 384.348 167.13 384.287L167.169 383.897C166.131 383.889 165.1 383.729 164.109 383.423C164.017 383.423 163.964 383.361 163.979 383.315C163.994 383.27 164.162 383.193 164.338 383.193C164.419 383.191 164.5 383.204 164.576 383.231C165.417 383.511 166.297 383.661 167.184 383.675L167.345 382.283C165.371 382.122 164.599 381.847 164.69 381.357C164.782 380.868 165.968 380.493 167.528 380.478V380.286C167.566 380.187 167.712 380.133 167.88 380.133ZM167.391 381.992L167.544 380.661C166.297 380.661 165.432 380.952 165.371 381.304C165.31 381.656 165.715 381.87 167.391 381.992ZM167.941 382.29L167.804 383.644C169.188 383.644 170.098 383.354 170.098 382.979C170.098 382.604 169.67 382.436 167.941 382.29Z" fill="#0DA54E"/>
<path d="M193.168 391.952H141.106V386.345L193.176 386.383L193.168 391.952Z" fill="#0DA54E"/>
<path opacity="0.2" d="M193.168 391.952H141.106V386.345L193.176 386.383L193.168 391.952Z" fill="black"/>
<path d="M173.403 386.353H160.873V391.952H173.403V386.353Z" fill="#EBEBEB"/>
<path d="M160.873 386.352H173.403L171.827 377.984H163.267L160.873 386.352Z" fill="#EBEBEB"/>
<path d="M192.488 379.399L140.419 379.361L146.179 371L188.549 371.015L192.488 379.399Z" fill="#0DA54E"/>
<g opacity="0.1">
<path opacity="0.1" d="M173.519 375.299C173.603 376.829 170.497 378.137 166.581 378.137C162.664 378.137 159.834 376.859 160.262 375.291C160.69 373.723 163.788 372.453 167.192 372.453C170.596 372.453 173.434 373.731 173.519 375.299Z" fill="black"/>
<path opacity="0.1" d="M155.925 375.108C155.787 375.467 154.877 375.758 153.883 375.758C152.888 375.758 152.223 375.467 152.391 375.1C152.559 374.733 153.477 374.45 154.433 374.45C155.39 374.45 156.063 374.748 155.925 375.108Z" fill="black"/>
<path opacity="0.1" d="M181.436 375.123C181.528 375.482 180.793 375.773 179.799 375.773C178.804 375.773 177.955 375.475 177.894 375.115C177.833 374.756 178.567 374.465 179.531 374.465C180.495 374.465 181.344 374.756 181.436 375.123Z" fill="black"/>
</g>
<g opacity="0.1">
<path opacity="0.1" d="M147.457 371L141.995 379.361H140.419L146.172 371H147.457Z" fill="black"/>
<path opacity="0.1" d="M192.488 379.399H190.912L187.264 371.015H188.549L192.488 379.399Z" fill="black"/>
<path opacity="0.1" d="M192.244 378.871L192.488 379.399L140.419 379.361L140.786 378.833L192.244 378.871Z" fill="black"/>
<path opacity="0.1" d="M188.549 371.015L188.794 371.543L145.812 371.528L146.171 371L188.549 371.015Z" fill="black"/>
<path opacity="0.1" d="M145.827 378.81H142.377L143.142 377.647C144.955 377.67 146.156 378.191 145.827 378.81Z" fill="black"/>
<path opacity="0.1" d="M190.194 377.701L190.699 378.871H187.249C187.004 378.221 188.32 377.701 190.194 377.701Z" fill="black"/>
<path opacity="0.1" d="M184.609 371.543H187.493L187.998 372.706C186.369 372.69 184.839 372.186 184.609 371.543Z" fill="black"/>
<path opacity="0.1" d="M146.355 372.691L147.12 371.528H149.997C149.652 372.17 147.992 372.691 146.355 372.691Z" fill="black"/>
</g>
<path d="M167.193 373.149C167.361 373.149 167.491 373.203 167.484 373.272V373.463C168.245 373.481 169.001 373.597 169.733 373.807C169.847 373.845 169.909 373.876 169.909 373.922C169.909 373.968 169.748 374.044 169.572 374.044C169.496 374.055 169.419 374.055 169.343 374.044C168.722 373.855 168.079 373.747 167.43 373.723L167.3 375.092C169.304 375.253 170.146 375.528 170.138 376.01C170.13 376.492 168.876 376.898 167.147 376.913V377.295C167.147 377.357 166.979 377.41 166.795 377.41C166.612 377.41 166.466 377.357 166.474 377.295L166.52 376.905C165.482 376.9 164.451 376.74 163.46 376.431C163.368 376.431 163.323 376.37 163.33 376.324C163.338 376.278 163.514 376.202 163.697 376.209C163.776 376.195 163.856 376.195 163.934 376.209C164.776 376.49 165.656 376.64 166.543 376.653L166.696 375.261C164.73 375.1 163.957 374.832 164.042 374.343C164.126 373.853 165.327 373.471 166.879 373.455V373.272C166.887 373.203 167.032 373.149 167.193 373.149ZM166.704 375.008L166.857 373.677C165.61 373.677 164.745 373.968 164.684 374.32C164.623 374.672 165.021 374.863 166.704 374.985V375.008ZM167.254 375.314L167.124 376.66C168.501 376.66 169.419 376.37 169.419 375.995C169.419 375.62 168.983 375.452 167.247 375.314H167.254Z" fill="#0DA54E"/>
<path d="M192.488 384.968H140.419V379.361L192.488 379.399V384.968Z" fill="#0DA54E"/>
<path opacity="0.2" d="M192.488 384.968H140.419V379.361L192.488 379.399V384.968Z" fill="black"/>
<path d="M172.724 379.369H160.194V384.968H172.724V379.369Z" fill="#EBEBEB"/>
<path d="M160.194 379.368H172.724L171.14 371H162.588L160.194 379.368Z" fill="#EBEBEB"/>
<path d="M162.036 403.349L109.967 403.311L115.719 394.95L158.097 394.965L162.036 403.349Z" fill="#0DA54E"/>
<g opacity="0.1">
<path opacity="0.1" d="M143.066 399.249C143.15 400.779 140.044 402.087 136.128 402.08C132.211 402.072 129.381 400.81 129.802 399.242C130.222 397.674 133.336 396.404 136.74 396.404C140.144 396.404 142.982 397.681 143.066 399.249Z" fill="black"/>
<path opacity="0.1" d="M125.473 399.058C125.335 399.418 124.425 399.708 123.43 399.708C122.436 399.708 121.77 399.41 121.9 399.051C122.03 398.691 122.979 398.4 123.943 398.4C124.906 398.4 125.61 398.699 125.473 399.058Z" fill="black"/>
<path opacity="0.1" d="M150.984 399.073C151.068 399.433 150.341 399.724 149.347 399.724C148.352 399.724 147.503 399.425 147.442 399.066C147.381 398.706 148.115 398.416 149.079 398.416C150.043 398.416 150.892 398.699 150.984 399.073Z" fill="black"/>
</g>
<g opacity="0.1">
<path opacity="0.1" d="M117.006 394.95L111.545 403.311H109.969L115.721 394.95H117.006Z" fill="black"/>
<path opacity="0.1" d="M162.036 403.349H160.453L156.812 394.965H158.097L162.036 403.349Z" fill="black"/>
<path opacity="0.1" d="M161.784 402.821L162.036 403.349L109.967 403.311L110.326 402.783L161.784 402.821Z" fill="black"/>
<path opacity="0.1" d="M158.089 394.965L158.341 395.493L115.359 395.478L115.719 394.95L158.089 394.965Z" fill="black"/>
<path opacity="0.1" d="M115.33 402.783H111.888L112.653 401.621C114.504 401.621 115.705 402.141 115.33 402.783Z" fill="black"/>
<path opacity="0.1" d="M159.719 401.651L160.224 402.821H156.781C156.537 402.171 157.868 401.651 159.719 401.651Z" fill="black"/>
<path opacity="0.1" d="M154.157 395.494H157.041L157.546 396.656C155.902 396.656 154.387 396.136 154.157 395.494Z" fill="black"/>
<path opacity="0.1" d="M115.904 396.641L116.669 395.478H119.545C119.17 396.121 117.525 396.641 115.904 396.641Z" fill="black"/>
</g>
<path d="M136.739 397.1C136.899 397.1 137.037 397.153 137.029 397.222V397.413C137.793 397.431 138.552 397.547 139.286 397.757C139.401 397.796 139.462 397.826 139.462 397.872C139.462 397.918 139.301 397.995 139.118 397.995C139.04 397.996 138.962 397.983 138.888 397.956C138.27 397.769 137.629 397.664 136.984 397.643L136.846 399.012C138.858 399.165 139.699 399.448 139.684 399.93C139.668 400.412 138.429 400.81 136.693 400.833L136.655 401.215C136.655 401.276 136.494 401.33 136.31 401.33C136.127 401.33 135.981 401.276 135.989 401.215V400.825C134.964 400.817 133.946 400.657 132.968 400.351C132.876 400.351 132.822 400.289 132.838 400.244C132.853 400.198 133.021 400.121 133.197 400.121C133.278 400.119 133.358 400.132 133.434 400.159C134.276 400.439 135.156 400.589 136.043 400.603L136.203 399.211C134.23 399.05 133.457 398.782 133.549 398.293C133.641 397.803 134.826 397.421 136.387 397.406V397.222C136.425 397.168 136.57 397.1 136.739 397.1ZM136.249 398.958L136.402 397.627C135.155 397.627 134.291 397.918 134.23 398.27C134.169 398.622 134.566 398.805 136.249 398.958ZM136.8 399.264L136.647 400.611C138.031 400.611 138.942 400.32 138.942 399.945C138.942 399.57 138.529 399.402 136.8 399.264Z" fill="#0DA54E"/>
<path d="M162.036 408.919H109.967V403.312L162.036 403.35V408.919Z" fill="#0DA54E"/>
<path opacity="0.2" d="M162.036 408.919H109.967V403.312L162.036 403.35V408.919Z" fill="black"/>
<path d="M142.263 403.319H129.733V408.918H142.263V403.319Z" fill="#EBEBEB"/>
<path d="M129.733 403.319H142.263L140.687 394.95H132.127L129.733 403.319Z" fill="#EBEBEB"/>
<path d="M350.758 286.688L298.689 286.65L304.449 278.289L346.819 278.304L350.758 286.688Z" fill="#0DA54E"/>
<g opacity="0.1">
<path opacity="0.1" d="M331.788 282.588C331.872 284.156 328.728 285.426 324.85 285.419C320.972 285.411 318.103 284.149 318.531 282.581C318.96 281.012 322.058 279.743 325.469 279.743C328.881 279.743 331.704 280.99 331.788 282.588Z" fill="black"/>
<path opacity="0.1" d="M314.193 282.397C314.063 282.757 313.145 283.047 312.151 283.047C311.156 283.047 310.491 282.749 310.659 282.389C310.827 282.03 311.745 281.739 312.701 281.739C313.658 281.739 314.331 282.038 314.193 282.397Z" fill="black"/>
<path opacity="0.1" d="M339.704 282.412C339.796 282.772 339.061 283.062 338.067 283.062C337.073 283.062 336.223 282.764 336.162 282.405C336.101 282.045 336.843 281.754 337.799 281.754C338.755 281.754 339.612 282.045 339.704 282.412Z" fill="black"/>
</g>
<g opacity="0.1">
<path opacity="0.1" d="M305.726 278.29L300.264 286.65H298.689L304.449 278.29H305.726Z" fill="black"/>
<path opacity="0.1" d="M350.758 286.688L349.182 286.68L345.533 278.304H346.819L350.758 286.688Z" fill="black"/>
<path opacity="0.1" d="M350.513 286.16L350.758 286.688L298.689 286.65L299.056 286.122L350.513 286.16Z" fill="black"/>
<path opacity="0.1" d="M346.819 278.304L347.063 278.832L304.081 278.817L304.448 278.289L346.819 278.304Z" fill="black"/>
<path opacity="0.1" d="M304.09 286.122H300.64L301.405 284.959C303.226 284.959 304.427 285.48 304.09 286.122Z" fill="black"/>
<path opacity="0.1" d="M348.455 284.99L348.96 286.16H345.51C345.273 285.51 346.589 284.99 348.455 284.99Z" fill="black"/>
<path opacity="0.1" d="M342.879 278.832H345.763L346.276 279.995C344.631 279.995 343.101 279.459 342.879 278.832Z" fill="black"/>
<path opacity="0.1" d="M304.625 279.98L305.39 278.817H308.267C307.915 279.459 306.262 279.98 304.625 279.98Z" fill="black"/>
</g>
<path d="M325.461 280.438C325.629 280.438 325.759 280.492 325.751 280.561V280.752C326.513 280.77 327.268 280.886 328 281.096C328.115 281.135 328.184 281.165 328.176 281.211C328.169 281.257 328.023 281.333 327.84 281.333C327.761 281.335 327.684 281.322 327.61 281.295C326.991 281.109 326.351 281.003 325.705 280.982L325.568 282.351C327.572 282.504 328.413 282.787 328.406 283.269C328.398 283.751 327.143 284.148 325.415 284.171L325.376 284.554C325.376 284.615 325.208 284.669 325.025 284.669C324.841 284.669 324.696 284.615 324.703 284.554L324.749 284.164C323.711 284.159 322.68 283.999 321.689 283.689C321.598 283.689 321.552 283.628 321.559 283.582C321.567 283.536 321.751 283.46 321.927 283.46C322.005 283.445 322.085 283.445 322.164 283.46C323.005 283.741 323.885 283.891 324.772 283.904L324.933 282.511C322.959 282.351 322.187 282.083 322.271 281.594C322.355 281.104 323.556 280.722 325.109 280.706V280.523C325.155 280.492 325.3 280.438 325.461 280.438ZM324.971 282.297L325.124 280.966C323.885 280.966 323.013 281.257 322.959 281.609C322.906 281.961 323.288 282.144 324.971 282.297ZM325.529 282.596L325.392 283.95C326.769 283.95 327.687 283.659 327.687 283.284C327.687 282.909 327.251 282.741 325.507 282.596H325.529Z" fill="#0DA54E"/>
<path d="M350.758 292.257H298.689V286.65L350.758 286.688V292.257Z" fill="#0DA54E"/>
<path opacity="0.2" d="M350.758 292.257H298.689V286.65L350.758 286.688V292.257Z" fill="black"/>
<path d="M330.992 286.657H318.462V292.257H330.992V286.657Z" fill="#EBEBEB"/>
<path d="M318.462 286.658H330.992L329.408 278.289H320.856L318.462 286.658Z" fill="#EBEBEB"/>
<path d="M353.732 279.383L301.662 279.337L307.414 270.984L349.792 270.999L353.732 279.383Z" fill="#0DA54E"/>
<g opacity="0.1">
<path opacity="0.1" d="M334.761 275.283C334.845 276.812 331.74 278.121 327.823 278.113C323.907 278.105 321.076 276.843 321.497 275.275C321.918 273.707 325.031 272.437 328.435 272.437C331.839 272.437 334.685 273.714 334.761 275.283Z" fill="black"/>
<path opacity="0.1" d="M317.168 275.091C317.03 275.451 316.12 275.742 315.125 275.742C314.131 275.742 313.466 275.443 313.596 275.084C313.726 274.724 314.674 274.434 315.638 274.434C316.602 274.434 317.306 274.724 317.168 275.091Z" fill="black"/>
<path opacity="0.1" d="M342.679 275.099C342.763 275.458 342.036 275.757 341.042 275.757C340.048 275.757 339.199 275.458 339.137 275.099C339.076 274.739 339.811 274.449 340.774 274.449C341.738 274.449 342.587 274.739 342.679 275.099Z" fill="black"/>
</g>
<g opacity="0.1">
<path opacity="0.1" d="M308.7 270.986L303.238 279.347L301.662 279.339L307.414 270.986H308.7Z" fill="black"/>
<path opacity="0.1" d="M353.731 279.383L352.148 279.375L348.507 270.999H349.792L353.731 279.383Z" fill="black"/>
<path opacity="0.1" d="M353.479 278.855L353.724 279.375L301.662 279.337L302.022 278.817L353.479 278.855Z" fill="black"/>
<path opacity="0.1" d="M349.792 270.999L350.037 271.527L307.055 271.512L307.414 270.984L349.792 270.999Z" fill="black"/>
<path opacity="0.1" d="M307.025 278.817H303.583L304.348 277.654C306.199 277.654 307.4 278.174 307.025 278.817Z" fill="black"/>
<path opacity="0.1" d="M351.414 277.685L351.919 278.855H348.454C348.247 278.205 349.563 277.685 351.414 277.685Z" fill="black"/>
<path opacity="0.1" d="M345.853 271.527H348.737L349.241 272.69C347.597 272.69 346.082 272.17 345.853 271.527Z" fill="black"/>
<path opacity="0.1" d="M307.599 272.674L308.364 271.512H311.24C310.865 272.154 309.236 272.674 307.599 272.674Z" fill="black"/>
</g>
<path d="M328.436 273.133C328.596 273.133 328.734 273.187 328.726 273.256V273.447C329.491 273.461 330.25 273.577 330.983 273.791C331.098 273.829 331.159 273.852 331.159 273.906C331.159 273.959 330.998 274.028 330.815 274.028C330.739 274.042 330.661 274.042 330.585 274.028C329.968 273.837 329.327 273.732 328.681 273.715L328.543 275.084C330.555 275.237 331.396 275.52 331.381 276.002C331.365 276.484 330.126 276.882 328.39 276.904L328.352 277.287C328.352 277.348 328.191 277.402 328.007 277.402C327.824 277.402 327.678 277.348 327.686 277.287L327.724 276.897C326.687 276.889 325.656 276.729 324.665 276.423C324.573 276.423 324.519 276.361 324.535 276.315C324.55 276.27 324.718 276.193 324.894 276.193C324.975 276.191 325.055 276.204 325.131 276.231C325.973 276.511 326.853 276.661 327.74 276.675L327.9 275.283C325.927 275.122 325.154 274.847 325.246 274.357C325.338 273.868 326.523 273.493 328.084 273.478V273.286C328.122 273.187 328.267 273.133 328.436 273.133ZM327.946 274.992L328.099 273.661C326.852 273.661 325.988 273.952 325.927 274.304C325.866 274.656 326.271 274.87 327.946 274.992ZM328.497 275.29L328.359 276.644C329.744 276.644 330.654 276.354 330.654 275.979C330.654 275.604 330.226 275.436 328.497 275.29Z" fill="#0DA54E"/>
<path d="M353.724 284.952H301.662V279.345L353.732 279.383L353.724 284.952Z" fill="#0DA54E"/>
<path opacity="0.2" d="M353.724 284.952H301.662V279.345L353.732 279.383L353.724 284.952Z" fill="black"/>
<path d="M333.958 279.353H321.428V284.952H333.958V279.353Z" fill="#EBEBEB"/>
<path d="M321.428 279.352H333.958L332.382 270.984H323.823L321.428 279.352Z" fill="#EBEBEB"/>
<path d="M353.044 272.399L300.975 272.361L306.735 264L349.105 264.015L353.044 272.399Z" fill="#0DA54E"/>
<g opacity="0.1">
<path opacity="0.1" d="M334.074 268.299C334.158 269.829 331.053 271.137 327.136 271.137C323.22 271.137 320.389 269.859 320.818 268.291C321.246 266.723 324.344 265.453 327.748 265.453C331.152 265.453 333.99 266.731 334.074 268.299Z" fill="black"/>
<path opacity="0.1" d="M316.481 268.108C316.343 268.467 315.433 268.758 314.438 268.758C313.444 268.758 312.778 268.467 312.947 268.1C313.115 267.733 314.033 267.45 314.989 267.45C315.945 267.45 316.618 267.748 316.481 268.108Z" fill="black"/>
<path opacity="0.1" d="M341.992 268.123C342.083 268.482 341.349 268.773 340.355 268.773C339.36 268.773 338.511 268.475 338.45 268.115C338.389 267.756 339.123 267.465 340.087 267.465C341.051 267.465 341.9 267.756 341.992 268.123Z" fill="black"/>
</g>
<g opacity="0.1">
<path opacity="0.1" d="M308.012 264L302.551 272.361H300.975L306.727 264H308.012Z" fill="black"/>
<path opacity="0.1" d="M353.044 272.399H351.468L347.819 264.015H349.104L353.044 272.399Z" fill="black"/>
<path opacity="0.1" d="M352.799 271.871L353.044 272.399L300.975 272.361L301.342 271.833L352.799 271.871Z" fill="black"/>
<path opacity="0.1" d="M349.104 264.015L349.349 264.543L306.367 264.528L306.727 264L349.104 264.015Z" fill="black"/>
<path opacity="0.1" d="M306.382 271.81H302.933L303.698 270.647C305.51 270.67 306.711 271.191 306.382 271.81Z" fill="black"/>
<path opacity="0.1" d="M350.75 270.701L351.255 271.871H347.805C347.56 271.221 348.876 270.701 350.75 270.701Z" fill="black"/>
<path opacity="0.1" d="M345.165 264.543H348.049L348.554 265.706C346.924 265.69 345.395 265.186 345.165 264.543Z" fill="black"/>
<path opacity="0.1" d="M306.911 265.691L307.676 264.528H310.552C310.208 265.17 308.548 265.691 306.911 265.691Z" fill="black"/>
</g>
<path d="M327.749 266.149C327.917 266.149 328.047 266.203 328.039 266.272V266.463C328.801 266.481 329.557 266.597 330.288 266.807C330.403 266.845 330.464 266.876 330.464 266.922C330.464 266.968 330.304 267.044 330.128 267.044C330.052 267.055 329.974 267.055 329.898 267.044C329.277 266.855 328.635 266.747 327.986 266.723L327.856 268.092C329.86 268.253 330.701 268.528 330.694 269.01C330.686 269.492 329.432 269.898 327.703 269.913V270.295C327.703 270.357 327.535 270.41 327.351 270.41C327.167 270.41 327.022 270.357 327.03 270.295L327.076 269.905C326.038 269.9 325.007 269.74 324.016 269.431C323.924 269.431 323.878 269.37 323.886 269.324C323.893 269.278 324.069 269.202 324.253 269.209C324.331 269.195 324.412 269.195 324.49 269.209C325.332 269.49 326.211 269.64 327.099 269.653L327.252 268.261C325.286 268.1 324.513 267.832 324.597 267.343C324.681 266.853 325.882 266.471 327.435 266.455V266.272C327.443 266.203 327.588 266.149 327.749 266.149ZM327.259 268.008L327.412 266.677C326.165 266.677 325.301 266.968 325.24 267.32C325.179 267.672 325.576 267.863 327.259 267.985V268.008ZM327.81 268.314L327.68 269.66C329.057 269.66 329.975 269.37 329.975 268.995C329.975 268.62 329.539 268.452 327.802 268.314H327.81Z" fill="#0DA54E"/>
<path d="M353.044 277.968H300.975V272.361L353.044 272.399V277.968Z" fill="#0DA54E"/>
<path opacity="0.2" d="M353.044 277.968H300.975V272.361L353.044 272.399V277.968Z" fill="black"/>
<path d="M333.279 272.369H320.75V277.968H333.279V272.369Z" fill="#EBEBEB"/>
<path d="M320.75 272.368H333.279L331.696 264H323.144L320.75 272.368Z" fill="#EBEBEB"/>
<path d="M322.592 296.349L270.522 296.311L276.275 287.95L318.653 287.965L322.592 296.349Z" fill="#0DA54E"/>
<g opacity="0.1">
<path opacity="0.1" d="M303.621 292.249C303.706 293.779 300.6 295.087 296.683 295.08C292.767 295.072 289.937 293.81 290.357 292.242C290.778 290.674 293.891 289.404 297.295 289.404C300.699 289.404 303.537 290.681 303.621 292.249Z" fill="black"/>
<path opacity="0.1" d="M286.028 292.058C285.89 292.418 284.98 292.708 283.986 292.708C282.991 292.708 282.326 292.41 282.456 292.051C282.586 291.691 283.534 291.4 284.498 291.4C285.462 291.4 286.166 291.699 286.028 292.058Z" fill="black"/>
<path opacity="0.1" d="M311.539 292.073C311.624 292.433 310.897 292.724 309.902 292.724C308.908 292.724 308.059 292.425 307.998 292.066C307.937 291.706 308.671 291.416 309.635 291.416C310.599 291.416 311.448 291.699 311.539 292.073Z" fill="black"/>
</g>
<g opacity="0.1">
<path opacity="0.1" d="M277.562 287.95L272.1 296.311H270.524L276.277 287.95H277.562Z" fill="black"/>
<path opacity="0.1" d="M322.592 296.349H321.008L317.367 287.965H318.652L322.592 296.349Z" fill="black"/>
<path opacity="0.1" d="M322.34 295.821L322.592 296.349L270.522 296.311L270.882 295.783L322.34 295.821Z" fill="black"/>
<path opacity="0.1" d="M318.645 287.965L318.897 288.493L275.915 288.478L276.275 287.95L318.645 287.965Z" fill="black"/>
<path opacity="0.1" d="M275.886 295.783H272.443L273.208 294.621C275.059 294.621 276.26 295.141 275.886 295.783Z" fill="black"/>
<path opacity="0.1" d="M320.275 294.651L320.779 295.821H317.337C317.092 295.171 318.423 294.651 320.275 294.651Z" fill="black"/>
<path opacity="0.1" d="M314.713 288.494H317.597L318.102 289.656C316.457 289.656 314.943 289.136 314.713 288.494Z" fill="black"/>
<path opacity="0.1" d="M276.459 289.641L277.224 288.478H280.1C279.726 289.121 278.081 289.641 276.459 289.641Z" fill="black"/>
</g>
<path d="M297.294 290.1C297.455 290.1 297.593 290.153 297.585 290.222V290.413C298.349 290.431 299.107 290.547 299.842 290.757C299.956 290.796 300.018 290.826 300.018 290.872C300.018 290.918 299.857 290.995 299.673 290.995C299.595 290.996 299.518 290.983 299.444 290.956C298.825 290.769 298.185 290.664 297.539 290.643L297.402 292.012C299.413 292.165 300.255 292.448 300.239 292.93C300.224 293.412 298.985 293.81 297.249 293.833L297.21 294.215C297.21 294.276 297.05 294.33 296.866 294.33C296.682 294.33 296.537 294.276 296.545 294.215V293.825C295.52 293.817 294.502 293.657 293.523 293.351C293.431 293.351 293.378 293.289 293.393 293.244C293.409 293.198 293.577 293.121 293.753 293.121C293.833 293.119 293.914 293.132 293.99 293.159C294.832 293.439 295.711 293.589 296.598 293.603L296.759 292.211C294.785 292.05 294.013 291.782 294.105 291.293C294.196 290.803 295.382 290.421 296.943 290.406V290.222C296.981 290.168 297.126 290.1 297.294 290.1ZM296.805 291.958L296.958 290.627C295.711 290.627 294.847 290.918 294.785 291.27C294.724 291.622 295.122 291.805 296.805 291.958ZM297.356 292.264L297.203 293.611C298.587 293.611 299.497 293.32 299.497 292.945C299.497 292.57 299.084 292.402 297.356 292.264Z" fill="#0DA54E"/>
<path d="M322.592 301.919H270.522V296.312L322.592 296.35V301.919Z" fill="#0DA54E"/>
<path opacity="0.2" d="M322.592 301.919H270.522V296.312L322.592 296.35V301.919Z" fill="black"/>
<path d="M302.819 296.319H290.289V301.918H302.819V296.319Z" fill="#EBEBEB"/>
<path d="M290.289 296.319H302.819L301.243 287.95H292.683L290.289 296.319Z" fill="#EBEBEB"/>
</svg>
