<?xml version="1.0" encoding="utf-8"?>
<!-- Generator: Adobe Illustrator 25.2.2, SVG Export Plug-In . SVG Version: 6.00 Build 0)  -->
<svg version="1.1" id="Layer_1" xmlns="http://www.w3.org/2000/svg" xmlns:xlink="http://www.w3.org/1999/xlink" x="0px" y="0px"
	 viewBox="0 0 478.29 484.07" style="enable-background:new 0 0 478.29 484.07;" xml:space="preserve">
<style type="text/css">
	.st0{display:none;fill:#010101;}
	.st1{fill-rule:evenodd;clip-rule:evenodd;fill:#FFFFFF;}
	.st2{fill-rule:evenodd;clip-rule:evenodd;fill:#FDB416;}
	.st3{fill-rule:evenodd;clip-rule:evenodd;fill:#020202;}
	.st4{fill-rule:evenodd;clip-rule:evenodd;fill:#0B0403;}
	.st5{fill-rule:evenodd;clip-rule:evenodd;fill:#230200;}
</style>
<rect x="-121.43" y="-114.71" className="st0" width="720" height="720"/>
<circle className="st1" cx="238.57" cy="245.29" r="228.24"/>
<circle className="st2" cx="238.57" cy="245.29" r="217.88"/>
<path className="st3" d="M78.97,206.13c-9.82,7.15-16.05,17.36-13.62,30.77c1.14,6.3,4.08,11.43,7.43,15.18
	c2.21,2.47,3.29,3.22,6.27,5.03c2,1.22,5.83,2.53,7.17,3.62c13.43,1.29,25.25,1.24,34.21-13.37c4.93-0.01,26.27,4.86,33.05,6.02
	c1.32,14.88,0.39,20.73,6.54,35.75c6.52,15.92,13.12,20.15,16.21,26.09l-19.12,21.09c-6.01,6.85-13.86,14.68-18.8,21.41
	c-10.73-0.04-14.02-3.16-24.53,2.33c-22.54,11.79-20.01,42.55-0.04,53.09c16.39,8.65,32.73,0.24,39.65-10.65
	c8.36-13.16,3.09-34.23-7.74-39.58c1.5-4.32,14.65-17.06,18.12-21.34c5.86-7.21,12.2-13.14,18.18-20.38
	c4.09,0.85,35.34,33.71,86.31,16.11c14.85-5.13,17.09-9.75,24.62-13.45c2.58,2.62,8.27,8.93,10.72,12.59
	c-1.52,5.27-7.06,9.84-5.07,23.23c1.14,7.65,5.74,14.11,10.31,17.97c11.8,10,30.83,8.65,41.25-2.32
	c20.14-21.21,0.01-57.95-29.99-49.69c-3.91,1.08-7.59,3.84-10.32,4.45c-2.69-2.98-8.64-9.08-10.36-12.01
	c0.79-1.61,5.15-6.04,6.73-7.87c6.52-7.54,12.35-19.24,15.33-29.16c2.05-6.81,4.07-18.01,3.77-25.86
	c-0.59-15.06-3.29-17.62-4.33-26.16l37.59-8.75c2.49,3.14,2.38,9.59,11.25,16.62c19.16,15.17,49.96,1.97,48.38-26.21
	c-0.86-15.26-14.39-27.91-30.7-27.57c-8.94,0.19-15.88,4.3-20.34,8.66c-6.44,6.28-6.63,9.58-9.05,19.9l-40.42,9.52
	c-2.04-3.16-3.39-6.69-5.55-10c-2.29-3.52-3.87-5.68-6.52-9c-9.15-11.47-22.09-20.61-36.22-25.97c-9.7-3.68-15.82-3.48-25.83-5.74
	l-0.04-40.95c8.36-2.36,13.8-4.79,18.62-10.27c16.09-18.32,3.98-49.36-22.25-49.71c-35.78-0.48-43.45,52.3-4.76,59.81l0.05,41.32
	c-24.5,2.09-40.34,10.62-54.04,22.95c-13.8,12.41-21.85,27.32-26.79,51.08l-30.1-5.65c1.23-16.13-1.7-23.98-11.24-31.41
	C102.7,199.66,90.62,200.04,78.97,206.13z M262.82,330.06c-15.38,5.98-36.4,4.39-51.23-1.33c-28.62-11.04-48.54-38.37-49.43-69.26
	c-0.69-24.02,5.36-30.21,12.97-46.05c7.86-10.29,15.55-19.07,28.56-25.45c14.55-7.14,26.27-9.66,45.28-8.2
	c10.91,2.61,16.87,3.14,26.28,8.29c22.14,12.12,37.75,32.66,40.97,60.75C320.39,285.23,294.27,322.39,262.82,330.06z"/>
<path className="st4" d="M181.42,220.85c4.04,1.59,11.44,2.37,16.07,3.13c2.02,3.02,22.99,53.82,23.23,56.67
	c-6.83,6.52-19.55,10.49-6.5,21.19c-2.17,1.84-4.29,2.35-3.99,6.3c0.22,2.98,2.43,5.02,5.65,5.21c8.14,0.49,8.04-9.25,4-10.66
	l52.02,0.32c-9.62,14,17.68,14.37,8.18,0.11l5.85-0.35l0.46,0.04c2.37-7.19-5.39-5.45-11.9-5.56c-6.59-0.11-13.21-0.3-19.8-0.35
	h-34.68c-12.52-0.65,1.93-9.54,4.78-11.57c5.01-3.57,9.77-3.05,18.63-3.49c7.32-0.36,35.12-1.56,40.23-3.13
	c2.92-1.77,6.21-35.49,5.31-36.53c-1.83-2.11-69.68-2.76-78.06-3.34c-2.92-4.12-6.23-18.07-9.66-19.83
	C199.81,218.27,173.91,211.97,181.42,220.85z M223.04,243.77l-0.12,10l-5.82-0.1l-3.75-10.13L223.04,243.77z M275.97,245.38h8.88
	l-1.22,9.02l-7.71-0.08L275.97,245.38z M225.11,243.91l10.54,0.06l-0.05,9.98l-10.61-0.16L225.11,243.91z M238.09,244.17l10.27,0.45
	l-0.05,9.51l-10.58-0.3L238.09,244.17z M250.51,244.53l10.53,0.35l-0.28,9.38l-10.16-0.06L250.51,244.53z M263.42,244.84l9.87,0.31
	c0.95,2.59,0.74,6.29,0.22,9.25l-10.32-0.14L263.42,244.84z M222.96,256.04l-0.14,9.03c-1.96-0.86-1.91-1.95-2.8-4.12
	c-0.88-2.12-1.27-2.59-1.61-5.14L222.96,256.04z M276.08,256.06l7.39,0.13l-1.55,9.37l-6-0.01L276.08,256.06z M225.19,255.97
	l10.43,0.14l-0.09,8.99l-10.56-0.04L225.19,255.97z M237.89,256.06l10.39,0.13l-0.06,9l-10.56-0.14L237.89,256.06z M250.68,256.07
	l10.31,0.03l0.04,9.21l-10.63-0.11L250.68,256.07z M263.36,256.1l10.34,0.11l0.03,9.23l-10.59-0.18L263.36,256.1z M227.15,277.02
	c-2.45-3.31-2.25-5.09-2.06-9.96l10.44,0.34l-0.02,9.27L227.15,277.02z M275.99,267.27l5.72,0l-0.49,6.09l-5.38,0.58L275.99,267.27z
	 M263.32,267.3l10.37,0.14l-0.17,6.71l-10.38,0.46L263.32,267.3z M250.54,267.29l10.44,0.1l-0.14,7.58l-10.44,0.64L250.54,267.29z
	 M237.75,267.19l10.55,0.16l0.05,8.53l-10.69,0.61L237.75,267.19z M218.11,310.92c-2.75,0.13-2.87,0.27-4.82-1.32l-0.54-3.85
	c3.55-1.82,4.52-2.51,7.2,0.39l0.21,2.98L218.11,310.92z M272.47,310.97c-1.61-8.23,5.2-7.95,6.88-5.5c1.35,1.96,1.05,5.01-1,5.95
	C276.69,312.18,273.78,311.32,272.47,310.97z"/>
<path className="st5" d="M217.96,306.78c-2.08-1.07-1.17-0.86-3.3-0.07l0.49,2.56l2.96-0.17L217.96,306.78z"/>
<path className="st5" d="M277.81,307.12c-2.08-1.07-1.17-0.86-3.3-0.07l0.49,2.55l2.96-0.17L277.81,307.12z"/>
</svg>
