<svg xmlns="http://www.w3.org/2000/svg" xmlns:xlink="http://www.w3.org/1999/xlink" width="1719" height="519" viewBox="0 0 1719 519">
  <defs>
    <clipPath id="clip-Web_1920_3">
      <rect width="1719" height="519"/>
    </clipPath>
  </defs>
  <g id="Web_1920_3" data-name="Web 1920 – 3" clip-path="url(#clip-Web_1920_3)">
    <g id="Layer_2" data-name="Layer 2" transform="translate(10 30.76)">
      <g id="Layer_1" data-name="Layer 1">
        <circle id="Ellipse_9" data-name="Ellipse 9" cx="228.24" cy="228.24" r="228.24" transform="translate(0 0)" fill="#fff"/>
        <circle id="Ellipse_10" data-name="Ellipse 10" cx="217.88" cy="217.88" r="217.88" transform="translate(10.36 10.36)" fill="#fdb416"/>
        <path id="Path_11" data-name="Path 11" d="M68.64,189.08c-9.82,7.15-16,17.36-13.63,30.77A31,31,0,0,0,62.45,235a21.91,21.91,0,0,0,6.26,5c2,1.21,5.84,2.52,7.17,3.62,13.43,1.28,25.25,1.24,34.21-13.38,4.93,0,26.27,4.86,33,6,1.32,14.88.39,20.73,6.54,35.75,6.52,15.92,13.12,20.15,16.21,26.09l-19.12,21.08c-6,6.85-13.86,14.68-18.81,21.42-10.73,0-14-3.17-24.52,2.33-22.55,11.79-20,42.56,0,53.09,16.4,8.65,32.73.24,39.65-10.65,8.37-13.16,3.09-34.22-7.74-39.58,1.5-4.31,14.65-17.06,18.13-21.34,5.86-7.21,12.2-13.14,18.18-20.38,4.09.85,35.35,33.71,86.32,16.11,14.85-5.13,17.09-9.75,24.62-13.45a117.9,117.9,0,0,1,10.72,12.59c-1.52,5.27-7.06,9.84-5.07,23.23a30.32,30.32,0,0,0,10.3,18c11.8,10,30.84,8.65,41.26-2.32,20.14-21.21,0-57.95-30-49.69-3.91,1.08-7.59,3.84-10.32,4.46-2.69-3-8.64-9.08-10.35-12,.79-1.61,5.15-6,6.73-7.86,6.52-7.54,12.35-19.24,15.33-29.17,2-6.81,4.07-18,3.77-25.85-.59-15.06-3.29-17.63-4.33-26.16l37.59-8.76c2.49,3.15,2.38,9.6,11.26,16.62,19.16,15.18,50,2,48.38-26.2-.86-15.26-14.4-27.92-30.7-27.57a30,30,0,0,0-20.34,8.66c-6.44,6.28-6.63,9.58-9.05,19.9l-40.42,9.52c-2-3.16-3.39-6.69-5.54-10a102.8,102.8,0,0,0-6.52-9,85.6,85.6,0,0,0-36.22-26c-9.7-3.68-15.83-3.48-25.83-5.74l-.05-40.95c8.36-2.36,13.81-4.79,18.63-10.27,16.08-18.32,4-49.37-22.26-49.72-35.78-.48-43.45,52.3-4.76,59.81v41.32c-24.5,2.09-40.34,10.62-54,23s-21.85,27.32-26.8,51.08L113.88,222c1.22-16.13-1.7-24-11.24-31.41C92.37,182.61,80.29,183,68.64,189.08ZM252.49,313c-15.38,6-36.4,4.39-51.23-1.33-28.62-11-48.54-38.37-49.43-69.26-.69-24,5.36-30.21,13-46,7.86-10.29,15.55-19.07,28.56-25.45,14.55-7.14,26.27-9.66,45.28-8.2,10.91,2.61,16.87,3.14,26.28,8.29,22.14,12.12,37.74,32.66,41,60.74C310.06,268.18,283.93,305.34,252.49,313Z" fill="#020202" fill-rule="evenodd"/>
        <path id="Path_12" data-name="Path 12" d="M171.08,203.8c4,1.59,11.44,2.37,16.07,3.13,2,3,23,53.83,23.24,56.67-6.83,6.52-19.55,10.49-6.5,21.19-2.18,1.84-4.29,2.35-4,6.3.23,3,2.44,5,5.65,5.21,8.14.48,8.05-9.25,4-10.66l52,.32c-9.63,14,17.68,14.37,8.18.11l5.85-.34h.47c2.37-7.19-5.39-5.45-11.91-5.56s-13.21-.3-19.8-.35H209.68c-12.52-.65,1.93-9.54,4.78-11.57,5-3.56,9.76-3,18.63-3.48,7.32-.36,35.12-1.56,40.23-3.14,2.92-1.77,6.21-35.48,5.31-36.52-1.83-2.11-69.68-2.76-78.06-3.35-2.91-4.12-6.23-18.06-9.66-19.83C189.47,201.22,163.58,194.92,171.08,203.8Zm41.62,22.93-.12,10-5.82-.1L203,226.5Zm52.93,1.6h8.88l-1.22,9-7.72-.08Zm-50.85-1.47,10.53.07-.05,10-10.61-.17Zm13,.26,10.27.45-.05,9.51-10.58-.3Zm12.42.36,10.53.36-.28,9.37-10.16-.05Zm12.91.31,9.87.31c1,2.59.74,6.29.22,9.25l-10.32-.14ZM212.62,239l-.13,9c-2-.86-1.91-2-2.8-4.12a15.28,15.28,0,0,1-1.62-5.14Zm53.13,0,7.39.14-1.56,9.36h-6Zm-50.9-.09,10.44.14-.09,9L214.64,248Zm12.71.09,10.39.13-.06,9L227.33,248Zm12.79,0h10.31v9.21l-10.63-.1Zm12.68,0,10.33.11v9.23l-10.59-.18Zm-36.21,21c-2.46-3.31-2.25-5.09-2.06-10l10.44.34v9.27Zm48.84-9.75h5.71l-.48,6.09-5.38.58Zm-12.68,0,10.37.14-.17,6.71-10.38.47Zm-12.77,0,10.43.1-.14,7.57-10.44.65Zm-12.8-.11,10.56.16v8.53l-10.68.61Zm-19.63,43.74c-2.75.12-2.87.27-4.82-1.32l-.54-3.85c3.55-1.83,4.53-2.51,7.2.39l.22,3Zm54.36.05c-1.61-8.23,5.2-7.95,6.88-5.5,1.35,2,1.05,5-1,5.95C266.36,295.14,263.45,294.27,262.14,293.93Z" fill="#0b0403" fill-rule="evenodd"/>
        <path id="Path_13" data-name="Path 13" d="M207.62,289.73c-2.07-1.07-1.17-.86-3.3-.07l.49,2.56,3-.17Z" fill="#230200" fill-rule="evenodd"/>
        <path id="Path_14" data-name="Path 14" d="M267.48,290.07c-2.08-1.07-1.17-.86-3.3-.07l.49,2.56,2.95-.17Z" fill="#230200" fill-rule="evenodd"/>
      </g>
    </g>
    <text id="Pricepally" transform="translate(498 357)" fill="#262626" font-size="280" font-family="Roboto-Regular, Roboto"><tspan x="0" y="0">Pricepally</tspan></text>
  </g>
</svg>
