<svg width="144" height="144" viewBox="0 0 144 144" fill="none" xmlns="http://www.w3.org/2000/svg">
<path d="M27.0841 65.3294C27.0841 65.3294 47.0234 64.5309 51.3323 31.7549C55.1588 2.64667 88.7817 15.8957 98.5008 27.4989C111.091 42.5299 104.38 68.3864 120.667 71.6529C136.954 74.9193 126.318 111.236 101.595 107.76C70.8408 103.436 78.2816 121.407 69.0493 129.013C62.4235 134.473 35.2552 129.218 34.3498 109.4C33.5878 92.7243 26.5535 92.7771 21.5676 90.8863C14.3767 88.1591 9.84571 68.4088 27.0841 65.3294Z" fill="#EFEFEF"/>
<path d="M94.8666 101.729L75.2769 82.3719L71.3978 86.2975L90.9876 105.655L94.8666 101.729Z" fill="#222222"/>
<path d="M102.35 106.93L87.1092 91.8704C87.0244 91.7866 86.8876 91.7874 86.8037 91.8723L81.0352 97.7101C80.9513 97.795 80.9521 97.9317 81.037 98.0156L96.2779 113.076C96.3628 113.159 96.4995 113.159 96.5834 113.074L102.352 107.236C102.436 107.151 102.435 107.014 102.35 106.93Z" fill="#FAB814"/>
<path d="M57.9143 92.1072C71.3915 92.1072 82.3169 81.1817 82.3169 67.7046C82.3169 54.2274 71.3915 43.302 57.9143 43.302C44.4371 43.302 33.5117 54.2274 33.5117 67.7046C33.5117 81.1817 44.4371 92.1072 57.9143 92.1072Z" fill="#FAB814"/>
<path d="M57.9145 88.1255C69.1926 88.1255 78.3354 78.9828 78.3354 67.7047C78.3354 56.4265 69.1926 47.2838 57.9145 47.2838C46.6364 47.2838 37.4937 56.4265 37.4937 67.7047C37.4937 78.9828 46.6364 88.1255 57.9145 88.1255Z" fill="#FBFBFB"/>
<path d="M99.1695 45.6444C93.4455 43.7891 87.2596 46.927 85.3967 52.6746C83.5414 58.3986 86.6793 64.5845 92.4269 66.4473C98.1745 68.3102 104.344 65.1415 106.2 59.4172C108.056 53.6929 104.894 47.4997 99.1695 45.6444ZM97.4424 50.9732C98.0831 51.1808 98.6477 51.5741 99.0645 52.1031C99.4814 52.6322 99.7318 53.2731 99.7839 53.9446C99.836 54.6161 99.6875 55.2879 99.3572 55.8749C99.0269 56.4619 98.5298 56.9376 97.9288 57.2416C97.3278 57.5456 96.65 57.6643 95.9815 57.5826C95.3129 57.5009 94.6837 57.2225 94.1736 56.7827C93.6635 56.3429 93.2956 55.7615 93.1164 55.1122C92.9372 54.463 92.9548 53.7752 93.1671 53.136C93.7403 51.3675 95.6736 50.4 97.4424 50.9732ZM93.1208 64.3065C91.2191 63.6933 89.5898 62.438 88.5118 60.7556C90.5289 59.6094 92.6381 59.2902 94.5462 59.9086C96.4544 60.5271 98.006 62.0071 98.9365 64.1344C97.0766 64.8646 95.0207 64.9255 93.1208 64.3065Z" fill="#B3751B"/>
<path d="M51.5272 97.8048C50.533 98.3123 49.7116 99.1033 49.1669 100.078C48.6221 101.052 48.3786 102.166 48.4669 103.279C48.5553 104.391 48.9717 105.453 49.6634 106.329C50.3551 107.205 51.2911 107.857 52.353 108.201C53.4149 108.545 54.555 108.566 55.6291 108.263C56.7032 107.959 57.6632 107.343 58.3875 106.494C59.1118 105.645 59.568 104.6 59.6984 103.491C59.8288 102.382 59.6276 101.26 59.1201 100.266C58.4383 98.9337 57.256 97.9265 55.8326 97.4652C54.4091 97.0038 52.8607 97.126 51.5272 97.8048ZM52.8418 100.38C53.1515 100.222 53.5011 100.16 53.8464 100.2C54.1916 100.241 54.5169 100.384 54.7811 100.61C55.0452 100.836 55.2362 101.135 55.3299 101.47C55.4236 101.805 55.4158 102.16 55.3074 102.491C55.199 102.821 54.9949 103.112 54.721 103.326C54.4471 103.54 54.1158 103.668 53.7691 103.694C53.4224 103.719 53.0758 103.641 52.7735 103.47C52.4711 103.298 52.2265 103.04 52.0708 102.73C51.8643 102.315 51.8295 101.836 51.9738 101.396C52.1181 100.957 52.43 100.591 52.8418 100.38V100.38ZM56.131 106.824C55.2131 107.294 54.1602 107.431 53.1527 107.21C53.4706 106.056 54.1239 105.169 55.0463 104.699C55.9687 104.228 57.075 104.202 58.191 104.639C57.7786 105.584 57.0503 106.356 56.131 106.824V106.824Z" fill="#B3751B"/>
</svg>
