<svg width="270" height="199" viewBox="0 0 270 199" fill="none" xmlns="http://www.w3.org/2000/svg">
<path d="M60.2427 54.722L10.0234 88.3154L59.4891 162.262L109.708 128.669L60.2427 54.722Z" fill="#F5F5F5"/>
<path d="M83.7573 125.171L83.1889 128.698L58.2227 125.099L58.7911 121.572L83.7573 125.171Z" fill="#E0E0E0"/>
<path d="M71.1855 112.589L74.7661 113.104L70.7961 137.685L67.2109 137.166L71.1855 112.589Z" fill="#E0E0E0"/>
<path d="M48.2092 81.3478C48.245 81.397 43.2142 84.83 36.9704 89.0015C30.7266 93.173 25.6376 96.5209 25.6018 96.4672C25.5659 96.4135 30.5968 92.985 36.8406 88.809C43.0844 84.6331 48.151 81.2941 48.2092 81.3478Z" fill="#E0E0E0"/>
<path d="M66.661 76.7113C66.6968 76.765 58.327 82.4225 47.97 89.3511C37.6129 96.2797 29.1715 101.852 29.1446 101.803C29.1177 101.754 37.4696 96.0872 47.8402 89.1586C58.2107 82.23 66.6252 76.6576 66.661 76.7113Z" fill="#E0E0E0"/>
<path d="M70.3603 82.2435C70.3961 82.2973 62.0262 87.9592 51.6692 94.8878C41.3121 101.816 32.8707 107.389 32.8438 107.335C32.817 107.281 41.1778 101.624 51.5394 94.6908C61.9009 87.7578 70.3245 82.1898 70.3603 82.2435Z" fill="#E0E0E0"/>
<path d="M74.0618 87.7797C74.0977 87.8334 65.7278 93.4953 55.3708 100.419C45.0137 107.344 36.5723 112.925 36.5723 112.871C36.5723 112.817 44.9018 107.156 55.2633 100.227C65.6249 93.2984 74.026 87.726 74.0618 87.7797Z" fill="#E0E0E0"/>
<path d="M77.7503 93.3168C77.7861 93.3705 69.4163 99.028 59.0592 105.957C48.7021 112.885 40.2607 118.458 40.2383 118.404C40.2159 118.35 48.5813 112.693 58.9518 105.764C69.3223 98.8355 77.7503 93.2631 77.7503 93.3168Z" fill="#E0E0E0"/>
<path d="M228.17 104.271L185.994 132.484L227.536 194.586L269.712 166.373L228.17 104.271Z" fill="#F5F5F5"/>
<path d="M247.921 163.448L247.442 166.411L226.473 163.39L226.956 160.427L247.921 163.448Z" fill="#E0E0E0"/>
<path d="M237.364 152.881L240.372 153.315L237.038 173.958L234.025 173.523L237.364 152.881Z" fill="#E0E0E0"/>
<path d="M218.05 126.666C218.086 126.72 213.865 129.607 208.619 133.111C203.374 136.616 199.095 139.418 199.059 139.377C199.023 139.337 203.248 136.441 208.489 132.932C213.731 129.423 218.014 126.59 218.05 126.666Z" fill="#E0E0E0"/>
<path d="M233.559 122.75C233.595 122.804 226.573 127.566 217.894 133.38C209.215 139.194 202.112 143.876 202.076 143.822C202.041 143.768 209.063 139.006 217.742 133.188C226.42 127.369 233.51 122.696 233.559 122.75Z" fill="#E0E0E0"/>
<path d="M236.671 127.396C236.706 127.45 229.684 132.212 221.005 138.03C212.327 143.849 205.223 148.522 205.188 148.468C205.152 148.414 212.152 143.674 220.853 137.856C229.554 132.037 236.644 127.347 236.671 127.396Z" fill="#E0E0E0"/>
<path d="M239.776 132.037C239.812 132.091 232.785 136.853 224.111 142.672C215.437 148.491 208.329 153.163 208.293 153.11C208.257 153.056 215.28 148.298 223.959 142.475C232.637 136.652 239.745 131.993 239.776 132.037Z" fill="#E0E0E0"/>
<path d="M242.909 136.697C242.945 136.75 235.922 141.508 227.244 147.327C218.565 153.145 211.462 157.818 211.426 157.769C211.39 157.72 218.413 152.953 227.091 147.134C235.77 141.316 242.851 136.643 242.909 136.697Z" fill="#E0E0E0"/>
<path d="M161.445 57.443L115.426 32.8296L79.1833 100.592L125.203 125.205L161.445 57.443Z" fill="#F5F5F5"/>
<path d="M117.326 104.005L114.408 105.003L106.996 84.5167L109.919 83.5142L117.326 104.005Z" fill="#E0E0E0"/>
<path d="M121.802 89.3062L122.867 92.2468L102.52 99.2156L101.455 96.275L121.802 89.3062Z" fill="#E0E0E0"/>
<path d="M136.26 59.081C136.224 59.1481 131.56 56.7222 125.836 53.6652C120.111 50.6083 115.505 48.0705 115.541 48.0033C115.577 47.9362 120.245 50.3621 125.97 53.4191C131.695 56.4761 136.296 59.0094 136.26 59.081Z" fill="#E0E0E0"/>
<path d="M147.304 71.2689C147.268 71.336 139.543 67.272 130.05 62.1964C120.557 57.1208 112.894 52.9493 112.93 52.8822C112.966 52.815 120.686 56.8746 130.18 61.9547C139.673 67.0348 147.34 71.2018 147.304 71.2689Z" fill="#E0E0E0"/>
<path d="M144.593 76.3402C144.557 76.4073 136.832 72.3477 127.339 67.2677C117.846 62.1876 110.183 58.0206 110.219 57.9535C110.255 57.8863 117.975 61.9504 127.469 67.026C136.962 72.1016 144.629 76.273 144.593 76.3402Z" fill="#E0E0E0"/>
<path d="M141.88 81.4108C141.845 81.4779 134.119 77.4183 124.626 72.3427C115.133 67.2671 107.47 63.1091 107.506 63.0285C107.542 62.948 115.263 67.021 124.756 72.0966C134.249 77.1722 141.916 81.3436 141.88 81.4108Z" fill="#E0E0E0"/>
<path d="M139.168 86.4822C139.132 86.5493 131.406 82.4898 121.913 77.4142C112.42 72.3386 104.753 68.1671 104.793 68.0999C104.833 68.0328 112.55 72.0924 122.043 77.168C131.536 82.2436 139.203 86.4151 139.168 86.4822Z" fill="#E0E0E0"/>
<path opacity="0.2" d="M139.405 0H138.25V19.6847H139.405V0Z" fill="black"/>
<path d="M111.871 43.5008H165.787C165.787 43.5008 160.81 19.6938 138.422 19.6938C118.509 19.6938 111.871 43.5008 111.871 43.5008Z" fill="#FFD226"/>
<path d="M139.407 0H138.252V19.6847H139.407V0Z" fill="#FFD226"/>
<path d="M258.875 196.861C258.875 196.923 201.024 196.977 129.675 196.977C58.3259 196.977 0.466797 196.937 0.466797 196.861C0.466797 196.784 58.308 196.744 129.675 196.744C201.042 196.744 258.875 196.793 258.875 196.861Z" fill="#263238"/>
<path d="M14.7712 168.828C15.5279 168.882 16.2659 169.089 16.941 169.435C17.6162 169.781 18.2148 170.259 18.701 170.842C19.6677 172.014 20.3522 173.392 20.7016 174.87C21.4581 177.699 20.9926 181.042 20.1869 183.858C17.1255 182.761 15.2322 179.494 14.3683 177.775C13.0256 175.063 12.2244 169.333 14.7577 168.823" fill="#FFD226"/>
<path d="M24.5971 187.29C24.1374 186.577 23.8745 185.756 23.8352 184.908C23.7959 184.061 23.9816 183.218 24.3734 182.465C24.7774 181.72 25.3259 181.063 25.9868 180.532C26.6477 180.001 27.4077 179.607 28.2226 179.373C28.97 179.14 29.8383 179.046 30.4873 179.48C30.7799 179.701 31.0077 179.997 31.1471 180.336C31.2864 180.676 31.3322 181.046 31.2796 181.409C31.1621 182.136 30.8531 182.819 30.3844 183.387C28.8939 185.406 27.0857 187.085 24.5658 187.29" fill="#FFD226"/>
<path d="M24.9371 196.748C24.8707 196.558 24.8242 196.361 24.7984 196.161C24.7178 195.741 24.6104 195.199 24.4806 194.55C24.0788 192.773 23.967 190.943 24.1494 189.13C24.3604 187.308 25.0542 185.576 26.159 184.113C26.4966 183.675 26.8858 183.28 27.3183 182.935C27.4358 182.842 27.5583 182.756 27.6853 182.676C27.7257 182.642 27.771 182.615 27.8196 182.595C27.2534 183.079 26.7362 183.617 26.2754 184.202C25.2288 185.667 24.5699 187.373 24.3597 189.161C24.0733 191.247 24.4269 193.158 24.6328 194.532C24.7402 195.217 24.8297 195.772 24.8789 196.157C24.9142 196.352 24.9337 196.55 24.9371 196.748Z" fill="#263238"/>
<path d="M15.7559 173.138C15.807 173.208 15.8491 173.285 15.8812 173.366C15.9617 173.545 16.0692 173.769 16.1945 174.051C16.4675 174.646 16.848 175.51 17.309 176.58C18.231 178.724 19.4663 181.704 20.7554 185.026C22.0444 188.347 23.141 191.377 23.8885 193.583C24.2734 194.684 24.5733 195.58 24.7836 196.202C24.8776 196.497 24.9492 196.734 25.0074 196.918C25.0394 197 25.0619 197.086 25.0745 197.173C25.0292 197.097 24.9931 197.016 24.9671 196.931C24.9 196.752 24.8149 196.519 24.7031 196.229L23.7586 193.633C22.9575 191.444 21.8385 188.418 20.554 185.102C19.2694 181.785 18.052 178.795 17.1657 176.638C16.7182 175.577 16.3735 174.713 16.1184 174.082C16.002 173.796 15.908 173.567 15.8364 173.384C15.8028 173.304 15.7759 173.222 15.7559 173.138Z" fill="#263238"/>
<path d="M21.2969 190.491C20.3759 188.957 19.1032 187.665 17.584 186.721C16.0647 185.777 14.3426 185.208 12.56 185.061C11.6649 184.999 10.5638 185.151 10.161 185.957C9.75816 186.762 10.2953 187.747 10.9129 188.4C12.2253 189.773 13.9147 190.727 15.7682 191.141C17.6217 191.555 19.5563 191.411 21.3282 190.728" fill="#FFD226"/>
<path d="M13.9395 187.488C14.1292 187.478 14.3195 187.486 14.5079 187.51C14.7286 187.522 14.9483 187.548 15.1658 187.586C15.421 187.636 15.7209 187.662 16.0342 187.752C16.3844 187.826 16.7297 187.922 17.0681 188.038C17.4601 188.164 17.8443 188.314 18.2184 188.486C19.0788 188.871 19.8927 189.353 20.6443 189.923C21.3872 190.505 22.06 191.172 22.6494 191.91C22.904 192.231 23.1386 192.567 23.3522 192.917C23.5451 193.219 23.7215 193.531 23.8803 193.852C24.0148 194.114 24.1343 194.383 24.2384 194.658C24.3281 194.862 24.4044 195.071 24.4666 195.285C24.5329 195.463 24.5824 195.648 24.6143 195.835C24.5651 195.835 24.3503 195.065 23.746 193.92C23.5815 193.612 23.4007 193.313 23.2044 193.024C22.9863 192.685 22.7503 192.358 22.4973 192.044C21.3266 190.598 19.8336 189.445 18.1378 188.678C17.7484 188.508 17.3769 188.347 17.0144 188.231C16.6815 188.11 16.3424 188.006 15.9984 187.922C14.7451 187.577 13.935 187.537 13.9395 187.488Z" fill="#263238"/>
<path d="M217.112 47.2112C215.796 47.5111 215.156 49.0284 215.031 50.3712C214.905 51.7139 215.075 53.1372 214.511 54.3636C213.876 55.7422 212.359 56.7627 212.309 58.28C212.278 59.2065 212.828 60.0703 212.802 61.0058C212.757 62.5276 211.208 63.6913 211.123 65.1951C211.065 66.2917 211.795 67.3391 211.62 68.4222C211.486 69.2637 210.828 69.9261 210.55 70.7318C210 72.3431 211.105 74.111 212.542 75.0151C213.347 75.5212 214.253 75.8454 215.196 75.9651C216.139 76.0847 217.097 75.997 218.003 75.708C218.909 75.419 219.74 74.9357 220.44 74.2919C221.14 73.6481 221.69 72.8592 222.053 71.9805C222.85 70.047 222.675 67.8672 222.501 65.786C221.964 59.293 221.564 52.7911 221.301 46.2803" fill="#263238"/>
<path d="M213.289 70.1176C213.56 69.9493 213.771 69.7005 213.893 69.406C214.022 69.0557 214.074 68.6816 214.045 68.3094C213.996 67.8159 213.887 67.3303 213.719 66.8637C213.505 66.2771 213.425 65.65 213.486 65.0286C213.598 64.3304 214.099 63.7575 214.551 63.1935C214.795 62.9175 214.998 62.6086 215.155 62.276C215.313 61.9395 215.339 61.5561 215.227 61.2018C214.994 60.4722 214.278 59.9351 213.951 59.0892C213.798 58.6704 213.773 58.2153 213.88 57.7822C213.981 57.3762 214.132 56.9839 214.327 56.614C214.705 55.9478 215.006 55.2405 215.223 54.5059C215.536 53.0871 215.388 51.7309 215.603 50.6164C215.722 49.7238 216.118 48.891 216.735 48.2353C216.91 48.0586 217.109 47.9079 217.326 47.7877C217.401 47.7487 217.481 47.72 217.563 47.7026C217.283 47.8571 217.025 48.0499 216.798 48.2755C216.226 48.9379 215.866 49.7564 215.764 50.6254C215.686 51.219 215.644 51.8169 215.639 52.4157C215.637 53.1204 215.569 53.8233 215.433 54.5149C215.219 55.2663 214.919 55.9903 214.538 56.6722C214.202 57.3749 213.893 58.1985 214.189 58.9683C214.484 59.7382 215.196 60.2708 215.469 61.0943C215.592 61.5012 215.562 61.9391 215.384 62.3252C215.209 62.6913 214.983 63.0304 214.712 63.3322C214.265 63.8962 213.777 64.4333 213.669 65.0599C213.607 65.6543 213.677 66.2551 213.875 66.8189C214.035 67.3 214.134 67.7992 214.171 68.3049C214.193 68.6944 214.124 69.0836 213.969 69.4418C213.873 69.6663 213.719 69.861 213.522 70.0057C213.452 70.057 213.373 70.0949 213.289 70.1176Z" fill="#455A64"/>
<path d="M209.79 80.7305L205.761 92.3676L188.914 93.2628L186.104 99.529L203.694 101.319C204.525 101.66 205.416 101.83 206.314 101.817C207.213 101.804 208.099 101.608 208.92 101.243C209.741 100.878 210.479 100.35 211.09 99.6917C211.701 99.0332 212.172 98.2577 212.475 97.4119L217.17 84.3067L209.79 80.7305Z" fill="#B78876"/>
<path d="M244.615 190.536C244.615 190.536 232.27 151.319 232.006 150.048C231.769 148.893 236.482 120.673 237.082 113.346L220.4 113.968V114.133L213.311 114.527L219.657 194.698H227.333L226.572 168.09C231.308 180.797 238.093 193.75 238.093 193.75L244.615 190.536Z" fill="#B78876"/>
<path d="M226.887 177.637C226.887 177.395 226.793 168.721 226.793 168.721C226.699 169.24 223.852 161.192 223.919 160.704C223.955 160.449 226.887 177.637 226.887 177.637Z" fill="#A36957"/>
<path d="M223.597 156.892C223.558 157.051 223.541 157.215 223.548 157.379C223.523 157.827 223.523 158.275 223.548 158.722C223.548 159.004 223.588 159.309 223.624 159.64C223.66 159.971 223.709 160.32 223.785 160.683C223.944 161.474 224.155 162.255 224.416 163.019C224.971 164.644 225.589 166.063 226.023 167.092C226.229 167.54 226.408 167.965 226.56 168.305C226.615 168.463 226.69 168.614 226.784 168.753C226.76 168.598 226.715 168.447 226.65 168.305C226.547 168.01 226.39 167.584 226.202 167.061C225.808 166.013 225.217 164.581 224.667 162.974C224.406 162.221 224.193 161.453 224.027 160.674C223.946 160.316 223.893 159.971 223.843 159.649C223.794 159.326 223.758 159.022 223.736 158.754C223.682 158.199 223.66 157.751 223.646 157.438C223.655 157.254 223.638 157.071 223.597 156.892Z" fill="#A36957"/>
<path d="M219.514 195.106V194.386L227.378 194.041L227.4 197.017L226.917 197.049C224.755 197.174 215.929 197.541 214.488 197.107C212.872 196.624 219.514 195.106 219.514 195.106Z" fill="#455A64"/>
<path d="M227.506 196.838C227.461 196.841 227.416 196.841 227.372 196.838L226.987 196.865L225.563 196.928C224.364 196.977 222.703 197.022 220.873 197.031C219.042 197.04 217.377 197.008 216.173 196.973L214.754 196.914H214.365H214.23C214.275 196.911 214.32 196.911 214.365 196.914H214.754L216.177 196.941C217.377 196.941 219.038 196.977 220.868 196.968C222.699 196.959 224.364 196.928 225.563 196.897L226.987 196.861H227.506V196.838Z" fill="#263238"/>
<path d="M216.95 197.089C216.884 196.855 216.794 196.628 216.681 196.413C216.54 196.215 216.376 196.033 216.193 195.872C216.438 195.959 216.64 196.135 216.762 196.364C216.91 196.575 216.977 196.833 216.95 197.089Z" fill="#263238"/>
<path d="M219.269 195.912C219.269 195.912 219.14 195.791 219.023 195.612C218.907 195.433 218.835 195.277 218.858 195.263C218.88 195.25 218.987 195.38 219.104 195.559C219.22 195.738 219.292 195.899 219.269 195.912Z" fill="#263238"/>
<path d="M219.905 195.593C219.905 195.616 219.761 195.531 219.627 195.41C219.493 195.289 219.394 195.177 219.412 195.159C219.43 195.141 219.555 195.222 219.69 195.343C219.824 195.464 219.922 195.553 219.905 195.593Z" fill="#263238"/>
<path d="M220.302 194.833C220.17 194.881 220.029 194.9 219.89 194.887C219.753 194.905 219.613 194.891 219.482 194.847C219.612 194.799 219.752 194.78 219.89 194.793C220.028 194.774 220.169 194.788 220.302 194.833Z" fill="#263238"/>
<path d="M220.438 194.314C220.305 194.4 220.15 194.447 219.991 194.448C219.838 194.468 219.684 194.447 219.543 194.385C219.691 194.361 219.841 194.349 219.991 194.35C220.138 194.323 220.288 194.311 220.438 194.314Z" fill="#263238"/>
<path d="M219.005 195.227C218.837 195.258 218.666 195.258 218.499 195.227C218.318 195.205 218.14 195.166 217.966 195.111C217.859 195.081 217.755 195.039 217.657 194.985C217.598 194.95 217.553 194.894 217.532 194.829C217.524 194.791 217.527 194.752 217.54 194.717C217.554 194.681 217.577 194.65 217.608 194.627C217.732 194.567 217.868 194.535 218.005 194.534C218.143 194.533 218.279 194.562 218.405 194.62C218.53 194.678 218.64 194.763 218.728 194.868C218.817 194.974 218.88 195.098 218.915 195.232C218.924 195.276 218.924 195.321 218.915 195.366C218.864 195.204 218.786 195.053 218.682 194.918C218.563 194.784 218.408 194.688 218.235 194.641C218.037 194.577 217.821 194.593 217.635 194.685C217.559 194.744 217.59 194.838 217.675 194.891C217.767 194.941 217.863 194.981 217.962 195.012C218.13 195.068 218.302 195.111 218.476 195.142C218.812 195.214 219.005 195.214 219.005 195.227Z" fill="#263238"/>
<path d="M218.875 195.254C218.81 195.15 218.788 195.025 218.813 194.905C218.829 194.773 218.877 194.647 218.951 194.538C218.993 194.463 219.054 194.4 219.126 194.355C219.199 194.309 219.282 194.283 219.368 194.278C219.418 194.29 219.463 194.321 219.492 194.364C219.521 194.407 219.533 194.46 219.524 194.511C219.513 194.591 219.484 194.668 219.439 194.735C219.371 194.846 219.292 194.949 219.202 195.044C219.124 195.133 219.026 195.202 218.916 195.245C218.916 195.245 219.014 195.156 219.153 194.994C219.233 194.902 219.304 194.802 219.363 194.695C219.43 194.587 219.48 194.395 219.363 194.372C219.247 194.35 219.113 194.489 219.037 194.587C218.965 194.684 218.916 194.796 218.893 194.914C218.875 195.026 218.869 195.14 218.875 195.254Z" fill="#263238"/>
<path d="M227.338 194.699C227.338 194.699 227.115 194.699 226.761 194.721C226.301 194.776 225.865 194.959 225.503 195.25C225.142 195.54 224.869 195.926 224.716 196.364C224.599 196.699 224.59 196.928 224.572 196.923C224.555 196.919 224.572 196.865 224.572 196.767C224.584 196.622 224.611 196.48 224.653 196.341C224.795 195.883 225.069 195.477 225.441 195.173C225.817 194.875 226.274 194.696 226.752 194.658C226.901 194.641 227.051 194.641 227.2 194.658C227.248 194.666 227.294 194.679 227.338 194.699Z" fill="#263238"/>
<path d="M223.574 196.211C223.199 196.299 222.814 196.336 222.428 196.323C222.045 196.342 221.661 196.309 221.287 196.225C221.287 196.198 221.797 196.225 222.428 196.225C223.06 196.225 223.57 196.185 223.574 196.211Z" fill="#263238"/>
<path d="M225.105 196.198C225.105 196.198 225.064 196.305 225.011 196.422C224.957 196.538 224.93 196.646 224.903 196.641C224.876 196.637 224.863 196.52 224.926 196.382C224.988 196.243 225.087 196.176 225.105 196.198Z" fill="#263238"/>
<path d="M225.683 195.478C225.683 195.478 225.652 195.576 225.571 195.657C225.491 195.737 225.41 195.791 225.388 195.773C225.366 195.755 225.419 195.674 225.5 195.589C225.58 195.504 225.661 195.455 225.683 195.478Z" fill="#263238"/>
<path d="M226.506 195.146C226.506 195.173 226.398 195.173 226.282 195.214C226.166 195.254 226.085 195.317 226.063 195.299C226.04 195.281 226.108 195.173 226.251 195.124C226.394 195.075 226.515 195.12 226.506 195.146Z" fill="#263238"/>
<path d="M227.091 194.985C227.091 195.012 227.06 195.052 226.993 195.075C226.926 195.097 226.868 195.101 226.859 195.075C226.85 195.048 226.894 195.007 226.957 194.985C227.02 194.963 227.082 194.963 227.091 194.985Z" fill="#263238"/>
<path d="M237.939 194.412L237.643 193.754L244.675 190.223L245.915 192.908L245.467 193.136C243.547 194.135 235.647 198.082 234.152 198.279C232.501 198.516 237.939 194.412 237.939 194.412Z" fill="#455A64"/>
<path d="M245.941 192.716L245.824 192.787L245.48 192.966L244.209 193.611C243.134 194.144 241.64 194.864 239.97 195.625C238.301 196.386 236.77 197.035 235.66 197.496L234.339 198.029L233.981 198.167C233.94 198.187 233.896 198.2 233.852 198.208L233.972 198.149L234.326 197.993L235.633 197.433C236.738 196.959 238.26 196.296 239.93 195.536C241.599 194.775 243.099 194.068 244.182 193.548L245.462 192.935L245.815 192.77L245.941 192.716Z" fill="#263238"/>
<path d="M236.429 197.268C236.274 197.079 236.098 196.908 235.905 196.757C235.695 196.633 235.471 196.534 235.238 196.462C235.495 196.459 235.747 196.534 235.96 196.678C236.173 196.822 236.337 197.028 236.429 197.268Z" fill="#263238"/>
<path d="M238.046 195.244C238.046 195.244 237.876 195.191 237.697 195.074C237.518 194.958 237.388 194.846 237.401 194.824C237.415 194.801 237.571 194.877 237.75 194.994C237.929 195.11 238.059 195.222 238.046 195.244Z" fill="#263238"/>
<path d="M238.484 194.698C238.484 194.721 238.332 194.698 238.157 194.645C237.983 194.591 237.853 194.524 237.858 194.497C237.971 194.486 238.085 194.505 238.189 194.551C238.359 194.591 238.493 194.654 238.484 194.698Z" fill="#263238"/>
<path d="M238.548 193.839C238.548 193.866 238.4 193.96 238.194 194.059C238.075 194.13 237.942 194.174 237.805 194.188C237.805 194.162 237.952 194.068 238.154 193.969C238.274 193.898 238.409 193.854 238.548 193.839Z" fill="#263238"/>
<path d="M238.457 193.312C238.457 193.312 238.327 193.491 238.094 193.621C237.962 193.71 237.806 193.757 237.646 193.755C237.775 193.669 237.911 193.595 238.054 193.535C238.273 193.415 238.434 193.289 238.457 193.312Z" fill="#263238"/>
<path d="M237.539 194.734C237.402 194.828 237.251 194.898 237.091 194.94C236.915 194.991 236.735 195.029 236.554 195.052C236.444 195.066 236.333 195.066 236.223 195.052C236.154 195.047 236.089 195.015 236.044 194.963C236.023 194.931 236.012 194.893 236.012 194.855C236.012 194.817 236.023 194.78 236.044 194.748C236.18 194.583 236.369 194.47 236.579 194.43C236.788 194.389 237.006 194.422 237.194 194.524C237.305 194.582 237.403 194.663 237.48 194.761C237.534 194.833 237.556 194.878 237.552 194.882C237.442 194.759 237.31 194.657 237.163 194.582C237.005 194.508 236.829 194.482 236.657 194.506C236.554 194.517 236.455 194.547 236.364 194.597C236.274 194.646 236.193 194.712 236.129 194.792C236.079 194.878 236.129 194.949 236.249 194.963C236.352 194.971 236.456 194.971 236.558 194.963C236.736 194.945 236.913 194.913 237.086 194.869C237.342 194.797 237.539 194.721 237.539 194.734Z" fill="#263238"/>
<path d="M237.415 194.811C237.315 194.74 237.245 194.635 237.218 194.515C237.179 194.389 237.169 194.256 237.191 194.126C237.199 194.04 237.228 193.957 237.277 193.886C237.326 193.815 237.392 193.757 237.469 193.719C237.581 193.683 237.84 193.911 237.858 193.996C237.876 194.081 237.728 194.036 237.719 194.108C237.705 194.235 237.675 194.36 237.63 194.48C237.597 194.595 237.536 194.699 237.451 194.784C237.451 194.784 237.504 194.663 237.567 194.462C237.599 194.343 237.622 194.222 237.634 194.099C237.634 193.974 237.634 193.781 237.491 193.813C237.348 193.844 237.308 194.019 237.276 194.144C237.249 194.26 237.249 194.381 237.276 194.497C237.313 194.606 237.36 194.711 237.415 194.811Z" fill="#263238"/>
<path d="M244.911 190.832C244.911 190.832 244.696 190.908 244.392 191.091C243.994 191.329 243.67 191.673 243.457 192.085C243.25 192.5 243.161 192.965 243.202 193.428C243.228 193.786 243.313 193.991 243.296 194C243.267 193.956 243.244 193.908 243.228 193.857C243.184 193.72 243.153 193.579 243.134 193.436C243.07 192.96 243.153 192.475 243.371 192.046C243.589 191.618 243.933 191.266 244.356 191.037C244.483 190.967 244.616 190.91 244.755 190.867C244.805 190.848 244.858 190.836 244.911 190.832Z" fill="#263238"/>
<path d="M242.095 193.759C241.464 194.198 240.759 194.519 240.014 194.708C240.014 194.681 240.484 194.502 241.057 194.26C241.629 194.019 242.081 193.737 242.095 193.759Z" fill="#263238"/>
<path d="M243.488 193.119C243.51 193.119 243.488 193.231 243.488 193.361C243.488 193.49 243.488 193.598 243.488 193.607C243.488 193.616 243.398 193.508 243.398 193.361C243.398 193.213 243.466 193.105 243.488 193.119Z" fill="#263238"/>
<path d="M243.717 192.223C243.739 192.223 243.717 192.326 243.69 192.434C243.663 192.541 243.596 192.622 243.574 192.613C243.551 192.604 243.574 192.51 243.6 192.402C243.627 192.295 243.69 192.214 243.717 192.223Z" fill="#263238"/>
<path d="M244.332 191.566C244.332 191.592 244.243 191.633 244.153 191.718C244.064 191.803 244.015 191.892 243.992 191.883C243.97 191.874 243.992 191.749 244.091 191.646C244.189 191.543 244.328 191.566 244.332 191.566Z" fill="#263238"/>
<path d="M244.804 191.199C244.804 191.199 244.804 191.271 244.751 191.32C244.697 191.369 244.648 191.396 244.63 191.378C244.612 191.36 244.63 191.306 244.683 191.257C244.737 191.208 244.786 191.181 244.804 191.199Z" fill="#263238"/>
<path d="M236.001 100.097L234.694 84.1186L241.408 84.2395C241.408 84.2395 241.717 81.8807 240.728 76.7156C240.119 73.5467 238.011 71.6042 235.643 70.4494V70.4047L235.437 70.351C233.488 69.4759 231.407 68.9328 229.278 68.7441L221.021 68.8381C221.021 68.8381 214.714 68.0325 211.236 72.5486C209.894 74.2807 205.727 86.1372 205.727 86.1372L215.641 90.9085L214.714 84.3335C214.714 84.3335 214.902 89.1002 215.511 90.5996C215.846 91.4411 216.854 94.055 216.854 94.055L216.724 101.941L236.001 100.097Z" fill="#FFD226"/>
<path d="M231.447 81.8006L230.221 87.0194H241.782L241.021 78.2646L231.447 81.8006Z" fill="#FFD226"/>
<path d="M241.782 87.0192C241.277 86.9261 240.765 86.8752 240.251 86.867C239.302 86.8133 238.013 86.7641 236.545 86.773C235.077 86.782 233.784 86.8446 232.835 86.9163C232.322 86.9341 231.811 86.997 231.309 87.1042C231.821 87.1451 232.336 87.1451 232.848 87.1042C233.793 87.0729 235.086 87.0371 236.545 87.0326C238.004 87.0282 239.298 87.0326 240.247 87.055C240.759 87.0837 241.272 87.0717 241.782 87.0192Z" fill="#263238"/>
<path d="M230.945 78.2241C230.89 78.6695 230.878 79.1192 230.91 79.5669C230.91 80.3859 230.945 81.5139 230.995 82.7626C231.044 84.0114 231.102 85.1438 231.156 85.9584C231.158 86.4096 231.206 86.8595 231.299 87.3011C231.354 86.8557 231.366 86.4061 231.335 85.9584C231.335 85.1393 231.299 84.0069 231.25 82.7581C231.201 81.5094 231.142 80.3815 231.089 79.5624C231.087 79.1126 231.039 78.6641 230.945 78.2241Z" fill="#263238"/>
<g opacity="0.3">
<path opacity="0.3" d="M220.428 82.7446C220.428 82.7446 222.997 101.798 230.221 101.292C230.221 101.292 233.475 101.257 234.518 99.0948V98.2444L220.428 82.7446Z" fill="black"/>
</g>
<g opacity="0.3">
<path opacity="0.3" d="M230.946 79.3477L229.562 88.6887L230.458 90.3269L231.935 87.1222L231.308 87.1043L230.946 79.3477Z" fill="black"/>
</g>
<path d="M216.812 94.0638C216.726 93.9244 216.66 93.7738 216.615 93.6163C216.503 93.3253 216.355 92.9001 216.167 92.3675C215.719 90.9797 215.35 89.5675 215.062 88.1378C214.775 86.7073 214.592 85.2578 214.516 83.8008C214.489 83.2413 214.48 82.7892 214.489 82.458C214.477 82.2962 214.488 82.1336 214.52 81.9746C214.556 81.9746 214.583 82.6639 214.677 83.7649C214.803 85.2088 215.008 86.6447 215.29 88.0662C215.621 89.7312 216.02 91.2217 216.324 92.2914C216.467 92.7882 216.588 93.2134 216.687 93.5625C216.748 93.7241 216.79 93.8924 216.812 94.0638Z" fill="#263238"/>
<path d="M219.729 99.5381C219.666 99.5381 219.487 99.1487 219.331 98.6429C219.196 98.333 219.136 97.9956 219.156 97.6582C219.354 97.9317 219.49 98.2447 219.554 98.5758C219.683 98.8797 219.743 99.2083 219.729 99.5381Z" fill="#263238"/>
<path d="M220.726 99.4663C220.387 98.5684 220.373 97.5806 220.685 96.6733C220.72 97.1382 220.72 97.605 220.685 98.0698C220.734 98.5336 220.748 99.0004 220.726 99.4663Z" fill="#263238"/>
<path d="M215.841 91.1275C215.81 91.1812 213.505 90.0891 210.69 88.6837C207.874 87.2783 205.614 86.0877 205.641 86.0296C205.668 85.9714 207.977 87.0679 210.793 88.4734C213.608 89.8788 215.868 91.0693 215.841 91.1275Z" fill="#263238"/>
<path d="M219.905 70.382C219.955 68.1172 219.968 65.736 219.968 65.736C219.968 65.736 217.063 65.1766 216.558 61.3542C216.074 57.7109 217.426 49.1576 217.426 49.1576C221.669 47.5552 226.078 49.0099 228.982 52.4473L228.262 70.8295C228.177 72.9645 226.275 74.5937 223.992 74.4863C221.682 74.3744 219.856 72.5393 219.905 70.382Z" fill="#B78876"/>
<path d="M217.201 55.9921C217.197 56.1176 217.242 56.2398 217.325 56.3338C217.408 56.4279 217.524 56.4865 217.649 56.4979C217.713 56.504 217.777 56.4972 217.837 56.4777C217.898 56.4582 217.954 56.4266 218.003 56.3847C218.051 56.3429 218.09 56.2916 218.118 56.2341C218.145 56.1766 218.161 56.1141 218.164 56.0503C218.168 55.9253 218.123 55.8036 218.04 55.7103C217.957 55.617 217.841 55.5593 217.716 55.549C217.652 55.5393 217.587 55.5436 217.525 55.5614C217.463 55.5792 217.406 55.6102 217.357 55.6523C217.308 55.6944 217.269 55.7466 217.242 55.8052C217.215 55.8639 217.201 55.9276 217.201 55.9921Z" fill="#263238"/>
<path d="M217.022 55.3525C217.08 55.4152 217.469 55.1511 217.984 55.169C218.499 55.1869 218.879 55.4555 218.942 55.3928C219.005 55.3302 218.915 55.2496 218.749 55.1198C218.525 54.9574 218.256 54.8683 217.98 54.8647C217.707 54.8543 217.438 54.9328 217.214 55.0885C217.049 55.2093 216.99 55.3212 217.022 55.3525Z" fill="#263238"/>
<path d="M222.532 56.3241C222.527 56.4499 222.57 56.5727 222.654 56.667C222.737 56.7613 222.854 56.8196 222.979 56.8299C223.043 56.8397 223.109 56.8353 223.171 56.8172C223.234 56.7991 223.291 56.7677 223.34 56.7252C223.389 56.6826 223.428 56.6299 223.455 56.5707C223.481 56.5115 223.495 56.4472 223.494 56.3823C223.499 56.257 223.455 56.1347 223.372 56.0412C223.288 55.9477 223.171 55.8902 223.046 55.881C222.983 55.8714 222.917 55.8756 222.856 55.8934C222.794 55.9113 222.736 55.9423 222.687 55.9844C222.638 56.0264 222.599 56.0786 222.572 56.1372C222.545 56.1959 222.532 56.2596 222.532 56.3241Z" fill="#263238"/>
<path d="M222.497 55.6838C222.555 55.7509 222.944 55.4868 223.459 55.5003C223.974 55.5137 224.354 55.7867 224.421 55.724C224.488 55.6614 224.39 55.5808 224.224 55.4555C224.004 55.2889 223.735 55.1978 223.459 55.1959C223.185 55.1877 222.916 55.266 222.689 55.4197C222.528 55.5405 222.47 55.6524 222.497 55.6838Z" fill="#263238"/>
<path d="M220.491 59.5286C220.217 59.4341 219.931 59.3754 219.641 59.354C219.507 59.354 219.381 59.3048 219.363 59.2153C219.353 59.0754 219.387 58.9357 219.462 58.8169L219.883 57.8099C220.274 56.9539 220.596 56.0678 220.845 55.1602C220.387 55.9826 219.994 56.8402 219.672 57.7248C219.533 58.0784 219.395 58.4186 219.265 58.7408C219.178 58.9007 219.15 59.0859 219.184 59.2645C219.202 59.313 219.23 59.3568 219.268 59.3925C219.305 59.4283 219.35 59.4549 219.399 59.4704C219.473 59.4919 219.55 59.5039 219.627 59.5062C219.913 59.5502 220.204 59.5577 220.491 59.5286Z" fill="#263238"/>
<path d="M219.967 65.7367C221.757 65.8084 223.533 65.3823 225.096 64.5059C225.096 64.5059 223.794 67.0884 219.994 66.6364L219.967 65.7367Z" fill="#A36957"/>
<path d="M224.179 54.1576C224.072 54.3232 223.669 54.2516 223.222 54.1576C222.774 54.0636 222.38 53.9875 222.326 53.795C222.273 53.6026 222.743 53.3474 223.342 53.4683C223.942 53.5891 224.287 54.0143 224.179 54.1576Z" fill="#263238"/>
<path d="M218.954 53.3971C218.914 53.5896 218.484 53.6612 217.992 53.6836C217.5 53.706 217.066 53.6836 217.007 53.4867C216.949 53.2897 217.365 53.0122 217.961 52.9854C218.556 52.9585 218.995 53.2136 218.954 53.3971Z" fill="#263238"/>
<path d="M220.499 60.7865C220.442 60.7731 220.383 60.7791 220.33 60.8034C220.277 60.8278 220.234 60.8691 220.208 60.9208C220.182 60.9665 220.169 61.018 220.17 61.0702C220.171 61.1225 220.185 61.1737 220.211 61.2188C220.238 61.2639 220.275 61.3013 220.321 61.3272C220.366 61.3532 220.418 61.3669 220.47 61.3669C220.522 61.3669 220.573 61.3532 220.619 61.3272C220.664 61.3013 220.702 61.2639 220.728 61.2188C220.755 61.1737 220.769 61.1225 220.77 61.0702C220.77 61.018 220.757 60.9665 220.732 60.9208C220.7 60.8607 220.648 60.8133 220.585 60.7865C220.523 60.7596 220.453 60.7549 220.387 60.7731" fill="#A36957"/>
<path d="M220.62 60.8401C220.62 60.8177 220.535 60.6879 220.307 60.7371C220.239 60.7549 220.176 60.7904 220.126 60.8398C220.076 60.8893 220.039 60.9511 220.021 61.0191C219.996 61.1048 219.999 61.1957 220.026 61.2802C220.054 61.3647 220.107 61.439 220.177 61.4936C220.252 61.5445 220.34 61.5718 220.43 61.5718C220.52 61.5718 220.608 61.5445 220.683 61.4936C220.742 61.4535 220.789 61.3972 220.818 61.3313C220.846 61.2655 220.855 61.1929 220.844 61.1221C220.799 60.8848 220.625 60.849 220.616 60.8804C220.607 60.9117 220.678 60.9923 220.665 61.131C220.662 61.1653 220.651 61.1983 220.632 61.2272C220.613 61.2561 220.588 61.2799 220.558 61.2966C220.523 61.3166 220.484 61.3272 220.443 61.3272C220.403 61.3272 220.364 61.3166 220.329 61.2966C220.298 61.2701 220.274 61.236 220.26 61.1976C220.246 61.1591 220.242 61.1177 220.249 61.0773C220.254 61.0419 220.268 61.0084 220.289 60.9795C220.31 60.9506 220.338 60.9274 220.37 60.9117C220.495 60.8356 220.607 60.8714 220.62 60.8401Z" fill="#263238"/>
<path d="M227.246 56.9369C226.798 57.9842 225.688 58.7944 225.84 59.9268C225.939 60.6563 226.409 61.3366 226.319 62.0707C226.203 62.9658 225.249 63.6283 225.111 64.5458C224.945 65.6693 226.042 66.542 226.476 67.5894C227.116 69.1201 226.301 70.8388 226.279 72.5128C226.305 73.7837 226.791 75.002 227.647 75.9418C228.503 76.8817 229.671 77.4794 230.934 77.6242C231.954 77.7092 233.104 77.4004 233.619 76.5232C234.067 75.7981 233.968 74.876 234.228 74.0749C234.622 72.8753 235.763 71.9981 236.018 70.7628C236.466 68.5248 233.736 66.645 233.915 64.3534C233.991 63.3732 234.595 62.5227 234.85 61.5739C235.012 60.9503 235.025 60.2971 234.887 59.6677C234.748 59.0384 234.463 58.4507 234.053 57.9529C233.378 57.1517 232.402 56.6102 231.815 55.7508C231.166 54.7616 231.144 53.5129 230.92 52.3447C230.62 50.9248 229.964 49.6042 229.015 48.5065C228.065 47.4087 226.853 46.5696 225.491 46.0676C224.129 45.5655 222.663 45.4169 221.228 45.6357C219.793 45.8544 218.437 46.4333 217.287 47.3183C217.287 47.3183 216.638 50.2679 219.668 50.7647C222.698 51.2615 224.099 50.6886 224.439 51.9016C224.359 52.4013 224.398 52.9128 224.554 53.3944C224.71 53.8759 224.977 54.3138 225.334 54.6721C226.57 56.0059 227.747 55.7195 227.246 56.9369Z" fill="#263238"/>
<path d="M232.056 77.3964C231.963 77.3996 231.87 77.3906 231.779 77.3695C231.516 77.323 231.259 77.2526 231.009 77.1592C230.085 76.8048 229.274 76.2062 228.664 75.427C228.236 74.8894 227.9 74.2844 227.67 73.6367C227.409 72.899 227.271 72.1232 227.263 71.3406C227.254 70.478 227.362 69.6182 227.585 68.7849C227.707 68.3448 227.857 67.9128 228.033 67.4914C228.217 67.0719 228.38 66.6432 228.521 66.2068C228.644 65.7768 228.644 65.3209 228.521 64.8909C228.39 64.4676 228.22 64.0571 228.015 63.6645C227.807 63.2752 227.632 62.8696 227.491 62.4516C227.353 62.0379 227.321 61.5964 227.397 61.167C227.576 60.3256 228.086 59.699 228.391 59.0589C228.681 58.4664 228.819 57.8113 228.794 57.1522C228.753 56.1877 228.403 55.2618 227.795 54.5115C227.56 54.2486 227.307 54.0019 227.039 53.7729C227.353 53.9493 227.633 54.1796 227.867 54.4533C228.519 55.2025 228.903 56.1472 228.959 57.1388C228.996 57.8266 228.861 58.5128 228.565 59.135C228.257 59.7974 227.76 60.4285 227.608 61.1984C227.455 61.9682 227.818 62.7783 228.216 63.5571C228.433 63.9609 228.61 64.3852 228.744 64.8238C228.877 65.2921 228.877 65.7878 228.744 66.256C228.595 66.7076 228.424 67.1513 228.23 67.5854C228.054 67.9976 227.904 68.4207 227.782 68.852C227.56 69.6642 227.45 70.503 227.455 71.3451C227.441 72.7791 227.904 74.1771 228.771 75.3196C229.351 76.089 230.123 76.6925 231.009 77.0697C231.676 77.3293 232.061 77.3695 232.056 77.3964Z" fill="#455A64"/>
<path d="M231.609 54.811C231.391 54.8675 231.167 54.9005 230.942 54.9094C230.328 54.9751 229.708 54.9586 229.098 54.8602C228.636 54.7918 228.192 54.6318 227.792 54.3897C227.393 54.1476 227.045 53.8283 226.771 53.4503C226.515 52.9722 226.311 52.468 226.162 51.9464C225.971 51.4255 225.612 50.983 225.141 50.6887C224.161 50.0666 223.011 49.9905 222.008 49.8697C221.083 49.8236 220.186 49.5433 219.399 49.0551C218.872 48.7059 218.491 48.1756 218.329 47.5646C218.29 47.399 218.279 47.228 218.298 47.0588C218.298 46.9425 218.325 46.8843 218.334 46.8843C218.339 47.106 218.367 47.3265 218.419 47.5422C218.604 48.1135 218.984 48.6015 219.493 48.9208C220.265 49.3714 221.137 49.6236 222.031 49.6548C223.033 49.7712 224.224 49.8294 225.271 50.4918C225.784 50.8137 226.174 51.2972 226.381 51.8659C226.521 52.3742 226.715 52.8663 226.959 53.334C227.48 54.0491 228.261 54.5312 229.134 54.6767C229.724 54.7864 230.325 54.827 230.924 54.7976C231.152 54.7847 231.381 54.7892 231.609 54.811Z" fill="#455A64"/>
<path d="M230.5 51.1675C230.331 51.2239 230.154 51.2496 229.976 51.2436C229.142 51.2492 228.338 50.9279 227.738 50.3484C227.464 50.0738 227.231 49.7619 227.044 49.4219C226.641 48.7416 226.252 47.9046 225.415 47.5555C224.609 47.285 223.75 47.2098 222.909 47.3362C222.199 47.4359 221.479 47.4359 220.769 47.3362C220.275 47.2677 219.81 47.0631 219.426 46.7454C219.327 46.6588 219.24 46.5595 219.167 46.4499C219.113 46.3724 219.091 46.3321 219.1 46.3291C219.1 46.3291 219.225 46.4723 219.484 46.6737C219.867 46.9459 220.312 47.1183 220.778 47.175C221.475 47.2536 222.179 47.2416 222.873 47.1392C223.751 46.9959 224.65 47.0728 225.491 47.363C225.923 47.5572 226.293 47.867 226.561 48.2582C226.797 48.6071 227.013 48.9687 227.21 49.3413C227.386 49.6666 227.604 49.9676 227.859 50.2365C228.083 50.4639 228.342 50.6556 228.624 50.8049C229.04 51.0223 229.498 51.1489 229.967 51.1764C230.312 51.172 230.495 51.1451 230.5 51.1675Z" fill="#455A64"/>
<path d="M233.39 76.4296C233.368 76.4296 233.511 76.1342 233.677 75.5792C233.901 74.8001 234.001 73.9904 233.972 73.1802C233.94 71.9808 233.612 70.8079 233.019 69.7651C232.692 69.1788 232.195 68.6551 231.788 68.0106C231.573 67.6823 231.421 67.3164 231.34 66.9319C231.27 66.5273 231.304 66.1113 231.439 65.7234C231.69 64.9491 232.137 64.3001 232.236 63.5885C232.334 62.8768 231.994 62.2457 231.654 61.6504C231.478 61.3608 231.319 61.062 231.175 60.7553C231.044 60.4578 230.958 60.1426 230.92 59.8198C230.878 59.2511 230.896 58.6795 230.973 58.1145C231.117 57.3159 231.042 56.4935 230.759 55.7334C230.632 55.4671 230.452 55.2295 230.23 55.0352C230.23 55.0352 230.253 55.0352 230.284 55.062C230.337 55.0883 230.386 55.1231 230.427 55.165C230.603 55.3108 230.744 55.4924 230.844 55.6976C231.167 56.4642 231.268 57.3066 231.135 58.128C231.073 58.6824 231.065 59.2415 231.112 59.7974C231.223 60.4228 231.47 61.0159 231.837 61.5341C232.028 61.8365 232.192 62.1556 232.325 62.4874C232.466 62.8456 232.512 63.2341 232.459 63.6153C232.352 64.3986 231.891 65.061 231.658 65.7906C231.536 66.1426 231.504 66.5195 231.564 66.8872C231.642 67.2428 231.785 67.5811 231.985 67.8853C232.365 68.5074 232.88 69.04 233.207 69.6532C233.807 70.7312 234.127 71.9422 234.138 73.1757C234.152 74.0014 234.025 74.8233 233.762 75.6061C233.69 75.8179 233.604 76.0244 233.502 76.2238C233.475 76.2974 233.437 76.3667 233.39 76.4296Z" fill="#455A64"/>
<path d="M215.161 159.827C215.161 159.827 212.144 131.253 211.969 120.695C211.795 110.136 216.718 99.7167 216.718 99.7167L236 98.9155C236 98.9155 239.814 109.626 239.881 114.133C240.015 122.879 237.558 131.513 237.84 138.451L238.484 159.845" fill="#263238"/>
<path d="M239.132 124.697C239.031 124.784 238.925 124.865 238.814 124.938L238.639 125.059L238.451 125.243C238.286 125.386 238.136 125.547 238.004 125.722C237.382 126.483 236.93 127.848 236.495 129.544C236.274 130.485 235.946 131.398 235.52 132.265C235.39 132.503 235.24 132.729 235.072 132.941C234.992 133.049 234.915 133.165 234.821 133.268L234.526 133.563C234.103 133.959 233.612 134.274 233.076 134.494C231.997 134.969 230.775 135.193 229.665 135.752C228.528 136.364 227.649 137.365 227.19 138.572C226.644 139.785 226.295 141.056 225.847 142.247C225.4 143.437 224.796 144.574 223.833 145.299C222.913 145.938 221.821 146.283 220.7 146.288C219.662 146.351 218.7 146.32 217.836 146.449C217.058 146.53 216.315 146.811 215.678 147.264C215.213 147.627 214.865 148.119 214.676 148.678C214.556 149.031 214.53 149.409 214.6 149.775C214.653 150.026 214.721 150.146 214.707 150.151C214.635 150.038 214.584 149.914 214.555 149.784C214.46 149.41 214.473 149.018 214.591 148.651C214.769 148.065 215.12 147.545 215.598 147.161C216.251 146.668 217.023 146.359 217.836 146.266C218.731 146.123 219.684 146.14 220.709 146.073C221.797 146.066 222.856 145.729 223.748 145.107C224.653 144.316 225.321 143.291 225.677 142.144C226.125 140.966 226.452 139.691 227.02 138.455C227.502 137.199 228.42 136.158 229.607 135.524C230.762 134.951 231.984 134.732 233.036 134.275C233.551 134.062 234.023 133.759 234.432 133.38L234.714 133.098C234.804 132.999 234.88 132.888 234.96 132.785C235.118 132.581 235.257 132.364 235.376 132.136C235.805 131.28 236.137 130.379 236.366 129.45C236.813 127.758 237.301 126.375 237.959 125.61C238.09 125.435 238.24 125.276 238.407 125.135C238.478 125.073 238.541 125.01 238.604 124.961L238.787 124.844C238.899 124.788 239.014 124.739 239.132 124.697Z" fill="#FAFAFA"/>
<path d="M239.249 111.475C239.269 111.601 239.278 111.728 239.276 111.856C239.274 112.225 239.229 112.593 239.141 112.952C238.756 114.261 237.999 115.431 236.962 116.318C236.277 116.947 235.527 117.501 234.724 117.97C233.86 118.48 232.907 118.968 231.926 119.523C230.897 120.075 229.938 120.749 229.071 121.532C228.181 122.415 227.449 123.443 226.904 124.571C226.356 125.715 225.729 126.821 225.029 127.879C224.673 128.372 224.262 128.823 223.803 129.222C223.35 129.607 222.853 129.936 222.321 130.202C221.36 130.674 220.357 131.059 219.327 131.352C218.369 131.648 217.474 131.912 216.695 132.247C215.988 132.529 215.316 132.889 214.69 133.322C214.219 133.648 213.796 134.038 213.432 134.481C213.128 134.865 212.874 135.286 212.676 135.734C212.708 135.61 212.75 135.489 212.801 135.372C212.948 135.033 213.136 134.715 213.361 134.423C213.718 133.961 214.14 133.554 214.614 133.214C215.242 132.766 215.919 132.391 216.632 132.095C217.495 131.744 218.375 131.438 219.269 131.178C220.285 130.878 221.273 130.492 222.223 130.023C222.727 129.76 223.199 129.442 223.633 129.074C224.074 128.681 224.471 128.239 224.814 127.758C225.505 126.705 226.125 125.607 226.672 124.473C227.233 123.319 227.99 122.271 228.91 121.376C229.792 120.581 230.769 119.899 231.819 119.344C232.804 118.793 233.757 118.314 234.621 117.808C235.422 117.355 236.172 116.818 236.859 116.206C237.887 115.345 238.651 114.211 239.061 112.934C239.176 112.456 239.239 111.967 239.249 111.475Z" fill="#FAFAFA"/>
<path d="M212.068 122.19C212.05 122.163 212.037 122.133 212.028 122.101C211.994 122.015 211.966 121.926 211.943 121.837C211.866 121.481 211.881 121.111 211.987 120.763C212.238 119.867 213.227 118.717 214.821 118.149C215.617 117.876 216.517 117.701 217.457 117.468C218.237 117.339 218.976 117.025 219.61 116.552C220.245 116.08 220.757 115.462 221.105 114.752C221.359 114.23 221.582 113.693 221.772 113.145C222.121 111.953 222.597 110.803 223.19 109.712C223.87 108.64 224.902 107.837 226.109 107.443C227.206 107.086 228.326 106.802 229.461 106.592C230.474 106.398 231.454 106.063 232.375 105.599C233.154 105.153 233.827 104.542 234.344 103.808C235.108 102.749 235.544 101.488 235.597 100.183C235.599 99.7037 235.568 99.2251 235.503 98.7505C235.639 99.2155 235.701 99.6987 235.687 100.183C235.67 101.516 235.248 102.813 234.478 103.902C233.954 104.66 233.268 105.292 232.469 105.751C231.536 106.233 230.54 106.581 229.51 106.785C228.386 106.998 227.277 107.284 226.189 107.639C225.031 108.019 224.04 108.79 223.387 109.819C222.804 110.895 222.334 112.029 221.986 113.203C221.793 113.761 221.564 114.307 221.302 114.837C221.036 115.345 220.699 115.813 220.299 116.224C219.513 116.941 218.545 117.429 217.502 117.634C216.553 117.876 215.658 118.028 214.874 118.288C213.321 118.816 212.336 119.903 212.072 120.772C211.964 121.106 211.935 121.462 211.987 121.81C212.025 121.934 212.052 122.062 212.068 122.19Z" fill="#FAFAFA"/>
<path d="M237.592 146.36C237.611 146.453 237.621 146.547 237.624 146.642C237.632 146.913 237.604 147.184 237.539 147.447C237.258 148.418 236.663 149.268 235.847 149.864C235.302 150.298 234.7 150.654 234.057 150.921C233.372 151.212 232.615 151.444 231.819 151.691C230.992 151.932 230.183 152.231 229.397 152.586C228.581 152.975 227.85 153.521 227.244 154.193C226.591 154.873 226.027 155.62 225.4 156.283C224.801 156.924 224.105 157.468 223.337 157.894C222.03 158.607 220.569 158.988 219.08 159.004C218.084 159.015 217.093 158.85 216.153 158.516C215.898 158.428 215.65 158.322 215.41 158.198C215.323 158.162 215.24 158.116 215.164 158.06C215.254 158.084 215.343 158.116 215.428 158.154C215.674 158.259 215.925 158.351 216.18 158.431C217.118 158.725 218.098 158.863 219.08 158.838C220.536 158.801 221.961 158.412 223.234 157.706C223.978 157.285 224.652 156.752 225.235 156.126C225.848 155.473 226.407 154.73 227.074 154.031C227.716 153.335 228.488 152.772 229.348 152.375C230.145 152.019 230.966 151.72 231.805 151.48C232.593 151.239 233.345 151.033 234.043 150.737C234.668 150.482 235.255 150.143 235.789 149.73C236.591 149.164 237.189 148.354 237.494 147.421C237.56 147.071 237.593 146.716 237.592 146.36Z" fill="#FAFAFA"/>
<path d="M235.395 87.0365L231.662 87.126C231.519 87.8787 231.233 88.5972 230.821 89.2431C227.688 83.8273 225.284 76.5765 224.685 73.6627C224.774 73.3718 224.877 73.0495 225.007 72.6915C225.1 72.1476 225.083 71.5906 224.958 71.0533C224.85 70.4043 224.671 69.5315 224.617 69.1287C224.452 67.8934 224.25 67.7009 223.821 67.8397C223.239 68.0321 224.062 71.2995 223.584 71.3711C223.324 71.4069 223.011 70.2879 222.921 69.3704C222.832 68.4529 222.411 65.6241 222.111 65.4361C221.663 65.1586 221.274 65.5973 221.39 66.5103C221.507 67.4234 221.645 70.1984 221.162 70.2387C220.679 70.279 220.267 65.5883 220.267 65.5883C220.267 65.5883 220.343 64.5678 219.779 64.5902C218.768 64.635 219.56 69.5763 219.645 70.0462C219.707 70.3685 219.197 70.4312 219.135 70.0776C219.072 69.724 218.839 65.3914 217.792 65.4272C216.995 65.4272 218.405 69.4957 217.957 70.4356C217.51 71.3756 217.205 67.2489 216.449 67.3026C216.167 67.3249 215.957 67.3787 216.476 69.7106C216.973 71.5633 217.571 73.3877 218.266 75.1756C219.466 81.6431 224.729 102.335 232.978 98.5484C237.597 96.4268 239.468 87.0365 239.468 87.0365H235.395Z" fill="#B78876"/>
<path d="M219.484 70.3602C219.52 70.3691 219.557 70.3691 219.592 70.3602C219.646 70.3437 219.692 70.3085 219.722 70.2609C219.753 70.2133 219.765 70.1565 219.757 70.1006C219.757 69.8231 219.704 69.4203 219.641 68.8966C219.536 68.2655 219.467 67.6289 219.435 66.9899C219.435 66.6139 219.435 66.2111 219.458 65.7859C219.464 65.5697 219.487 65.3543 219.525 65.1414C219.56 64.94 219.695 64.6938 219.851 64.7341H219.878C220.035 64.7341 220.16 64.8504 220.209 65.0384C220.265 65.2332 220.286 65.4362 220.272 65.6382C220.364 66.8917 220.524 68.1393 220.751 69.3755C220.787 69.5411 220.823 69.7112 220.876 69.8813C220.9 69.9683 220.93 70.0536 220.966 70.1364C220.989 70.1825 221.014 70.2273 221.042 70.2707C221.062 70.3034 221.09 70.331 221.122 70.3512C221.155 70.3714 221.192 70.3837 221.23 70.3871C221.295 70.3799 221.357 70.3535 221.407 70.3113C221.457 70.269 221.494 70.2129 221.512 70.1498C221.55 70.0623 221.579 69.9707 221.597 69.8768C221.632 69.6964 221.656 69.514 221.669 69.3308C221.709 68.5849 221.699 67.8372 221.637 67.0928C221.581 66.7212 221.566 66.3444 221.592 65.9694C221.609 65.8074 221.687 65.6582 221.812 65.5532C221.841 65.5361 221.872 65.5253 221.906 65.5214C221.939 65.5176 221.972 65.5208 222.004 65.5308C222.042 65.5399 222.079 65.555 222.112 65.5755C222.134 65.5925 222.152 65.6159 222.161 65.6427C222.302 66.0056 222.405 66.3821 222.47 66.7661C222.55 67.16 222.617 67.5673 222.68 67.9746C222.743 68.3819 222.801 68.7937 222.85 69.2099C222.889 69.6395 222.957 70.0657 223.056 70.4855C223.109 70.7002 223.176 70.911 223.258 71.1166C223.303 71.2317 223.367 71.3389 223.445 71.4344C223.476 71.4741 223.517 71.5044 223.563 71.5218C223.61 71.5392 223.661 71.5431 223.71 71.5329C223.755 71.5179 223.796 71.4915 223.828 71.4562C223.86 71.421 223.882 71.378 223.893 71.3315C223.946 71.1027 223.963 70.8671 223.942 70.6332C223.942 70.4094 223.915 70.1856 223.893 69.9708C223.862 69.5948 223.826 69.2233 223.813 68.8563C223.801 68.676 223.801 68.4951 223.813 68.3147C223.821 68.2349 223.841 68.1566 223.871 68.082C223.88 68.0574 223.894 68.0346 223.911 68.0149H223.969C224.265 67.894 224.363 68.3058 224.444 68.637C224.524 68.9682 224.556 69.3442 224.627 69.6978C224.743 70.4005 224.896 71.1032 224.972 71.7746C225.024 72.096 225.011 72.4246 224.936 72.7413C224.829 73.0636 224.721 73.3814 224.618 73.6992V73.7305V73.7574C225.142 75.9562 225.811 78.1183 226.619 80.2294C227.326 82.1406 228.038 83.8101 228.66 85.1528C229.282 86.4956 229.846 87.5474 230.231 88.2546L230.678 89.0558C230.727 89.1512 230.785 89.2413 230.853 89.3243C230.815 89.2249 230.769 89.129 230.714 89.0379L230.267 88.2188C229.9 87.4982 229.372 86.4284 228.763 85.0857C228.154 83.7429 227.465 82.0735 226.776 80.1623C225.987 78.0543 225.332 75.8986 224.815 73.7081V73.7708C224.918 73.4575 225.021 73.1397 225.128 72.8219C225.222 72.4731 225.24 72.1086 225.182 71.7522C225.102 71.0495 224.954 70.3692 224.837 69.662C224.77 69.3129 224.726 68.9548 224.654 68.5878C224.649 68.3992 224.618 68.2123 224.56 68.0328C224.509 67.9236 224.422 67.8351 224.314 67.7821C224.199 67.7445 224.075 67.7445 223.96 67.7821H223.889C223.851 67.7943 223.816 67.8141 223.786 67.8403C223.736 67.8825 223.698 67.9363 223.674 67.997C223.633 68.0938 223.607 68.1965 223.598 68.3013C223.584 68.495 223.584 68.6894 223.598 68.8832C223.598 69.2591 223.651 69.6351 223.683 70.0111C223.683 70.2304 223.719 70.4587 223.727 70.6601C223.745 70.862 223.735 71.0653 223.696 71.2643C223.696 71.3091 223.66 71.3001 223.696 71.3225L223.669 71.2956C223.612 71.2225 223.567 71.141 223.535 71.054C223.457 70.8603 223.393 70.6614 223.343 70.4587C223.244 70.0511 223.177 69.6366 223.141 69.2189C223.093 68.7981 223.035 68.3819 222.967 67.9701C222.904 67.5583 222.832 67.1555 222.752 66.7527C222.684 66.3427 222.57 65.9417 222.412 65.5576C222.381 65.4935 222.333 65.4392 222.273 65.401C222.221 65.3707 222.165 65.3467 222.107 65.3294C222.043 65.3126 221.977 65.3087 221.912 65.318C221.846 65.3272 221.783 65.3493 221.727 65.3831C221.634 65.452 221.557 65.5393 221.5 65.6394C221.443 65.7396 221.408 65.8504 221.396 65.9649C221.367 66.1683 221.367 66.3748 221.396 66.5781C221.396 66.7706 221.44 66.9586 221.454 67.1466C221.516 67.8789 221.529 68.6145 221.494 69.3487C221.484 69.5231 221.461 69.6965 221.427 69.8679C221.414 69.9479 221.391 70.026 221.36 70.1006C221.348 70.1301 221.331 70.1574 221.311 70.1812C221.311 70.2215 221.279 70.1812 221.284 70.2349C221.284 70.1901 221.284 70.2349 221.284 70.1767C221.264 70.1465 221.246 70.1151 221.23 70.0827C221.199 70.0111 221.172 69.9305 221.145 69.8544C221.096 69.6933 221.06 69.5277 221.024 69.3666C220.791 68.141 220.622 66.9039 220.518 65.6606C220.532 65.4355 220.506 65.2099 220.442 64.9937C220.413 64.8809 220.352 64.7786 220.268 64.6983C220.224 64.656 220.172 64.623 220.115 64.6015C220.058 64.5799 219.997 64.5702 219.936 64.5729H219.963C219.888 64.5619 219.81 64.5734 219.741 64.606C219.672 64.6386 219.614 64.691 219.574 64.7565C219.507 64.8632 219.462 64.9817 219.44 65.1056C219.402 65.3275 219.381 65.5519 219.377 65.7769C219.377 66.2245 219.377 66.6139 219.377 66.9944C219.419 67.6374 219.502 68.2772 219.623 68.91C219.699 69.4292 219.757 69.8321 219.784 70.1051C219.793 70.1529 219.785 70.2022 219.761 70.2446C219.737 70.287 219.7 70.32 219.654 70.3378C219.52 70.3512 219.48 70.3557 219.484 70.3602Z" fill="#A36957"/>
<path d="M190.333 93.2004C189.459 93.1818 188.587 93.2827 187.741 93.5003C185.427 94.109 181.439 96.526 181.273 99.5114H184.174C184.174 99.5114 182.549 102.967 183.023 102.644C184.263 101.812 186.725 99.3099 186.725 99.3099L190.333 93.2004Z" fill="#B78876"/>
<path d="M229.868 41.1775C229.801 41.1775 229.541 38.7875 229.282 35.8065C229.022 32.8256 228.861 30.4355 228.924 30.4355C228.986 30.4355 229.25 32.8256 229.51 35.8065C229.77 38.7875 229.931 41.1775 229.868 41.1775Z" fill="#263238"/>
<path d="M242.584 30.6195C242.633 30.6553 240.677 33.4974 238.211 36.9662C235.745 40.435 233.699 43.2324 233.646 43.1787C233.592 43.125 235.552 40.3007 238.019 36.8319C240.485 33.3632 242.53 30.5837 242.584 30.6195Z" fill="#263238"/>
<path d="M247.864 43.5003C247.864 43.563 245.59 44.0867 242.761 44.6685C239.932 45.2504 237.623 45.6711 237.609 45.6084C237.596 45.5458 239.879 45.0221 242.712 44.4402C245.545 43.8584 247.832 43.4377 247.864 43.5003Z" fill="#263238"/>
<path d="M95.6553 104.976L79.8108 186.347L77.752 196.999L183.382 196.489C188.126 196.467 192.333 192.255 193.851 185.998L212.586 109.179C213.746 104.43 211.203 99.4887 207.605 99.4932L100.668 99.6051C98.3408 99.6006 96.2551 101.803 95.6553 104.976Z" fill="#FFD226"/>
<g opacity="0.5">
<path opacity="0.5" d="M95.6553 104.976L79.8108 186.347L77.752 196.999L183.382 196.489C188.126 196.467 192.333 192.255 193.851 185.998L212.586 109.179C213.746 104.43 211.203 99.4887 207.605 99.4932L100.668 99.6051C98.3408 99.6006 96.2551 101.803 95.6553 104.976Z" fill="black"/>
</g>
<path d="M173.261 180.824L162.071 90.676C161.624 86.9835 158.674 84.2264 155.196 84.2398L130.669 84.3159C129.757 84.3262 128.858 84.5219 128.024 84.8913C127.191 85.2607 126.441 85.7959 125.822 86.4643L114.184 98.8489L45.9727 99.2159C41.8057 99.2383 38.601 103.186 39.1515 107.617L49.5399 190.935C49.9875 194.623 52.9371 197.375 56.4059 197.371L175.306 197.134C188.546 197.407 189.813 193.499 189.813 193.499C174.613 196.861 173.261 180.846 173.261 180.824Z" fill="#FFD226"/>
<g opacity="0.5">
<path opacity="0.5" d="M121.987 162.796L117.977 167.101L87.0938 139.316L91.1041 135.01L121.987 162.796Z" fill="white"/>
<path opacity="0.5" d="M116.297 134.056L120.728 138.044L92.7852 168.055L88.3496 164.067L116.297 134.056Z" fill="white"/>
</g>
<path d="M190.238 46.4503C190.093 46.3893 189.968 46.2882 189.879 46.159C189.789 46.0298 189.738 45.8778 189.732 45.7207L189.553 41.5672C189.546 41.4381 189.57 41.3094 189.622 41.1911C189.674 41.0728 189.753 40.9683 189.853 40.8858C189.952 40.8033 190.069 40.7451 190.195 40.7157C190.321 40.6864 190.452 40.6867 190.578 40.7168C190.924 40.7915 191.282 40.7948 191.63 40.7263C191.978 40.6578 192.308 40.519 192.601 40.3184C192.87 40.148 193.101 39.9243 193.281 39.661C193.46 39.3978 193.584 39.1005 193.644 38.7877C193.684 38.4709 193.661 38.1492 193.575 37.8417C193.488 37.5341 193.341 37.247 193.142 36.9973C192.933 36.7133 192.669 36.4734 192.366 36.2913C192.064 36.1093 191.728 35.9888 191.379 35.9366C190.675 35.8974 189.978 36.0971 189.401 36.5032C188.824 36.9093 188.401 37.4982 188.201 38.1745C188.134 38.3794 187.991 38.5506 187.801 38.6525C187.611 38.7544 187.389 38.779 187.181 38.7213C186.974 38.6636 186.796 38.528 186.686 38.3428C186.576 38.1576 186.541 37.9369 186.59 37.7269C186.894 36.6632 187.556 35.7368 188.463 35.1034C189.37 34.4701 190.468 34.1684 191.571 34.2492C192.146 34.3257 192.699 34.5169 193.198 34.8114C193.697 35.1059 194.132 35.4976 194.476 35.9634C194.811 36.3951 195.057 36.8897 195.197 37.4179C195.338 37.946 195.371 38.4971 195.295 39.0383C195.193 39.5788 194.982 40.0927 194.674 40.5484C194.366 41.0041 193.968 41.392 193.505 41.688C192.833 42.1401 192.049 42.3959 191.24 42.4265L191.379 45.6312C191.384 45.772 191.354 45.9119 191.29 46.0378C191.227 46.1637 191.133 46.2716 191.017 46.3515C190.901 46.4314 190.767 46.4807 190.627 46.4948C190.486 46.509 190.345 46.4875 190.215 46.4324L190.238 46.4503Z" fill="#FFD226"/>
<path d="M191.464 48.1511C191.473 48.2863 191.442 48.4212 191.375 48.5388C191.308 48.6564 191.207 48.7514 191.086 48.8118C190.964 48.8722 190.828 48.8952 190.694 48.878C190.559 48.8608 190.433 48.8041 190.331 48.7151C190.229 48.6261 190.155 48.5088 190.12 48.378C190.084 48.2473 190.088 48.1089 190.131 47.9805C190.175 47.8521 190.255 47.7393 190.362 47.6566C190.469 47.5738 190.599 47.5247 190.734 47.5156C190.824 47.5089 190.914 47.52 190.999 47.5484C191.085 47.5769 191.164 47.6219 191.232 47.681C191.299 47.7401 191.355 47.8121 191.395 47.8928C191.435 47.9735 191.458 48.0613 191.464 48.1511Z" fill="#FFD226"/>
<path d="M175.858 40.5911C175.877 40.5026 175.89 40.4129 175.898 40.3226C175.898 40.1257 175.947 39.875 175.983 39.5214C176.027 39.0873 176.1 38.6566 176.202 38.2324C176.26 37.9817 176.292 37.7042 176.381 37.4223C176.471 37.1403 176.56 36.8359 176.659 36.5271C177.177 34.9969 177.932 33.5576 178.897 32.2616C180.161 30.5835 181.763 29.1897 183.601 28.1707C184.647 27.5811 185.76 27.1212 186.917 26.8011C188.166 26.4701 189.452 26.3016 190.744 26.2998C191.425 26.2889 192.105 26.3248 192.781 26.4072C193.125 26.443 193.466 26.5326 193.81 26.5907C194.159 26.6504 194.503 26.7342 194.84 26.8414C196.25 27.2356 197.592 27.844 198.819 28.6451C201.545 30.4137 203.622 33.0217 204.736 36.075C205.335 37.7106 205.638 39.44 205.631 41.182C205.649 42.9765 205.332 44.7587 204.695 46.4366L204.494 46.9468L204.467 47.014L204.494 47.0811C205.617 49.6637 206.732 52.2015 207.784 54.6587L207.972 54.4439L201.258 51.8702L201.177 51.8389L201.11 51.9016C199.334 53.6224 197.16 54.8771 194.781 55.5539C192.749 56.1134 190.621 56.2355 188.538 55.9123C186.455 55.589 184.464 54.8277 182.697 53.6785C181.249 52.7293 179.973 51.5412 178.924 50.165C177.402 48.1561 176.416 45.7935 176.059 43.299C176.005 42.8514 175.961 42.4755 175.92 42.1353C175.88 41.7951 175.92 41.5176 175.898 41.2804C175.875 41.0432 175.898 40.8866 175.898 40.7568C175.92 40.7534 175.94 40.7417 175.954 40.724C175.969 40.7064 175.975 40.684 175.974 40.6615C175.972 40.639 175.962 40.618 175.945 40.6026C175.929 40.5873 175.907 40.5787 175.884 40.5787C175.862 40.5787 175.84 40.5873 175.824 40.6026C175.807 40.618 175.797 40.639 175.795 40.6615C175.793 40.684 175.8 40.7064 175.814 40.724C175.828 40.7417 175.849 40.7534 175.871 40.7568C175.871 40.8866 175.871 41.0611 175.871 41.2804C175.871 41.4997 175.871 41.8041 175.871 42.1443C175.871 42.4844 175.947 42.8738 175.992 43.3169C176.139 44.3935 176.396 45.4523 176.757 46.4769C177.27 47.83 177.959 49.1092 178.807 50.2813C179.861 51.6821 181.146 52.893 182.607 53.862C184.396 55.0399 186.415 55.8238 188.53 56.1618C190.646 56.4998 192.808 56.3841 194.875 55.8224C197.283 55.1387 199.484 53.872 201.285 52.1343L201.137 52.1657L207.851 54.7527L208.187 54.8825L208.039 54.5378C206.974 52.0806 205.873 49.5473 204.754 46.9603V47.0901L204.959 46.5664C205.613 44.8519 205.937 43.0299 205.917 41.1954C205.931 39.4164 205.628 37.6492 205.022 35.9766C203.885 32.8623 201.762 30.2048 198.975 28.4079C197.718 27.5881 196.341 26.9689 194.893 26.5728C194.551 26.4645 194.201 26.3822 193.846 26.3267C193.497 26.264 193.152 26.1745 192.803 26.1432C192.119 26.0582 191.429 26.0193 190.74 26.0268C189.427 26.0323 188.121 26.2099 186.855 26.5549C185.682 26.8879 184.554 27.3597 183.493 27.9603C181.638 29.0043 180.025 30.4308 178.762 32.1452C177.801 33.4627 177.056 34.9253 176.556 36.4779C176.462 36.8001 176.372 37.1089 176.292 37.373C176.221 37.6428 176.164 37.9163 176.122 38.1921C176.026 38.6193 175.963 39.0532 175.934 39.4901C175.907 39.8347 175.889 40.0988 175.875 40.2957C175.857 40.393 175.851 40.4923 175.858 40.5911Z" fill="#263238"/>
</svg>
