<svg width="48" height="48" viewBox="0 0 48 48" fill="none" xmlns="http://www.w3.org/2000/svg">
<circle cx="24" cy="24" r="20" fill="#B3561B"/>
<path fill-rule="evenodd" clip-rule="evenodd" d="M18.8333 16H15V17.6H17.5747L19.7898 27.7421H19.8V28H30.2V27.8015L31.9546 20.0728L32.2246 19.2H19.5242L19.0679 17.1108L18.8333 16ZM30.1895 20.8H19.8736L21.0966 26.4H28.9182L30.1895 20.8Z" fill="white"/>
<path d="M22.2 32C23.0837 32 23.8 31.2837 23.8 30.4C23.8 29.5163 23.0837 28.8 22.2 28.8C21.3163 28.8 20.6 29.5163 20.6 30.4C20.6 31.2837 21.3163 32 22.2 32Z" fill="white"/>
<path d="M29.4 30.4C29.4 31.2837 28.6837 32 27.8 32C26.9163 32 26.2 31.2837 26.2 30.4C26.2 29.5163 26.9163 28.8 27.8 28.8C28.6837 28.8 29.4 29.5163 29.4 30.4Z" fill="white"/>
</svg>
