<svg width="64" height="65" viewBox="0 0 64 65" fill="none" xmlns="http://www.w3.org/2000/svg">
<g clip-path="url(#clip0)">
<path d="M62.9334 58.4423H59.7334V38.1756C59.733 37.5866 59.255 37.1094 58.666 37.1098C58.3184 37.11 57.9926 37.2796 57.7932 37.5644L42.8598 58.8978C42.5222 59.3806 42.64 60.0456 43.1228 60.3831C43.3018 60.5083 43.5149 60.5755 43.7334 60.5756H57.6001V63.7756C57.6001 64.3647 58.0777 64.8423 58.6668 64.8423C59.2558 64.8423 59.7334 64.3647 59.7334 63.7756V60.5756H62.9334C63.5225 60.5756 64.0001 60.098 64.0001 59.509C64.0001 58.9199 63.5225 58.4423 62.9334 58.4423ZM57.6001 58.4423H45.7814L57.6001 41.5591V58.4423Z" fill="white"/>
<path d="M43.7333 62.7089H31.1051L42.8459 48.8839C42.8725 48.8521 42.8975 48.819 42.9205 48.7846C45.1293 45.5156 44.3936 41.0896 41.2459 38.7111C37.4185 35.9611 32.0865 36.8345 29.3367 40.6619C28.2939 42.1132 27.7331 43.8552 27.7333 45.6423C27.7333 46.2313 28.2109 46.7089 28.8 46.7089C29.3891 46.7089 29.8667 46.2313 29.8667 45.6423C29.8663 42.1076 32.7315 39.242 36.266 39.2416C37.6057 39.2415 38.9117 39.6617 40 40.4433C42.2049 42.1328 42.7184 45.2443 41.1733 47.5527L27.9872 63.0854C27.606 63.5346 27.6612 64.2077 28.1104 64.5889C28.3031 64.7524 28.5473 64.8421 28.8 64.8422H43.7333C44.3224 64.8422 44.8 64.3646 44.8 63.7756C44.8 63.1865 44.3224 62.7089 43.7333 62.7089Z" fill="white"/>
<path d="M28.8235 57.3959C28.8457 56.8072 28.3864 56.312 27.7977 56.2897C27.7976 56.2897 27.7975 56.2897 27.7973 56.2897C13.8813 55.7732 2.71213 44.624 2.17067 30.709H6.4C6.98907 30.709 7.46667 30.2313 7.46667 29.6423C7.46667 29.0532 6.98907 28.5756 6.4 28.5756H2.17067C2.7044 14.6851 13.8427 3.54722 27.7333 3.01402V6.17562C27.7333 6.76468 28.2109 7.24228 28.8 7.24228C29.3891 7.24228 29.8667 6.76468 29.8667 6.17562V3.01402C43.5672 3.54388 54.6248 14.3927 55.4155 28.0807L51.2555 23.9207C50.8317 23.5114 50.1565 23.5231 49.7472 23.9468C49.348 24.3601 49.348 25.0155 49.7472 25.4289L55.7013 31.3831C55.8135 31.5188 55.958 31.624 56.1216 31.6892C56.1633 31.7017 56.2057 31.7122 56.2485 31.7201C56.3217 31.7465 56.3975 31.7648 56.4747 31.7746C56.4853 31.7746 56.4949 31.7746 56.5056 31.7746C56.5163 31.7746 56.5259 31.7746 56.5355 31.7746C56.6167 31.7684 56.6969 31.7527 56.7744 31.7276C56.8183 31.7223 56.8617 31.7141 56.9045 31.7031C57.0489 31.6517 57.1804 31.5695 57.2896 31.462L63.3248 25.4289C63.734 25.0052 63.7224 24.33 63.2987 23.9207C62.8853 23.5215 62.23 23.5215 61.8165 23.9207L57.5531 28.181C56.7911 12.8916 44.184 0.879752 28.8757 0.857218C28.8491 0.856152 28.8267 0.842285 28.8 0.842285C28.7733 0.842285 28.7509 0.856152 28.7243 0.857218C12.8776 0.878952 0.0366667 13.7199 0.0149333 29.5666C0.0149333 29.5932 0 29.6156 0 29.6423C0 29.669 0.0138667 29.6913 0.0149333 29.718C0.0414667 45.1736 12.2735 57.8473 27.7184 58.422H27.7579C28.3311 58.4219 28.8017 57.9687 28.8235 57.3959Z" fill="white"/>
<path d="M43.1307 15.3116C42.7142 14.8952 42.039 14.8952 41.6224 15.3116L30.16 26.773C29.294 26.3868 28.3048 26.3868 27.4389 26.773L22.0117 21.3458C21.588 20.9366 20.9127 20.9483 20.5035 21.372C20.1043 21.7854 20.1043 22.4407 20.5035 22.854L25.92 28.2706C25.1595 29.8626 25.8336 31.7698 27.4257 32.5302C28.6477 33.1139 30.1051 32.8636 31.0624 31.9058C32.0249 30.9514 32.2728 29.49 31.6789 28.2716L43.1307 16.8199C43.5471 16.4034 43.5471 15.7282 43.1307 15.3116ZM29.5544 30.3962C29.5543 30.3963 29.5543 30.3963 29.5541 30.3964C29.1323 30.7998 28.4677 30.7998 28.0459 30.3964C27.6292 29.9799 27.6292 29.3046 28.0456 28.8879C28.4621 28.4712 29.1375 28.4712 29.5541 28.8876C29.9708 29.3042 29.9708 29.9796 29.5544 30.3962Z" fill="white"/>
</g>
<defs>
<clipPath id="clip0">
<rect width="64" height="64" fill="white" transform="translate(0 0.842285)"/>
</clipPath>
</defs>
</svg>
