<svg width="84" height="38" viewBox="0 0 84 38" fill="none" xmlns="http://www.w3.org/2000/svg">
<path d="M80.2358 22.6881L28.1663 22.6499L33.9263 14.2891L76.2963 14.3044L80.2358 22.6881Z" fill="#0DA54E"/>
<g opacity="0.1">
<path opacity="0.1" d="M61.2653 18.5883C61.3494 20.1564 58.2055 21.4262 54.3272 21.4185C50.449 21.4109 47.5805 20.1487 48.0088 18.5806C48.4372 17.0125 51.5352 15.7427 54.9468 15.7427C58.3585 15.7427 61.1811 16.9895 61.2653 18.5883Z" fill="black"/>
<path opacity="0.1" d="M43.6706 18.3971C43.5406 18.7566 42.6227 19.0473 41.6282 19.0473C40.6338 19.0473 39.9683 18.749 40.1366 18.3894C40.3049 18.0299 41.2228 17.7393 42.179 17.7393C43.1352 17.7393 43.8083 18.0376 43.6706 18.3971Z" fill="black"/>
<path opacity="0.1" d="M69.1814 18.4122C69.2732 18.7718 68.5389 19.0624 67.5445 19.0624C66.55 19.0624 65.701 18.7641 65.6398 18.4046C65.5786 18.0451 66.3206 17.7544 67.2767 17.7544C68.2329 17.7544 69.0896 18.0451 69.1814 18.4122Z" fill="black"/>
</g>
<g opacity="0.1">
<path opacity="0.1" d="M35.2037 14.2896L29.742 22.6503H28.1663L33.9263 14.2896H35.2037Z" fill="black"/>
<path opacity="0.1" d="M80.2355 22.688L78.6598 22.6803L75.011 14.3042H76.2961L80.2355 22.688Z" fill="black"/>
<path opacity="0.1" d="M79.991 22.1603L80.2358 22.6881L28.1663 22.6499L28.5334 22.1221L79.991 22.1603Z" fill="black"/>
<path opacity="0.1" d="M76.2962 14.3044L76.541 14.8322L33.559 14.8169L33.9261 14.2891L76.2962 14.3044Z" fill="black"/>
<path opacity="0.1" d="M33.5674 22.1222H30.1176L30.8825 20.9595C32.7031 20.9595 33.904 21.4796 33.5674 22.1222Z" fill="black"/>
<path opacity="0.1" d="M77.9329 20.9897L78.4377 22.1601H74.9878C74.7507 21.5099 76.0664 20.9897 77.9329 20.9897Z" fill="black"/>
<path opacity="0.1" d="M72.3568 14.832H75.2406L75.7531 15.9948C74.1085 15.9948 72.5786 15.4593 72.3568 14.832Z" fill="black"/>
<path opacity="0.1" d="M34.1029 15.9796L34.8678 14.8169H37.744C37.3922 15.4594 35.7399 15.9796 34.1029 15.9796Z" fill="black"/>
</g>
<path d="M54.9382 16.4385C55.1064 16.4385 55.2365 16.492 55.2288 16.5609V16.7521C55.9901 16.7703 56.7459 16.886 57.4778 17.0963C57.5925 17.1346 57.6614 17.1652 57.6537 17.2111C57.6461 17.257 57.5007 17.3335 57.3171 17.3335C57.2389 17.3351 57.1611 17.3222 57.0876 17.2952C56.469 17.1086 55.8287 17.0032 55.1829 16.9816L55.0453 18.3508C57.0494 18.5038 57.8908 18.7869 57.8832 19.2688C57.8755 19.7507 56.621 20.1484 54.8923 20.1714L54.854 20.5539C54.854 20.6151 54.6857 20.6686 54.5021 20.6686C54.3186 20.6686 54.1732 20.6151 54.1809 20.5539L54.2268 20.1637C53.1889 20.1586 52.1577 19.9987 51.167 19.6895C51.0752 19.6895 51.0293 19.6283 51.037 19.5824C51.0446 19.5365 51.2282 19.46 51.4041 19.46C51.4825 19.4451 51.5629 19.4451 51.6413 19.46C52.4827 19.7412 53.3626 19.8909 54.2497 19.9037L54.4103 18.5115C52.4368 18.3508 51.6642 18.0831 51.7484 17.5935C51.8325 17.104 53.0335 16.7215 54.5863 16.7062V16.5226C54.6322 16.492 54.7775 16.4385 54.9382 16.4385ZM54.4486 18.2973L54.6016 16.9663C53.3624 16.9663 52.4903 17.257 52.4368 17.6088C52.3833 17.9607 52.7657 18.1443 54.4486 18.2973ZM55.007 18.5956L54.8693 19.9496C56.2462 19.9496 57.1641 19.6589 57.1641 19.2841C57.1641 18.9092 56.7281 18.741 54.9841 18.5956H55.007Z" fill="#0DA54E"/>
<path d="M80.2358 28.2569H28.1663V22.6499L80.2358 22.6882V28.2569Z" fill="#0DA54E"/>
<path opacity="0.2" d="M80.2358 28.2569H28.1663V22.6499L80.2358 22.6882V28.2569Z" fill="black"/>
<path d="M60.4692 22.6572H47.9395V28.2566H60.4692V22.6572Z" fill="#EBEBEB"/>
<path d="M47.9395 22.6575H60.4692L58.8858 14.2891H50.3337L47.9395 22.6575Z" fill="#EBEBEB"/>
<path d="M83.2092 15.3829L31.1396 15.337L36.892 6.98389L79.2697 6.99918L83.2092 15.3829Z" fill="#0DA54E"/>
<g opacity="0.1">
<path opacity="0.1" d="M64.2386 11.2826C64.3228 12.8125 61.2171 14.1205 57.3006 14.1129C53.3841 14.1052 50.5538 12.8431 50.9745 11.2749C51.3953 9.70681 54.5086 8.43701 57.9126 8.43701C61.3166 8.43701 64.1621 9.71446 64.2386 11.2826Z" fill="black"/>
<path opacity="0.1" d="M46.6455 11.0915C46.5078 11.451 45.5975 11.7417 44.6031 11.7417C43.6087 11.7417 42.9432 11.4433 43.0732 11.0838C43.2033 10.7243 44.1518 10.4336 45.1156 10.4336C46.0794 10.4336 46.7832 10.7243 46.6455 11.0915Z" fill="black"/>
<path opacity="0.1" d="M72.1567 11.0989C72.2408 11.4584 71.5141 11.7568 70.5197 11.7568C69.5253 11.7568 68.6762 11.4584 68.615 11.0989C68.5538 10.7394 69.2882 10.4487 70.252 10.4487C71.2158 10.4487 72.0649 10.7394 72.1567 11.0989Z" fill="black"/>
</g>
<g opacity="0.1">
<path opacity="0.1" d="M38.1771 6.98584L32.7154 15.3466L31.1396 15.339L36.892 6.98584H38.1771Z" fill="black"/>
<path opacity="0.1" d="M83.2089 15.3828L81.6255 15.3751L77.9844 6.99902H79.2695L83.2089 15.3828Z" fill="black"/>
<path opacity="0.1" d="M82.9567 14.8551L83.2015 15.3753L31.1396 15.337L31.4992 14.8169L82.9567 14.8551Z" fill="black"/>
<path opacity="0.1" d="M79.2696 6.99918L79.5144 7.52699L36.5323 7.51167L36.8919 6.98389L79.2696 6.99918Z" fill="black"/>
<path opacity="0.1" d="M36.5028 14.817H33.0605L33.8255 13.6543C35.6766 13.6543 36.8776 14.1744 36.5028 14.817Z" fill="black"/>
<path opacity="0.1" d="M80.8917 13.6846L81.3966 14.8549H77.9314C77.7248 14.2047 79.0405 13.6846 80.8917 13.6846Z" fill="black"/>
<path opacity="0.1" d="M75.3303 7.52734H78.2141L78.719 8.69005C77.0744 8.69005 75.5598 8.16989 75.3303 7.52734Z" fill="black"/>
<path opacity="0.1" d="M37.0764 8.67444L37.8414 7.51172H40.7175C40.3427 8.15427 38.7134 8.67444 37.0764 8.67444Z" fill="black"/>
</g>
<path d="M57.9134 9.1333C58.0741 9.1333 58.2118 9.18685 58.2041 9.25569V9.44693C58.9683 9.46078 59.7272 9.57652 60.4607 9.79114C60.5754 9.82939 60.6366 9.85233 60.6366 9.90588C60.6366 9.95942 60.476 10.0283 60.2924 10.0283C60.2165 10.0417 60.1388 10.0417 60.0629 10.0283C59.4453 9.83739 58.8044 9.73187 58.1582 9.71464L58.0205 11.0839C60.0323 11.2369 60.8738 11.5199 60.8585 12.0018C60.8432 12.4837 59.604 12.8815 57.8675 12.9045L57.8293 13.2869C57.8293 13.3481 57.6687 13.4017 57.4851 13.4017C57.3015 13.4017 57.1562 13.3481 57.1638 13.2869L57.202 12.8968C56.1645 12.8886 55.1336 12.7289 54.1423 12.4225C54.0505 12.4225 53.9969 12.3614 54.0122 12.3155C54.0275 12.2696 54.1958 12.1931 54.3718 12.1931C54.4525 12.1906 54.533 12.2036 54.6089 12.2313C55.4507 12.5111 56.3303 12.6607 57.2173 12.675L57.378 11.2828C55.4044 11.1221 54.6318 10.8467 54.7236 10.3572C54.8154 9.86763 56.0011 9.49281 57.5616 9.47751V9.28627C57.5998 9.18683 57.7452 9.1333 57.9134 9.1333ZM57.4239 10.9921L57.5769 9.66111C56.33 9.66111 55.4656 9.95179 55.4044 10.3037C55.3432 10.6555 55.7487 10.8697 57.4239 10.9921ZM57.9746 11.2904L57.8369 12.6444C59.2215 12.6444 60.1318 12.3537 60.1318 11.9789C60.1318 11.6041 59.7034 11.4358 57.9746 11.2904Z" fill="#0DA54E"/>
<path d="M83.2015 20.9517H31.1396V15.3447L83.2092 15.383L83.2015 20.9517Z" fill="#0DA54E"/>
<path opacity="0.2" d="M83.2015 20.9517H31.1396V15.3447L83.2092 15.383L83.2015 20.9517Z" fill="black"/>
<path d="M63.4359 15.3525H50.9061V20.9519H63.4359V15.3525Z" fill="#EBEBEB"/>
<path d="M50.9061 15.3523H63.4359L61.8601 6.98389H53.3004L50.9061 15.3523Z" fill="#EBEBEB"/>
<path d="M82.5217 8.39904L30.4521 8.3608L36.2122 0L78.5822 0.0152904L82.5217 8.39904Z" fill="#0DA54E"/>
<g opacity="0.1">
<path opacity="0.1" d="M63.5516 4.29871C63.6358 5.82859 60.5301 7.13663 56.6136 7.13663C52.6971 7.13663 49.8668 5.85918 50.2952 4.29105C50.7236 2.72292 53.8216 1.45312 57.2256 1.45312C60.6295 1.45312 63.4675 2.73058 63.5516 4.29871Z" fill="black"/>
<path opacity="0.1" d="M45.9581 4.10757C45.8204 4.46709 44.9101 4.75777 43.9157 4.75777C42.9213 4.75777 42.2558 4.46708 42.4241 4.09991C42.5924 3.73274 43.5103 3.44971 44.4665 3.44971C45.4227 3.44971 46.0958 3.74805 45.9581 4.10757Z" fill="black"/>
<path opacity="0.1" d="M71.4689 4.12268C71.5607 4.4822 70.8264 4.77289 69.832 4.77289C68.8376 4.77289 67.9885 4.47457 67.9273 4.11505C67.8661 3.75553 68.6004 3.46484 69.5642 3.46484C70.5281 3.46484 71.3772 3.75551 71.4689 4.12268Z" fill="black"/>
</g>
<g opacity="0.1">
<path opacity="0.1" d="M37.4899 0.000488281L32.0282 8.36129H30.4524L36.2048 0.000488281H37.4899Z" fill="black"/>
<path opacity="0.1" d="M82.5213 8.39888H80.9455L77.2968 0.0151367H78.5819L82.5213 8.39888Z" fill="black"/>
<path opacity="0.1" d="M82.2769 7.87125L82.5217 8.39906L30.4521 8.36082L30.8193 7.83301L82.2769 7.87125Z" fill="black"/>
<path opacity="0.1" d="M78.582 0.0152904L78.8268 0.543101L35.8447 0.527811L36.2042 0L78.582 0.0152904Z" fill="black"/>
<path opacity="0.1" d="M35.86 7.81016H32.4102L33.1751 6.64746C34.988 6.67041 36.189 7.19056 35.86 7.81016Z" fill="black"/>
<path opacity="0.1" d="M80.2271 6.70068L80.732 7.87104H77.2821C77.0373 7.22084 78.353 6.70068 80.2271 6.70068Z" fill="black"/>
<path opacity="0.1" d="M74.6427 0.542969H77.5265L78.0314 1.70567C76.4021 1.69037 74.8722 1.18552 74.6427 0.542969Z" fill="black"/>
<path opacity="0.1" d="M36.3888 1.69053L37.1537 0.527832H40.0299C39.6857 1.17038 38.0258 1.69053 36.3888 1.69053Z" fill="black"/>
</g>
<path d="M57.2263 2.14941C57.3946 2.14941 57.5246 2.20296 57.517 2.27181V2.46304C58.2783 2.48123 59.0341 2.5969 59.7659 2.80725C59.8807 2.8455 59.9419 2.87609 59.9419 2.92199C59.9419 2.96789 59.7812 3.04438 59.6053 3.04438C59.5292 3.05506 59.4519 3.05506 59.3758 3.04438C58.7549 2.85528 58.1121 2.74731 57.4635 2.72312L57.3334 4.09237C59.3376 4.25301 60.179 4.52837 60.1713 5.01029C60.1637 5.4922 58.9092 5.89761 57.1804 5.91291V6.29538C57.1804 6.35658 57.0121 6.41014 56.8286 6.41014C56.645 6.41014 56.4996 6.35658 56.5073 6.29538L56.5532 5.90528C55.5154 5.90013 54.4841 5.74029 53.4934 5.43102C53.4016 5.43102 53.3557 5.36981 53.3634 5.32391C53.371 5.27802 53.547 5.20153 53.7305 5.20918C53.809 5.19546 53.8892 5.19546 53.9677 5.20918C54.8091 5.49041 55.689 5.64005 56.5761 5.65283L56.7291 4.26064C54.7632 4.1 53.9906 3.83228 54.0748 3.34272C54.1589 2.85316 55.3599 2.47068 56.9127 2.45539V2.27181C56.9203 2.20296 57.0657 2.14941 57.2263 2.14941ZM56.7368 4.00822L56.8897 2.67723C55.6429 2.67723 54.7785 2.9679 54.7173 3.31977C54.6561 3.67165 55.0539 3.86288 56.7368 3.98527V4.00822ZM57.2875 4.31419L57.1575 5.66049C58.5344 5.66049 59.4523 5.36982 59.4523 4.995C59.4523 4.62017 59.0163 4.45188 57.2799 4.31419H57.2875Z" fill="#0DA54E"/>
<path d="M82.5217 13.9678H30.4521V8.36084L82.5217 8.39908V13.9678Z" fill="#0DA54E"/>
<path opacity="0.2" d="M82.5217 13.9678H30.4521V8.36084L82.5217 8.39908V13.9678Z" fill="black"/>
<path d="M62.7567 8.36865H50.2269V13.968H62.7567V8.36865Z" fill="#EBEBEB"/>
<path d="M50.2269 8.36846H62.7567L61.1732 0H52.6212L50.2269 8.36846Z" fill="#EBEBEB"/>
<path d="M52.0695 32.3492L0 32.311L5.75235 23.9502L48.1301 23.9655L52.0695 32.3492Z" fill="#0DA54E"/>
<g opacity="0.1">
<path opacity="0.1" d="M33.0988 28.2494C33.183 29.7793 30.0773 31.0873 26.1608 31.0797C22.2443 31.072 19.4141 29.8099 19.8348 28.2417C20.2555 26.6736 23.3688 25.4038 26.7728 25.4038C30.1768 25.4038 33.0147 26.6813 33.0988 28.2494Z" fill="black"/>
<path opacity="0.1" d="M15.5057 28.0583C15.368 28.4178 14.4577 28.7085 13.4633 28.7085C12.4689 28.7085 11.8034 28.4101 11.9334 28.0506C12.0635 27.6911 13.012 27.4004 13.9758 27.4004C14.9397 27.4004 15.6434 27.6987 15.5057 28.0583Z" fill="black"/>
<path opacity="0.1" d="M41.0169 28.0734C41.1011 28.4329 40.3744 28.7236 39.38 28.7236C38.3855 28.7236 37.5364 28.4253 37.4752 28.0657C37.414 27.7062 38.1484 27.4155 39.1122 27.4155C40.076 27.4155 40.9251 27.6985 41.0169 28.0734Z" fill="black"/>
</g>
<g opacity="0.1">
<path opacity="0.1" d="M7.03941 23.9502L1.57773 32.311H0.00195312L5.75431 23.9502H7.03941Z" fill="black"/>
<path opacity="0.1" d="M52.0693 32.3491H50.4858L46.8447 23.9653H48.1298L52.0693 32.3491Z" fill="black"/>
<path opacity="0.1" d="M51.8171 31.8215L52.0695 32.3493L0 32.311L0.359517 31.7832L51.8171 31.8215Z" fill="black"/>
<path opacity="0.1" d="M48.1223 23.9655L48.3747 24.4933L5.3927 24.478L5.75222 23.9502L48.1223 23.9655Z" fill="black"/>
<path opacity="0.1" d="M5.36313 31.7833H1.9209L2.68584 30.6206C4.537 30.6206 5.73795 31.1408 5.36313 31.7833Z" fill="black"/>
<path opacity="0.1" d="M49.7519 30.6509L50.2568 31.8213H46.8146C46.5698 31.1711 47.9008 30.6509 49.7519 30.6509Z" fill="black"/>
<path opacity="0.1" d="M44.1906 24.4937H47.0744L47.5792 25.6564C45.9346 25.6564 44.42 25.1362 44.1906 24.4937Z" fill="black"/>
<path opacity="0.1" d="M5.93665 25.6407L6.70159 24.478H9.57777C9.20294 25.1206 7.55832 25.6407 5.93665 25.6407Z" fill="black"/>
</g>
<path d="M26.7719 26.0996C26.9326 26.0996 27.0703 26.1532 27.0626 26.222V26.4132C27.8265 26.4309 28.5849 26.5465 29.3192 26.7574C29.4339 26.7957 29.4951 26.8263 29.4951 26.8722C29.4951 26.9181 29.3345 26.9946 29.1509 26.9946C29.0728 26.9956 28.995 26.9826 28.9214 26.9563C28.3029 26.7691 27.6626 26.6637 27.0167 26.6427L26.879 28.012C28.8908 28.1649 29.7323 28.448 29.717 28.9299C29.7017 29.4118 28.4625 29.8096 26.7261 29.8325L26.6878 30.215C26.6878 30.2762 26.5272 30.3297 26.3436 30.3297C26.16 30.3297 26.0147 30.2762 26.0223 30.215V29.8249C24.9973 29.8167 23.9791 29.6569 23.0008 29.3506C22.909 29.3506 22.8555 29.2894 22.8708 29.2435C22.8861 29.1976 23.0543 29.1211 23.2303 29.1211C23.311 29.1187 23.3915 29.1317 23.4674 29.1594C24.3092 29.4392 25.1889 29.5888 26.0759 29.603L26.2365 28.2109C24.2629 28.0502 23.4904 27.7825 23.5821 27.2929C23.6739 26.8034 24.8596 26.4209 26.4201 26.4056V26.222C26.4583 26.1685 26.6037 26.0996 26.7719 26.0996ZM26.2824 27.9584L26.4354 26.6274C25.1885 26.6274 24.3241 26.9181 24.2629 27.27C24.2017 27.6218 24.5995 27.8054 26.2824 27.9584ZM26.8331 28.2644L26.6802 29.6107C28.0647 29.6107 28.975 29.32 28.975 28.9452C28.975 28.5704 28.5619 28.4021 26.8331 28.2644Z" fill="#0DA54E"/>
<path d="M52.0695 37.9185H0V32.3115L52.0695 32.3498V37.9185Z" fill="#0DA54E"/>
<path opacity="0.2" d="M52.0695 37.9185H0V32.3115L52.0695 32.3498V37.9185Z" fill="black"/>
<path d="M32.2961 32.3188H19.7664V37.9182H32.2961V32.3188Z" fill="#EBEBEB"/>
<path d="M19.7664 32.3187H32.2961L30.7203 23.9502H22.1606L19.7664 32.3187Z" fill="#EBEBEB"/>
</svg>
