<svg width="64" height="65" viewBox="0 0 64 65" fill="none" xmlns="http://www.w3.org/2000/svg">
<path d="M14 53.8423C12.346 53.8423 11 55.1883 11 56.8423C11 58.4963 12.346 59.8423 14 59.8423C15.654 59.8423 17 58.4963 17 56.8423C17 55.1883 15.654 53.8423 14 53.8423ZM14 57.8423C13.449 57.8423 13 57.3943 13 56.8423C13 56.2903 13.449 55.8423 14 55.8423C14.551 55.8423 15 56.2903 15 56.8423C15 57.3943 14.551 57.8423 14 57.8423Z" fill="white"/>
<path d="M38 53.8423C36.346 53.8423 35 55.1883 35 56.8423C35 58.4963 36.346 59.8423 38 59.8423C39.654 59.8423 41 58.4963 41 56.8423C41 55.1883 39.654 53.8423 38 53.8423ZM38 57.8423C37.449 57.8423 37 57.3943 37 56.8423C37 56.2903 37.449 55.8423 38 55.8423C38.551 55.8423 39 56.2903 39 56.8423C39 57.3943 38.551 57.8423 38 57.8423Z" fill="white"/>
<path d="M49 49.8423H48.883L47.54 39.0983C47.166 36.1023 44.606 33.8423 41.586 33.8423H33V28.8423C33 27.1883 31.654 25.8423 30 25.8423H6C4.346 25.8423 3 27.1883 3 28.8423V49.8423C1.897 49.8423 1 50.7393 1 51.8423V53.8423C1 54.9453 1.897 55.8423 3 55.8423H7.08C7.033 56.1703 7 56.5023 7 56.8423C7 60.7013 10.14 63.8423 14 63.8423C17.86 63.8423 21 60.7013 21 56.8423C21 56.5023 20.967 56.1703 20.92 55.8423H31.08C31.033 56.1703 31 56.5023 31 56.8423C31 60.7013 34.14 63.8423 38 63.8423C41.86 63.8423 45 60.7013 45 56.8423C45 56.5023 44.967 56.1703 44.92 55.8423H49C50.103 55.8423 51 54.9453 51 53.8423V51.8423C51 50.7393 50.103 49.8423 49 49.8423ZM45.617 39.8423L45.867 41.8423H39V39.8423H45.617ZM41.586 35.8423C43.048 35.8423 44.34 36.6423 45.038 37.8423H37V43.8423H46.117L46.867 49.8423H33V35.8423H41.586ZM19 29.8423V33.8423H17V29.8423H15V33.8423H13V27.8423H23V33.8423H21V29.8423H19ZM5 28.8423C5 28.2913 5.449 27.8423 6 27.8423H11V33.8423C11 34.9453 11.897 35.8423 13 35.8423H23C24.103 35.8423 25 34.9453 25 33.8423V27.8423H30C30.551 27.8423 31 28.2913 31 28.8423V49.8423H5V28.8423ZM3 53.8423V51.8423H9.111C8.524 52.4163 8.043 53.0933 7.686 53.8423H3ZM14 61.8423C11.243 61.8423 9 59.5993 9 56.8423C9 54.0853 11.243 51.8423 14 51.8423C16.757 51.8423 19 54.0853 19 56.8423C19 59.5993 16.757 61.8423 14 61.8423ZM20.315 53.8423C19.958 53.0933 19.476 52.4163 18.89 51.8423H33.111C32.524 52.4163 32.043 53.0933 31.686 53.8423H20.315ZM38 61.8423C35.243 61.8423 33 59.5993 33 56.8423C33 54.0853 35.243 51.8423 38 51.8423C40.757 51.8423 43 54.0853 43 56.8423C43 59.5993 40.757 61.8423 38 61.8423ZM49 53.8423H44.315C43.958 53.0933 43.476 52.4163 42.89 51.8423H49V53.8423Z" fill="white"/>
<path d="M29 41.8423H17V47.8423H29V41.8423ZM27 45.8423H19V43.8423H27V45.8423Z" fill="white"/>
<path d="M45.715 6.84226H25V1.59726L12.505 12.8423L25 24.0873V18.8423H44.043C48.982 18.8423 53 22.8603 53 27.7993C53 29.0193 52.756 30.2063 52.276 31.3273L50.205 36.1593C50.069 36.4753 50 36.8123 50 37.1573V37.3063C50 38.7043 51.137 39.8423 52.535 39.8423C53.037 39.8423 53.523 39.6953 53.941 39.4163L55.303 38.5083C60.123 35.2963 63 29.9203 63 24.1273C63 14.5963 55.246 6.84226 45.715 6.84226ZM54.194 36.8443L52.832 37.7523C52.497 37.9743 52 37.7073 52 37.3073V37.1583C52 37.0853 52.015 37.0133 52.043 36.9463L54.114 32.1153C54.702 30.7433 55 29.2913 55 27.7993C55 21.7573 50.085 16.8423 44.043 16.8423H23V19.5973L15.495 12.8423L23 6.08726V8.84226H45.715C54.144 8.84226 61 15.6983 61 24.1273C61 29.2493 58.456 34.0033 54.194 36.8443Z" fill="white"/>
<path d="M37 25.8423H39V27.8423H37V25.8423Z" fill="white"/>
<path d="M41 25.8423H43V27.8423H41V25.8423Z" fill="white"/>
<path d="M45 25.8423H47V27.8423H45V25.8423Z" fill="white"/>
</svg>
