<svg width="25" height="21" viewBox="0 0 25 21" fill="none" xmlns="http://www.w3.org/2000/svg">
<path d="M23.1875 2.00029C22.2299 2.67577 21.1696 3.1924 20.0475 3.53029C19.4452 2.8378 18.6448 2.34698 17.7545 2.12422C16.8642 1.90145 15.927 1.95749 15.0696 2.28474C14.2122 2.612 13.4759 3.19469 12.9605 3.95401C12.445 4.71332 12.1752 5.61263 12.1875 6.53029V7.53029C10.4301 7.57586 8.68877 7.1861 7.11851 6.39574C5.54824 5.60537 4.19782 4.43893 3.1875 3.00029C3.1875 3.00029 -0.8125 12.0003 8.1875 16.0003C6.12803 17.3983 3.67466 18.0992 1.1875 18.0003C10.1875 23.0003 21.1875 18.0003 21.1875 6.50029C21.1866 6.22174 21.1598 5.94388 21.1075 5.67029C22.1281 4.66378 22.8483 3.393 23.1875 2.00029Z" stroke="#333333" stroke-width="2" stroke-linecap="round" stroke-linejoin="round"/>
</svg>
