<svg width="25" height="25" viewBox="0 0 25 25" fill="none" xmlns="http://www.w3.org/2000/svg">
<g clip-path="url(#clip0)">
<path d="M23.2174 3.99829C22.2598 4.67377 21.1995 5.1904 20.0774 5.52829C19.4751 4.8358 18.6747 4.34498 17.7844 4.12222C16.8941 3.89945 15.9569 3.95549 15.0995 4.28274C14.2421 4.61 13.5058 5.19269 12.9904 5.95201C12.4749 6.71132 12.2051 7.61063 12.2174 8.52829V9.52829C10.46 9.57386 8.71868 9.1841 7.14842 8.39374C5.57815 7.60337 4.22772 6.43693 3.21741 4.99829C3.21741 4.99829 -0.782593 13.9983 8.21741 17.9983C6.15793 19.3963 3.70456 20.0972 1.21741 19.9983C10.2174 24.9983 21.2174 19.9983 21.2174 8.49829C21.2165 8.21974 21.1897 7.94189 21.1374 7.66829C22.158 6.66178 22.8782 5.391 23.2174 3.99829Z" stroke="white" stroke-width="2" stroke-linecap="round" stroke-linejoin="round"/>
</g>
<defs>
<clipPath id="clip0">
<rect width="24" height="24" fill="white" transform="translate(0.217407 0.998291)"/>
</clipPath>
</defs>
</svg>
