<svg width="25" height="25" viewBox="0 0 25 25" fill="none" xmlns="http://www.w3.org/2000/svg">
<g clip-path="url(#clip0)">
<path d="M23.1634 6.4615C23.0446 5.98691 22.8027 5.55208 22.4621 5.20091C22.1214 4.84974 21.6942 4.59469 21.2234 4.4615C19.5034 4.0415 12.6234 4.0415 12.6234 4.0415C12.6234 4.0415 5.74341 4.0415 4.02341 4.5015C3.55265 4.63469 3.12538 4.88974 2.78475 5.24091C2.44412 5.59208 2.20219 6.02691 2.0834 6.5015C1.76862 8.24706 1.61464 10.0178 1.6234 11.7915C1.61218 13.5785 1.76617 15.3628 2.0834 17.1215C2.21436 17.5814 2.46171 17.9996 2.80155 18.336C3.14139 18.6723 3.56223 18.9153 4.02341 19.0415C5.74341 19.5015 12.6234 19.5015 12.6234 19.5015C12.6234 19.5015 19.5034 19.5015 21.2234 19.0415C21.6942 18.9083 22.1214 18.6533 22.4621 18.3021C22.8027 17.9509 23.0446 17.5161 23.1634 17.0415C23.4758 15.3091 23.6297 13.5518 23.6234 11.7915C23.6346 10.0045 23.4806 8.2202 23.1634 6.4615Z" stroke="white" stroke-width="2" stroke-linecap="round" stroke-linejoin="round"/>
<path d="M10.3734 15.0615L16.1234 11.7915L10.3734 8.5215V15.0615Z" stroke="white" stroke-width="2" stroke-linecap="round" stroke-linejoin="round"/>
</g>
<defs>
<clipPath id="clip0">
<rect width="24" height="24" fill="white" transform="translate(0.623413 0.0415039)"/>
</clipPath>
</defs>
</svg>
