<svg width="25" height="25" viewBox="0 0 25 25" fill="none" xmlns="http://www.w3.org/2000/svg">
<g clip-path="url(#clip0_7959:30228)">
<path d="M23.1343 6.46297C23.0155 5.98838 22.7736 5.55354 22.433 5.20237C22.0923 4.85121 21.6651 4.59615 21.1943 4.46297C19.4743 4.04297 12.5943 4.04297 12.5943 4.04297C12.5943 4.04297 5.71432 4.04297 3.99432 4.50297C3.52357 4.63615 3.0963 4.89121 2.75567 5.24237C2.41504 5.59354 2.17311 6.02838 2.05432 6.50297C1.73954 8.24852 1.58556 10.0193 1.59432 11.793C1.5831 13.58 1.73709 15.3643 2.05432 17.123C2.18528 17.5828 2.43263 18.0011 2.77247 18.3374C3.1123 18.6738 3.53314 18.9168 3.99432 19.043C5.71432 19.503 12.5943 19.503 12.5943 19.503C12.5943 19.503 19.4743 19.503 21.1943 19.043C21.6651 18.9098 22.0923 18.6547 22.433 18.3036C22.7736 17.9524 23.0155 17.5176 23.1343 17.043C23.4467 15.3106 23.6006 13.5533 23.5943 11.793C23.6055 10.0059 23.4516 8.22167 23.1343 6.46297Z" stroke="#333333" stroke-width="2" stroke-linecap="round" stroke-linejoin="round"/>
<path d="M10.3438 15.0634L16.0938 11.7934L10.3438 8.52344V15.0634Z" stroke="#333333" stroke-width="2" stroke-linecap="round" stroke-linejoin="round"/>
</g>
<defs>
<clipPath id="clip0_7959:30228">
<rect width="24" height="24" fill="white" transform="translate(0.59375 0.0429688)"/>
</clipPath>
</defs>
</svg>
